<svg xmlns="http://www.w3.org/2000/svg" width="527" height="406">
<rect width="100%" height="100%" fill="white"/>
<polygon points="269.34,72.93 309.34,72.93 289.34,107.57" fill="#88b0d8" stroke="#333" stroke-width="1"/>
<polygon points="178.99,111.56 218.99,111.56 198.99,146.20" fill="#88b0d8" stroke="#333" stroke-width="1"/>
<polygon points="88.64,150.20 128.64,150.20 108.64,184.84" fill="#88b0d8" stroke="#333" stroke-width="1"/>
<polygon points="347.98,131.85 387.98,131.85 367.98,166.50" fill="#88b0d8" stroke="#333" stroke-width="1"/>
<polygon points="257.63,170.49 297.63,170.49 277.63,205.13" fill="#88b0d8" stroke="#333" stroke-width="1"/>
<polygon points="167.27,209.13 207.27,209.13 187.27,243.77" fill="#88b0d8" stroke="#333" stroke-width="1"/>
<polygon points="426.62,190.78 466.62,190.78 446.62,225.42" fill="#88b0d8" stroke="#333" stroke-width="1"/>
<polygon points="336.26,229.42 376.26,229.42 356.26,264.06" fill="#88b0d8" stroke="#333" stroke-width="1"/>
<polygon points="245.91,268.06 285.91,268.06 265.91,302.70" fill="#88b0d8" stroke="#333" stroke-width="1"/>
<polygon points="309.34,72.93 269.34,72.93 230.71,83.28 250.71,48.64 261.06,10.00 281.06,44.64" fill="#c0c078" stroke="#333" stroke-width="1"/>
<polygon points="218.99,111.56 178.99,111.56 140.35,121.92 160.35,87.27 170.71,48.64 190.71,83.28" fill="#c0c078" stroke="#333" stroke-width="1"/>
<polygon points="128.64,150.20 88.64,150.20 50.00,160.55 70.00,125.91 80.35,87.27 100.35,121.92" fill="#c0c078" stroke="#333" stroke-width="1"/>
<polygon points="387.98,131.85 347.98,131.85 309.34,142.21 329.34,107.57 339.70,68.93 359.70,103.57" fill="#c0c078" stroke="#333" stroke-width="1"/>
<polygon points="297.63,170.49 257.63,170.49 218.99,180.84 238.99,146.20 249.34,107.57 269.34,142.21" fill="#c0c078" stroke="#333" stroke-width="1"/>
<polygon points="207.27,209.13 167.27,209.13 128.64,219.48 148.64,184.84 158.99,146.20 178.99,180.84" fill="#c0c078" stroke="#333" stroke-width="1"/>
<polygon points="466.62,190.78 426.62,190.78 387.98,201.14 407.98,166.50 418.33,127.86 438.33,162.50" fill="#c0c078" stroke="#333" stroke-width="1"/>
<polygon points="376.26,229.42 336.26,229.42 297.63,239.77 317.63,205.13 327.98,166.50 347.98,201.14" fill="#c0c078" stroke="#333" stroke-width="1"/>
<polygon points="285.91,268.06 245.91,268.06 207.27,278.41 227.27,243.77 237.63,205.13 257.63,239.77" fill="#c0c078" stroke="#333" stroke-width="1"/>
<polygon points="230.71,83.28 269.34,72.93 249.34,107.57 238.99,146.20 218.99,111.56 190.71,83.28" fill="#c0c078" stroke="#333" stroke-width="1"/>
<polygon points="140.35,121.92 178.99,111.56 158.99,146.20 148.64,184.84 128.64,150.20 100.35,121.92" fill="#c0c078" stroke="#333" stroke-width="1"/>
<polygon points="50.00,160.55 88.64,150.20 68.64,184.84 58.28,223.48 38.28,188.84 10.00,160.55" fill="#c0c078" stroke="#333" stroke-width="1"/>
<polygon points="309.34,142.21 347.98,131.85 327.98,166.50 317.63,205.13 297.63,170.49 269.34,142.21" fill="#c0c078" stroke="#333" stroke-width="1"/>
<polygon points="218.99,180.84 257.63,170.49 237.63,205.13 227.27,243.77 207.27,209.13 178.99,180.84" fill="#c0c078" stroke="#333" stroke-width="1"/>
<polygon points="128.64,219.48 167.27,209.13 147.27,243.77 136.92,282.41 116.92,247.77 88.64,219.48" fill="#c0c078" stroke="#333" stroke-width="1"/>
<polygon points="387.98,201.14 426.62,190.78 406.62,225.42 396.26,264.06 376.26,229.42 347.98,201.14" fill="#c0c078" stroke="#333" stroke-width="1"/>
<polygon points="297.63,239.77 336.26,229.42 316.26,264.06 305.91,302.70 285.91,268.06 257.63,239.77" fill="#c0c078" stroke="#333" stroke-width="1"/>
<polygon points="207.27,278.41 245.91,268.06 225.91,302.70 215.56,341.34 195.56,306.69 167.27,278.41" fill="#c0c078" stroke="#333" stroke-width="1"/>
<polygon points="249.34,107.57 269.34,72.93 289.34,107.57" fill="#88b0d8" stroke="#333" stroke-width="1"/>
<polygon points="158.99,146.20 178.99,111.56 198.99,146.20" fill="#88b0d8" stroke="#333" stroke-width="1"/>
<polygon points="68.64,184.84 88.64,150.20 108.64,184.84" fill="#88b0d8" stroke="#333" stroke-width="1"/>
<polygon points="327.98,166.50 347.98,131.85 367.98,166.50" fill="#88b0d8" stroke="#333" stroke-width="1"/>
<polygon points="237.63,205.13 257.63,170.49 277.63,205.13" fill="#88b0d8" stroke="#333" stroke-width="1"/>
<polygon points="147.27,243.77 167.27,209.13 187.27,243.77" fill="#88b0d8" stroke="#333" stroke-width="1"/>
<polygon points="406.62,225.42 426.62,190.78 446.62,225.42" fill="#88b0d8" stroke="#333" stroke-width="1"/>
<polygon points="316.26,264.06 336.26,229.42 356.26,264.06" fill="#88b0d8" stroke="#333" stroke-width="1"/>
<polygon points="225.91,302.70 245.91,268.06 265.91,302.70" fill="#88b0d8" stroke="#333" stroke-width="1"/>
<polygon points="289.34,107.57 309.34,72.93 329.34,107.57" fill="#88b0d8" stroke="#333" stroke-width="1"/>
<polygon points="198.99,146.20 218.99,111.56 238.99,146.20" fill="#88b0d8" stroke="#333" stroke-width="1"/>
<polygon points="108.64,184.84 128.64,150.20 148.64,184.84" fill="#88b0d8" stroke="#333" stroke-width="1"/>
<polygon points="367.98,166.50 387.98,131.85 407.98,166.50" fill="#88b0d8" stroke="#333" stroke-width="1"/>
<polygon points="277.63,205.13 297.63,170.49 317.63,205.13" fill="#88b0d8" stroke="#333" stroke-width="1"/>
<polygon points="187.27,243.77 207.27,209.13 227.27,243.77" fill="#88b0d8" stroke="#333" stroke-width="1"/>
<polygon points="446.62,225.42 466.62,190.78 486.62,225.42" fill="#88b0d8" stroke="#333" stroke-width="1"/>
<polygon points="356.26,264.06 376.26,229.42 396.26,264.06" fill="#88b0d8" stroke="#333" stroke-width="1"/>
<polygon points="265.91,302.70 285.91,268.06 305.91,302.70" fill="#88b0d8" stroke="#333" stroke-width="1"/>
<polygon points="329.34,107.57 309.34,72.93 281.06,44.64 321.06,44.64 359.70,34.29 339.70,68.93" fill="#c0c078" stroke="#333" stroke-width="1"/>
<polygon points="238.99,146.20 218.99,111.56 190.71,83.28 230.71,83.28 269.34,72.93 249.34,107.57" fill="#c0c078" stroke="#333" stroke-width="1"/>
<polygon points="148.64,184.84 128.64,150.20 100.35,121.92 140.35,121.92 178.99,111.56 158.99,146.20" fill="#c0c078" stroke="#333" stroke-width="1"/>
<polygon points="407.98,166.50 387.98,131.85 359.70,103.57 399.70,103.57 438.33,93.22 418.33,127.86" fill="#c0c078" stroke="#333" stroke-width="1"/>
<polygon points="317.63,205.13 297.63,170.49 269.34,142.21 309.34,142.21 347.98,131.85 327.98,166.50" fill="#c0c078" stroke="#333" stroke-width="1"/>
<polygon points="227.27,243.77 207.27,209.13 178.99,180.84 218.99,180.84 257.63,170.49 237.63,205.13" fill="#c0c078" stroke="#333" stroke-width="1"/>
<polygon points="486.62,225.42 466.62,190.78 438.33,162.50 478.33,162.50 516.97,152.15 496.97,186.79" fill="#c0c078" stroke="#333" stroke-width="1"/>
<polygon points="396.26,264.06 376.26,229.42 347.98,201.14 387.98,201.14 426.62,190.78 406.62,225.42" fill="#c0c078" stroke="#333" stroke-width="1"/>
<polygon points="305.91,302.70 285.91,268.06 257.63,239.77 297.63,239.77 336.26,229.42 316.26,264.06" fill="#c0c078" stroke="#333" stroke-width="1"/>
<polygon points="250.71,48.64 230.71,83.28 210.71,48.64" fill="#88b0d8" stroke="#333" stroke-width="1"/>
<polygon points="160.35,87.27 140.35,121.92 120.35,87.27" fill="#88b0d8" stroke="#333" stroke-width="1"/>
<polygon points="70.00,125.91 50.00,160.55 30.00,125.91" fill="#88b0d8" stroke="#333" stroke-width="1"/>
<polygon points="329.34,107.57 309.34,142.21 289.34,107.57" fill="#88b0d8" stroke="#333" stroke-width="1"/>
<polygon points="238.99,146.20 218.99,180.84 198.99,146.20" fill="#88b0d8" stroke="#333" stroke-width="1"/>
<polygon points="148.64,184.84 128.64,219.48 108.64,184.84" fill="#88b0d8" stroke="#333" stroke-width="1"/>
<polygon points="407.98,166.50 387.98,201.14 367.98,166.50" fill="#88b0d8" stroke="#333" stroke-width="1"/>
<polygon points="317.63,205.13 297.63,239.77 277.63,205.13" fill="#88b0d8" stroke="#333" stroke-width="1"/>
<polygon points="227.27,243.77 207.27,278.41 187.27,243.77" fill="#88b0d8" stroke="#333" stroke-width="1"/>
<polygon points="210.71,48.64 230.71,83.28 190.71,83.28" fill="#88b0d8" stroke="#333" stroke-width="1"/>
<polygon points="120.35,87.27 140.35,121.92 100.35,121.92" fill="#88b0d8" stroke="#333" stroke-width="1"/>
<polygon points="30.00,125.91 50.00,160.55 10.00,160.55" fill="#88b0d8" stroke="#333" stroke-width="1"/>
<polygon points="289.34,107.57 309.34,142.21 269.34,142.21" fill="#88b0d8" stroke="#333" stroke-width="1"/>
<polygon points="198.99,146.20 218.99,180.84 178.99,180.84" fill="#88b0d8" stroke="#333" stroke-width="1"/>
<polygon points="108.64,184.84 128.64,219.48 88.64,219.48" fill="#88b0d8" stroke="#333" stroke-width="1"/>
<polygon points="367.98,166.50 387.98,201.14 347.98,201.14" fill="#88b0d8" stroke="#333" stroke-width="1"/>
<polygon points="277.63,205.13 297.63,239.77 257.63,239.77" fill="#88b0d8" stroke="#333" stroke-width="1"/>
<polygon points="187.27,243.77 207.27,278.41 167.27,278.41" fill="#88b0d8" stroke="#333" stroke-width="1"/>
<polygon points="238.99,146.20 249.34,107.57 269.34,142.21 297.63,170.49 257.63,170.49 218.99,180.84" fill="#c0c078" stroke="#333" stroke-width="1"/>
<polygon points="148.64,184.84 158.99,146.20 178.99,180.84 207.27,209.13 167.27,209.13 128.64,219.48" fill="#c0c078" stroke="#333" stroke-width="1"/>
<polygon points="58.28,223.48 68.64,184.84 88.64,219.48 116.92,247.77 76.92,247.77 38.28,258.12" fill="#c0c078" stroke="#333" stroke-width="1"/>
<polygon points="317.63,205.13 327.98,166.50 347.98,201.14 376.26,229.42 336.26,229.42 297.63,239.77" fill="#c0c078" stroke="#333" stroke-width="1"/>
<polygon points="227.27,243.77 237.63,205.13 257.63,239.77 285.91,268.06 245.91,268.06 207.27,278.41" fill="#c0c078" stroke="#333" stroke-width="1"/>
<polygon points="136.92,282.41 147.27,243.77 167.27,278.41 195.56,306.69 155.56,306.69 116.92,317.05" fill="#c0c078" stroke="#333" stroke-width="1"/>
<polygon points="396.26,264.06 406.62,225.42 426.62,260.07 454.90,288.35 414.90,288.35 376.26,298.70" fill="#c0c078" stroke="#333" stroke-width="1"/>
<polygon points="305.91,302.70 316.26,264.06 336.26,298.70 364.55,326.99 324.55,326.99 285.91,337.34" fill="#c0c078" stroke="#333" stroke-width="1"/>
<polygon points="215.56,341.34 225.91,302.70 245.91,337.34 274.20,365.62 234.20,365.62 195.56,375.98" fill="#c0c078" stroke="#333" stroke-width="1"/>
<polygon points="269.34,142.21 249.34,107.57 289.34,107.57" fill="#88b0d8" stroke="#333" stroke-width="1"/>
<polygon points="178.99,180.84 158.99,146.20 198.99,146.20" fill="#88b0d8" stroke="#333" stroke-width="1"/>
<polygon points="88.64,219.48 68.64,184.84 108.64,184.84" fill="#88b0d8" stroke="#333" stroke-width="1"/>
<polygon points="347.98,201.14 327.98,166.50 367.98,166.50" fill="#88b0d8" stroke="#333" stroke-width="1"/>
<polygon points="257.63,239.77 237.63,205.13 277.63,205.13" fill="#88b0d8" stroke="#333" stroke-width="1"/>
<polygon points="167.27,278.41 147.27,243.77 187.27,243.77" fill="#88b0d8" stroke="#333" stroke-width="1"/>
<polygon points="426.62,260.07 406.62,225.42 446.62,225.42" fill="#88b0d8" stroke="#333" stroke-width="1"/>
<polygon points="336.26,298.70 316.26,264.06 356.26,264.06" fill="#88b0d8" stroke="#333" stroke-width="1"/>
<polygon points="245.91,337.34 225.91,302.70 265.91,302.70" fill="#88b0d8" stroke="#333" stroke-width="1"/>
<polygon points="269.34,142.21 289.34,107.57 309.34,142.21" fill="#88b0d8" stroke="#333" stroke-width="1"/>
<polygon points="178.99,180.84 198.99,146.20 218.99,180.84" fill="#88b0d8" stroke="#333" stroke-width="1"/>
<polygon points="88.64,219.48 108.64,184.84 128.64,219.48" fill="#88b0d8" stroke="#333" stroke-width="1"/>
<polygon points="347.98,201.14 367.98,166.50 387.98,201.14" fill="#88b0d8" stroke="#333" stroke-width="1"/>
<polygon points="257.63,239.77 277.63,205.13 297.63,239.77" fill="#88b0d8" stroke="#333" stroke-width="1"/>
<polygon points="167.27,278.41 187.27,243.77 207.27,278.41" fill="#88b0d8" stroke="#333" stroke-width="1"/>
<polygon points="426.62,260.07 446.62,225.42 466.62,260.07" fill="#88b0d8" stroke="#333" stroke-width="1"/>
<polygon points="336.26,298.70 356.26,264.06 376.26,298.70" fill="#88b0d8" stroke="#333" stroke-width="1"/>
<polygon points="245.91,337.34 265.91,302.70 285.91,337.34" fill="#88b0d8" stroke="#333" stroke-width="1"/>
<polygon points="289.34,107.57 329.34,107.57 309.34,142.21" fill="#88b0d8" stroke="#333" stroke-width="1"/>
<polygon points="198.99,146.20 238.99,146.20 218.99,180.84" fill="#88b0d8" stroke="#333" stroke-width="1"/>
<polygon points="108.64,184.84 148.64,184.84 128.64,219.48" fill="#88b0d8" stroke="#333" stroke-width="1"/>
<polygon points="367.98,166.50 407.98,166.50 387.98,201.14" fill="#88b0d8" stroke="#333" stroke-width="1"/>
<polygon points="277.63,205.13 317.63,205.13 297.63,239.77" fill="#88b0d8" stroke="#333" stroke-width="1"/>
<polygon points="187.27,243.77 227.27,243.77 207.27,278.41" fill="#88b0d8" stroke="#333" stroke-width="1"/>
<polygon points="446.62,225.42 486.62,225.42 466.62,260.07" fill="#88b0d8" stroke="#333" stroke-width="1"/>
<polygon points="356.26,264.06 396.26,264.06 376.26,298.70" fill="#88b0d8" stroke="#333" stroke-width="1"/>
<polygon points="265.91,302.70 305.91,302.70 285.91,337.34" fill="#88b0d8" stroke="#333" stroke-width="1"/>
<text x="10" y="398" font-family="monospace" font-size="12">(3*d13,3*p3,3,3)F, (3,3,3,3,3,3)R6</text>
</svg>
