<svg xmlns="http://www.w3.org/2000/svg" width="1089" height="1487">
<rect width="100%" height="100%" fill="white"/>
<polygon points="387.13,248.56 427.13,248.56 427.13,288.56 387.13,288.56" fill="#e8c268" stroke="#333" stroke-width="1"/>
<polygon points="576.41,437.85 616.41,437.85 616.41,477.85 576.41,477.85" fill="#e8c268" stroke="#333" stroke-width="1"/>
<polygon points="765.69,627.13 805.69,627.13 805.69,667.13 765.69,667.13" fill="#e8c268" stroke="#333" stroke-width="1"/>
<polygon points="317.85,507.13 357.85,507.13 357.85,547.13 317.85,547.13" fill="#e8c268" stroke="#333" stroke-width="1"/>
<polygon points="507.13,696.41 547.13,696.41 547.13,736.41 507.13,736.41" fill="#e8c268" stroke="#333" stroke-width="1"/>
<polygon points="696.41,885.69 736.41,885.69 736.41,925.69 696.41,925.69" fill="#e8c268" stroke="#333" stroke-width="1"/>
<polygon points="248.56,765.69 288.56,765.69 288.56,805.69 248.56,805.69" fill="#e8c268" stroke="#333" stroke-width="1"/>
<polygon points="437.85,954.97 477.85,954.97 477.85,994.97 437.85,994.97" fill="#e8c268" stroke="#333" stroke-width="1"/>
<polygon points="627.13,1144.26 667.13,1144.26 667.13,1184.26 627.13,1184.26" fill="#e8c268" stroke="#333" stroke-width="1"/>
<polygon points="427.13,248.56 387.13,248.56 387.13,288.56 352.49,268.56 332.49,303.21 312.49,268.56 277.85,288.56 277.85,248.56 237.85,248.56 257.85,213.92 223.21,193.92 257.85,173.92 237.85,139.28 277.85,139.28 277.85,99.28 312.49,119.28 332.49,84.64 352.49,119.28 387.13,99.28 387.13,139.28 427.13,139.28 407.13,173.92 441.77,193.92 407.13,213.92" fill="#9ecf9e" stroke="#333" stroke-width="1"/>
<polygon points="616.41,437.85 576.41,437.85 576.41,477.85 541.77,457.85 521.77,492.49 501.77,457.85 467.13,477.85 467.13,437.85 427.13,437.85 447.13,403.21 412.49,383.21 447.13,363.21 427.13,328.56 467.13,328.56 467.13,288.56 501.77,308.56 521.77,273.92 541.77,308.56 576.41,288.56 576.41,328.56 616.41,328.56 596.41,363.21 631.05,383.21 596.41,403.21" fill="#9ecf9e" stroke="#333" stroke-width="1"/>
<polygon points="805.69,627.13 765.69,627.13 765.69,667.13 731.05,647.13 711.05,681.77 691.05,647.13 656.41,667.13 656.41,627.13 616.41,627.13 636.41,592.49 601.77,572.49 636.41,552.49 616.41,517.85 656.41,517.85 656.41,477.85 691.05,497.85 711.05,463.21 731.05,497.85 765.69,477.85 765.69,517.85 805.69,517.85 785.69,552.49 820.33,572.49 785.69,592.49" fill="#9ecf9e" stroke="#333" stroke-width="1"/>
<polygon points="357.85,507.13 317.85,507.13 317.85,547.13 283.21,527.13 263.21,561.77 243.21,527.13 208.56,547.13 208.56,507.13 168.56,507.13 188.56,472.49 153.92,452.49 188.56,432.49 168.56,397.85 208.56,397.85 208.56,357.85 243.21,377.85 263.21,343.21 283.21,377.85 317.85,357.85 317.85,397.85 357.85,397.85 337.85,432.49 372.49,452.49 337.85,472.49" fill="#9ecf9e" stroke="#333" stroke-width="1"/>
<polygon points="547.13,696.41 507.13,696.41 507.13,736.41 472.49,716.41 452.49,751.05 432.49,716.41 397.85,736.41 397.85,696.41 357.85,696.41 377.85,661.77 343.21,641.77 377.85,621.77 357.85,587.13 397.85,587.13 397.85,547.13 432.49,567.13 452.49,532.49 472.49,567.13 507.13,547.13 507.13,587.13 547.13,587.13 527.13,621.77 561.77,641.77 527.13,661.77" fill="#9ecf9e" stroke="#333" stroke-width="1"/>
<polygon points="736.41,885.69 696.41,885.69 696.41,925.69 661.77,905.69 641.77,940.33 621.77,905.69 587.13,925.69 587.13,885.69 547.13,885.69 567.13,851.05 532.49,831.05 567.13,811.05 547.13,776.41 587.13,776.41 587.13,736.41 621.77,756.41 641.77,721.77 661.77,756.41 696.41,736.41 696.41,776.41 736.41,776.41 716.41,811.05 751.05,831.05 716.41,851.05" fill="#9ecf9e" stroke="#333" stroke-width="1"/>
<polygon points="288.56,765.69 248.56,765.69 248.56,805.69 213.92,785.69 193.92,820.33 173.92,785.69 139.28,805.69 139.28,765.69 99.28,765.69 119.28,731.05 84.64,711.05 119.28,691.05 99.28,656.41 139.28,656.41 139.28,616.41 173.92,636.41 193.92,601.77 213.92,636.41 248.56,616.41 248.56,656.41 288.56,656.41 268.56,691.05 303.21,711.05 268.56,731.05" fill="#9ecf9e" stroke="#333" stroke-width="1"/>
<polygon points="477.85,954.97 437.85,954.97 437.85,994.97 403.21,974.97 383.21,1009.62 363.21,974.97 328.56,994.97 328.56,954.97 288.56,954.97 308.56,920.33 273.92,900.33 308.56,880.33 288.56,845.69 328.56,845.69 328.56,805.69 363.21,825.69 383.21,791.05 403.21,825.69 437.85,805.69 437.85,845.69 477.85,845.69 457.85,880.33 492.49,900.33 457.85,920.33" fill="#9ecf9e" stroke="#333" stroke-width="1"/>
<polygon points="667.13,1144.26 627.13,1144.26 627.13,1184.26 592.49,1164.26 572.49,1198.90 552.49,1164.26 517.85,1184.26 517.85,1144.26 477.85,1144.26 497.85,1109.62 463.21,1089.62 497.85,1069.62 477.85,1034.97 517.85,1034.97 517.85,994.97 552.49,1014.97 572.49,980.33 592.49,1014.97 627.13,994.97 627.13,1034.97 667.13,1034.97 647.13,1069.62 681.77,1089.62 647.13,1109.62" fill="#9ecf9e" stroke="#333" stroke-width="1"/>
<polygon points="427.13,288.56 427.13,248.56 407.13,213.92 441.77,193.92 461.77,159.28 496.41,179.28 536.41,179.28 536.41,219.28 556.41,253.92 521.77,273.92 501.77,308.56 467.13,288.56" fill="#e89898" stroke="#333" stroke-width="1"/>
<polygon points="616.41,477.85 616.41,437.85 596.41,403.21 631.05,383.21 651.05,348.56 685.69,368.56 725.69,368.56 725.69,408.56 745.69,443.21 711.05,463.21 691.05,497.85 656.41,477.85" fill="#e89898" stroke="#333" stroke-width="1"/>
<polygon points="805.69,667.13 805.69,627.13 785.69,592.49 820.33,572.49 840.33,537.85 874.97,557.85 914.97,557.85 914.97,597.85 934.97,632.49 900.33,652.49 880.33,687.13 845.69,667.13" fill="#e89898" stroke="#333" stroke-width="1"/>
<polygon points="357.85,547.13 357.85,507.13 337.85,472.49 372.49,452.49 392.49,417.85 427.13,437.85 467.13,437.85 467.13,477.85 487.13,512.49 452.49,532.49 432.49,567.13 397.85,547.13" fill="#e89898" stroke="#333" stroke-width="1"/>
<polygon points="547.13,736.41 547.13,696.41 527.13,661.77 561.77,641.77 581.77,607.13 616.41,627.13 656.41,627.13 656.41,667.13 676.41,701.77 641.77,721.77 621.77,756.41 587.13,736.41" fill="#e89898" stroke="#333" stroke-width="1"/>
<polygon points="736.41,925.69 736.41,885.69 716.41,851.05 751.05,831.05 771.05,796.41 805.69,816.41 845.69,816.41 845.69,856.41 865.69,891.05 831.05,911.05 811.05,945.69 776.41,925.69" fill="#e89898" stroke="#333" stroke-width="1"/>
<polygon points="288.56,805.69 288.56,765.69 268.56,731.05 303.21,711.05 323.21,676.41 357.85,696.41 397.85,696.41 397.85,736.41 417.85,771.05 383.21,791.05 363.21,825.69 328.56,805.69" fill="#e89898" stroke="#333" stroke-width="1"/>
<polygon points="477.85,994.97 477.85,954.97 457.85,920.33 492.49,900.33 512.49,865.69 547.13,885.69 587.13,885.69 587.13,925.69 607.13,960.33 572.49,980.33 552.49,1014.97 517.85,994.97" fill="#e89898" stroke="#333" stroke-width="1"/>
<polygon points="667.13,1184.26 667.13,1144.26 647.13,1109.62 681.77,1089.62 701.77,1054.97 736.41,1074.97 776.41,1074.97 776.41,1114.97 796.41,1149.62 761.77,1169.62 741.77,1204.26 707.13,1184.26" fill="#e89898" stroke="#333" stroke-width="1"/>
<polygon points="352.49,268.56 387.13,288.56 427.13,288.56 427.13,328.56 447.13,363.21 412.49,383.21 392.49,417.85 357.85,397.85 317.85,397.85 317.85,357.85 297.85,323.21 332.49,303.21" fill="#e89898" stroke="#333" stroke-width="1"/>
<polygon points="541.77,457.85 576.41,477.85 616.41,477.85 616.41,517.85 636.41,552.49 601.77,572.49 581.77,607.13 547.13,587.13 507.13,587.13 507.13,547.13 487.13,512.49 521.77,492.49" fill="#e89898" stroke="#333" stroke-width="1"/>
<polygon points="731.05,647.13 765.69,667.13 805.69,667.13 805.69,707.13 825.69,741.77 791.05,761.77 771.05,796.41 736.41,776.41 696.41,776.41 696.41,736.41 676.41,701.77 711.05,681.77" fill="#e89898" stroke="#333" stroke-width="1"/>
<polygon points="283.21,527.13 317.85,547.13 357.85,547.13 357.85,587.13 377.85,621.77 343.21,641.77 323.21,676.41 288.56,656.41 248.56,656.41 248.56,616.41 228.56,581.77 263.21,561.77" fill="#e89898" stroke="#333" stroke-width="1"/>
<polygon points="472.49,716.41 507.13,736.41 547.13,736.41 547.13,776.41 567.13,811.05 532.49,831.05 512.49,865.69 477.85,845.69 437.85,845.69 437.85,805.69 417.85,771.05 452.49,751.05" fill="#e89898" stroke="#333" stroke-width="1"/>
<polygon points="661.77,905.69 696.41,925.69 736.41,925.69 736.41,965.69 756.41,1000.33 721.77,1020.33 701.77,1054.97 667.13,1034.97 627.13,1034.97 627.13,994.97 607.13,960.33 641.77,940.33" fill="#e89898" stroke="#333" stroke-width="1"/>
<polygon points="213.92,785.69 248.56,805.69 288.56,805.69 288.56,845.69 308.56,880.33 273.92,900.33 253.92,934.97 219.28,914.97 179.28,914.97 179.28,874.97 159.28,840.33 193.92,820.33" fill="#e89898" stroke="#333" stroke-width="1"/>
<polygon points="403.21,974.97 437.85,994.97 477.85,994.97 477.85,1034.97 497.85,1069.62 463.21,1089.62 443.21,1124.26 408.56,1104.26 368.56,1104.26 368.56,1064.26 348.56,1029.62 383.21,1009.62" fill="#e89898" stroke="#333" stroke-width="1"/>
<polygon points="592.49,1164.26 627.13,1184.26 667.13,1184.26 667.13,1224.26 687.13,1258.90 652.49,1278.90 632.49,1313.54 597.85,1293.54 557.85,1293.54 557.85,1253.54 537.85,1218.90 572.49,1198.90" fill="#e89898" stroke="#333" stroke-width="1"/>
<polygon points="427.13,328.56 427.13,288.56 467.13,288.56 467.13,328.56" fill="#e8c268" stroke="#333" stroke-width="1"/>
<polygon points="616.41,517.85 616.41,477.85 656.41,477.85 656.41,517.85" fill="#e8c268" stroke="#333" stroke-width="1"/>
<polygon points="805.69,707.13 805.69,667.13 845.69,667.13 845.69,707.13" fill="#e8c268" stroke="#333" stroke-width="1"/>
<polygon points="357.85,587.13 357.85,547.13 397.85,547.13 397.85,587.13" fill="#e8c268" stroke="#333" stroke-width="1"/>
<polygon points="547.13,776.41 547.13,736.41 587.13,736.41 587.13,776.41" fill="#e8c268" stroke="#333" stroke-width="1"/>
<polygon points="736.41,965.69 736.41,925.69 776.41,925.69 776.41,965.69" fill="#e8c268" stroke="#333" stroke-width="1"/>
<polygon points="288.56,845.69 288.56,805.69 328.56,805.69 328.56,845.69" fill="#e8c268" stroke="#333" stroke-width="1"/>
<polygon points="477.85,1034.97 477.85,994.97 517.85,994.97 517.85,1034.97" fill="#e8c268" stroke="#333" stroke-width="1"/>
<polygon points="667.13,1224.26 667.13,1184.26 707.13,1184.26 707.13,1224.26" fill="#e8c268" stroke="#333" stroke-width="1"/>
<polygon points="447.13,363.21 427.13,328.56 467.13,328.56 467.13,288.56 501.77,308.56 521.77,273.92 541.77,308.56 576.41,288.56 576.41,328.56 616.41,328.56 596.41,363.21 631.05,383.21 596.41,403.21 616.41,437.85 576.41,437.85 576.41,477.85 541.77,457.85 521.77,492.49 501.77,457.85 467.13,477.85 467.13,437.85 427.13,437.85 447.13,403.21 412.49,383.21" fill="#9ecf9e" stroke="#333" stroke-width="1"/>
<polygon points="636.41,552.49 616.41,517.85 656.41,517.85 656.41,477.85 691.05,497.85 711.05,463.21 731.05,497.85 765.69,477.85 765.69,517.85 805.69,517.85 785.69,552.49 820.33,572.49 785.69,592.49 805.69,627.13 765.69,627.13 765.69,667.13 731.05,647.13 711.05,681.77 691.05,647.13 656.41,667.13 656.41,627.13 616.41,627.13 636.41,592.49 601.77,572.49" fill="#9ecf9e" stroke="#333" stroke-width="1"/>
<polygon points="825.69,741.77 805.69,707.13 845.69,707.13 845.69,667.13 880.33,687.13 900.33,652.49 920.33,687.13 954.97,667.13 954.97,707.13 994.97,707.13 974.97,741.77 1009.62,761.77 974.97,781.77 994.97,816.41 954.97,816.41 954.97,856.41 920.33,836.41 900.33,871.05 880.33,836.41 845.69,856.41 845.69,816.41 805.69,816.41 825.69,781.77 791.05,761.77" fill="#9ecf9e" stroke="#333" stroke-width="1"/>
<polygon points="377.85,621.77 357.85,587.13 397.85,587.13 397.85,547.13 432.49,567.13 452.49,532.49 472.49,567.13 507.13,547.13 507.13,587.13 547.13,587.13 527.13,621.77 561.77,641.77 527.13,661.77 547.13,696.41 507.13,696.41 507.13,736.41 472.49,716.41 452.49,751.05 432.49,716.41 397.85,736.41 397.85,696.41 357.85,696.41 377.85,661.77 343.21,641.77" fill="#9ecf9e" stroke="#333" stroke-width="1"/>
<polygon points="567.13,811.05 547.13,776.41 587.13,776.41 587.13,736.41 621.77,756.41 641.77,721.77 661.77,756.41 696.41,736.41 696.41,776.41 736.41,776.41 716.41,811.05 751.05,831.05 716.41,851.05 736.41,885.69 696.41,885.69 696.41,925.69 661.77,905.69 641.77,940.33 621.77,905.69 587.13,925.69 587.13,885.69 547.13,885.69 567.13,851.05 532.49,831.05" fill="#9ecf9e" stroke="#333" stroke-width="1"/>
<polygon points="756.41,1000.33 736.41,965.69 776.41,965.69 776.41,925.69 811.05,945.69 831.05,911.05 851.05,945.69 885.69,925.69 885.69,965.69 925.69,965.69 905.69,1000.33 940.33,1020.33 905.69,1040.33 925.69,1074.97 885.69,1074.97 885.69,1114.97 851.05,1094.97 831.05,1129.62 811.05,1094.97 776.41,1114.97 776.41,1074.97 736.41,1074.97 756.41,1040.33 721.77,1020.33" fill="#9ecf9e" stroke="#333" stroke-width="1"/>
<polygon points="308.56,880.33 288.56,845.69 328.56,845.69 328.56,805.69 363.21,825.69 383.21,791.05 403.21,825.69 437.85,805.69 437.85,845.69 477.85,845.69 457.85,880.33 492.49,900.33 457.85,920.33 477.85,954.97 437.85,954.97 437.85,994.97 403.21,974.97 383.21,1009.62 363.21,974.97 328.56,994.97 328.56,954.97 288.56,954.97 308.56,920.33 273.92,900.33" fill="#9ecf9e" stroke="#333" stroke-width="1"/>
<polygon points="497.85,1069.62 477.85,1034.97 517.85,1034.97 517.85,994.97 552.49,1014.97 572.49,980.33 592.49,1014.97 627.13,994.97 627.13,1034.97 667.13,1034.97 647.13,1069.62 681.77,1089.62 647.13,1109.62 667.13,1144.26 627.13,1144.26 627.13,1184.26 592.49,1164.26 572.49,1198.90 552.49,1164.26 517.85,1184.26 517.85,1144.26 477.85,1144.26 497.85,1109.62 463.21,1089.62" fill="#9ecf9e" stroke="#333" stroke-width="1"/>
<polygon points="687.13,1258.90 667.13,1224.26 707.13,1224.26 707.13,1184.26 741.77,1204.26 761.77,1169.62 781.77,1204.26 816.41,1184.26 816.41,1224.26 856.41,1224.26 836.41,1258.90 871.05,1278.90 836.41,1298.90 856.41,1333.54 816.41,1333.54 816.41,1373.54 781.77,1353.54 761.77,1388.18 741.77,1353.54 707.13,1373.54 707.13,1333.54 667.13,1333.54 687.13,1298.90 652.49,1278.90" fill="#9ecf9e" stroke="#333" stroke-width="1"/>
<polygon points="461.77,159.28 441.77,193.92 407.13,173.92 427.13,139.28" fill="#e8c268" stroke="#333" stroke-width="1"/>
<polygon points="651.05,348.56 631.05,383.21 596.41,363.21 616.41,328.56" fill="#e8c268" stroke="#333" stroke-width="1"/>
<polygon points="840.33,537.85 820.33,572.49 785.69,552.49 805.69,517.85" fill="#e8c268" stroke="#333" stroke-width="1"/>
<polygon points="392.49,417.85 372.49,452.49 337.85,432.49 357.85,397.85" fill="#e8c268" stroke="#333" stroke-width="1"/>
<polygon points="581.77,607.13 561.77,641.77 527.13,621.77 547.13,587.13" fill="#e8c268" stroke="#333" stroke-width="1"/>
<polygon points="771.05,796.41 751.05,831.05 716.41,811.05 736.41,776.41" fill="#e8c268" stroke="#333" stroke-width="1"/>
<polygon points="323.21,676.41 303.21,711.05 268.56,691.05 288.56,656.41" fill="#e8c268" stroke="#333" stroke-width="1"/>
<polygon points="512.49,865.69 492.49,900.33 457.85,880.33 477.85,845.69" fill="#e8c268" stroke="#333" stroke-width="1"/>
<polygon points="701.77,1054.97 681.77,1089.62 647.13,1069.62 667.13,1034.97" fill="#e8c268" stroke="#333" stroke-width="1"/>
<polygon points="312.49,268.56 332.49,303.21 297.85,323.21 277.85,288.56" fill="#e8c268" stroke="#333" stroke-width="1"/>
<polygon points="501.77,457.85 521.77,492.49 487.13,512.49 467.13,477.85" fill="#e8c268" stroke="#333" stroke-width="1"/>
<polygon points="691.05,647.13 711.05,681.77 676.41,701.77 656.41,667.13" fill="#e8c268" stroke="#333" stroke-width="1"/>
<polygon points="243.21,527.13 263.21,561.77 228.56,581.77 208.56,547.13" fill="#e8c268" stroke="#333" stroke-width="1"/>
<polygon points="432.49,716.41 452.49,751.05 417.85,771.05 397.85,736.41" fill="#e8c268" stroke="#333" stroke-width="1"/>
<polygon points="621.77,905.69 641.77,940.33 607.13,960.33 587.13,925.69" fill="#e8c268" stroke="#333" stroke-width="1"/>
<polygon points="173.92,785.69 193.92,820.33 159.28,840.33 139.28,805.69" fill="#e8c268" stroke="#333" stroke-width="1"/>
<polygon points="363.21,974.97 383.21,1009.62 348.56,1029.62 328.56,994.97" fill="#e8c268" stroke="#333" stroke-width="1"/>
<polygon points="552.49,1164.26 572.49,1198.90 537.85,1218.90 517.85,1184.26" fill="#e8c268" stroke="#333" stroke-width="1"/>
<polygon points="496.41,179.28 461.77,159.28 481.77,124.64 516.41,144.64" fill="#e8c268" stroke="#333" stroke-width="1"/>
<polygon points="685.69,368.56 651.05,348.56 671.05,313.92 705.69,333.92" fill="#e8c268" stroke="#333" stroke-width="1"/>
<polygon points="874.97,557.85 840.33,537.85 860.33,503.21 894.97,523.21" fill="#e8c268" stroke="#333" stroke-width="1"/>
<polygon points="427.13,437.85 392.49,417.85 412.49,383.21 447.13,403.21" fill="#e8c268" stroke="#333" stroke-width="1"/>
<polygon points="616.41,627.13 581.77,607.13 601.77,572.49 636.41,592.49" fill="#e8c268" stroke="#333" stroke-width="1"/>
<polygon points="805.69,816.41 771.05,796.41 791.05,761.77 825.69,781.77" fill="#e8c268" stroke="#333" stroke-width="1"/>
<polygon points="357.85,696.41 323.21,676.41 343.21,641.77 377.85,661.77" fill="#e8c268" stroke="#333" stroke-width="1"/>
<polygon points="547.13,885.69 512.49,865.69 532.49,831.05 567.13,851.05" fill="#e8c268" stroke="#333" stroke-width="1"/>
<polygon points="736.41,1074.97 701.77,1054.97 721.77,1020.33 756.41,1040.33" fill="#e8c268" stroke="#333" stroke-width="1"/>
<polygon points="481.77,124.64 461.77,159.28 427.13,139.28 387.13,139.28 387.13,99.28 367.13,64.64 401.77,44.64 421.77,10.00 456.41,30.00 496.41,30.00 496.41,70.00 516.41,104.64" fill="#e89898" stroke="#333" stroke-width="1"/>
<polygon points="671.05,313.92 651.05,348.56 616.41,328.56 576.41,328.56 576.41,288.56 556.41,253.92 591.05,233.92 611.05,199.28 645.69,219.28 685.69,219.28 685.69,259.28 705.69,293.92" fill="#e89898" stroke="#333" stroke-width="1"/>
<polygon points="860.33,503.21 840.33,537.85 805.69,517.85 765.69,517.85 765.69,477.85 745.69,443.21 780.33,423.21 800.33,388.56 834.97,408.56 874.97,408.56 874.97,448.56 894.97,483.21" fill="#e89898" stroke="#333" stroke-width="1"/>
<polygon points="412.49,383.21 392.49,417.85 357.85,397.85 317.85,397.85 317.85,357.85 297.85,323.21 332.49,303.21 352.49,268.56 387.13,288.56 427.13,288.56 427.13,328.56 447.13,363.21" fill="#e89898" stroke="#333" stroke-width="1"/>
<polygon points="601.77,572.49 581.77,607.13 547.13,587.13 507.13,587.13 507.13,547.13 487.13,512.49 521.77,492.49 541.77,457.85 576.41,477.85 616.41,477.85 616.41,517.85 636.41,552.49" fill="#e89898" stroke="#333" stroke-width="1"/>
<polygon points="791.05,761.77 771.05,796.41 736.41,776.41 696.41,776.41 696.41,736.41 676.41,701.77 711.05,681.77 731.05,647.13 765.69,667.13 805.69,667.13 805.69,707.13 825.69,741.77" fill="#e89898" stroke="#333" stroke-width="1"/>
<polygon points="343.21,641.77 323.21,676.41 288.56,656.41 248.56,656.41 248.56,616.41 228.56,581.77 263.21,561.77 283.21,527.13 317.85,547.13 357.85,547.13 357.85,587.13 377.85,621.77" fill="#e89898" stroke="#333" stroke-width="1"/>
<polygon points="532.49,831.05 512.49,865.69 477.85,845.69 437.85,845.69 437.85,805.69 417.85,771.05 452.49,751.05 472.49,716.41 507.13,736.41 547.13,736.41 547.13,776.41 567.13,811.05" fill="#e89898" stroke="#333" stroke-width="1"/>
<polygon points="721.77,1020.33 701.77,1054.97 667.13,1034.97 627.13,1034.97 627.13,994.97 607.13,960.33 641.77,940.33 661.77,905.69 696.41,925.69 736.41,925.69 736.41,965.69 756.41,1000.33" fill="#e89898" stroke="#333" stroke-width="1"/>
<polygon points="277.85,288.56 297.85,323.21 263.21,343.21 243.21,377.85 208.56,357.85 168.56,357.85 168.56,317.85 148.56,283.21 183.21,263.21 203.21,228.56 237.85,248.56 277.85,248.56" fill="#e89898" stroke="#333" stroke-width="1"/>
<polygon points="467.13,477.85 487.13,512.49 452.49,532.49 432.49,567.13 397.85,547.13 357.85,547.13 357.85,507.13 337.85,472.49 372.49,452.49 392.49,417.85 427.13,437.85 467.13,437.85" fill="#e89898" stroke="#333" stroke-width="1"/>
<polygon points="656.41,667.13 676.41,701.77 641.77,721.77 621.77,756.41 587.13,736.41 547.13,736.41 547.13,696.41 527.13,661.77 561.77,641.77 581.77,607.13 616.41,627.13 656.41,627.13" fill="#e89898" stroke="#333" stroke-width="1"/>
<polygon points="208.56,547.13 228.56,581.77 193.92,601.77 173.92,636.41 139.28,616.41 99.28,616.41 99.28,576.41 79.28,541.77 113.92,521.77 133.92,487.13 168.56,507.13 208.56,507.13" fill="#e89898" stroke="#333" stroke-width="1"/>
<polygon points="397.85,736.41 417.85,771.05 383.21,791.05 363.21,825.69 328.56,805.69 288.56,805.69 288.56,765.69 268.56,731.05 303.21,711.05 323.21,676.41 357.85,696.41 397.85,696.41" fill="#e89898" stroke="#333" stroke-width="1"/>
<polygon points="587.13,925.69 607.13,960.33 572.49,980.33 552.49,1014.97 517.85,994.97 477.85,994.97 477.85,954.97 457.85,920.33 492.49,900.33 512.49,865.69 547.13,885.69 587.13,885.69" fill="#e89898" stroke="#333" stroke-width="1"/>
<polygon points="139.28,805.69 159.28,840.33 124.64,860.33 104.64,894.97 70.00,874.97 30.00,874.97 30.00,834.97 10.00,800.33 44.64,780.33 64.64,745.69 99.28,765.69 139.28,765.69" fill="#e89898" stroke="#333" stroke-width="1"/>
<polygon points="328.56,994.97 348.56,1029.62 313.92,1049.62 293.92,1084.26 259.28,1064.26 219.28,1064.26 219.28,1024.26 199.28,989.62 233.92,969.62 253.92,934.97 288.56,954.97 328.56,954.97" fill="#e89898" stroke="#333" stroke-width="1"/>
<polygon points="517.85,1184.26 537.85,1218.90 503.21,1238.90 483.21,1273.54 448.56,1253.54 408.56,1253.54 408.56,1213.54 388.56,1178.90 423.21,1158.90 443.21,1124.26 477.85,1144.26 517.85,1144.26" fill="#e89898" stroke="#333" stroke-width="1"/>
<polygon points="263.21,343.21 297.85,323.21 317.85,357.85 283.21,377.85" fill="#e8c268" stroke="#333" stroke-width="1"/>
<polygon points="452.49,532.49 487.13,512.49 507.13,547.13 472.49,567.13" fill="#e8c268" stroke="#333" stroke-width="1"/>
<polygon points="641.77,721.77 676.41,701.77 696.41,736.41 661.77,756.41" fill="#e8c268" stroke="#333" stroke-width="1"/>
<polygon points="193.92,601.77 228.56,581.77 248.56,616.41 213.92,636.41" fill="#e8c268" stroke="#333" stroke-width="1"/>
<polygon points="383.21,791.05 417.85,771.05 437.85,805.69 403.21,825.69" fill="#e8c268" stroke="#333" stroke-width="1"/>
<polygon points="572.49,980.33 607.13,960.33 627.13,994.97 592.49,1014.97" fill="#e8c268" stroke="#333" stroke-width="1"/>
<polygon points="124.64,860.33 159.28,840.33 179.28,874.97 144.64,894.97" fill="#e8c268" stroke="#333" stroke-width="1"/>
<polygon points="313.92,1049.62 348.56,1029.62 368.56,1064.26 333.92,1084.26" fill="#e8c268" stroke="#333" stroke-width="1"/>
<polygon points="503.21,1238.90 537.85,1218.90 557.85,1253.54 523.21,1273.54" fill="#e8c268" stroke="#333" stroke-width="1"/>
<polygon points="412.49,383.21 447.13,403.21 427.13,437.85 392.49,417.85" fill="#e8c268" stroke="#333" stroke-width="1"/>
<polygon points="601.77,572.49 636.41,592.49 616.41,627.13 581.77,607.13" fill="#e8c268" stroke="#333" stroke-width="1"/>
<polygon points="791.05,761.77 825.69,781.77 805.69,816.41 771.05,796.41" fill="#e8c268" stroke="#333" stroke-width="1"/>
<polygon points="343.21,641.77 377.85,661.77 357.85,696.41 323.21,676.41" fill="#e8c268" stroke="#333" stroke-width="1"/>
<polygon points="532.49,831.05 567.13,851.05 547.13,885.69 512.49,865.69" fill="#e8c268" stroke="#333" stroke-width="1"/>
<polygon points="721.77,1020.33 756.41,1040.33 736.41,1074.97 701.77,1054.97" fill="#e8c268" stroke="#333" stroke-width="1"/>
<polygon points="273.92,900.33 308.56,920.33 288.56,954.97 253.92,934.97" fill="#e8c268" stroke="#333" stroke-width="1"/>
<polygon points="463.21,1089.62 497.85,1109.62 477.85,1144.26 443.21,1124.26" fill="#e8c268" stroke="#333" stroke-width="1"/>
<polygon points="652.49,1278.90 687.13,1298.90 667.13,1333.54 632.49,1313.54" fill="#e8c268" stroke="#333" stroke-width="1"/>
<polygon points="541.77,308.56 521.77,273.92 556.41,253.92 576.41,288.56" fill="#e8c268" stroke="#333" stroke-width="1"/>
<polygon points="731.05,497.85 711.05,463.21 745.69,443.21 765.69,477.85" fill="#e8c268" stroke="#333" stroke-width="1"/>
<polygon points="920.33,687.13 900.33,652.49 934.97,632.49 954.97,667.13" fill="#e8c268" stroke="#333" stroke-width="1"/>
<polygon points="472.49,567.13 452.49,532.49 487.13,512.49 507.13,547.13" fill="#e8c268" stroke="#333" stroke-width="1"/>
<polygon points="661.77,756.41 641.77,721.77 676.41,701.77 696.41,736.41" fill="#e8c268" stroke="#333" stroke-width="1"/>
<polygon points="851.05,945.69 831.05,911.05 865.69,891.05 885.69,925.69" fill="#e8c268" stroke="#333" stroke-width="1"/>
<polygon points="403.21,825.69 383.21,791.05 417.85,771.05 437.85,805.69" fill="#e8c268" stroke="#333" stroke-width="1"/>
<polygon points="592.49,1014.97 572.49,980.33 607.13,960.33 627.13,994.97" fill="#e8c268" stroke="#333" stroke-width="1"/>
<polygon points="781.77,1204.26 761.77,1169.62 796.41,1149.62 816.41,1184.26" fill="#e8c268" stroke="#333" stroke-width="1"/>
<polygon points="536.41,179.28 496.41,179.28 516.41,144.64 481.77,124.64 516.41,104.64 496.41,70.00 536.41,70.00 536.41,30.00 571.05,50.00 591.05,15.36 611.05,50.00 645.69,30.00 645.69,70.00 685.69,70.00 665.69,104.64 700.33,124.64 665.69,144.64 685.69,179.28 645.69,179.28 645.69,219.28 611.05,199.28 591.05,233.92 571.05,199.28 536.41,219.28" fill="#9ecf9e" stroke="#333" stroke-width="1"/>
<polygon points="725.69,368.56 685.69,368.56 705.69,333.92 671.05,313.92 705.69,293.92 685.69,259.28 725.69,259.28 725.69,219.28 760.33,239.28 780.33,204.64 800.33,239.28 834.97,219.28 834.97,259.28 874.97,259.28 854.97,293.92 889.62,313.92 854.97,333.92 874.97,368.56 834.97,368.56 834.97,408.56 800.33,388.56 780.33,423.21 760.33,388.56 725.69,408.56" fill="#9ecf9e" stroke="#333" stroke-width="1"/>
<polygon points="914.97,557.85 874.97,557.85 894.97,523.21 860.33,503.21 894.97,483.21 874.97,448.56 914.97,448.56 914.97,408.56 949.62,428.56 969.62,393.92 989.62,428.56 1024.26,408.56 1024.26,448.56 1064.26,448.56 1044.26,483.21 1078.90,503.21 1044.26,523.21 1064.26,557.85 1024.26,557.85 1024.26,597.85 989.62,577.85 969.62,612.49 949.62,577.85 914.97,597.85" fill="#9ecf9e" stroke="#333" stroke-width="1"/>
<polygon points="467.13,437.85 427.13,437.85 447.13,403.21 412.49,383.21 447.13,363.21 427.13,328.56 467.13,328.56 467.13,288.56 501.77,308.56 521.77,273.92 541.77,308.56 576.41,288.56 576.41,328.56 616.41,328.56 596.41,363.21 631.05,383.21 596.41,403.21 616.41,437.85 576.41,437.85 576.41,477.85 541.77,457.85 521.77,492.49 501.77,457.85 467.13,477.85" fill="#9ecf9e" stroke="#333" stroke-width="1"/>
<polygon points="656.41,627.13 616.41,627.13 636.41,592.49 601.77,572.49 636.41,552.49 616.41,517.85 656.41,517.85 656.41,477.85 691.05,497.85 711.05,463.21 731.05,497.85 765.69,477.85 765.69,517.85 805.69,517.85 785.69,552.49 820.33,572.49 785.69,592.49 805.69,627.13 765.69,627.13 765.69,667.13 731.05,647.13 711.05,681.77 691.05,647.13 656.41,667.13" fill="#9ecf9e" stroke="#333" stroke-width="1"/>
<polygon points="845.69,816.41 805.69,816.41 825.69,781.77 791.05,761.77 825.69,741.77 805.69,707.13 845.69,707.13 845.69,667.13 880.33,687.13 900.33,652.49 920.33,687.13 954.97,667.13 954.97,707.13 994.97,707.13 974.97,741.77 1009.62,761.77 974.97,781.77 994.97,816.41 954.97,816.41 954.97,856.41 920.33,836.41 900.33,871.05 880.33,836.41 845.69,856.41" fill="#9ecf9e" stroke="#333" stroke-width="1"/>
<polygon points="397.85,696.41 357.85,696.41 377.85,661.77 343.21,641.77 377.85,621.77 357.85,587.13 397.85,587.13 397.85,547.13 432.49,567.13 452.49,532.49 472.49,567.13 507.13,547.13 507.13,587.13 547.13,587.13 527.13,621.77 561.77,641.77 527.13,661.77 547.13,696.41 507.13,696.41 507.13,736.41 472.49,716.41 452.49,751.05 432.49,716.41 397.85,736.41" fill="#9ecf9e" stroke="#333" stroke-width="1"/>
<polygon points="587.13,885.69 547.13,885.69 567.13,851.05 532.49,831.05 567.13,811.05 547.13,776.41 587.13,776.41 587.13,736.41 621.77,756.41 641.77,721.77 661.77,756.41 696.41,736.41 696.41,776.41 736.41,776.41 716.41,811.05 751.05,831.05 716.41,851.05 736.41,885.69 696.41,885.69 696.41,925.69 661.77,905.69 641.77,940.33 621.77,905.69 587.13,925.69" fill="#9ecf9e" stroke="#333" stroke-width="1"/>
<polygon points="776.41,1074.97 736.41,1074.97 756.41,1040.33 721.77,1020.33 756.41,1000.33 736.41,965.69 776.41,965.69 776.41,925.69 811.05,945.69 831.05,911.05 851.05,945.69 885.69,925.69 885.69,965.69 925.69,965.69 905.69,1000.33 940.33,1020.33 905.69,1040.33 925.69,1074.97 885.69,1074.97 885.69,1114.97 851.05,1094.97 831.05,1129.62 811.05,1094.97 776.41,1114.97" fill="#9ecf9e" stroke="#333" stroke-width="1"/>
<polygon points="283.21,377.85 317.85,357.85 317.85,397.85 357.85,397.85 337.85,432.49 372.49,452.49 337.85,472.49 357.85,507.13 317.85,507.13 317.85,547.13 283.21,527.13 263.21,561.77 243.21,527.13 208.56,547.13 208.56,507.13 168.56,507.13 188.56,472.49 153.92,452.49 188.56,432.49 168.56,397.85 208.56,397.85 208.56,357.85 243.21,377.85 263.21,343.21" fill="#9ecf9e" stroke="#333" stroke-width="1"/>
<polygon points="472.49,567.13 507.13,547.13 507.13,587.13 547.13,587.13 527.13,621.77 561.77,641.77 527.13,661.77 547.13,696.41 507.13,696.41 507.13,736.41 472.49,716.41 452.49,751.05 432.49,716.41 397.85,736.41 397.85,696.41 357.85,696.41 377.85,661.77 343.21,641.77 377.85,621.77 357.85,587.13 397.85,587.13 397.85,547.13 432.49,567.13 452.49,532.49" fill="#9ecf9e" stroke="#333" stroke-width="1"/>
<polygon points="661.77,756.41 696.41,736.41 696.41,776.41 736.41,776.41 716.41,811.05 751.05,831.05 716.41,851.05 736.41,885.69 696.41,885.69 696.41,925.69 661.77,905.69 641.77,940.33 621.77,905.69 587.13,925.69 587.13,885.69 547.13,885.69 567.13,851.05 532.49,831.05 567.13,811.05 547.13,776.41 587.13,776.41 587.13,736.41 621.77,756.41 641.77,721.77" fill="#9ecf9e" stroke="#333" stroke-width="1"/>
<polygon points="213.92,636.41 248.56,616.41 248.56,656.41 288.56,656.41 268.56,691.05 303.21,711.05 268.56,731.05 288.56,765.69 248.56,765.69 248.56,805.69 213.92,785.69 193.92,820.33 173.92,785.69 139.28,805.69 139.28,765.69 99.28,765.69 119.28,731.05 84.64,711.05 119.28,691.05 99.28,656.41 139.28,656.41 139.28,616.41 173.92,636.41 193.92,601.77" fill="#9ecf9e" stroke="#333" stroke-width="1"/>
<polygon points="403.21,825.69 437.85,805.69 437.85,845.69 477.85,845.69 457.85,880.33 492.49,900.33 457.85,920.33 477.85,954.97 437.85,954.97 437.85,994.97 403.21,974.97 383.21,1009.62 363.21,974.97 328.56,994.97 328.56,954.97 288.56,954.97 308.56,920.33 273.92,900.33 308.56,880.33 288.56,845.69 328.56,845.69 328.56,805.69 363.21,825.69 383.21,791.05" fill="#9ecf9e" stroke="#333" stroke-width="1"/>
<polygon points="592.49,1014.97 627.13,994.97 627.13,1034.97 667.13,1034.97 647.13,1069.62 681.77,1089.62 647.13,1109.62 667.13,1144.26 627.13,1144.26 627.13,1184.26 592.49,1164.26 572.49,1198.90 552.49,1164.26 517.85,1184.26 517.85,1144.26 477.85,1144.26 497.85,1109.62 463.21,1089.62 497.85,1069.62 477.85,1034.97 517.85,1034.97 517.85,994.97 552.49,1014.97 572.49,980.33" fill="#9ecf9e" stroke="#333" stroke-width="1"/>
<polygon points="144.64,894.97 179.28,874.97 179.28,914.97 219.28,914.97 199.28,949.62 233.92,969.62 199.28,989.62 219.28,1024.26 179.28,1024.26 179.28,1064.26 144.64,1044.26 124.64,1078.90 104.64,1044.26 70.00,1064.26 70.00,1024.26 30.00,1024.26 50.00,989.62 15.36,969.62 50.00,949.62 30.00,914.97 70.00,914.97 70.00,874.97 104.64,894.97 124.64,860.33" fill="#9ecf9e" stroke="#333" stroke-width="1"/>
<polygon points="333.92,1084.26 368.56,1064.26 368.56,1104.26 408.56,1104.26 388.56,1138.90 423.21,1158.90 388.56,1178.90 408.56,1213.54 368.56,1213.54 368.56,1253.54 333.92,1233.54 313.92,1268.18 293.92,1233.54 259.28,1253.54 259.28,1213.54 219.28,1213.54 239.28,1178.90 204.64,1158.90 239.28,1138.90 219.28,1104.26 259.28,1104.26 259.28,1064.26 293.92,1084.26 313.92,1049.62" fill="#9ecf9e" stroke="#333" stroke-width="1"/>
<polygon points="523.21,1273.54 557.85,1253.54 557.85,1293.54 597.85,1293.54 577.85,1328.18 612.49,1348.18 577.85,1368.18 597.85,1402.82 557.85,1402.82 557.85,1442.82 523.21,1422.82 503.21,1457.46 483.21,1422.82 448.56,1442.82 448.56,1402.82 408.56,1402.82 428.56,1368.18 393.92,1348.18 428.56,1328.18 408.56,1293.54 448.56,1293.54 448.56,1253.54 483.21,1273.54 503.21,1238.90" fill="#9ecf9e" stroke="#333" stroke-width="1"/>
<text x="10" y="1479" font-family="monospace" font-size="12">(12*d18,4)A, (12*p4,6*d14,4)F, (6*p6,4,6*p6,4)S2, (12*d18,6*p6)A</text>
</svg>
