<svg xmlns="http://www.w3.org/2000/svg" width="422" height="369">
<rect width="100%" height="100%" fill="white"/>
<polygon points="99.28,115.36 139.28,115.36 119.28,150.00" fill="#88b0d8" stroke="#333" stroke-width="1"/>
<polygon points="193.92,90.00 233.92,90.00 213.92,124.64" fill="#88b0d8" stroke="#333" stroke-width="1"/>
<polygon points="288.56,64.64 328.56,64.64 308.56,99.28" fill="#88b0d8" stroke="#333" stroke-width="1"/>
<polygon points="113.92,170.00 153.92,170.00 133.92,204.64" fill="#88b0d8" stroke="#333" stroke-width="1"/>
<polygon points="208.56,144.64 248.56,144.64 228.56,179.28" fill="#88b0d8" stroke="#333" stroke-width="1"/>
<polygon points="303.21,119.28 343.21,119.28 323.21,153.92" fill="#88b0d8" stroke="#333" stroke-width="1"/>
<polygon points="128.56,224.64 168.56,224.64 148.56,259.28" fill="#88b0d8" stroke="#333" stroke-width="1"/>
<polygon points="223.21,199.28 263.21,199.28 243.21,233.92" fill="#88b0d8" stroke="#333" stroke-width="1"/>
<polygon points="317.85,173.92 357.85,173.92 337.85,208.56" fill="#88b0d8" stroke="#333" stroke-width="1"/>
<polygon points="139.28,115.36 99.28,115.36 64.64,135.36 84.64,100.72 84.64,60.72 104.64,95.36" fill="#e0a070" stroke="#333" stroke-width="1"/>
<polygon points="233.92,90.00 193.92,90.00 159.28,110.00 179.28,75.36 179.28,35.36 199.28,70.00" fill="#e0a070" stroke="#333" stroke-width="1"/>
<polygon points="328.56,64.64 288.56,64.64 253.92,84.64 273.92,50.00 273.92,10.00 293.92,44.64" fill="#e0a070" stroke="#333" stroke-width="1"/>
<polygon points="153.92,170.00 113.92,170.00 79.28,190.00 99.28,155.36 99.28,115.36 119.28,150.00" fill="#e0a070" stroke="#333" stroke-width="1"/>
<polygon points="248.56,144.64 208.56,144.64 173.92,164.64 193.92,130.00 193.92,90.00 213.92,124.64" fill="#e0a070" stroke="#333" stroke-width="1"/>
<polygon points="343.21,119.28 303.21,119.28 268.56,139.28 288.56,104.64 288.56,64.64 308.56,99.28" fill="#e0a070" stroke="#333" stroke-width="1"/>
<polygon points="168.56,224.64 128.56,224.64 93.92,244.64 113.92,210.00 113.92,170.00 133.92,204.64" fill="#e0a070" stroke="#333" stroke-width="1"/>
<polygon points="263.21,199.28 223.21,199.28 188.56,219.28 208.56,184.64 208.56,144.64 228.56,179.28" fill="#e0a070" stroke="#333" stroke-width="1"/>
<polygon points="357.85,173.92 317.85,173.92 283.21,193.92 303.21,159.28 303.21,119.28 323.21,153.92" fill="#e0a070" stroke="#333" stroke-width="1"/>
<polygon points="64.64,135.36 99.28,115.36 99.28,155.36" fill="#88b0d8" stroke="#333" stroke-width="1"/>
<polygon points="159.28,110.00 193.92,90.00 193.92,130.00" fill="#88b0d8" stroke="#333" stroke-width="1"/>
<polygon points="253.92,84.64 288.56,64.64 288.56,104.64" fill="#88b0d8" stroke="#333" stroke-width="1"/>
<polygon points="79.28,190.00 113.92,170.00 113.92,210.00" fill="#88b0d8" stroke="#333" stroke-width="1"/>
<polygon points="173.92,164.64 208.56,144.64 208.56,184.64" fill="#88b0d8" stroke="#333" stroke-width="1"/>
<polygon points="268.56,139.28 303.21,119.28 303.21,159.28" fill="#88b0d8" stroke="#333" stroke-width="1"/>
<polygon points="93.92,244.64 128.56,224.64 128.56,264.64" fill="#88b0d8" stroke="#333" stroke-width="1"/>
<polygon points="188.56,219.28 223.21,199.28 223.21,239.28" fill="#88b0d8" stroke="#333" stroke-width="1"/>
<polygon points="283.21,193.92 317.85,173.92 317.85,213.92" fill="#88b0d8" stroke="#333" stroke-width="1"/>
<polygon points="99.28,155.36 99.28,115.36 119.28,150.00 153.92,170.00 113.92,170.00 79.28,190.00" fill="#e0a070" stroke="#333" stroke-width="1"/>
<polygon points="193.92,130.00 193.92,90.00 213.92,124.64 248.56,144.64 208.56,144.64 173.92,164.64" fill="#e0a070" stroke="#333" stroke-width="1"/>
<polygon points="288.56,104.64 288.56,64.64 308.56,99.28 343.21,119.28 303.21,119.28 268.56,139.28" fill="#e0a070" stroke="#333" stroke-width="1"/>
<polygon points="113.92,210.00 113.92,170.00 133.92,204.64 168.56,224.64 128.56,224.64 93.92,244.64" fill="#e0a070" stroke="#333" stroke-width="1"/>
<polygon points="208.56,184.64 208.56,144.64 228.56,179.28 263.21,199.28 223.21,199.28 188.56,219.28" fill="#e0a070" stroke="#333" stroke-width="1"/>
<polygon points="303.21,159.28 303.21,119.28 323.21,153.92 357.85,173.92 317.85,173.92 283.21,193.92" fill="#e0a070" stroke="#333" stroke-width="1"/>
<polygon points="128.56,264.64 128.56,224.64 148.56,259.28 183.21,279.28 143.21,279.28 108.56,299.28" fill="#e0a070" stroke="#333" stroke-width="1"/>
<polygon points="223.21,239.28 223.21,199.28 243.21,233.92 277.85,253.92 237.85,253.92 203.21,273.92" fill="#e0a070" stroke="#333" stroke-width="1"/>
<polygon points="317.85,213.92 317.85,173.92 337.85,208.56 372.49,228.56 332.49,228.56 297.85,248.56" fill="#e0a070" stroke="#333" stroke-width="1"/>
<polygon points="119.28,150.00 139.28,115.36 159.28,150.00" fill="#88b0d8" stroke="#333" stroke-width="1"/>
<polygon points="213.92,124.64 233.92,90.00 253.92,124.64" fill="#88b0d8" stroke="#333" stroke-width="1"/>
<polygon points="308.56,99.28 328.56,64.64 348.56,99.28" fill="#88b0d8" stroke="#333" stroke-width="1"/>
<polygon points="133.92,204.64 153.92,170.00 173.92,204.64" fill="#88b0d8" stroke="#333" stroke-width="1"/>
<polygon points="228.56,179.28 248.56,144.64 268.56,179.28" fill="#88b0d8" stroke="#333" stroke-width="1"/>
<polygon points="323.21,153.92 343.21,119.28 363.21,153.92" fill="#88b0d8" stroke="#333" stroke-width="1"/>
<polygon points="148.56,259.28 168.56,224.64 188.56,259.28" fill="#88b0d8" stroke="#333" stroke-width="1"/>
<polygon points="243.21,233.92 263.21,199.28 283.21,233.92" fill="#88b0d8" stroke="#333" stroke-width="1"/>
<polygon points="337.85,208.56 357.85,173.92 377.85,208.56" fill="#88b0d8" stroke="#333" stroke-width="1"/>
<polygon points="159.28,150.00 139.28,115.36 104.64,95.36 144.64,95.36 179.28,75.36 159.28,110.00" fill="#e0a070" stroke="#333" stroke-width="1"/>
<polygon points="253.92,124.64 233.92,90.00 199.28,70.00 239.28,70.00 273.92,50.00 253.92,84.64" fill="#e0a070" stroke="#333" stroke-width="1"/>
<polygon points="348.56,99.28 328.56,64.64 293.92,44.64 333.92,44.64 368.56,24.64 348.56,59.28" fill="#e0a070" stroke="#333" stroke-width="1"/>
<polygon points="173.92,204.64 153.92,170.00 119.28,150.00 159.28,150.00 193.92,130.00 173.92,164.64" fill="#e0a070" stroke="#333" stroke-width="1"/>
<polygon points="268.56,179.28 248.56,144.64 213.92,124.64 253.92,124.64 288.56,104.64 268.56,139.28" fill="#e0a070" stroke="#333" stroke-width="1"/>
<polygon points="363.21,153.92 343.21,119.28 308.56,99.28 348.56,99.28 383.21,79.28 363.21,113.92" fill="#e0a070" stroke="#333" stroke-width="1"/>
<polygon points="188.56,259.28 168.56,224.64 133.92,204.64 173.92,204.64 208.56,184.64 188.56,219.28" fill="#e0a070" stroke="#333" stroke-width="1"/>
<polygon points="283.21,233.92 263.21,199.28 228.56,179.28 268.56,179.28 303.21,159.28 283.21,193.92" fill="#e0a070" stroke="#333" stroke-width="1"/>
<polygon points="377.85,208.56 357.85,173.92 323.21,153.92 363.21,153.92 397.85,133.92 377.85,168.56" fill="#e0a070" stroke="#333" stroke-width="1"/>
<polygon points="84.64,100.72 64.64,135.36 64.64,175.36 44.64,140.72 10.00,120.72 50.00,120.72" fill="#e0a070" stroke="#333" stroke-width="1"/>
<polygon points="179.28,75.36 159.28,110.00 159.28,150.00 139.28,115.36 104.64,95.36 144.64,95.36" fill="#e0a070" stroke="#333" stroke-width="1"/>
<polygon points="273.92,50.00 253.92,84.64 253.92,124.64 233.92,90.00 199.28,70.00 239.28,70.00" fill="#e0a070" stroke="#333" stroke-width="1"/>
<polygon points="99.28,155.36 79.28,190.00 79.28,230.00 59.28,195.36 24.64,175.36 64.64,175.36" fill="#e0a070" stroke="#333" stroke-width="1"/>
<polygon points="193.92,130.00 173.92,164.64 173.92,204.64 153.92,170.00 119.28,150.00 159.28,150.00" fill="#e0a070" stroke="#333" stroke-width="1"/>
<polygon points="288.56,104.64 268.56,139.28 268.56,179.28 248.56,144.64 213.92,124.64 253.92,124.64" fill="#e0a070" stroke="#333" stroke-width="1"/>
<polygon points="113.92,210.00 93.92,244.64 93.92,284.64 73.92,250.00 39.28,230.00 79.28,230.00" fill="#e0a070" stroke="#333" stroke-width="1"/>
<polygon points="208.56,184.64 188.56,219.28 188.56,259.28 168.56,224.64 133.92,204.64 173.92,204.64" fill="#e0a070" stroke="#333" stroke-width="1"/>
<polygon points="303.21,159.28 283.21,193.92 283.21,233.92 263.21,199.28 228.56,179.28 268.56,179.28" fill="#e0a070" stroke="#333" stroke-width="1"/>
<polygon points="64.64,175.36 64.64,135.36 99.28,155.36" fill="#88b0d8" stroke="#333" stroke-width="1"/>
<polygon points="159.28,150.00 159.28,110.00 193.92,130.00" fill="#88b0d8" stroke="#333" stroke-width="1"/>
<polygon points="253.92,124.64 253.92,84.64 288.56,104.64" fill="#88b0d8" stroke="#333" stroke-width="1"/>
<polygon points="79.28,230.00 79.28,190.00 113.92,210.00" fill="#88b0d8" stroke="#333" stroke-width="1"/>
<polygon points="173.92,204.64 173.92,164.64 208.56,184.64" fill="#88b0d8" stroke="#333" stroke-width="1"/>
<polygon points="268.56,179.28 268.56,139.28 303.21,159.28" fill="#88b0d8" stroke="#333" stroke-width="1"/>
<polygon points="93.92,284.64 93.92,244.64 128.56,264.64" fill="#88b0d8" stroke="#333" stroke-width="1"/>
<polygon points="188.56,259.28 188.56,219.28 223.21,239.28" fill="#88b0d8" stroke="#333" stroke-width="1"/>
<polygon points="283.21,233.92 283.21,193.92 317.85,213.92" fill="#88b0d8" stroke="#333" stroke-width="1"/>
<polygon points="64.64,175.36 99.28,155.36 79.28,190.00 79.28,230.00 59.28,195.36 24.64,175.36" fill="#e0a070" stroke="#333" stroke-width="1"/>
<polygon points="159.28,150.00 193.92,130.00 173.92,164.64 173.92,204.64 153.92,170.00 119.28,150.00" fill="#e0a070" stroke="#333" stroke-width="1"/>
<polygon points="253.92,124.64 288.56,104.64 268.56,139.28 268.56,179.28 248.56,144.64 213.92,124.64" fill="#e0a070" stroke="#333" stroke-width="1"/>
<polygon points="79.28,230.00 113.92,210.00 93.92,244.64 93.92,284.64 73.92,250.00 39.28,230.00" fill="#e0a070" stroke="#333" stroke-width="1"/>
<polygon points="173.92,204.64 208.56,184.64 188.56,219.28 188.56,259.28 168.56,224.64 133.92,204.64" fill="#e0a070" stroke="#333" stroke-width="1"/>
<polygon points="268.56,179.28 303.21,159.28 283.21,193.92 283.21,233.92 263.21,199.28 228.56,179.28" fill="#e0a070" stroke="#333" stroke-width="1"/>
<polygon points="93.92,284.64 128.56,264.64 108.56,299.28 108.56,339.28 88.56,304.64 53.92,284.64" fill="#e0a070" stroke="#333" stroke-width="1"/>
<polygon points="188.56,259.28 223.21,239.28 203.21,273.92 203.21,313.92 183.21,279.28 148.56,259.28" fill="#e0a070" stroke="#333" stroke-width="1"/>
<polygon points="283.21,233.92 317.85,213.92 297.85,248.56 297.85,288.56 277.85,253.92 243.21,233.92" fill="#e0a070" stroke="#333" stroke-width="1"/>
<polygon points="119.28,150.00 159.28,150.00 193.92,130.00 173.92,164.64 173.92,204.64 153.92,170.00" fill="#e0a070" stroke="#333" stroke-width="1"/>
<polygon points="213.92,124.64 253.92,124.64 288.56,104.64 268.56,139.28 268.56,179.28 248.56,144.64" fill="#e0a070" stroke="#333" stroke-width="1"/>
<polygon points="308.56,99.28 348.56,99.28 383.21,79.28 363.21,113.92 363.21,153.92 343.21,119.28" fill="#e0a070" stroke="#333" stroke-width="1"/>
<polygon points="133.92,204.64 173.92,204.64 208.56,184.64 188.56,219.28 188.56,259.28 168.56,224.64" fill="#e0a070" stroke="#333" stroke-width="1"/>
<polygon points="228.56,179.28 268.56,179.28 303.21,159.28 283.21,193.92 283.21,233.92 263.21,199.28" fill="#e0a070" stroke="#333" stroke-width="1"/>
<polygon points="323.21,153.92 363.21,153.92 397.85,133.92 377.85,168.56 377.85,208.56 357.85,173.92" fill="#e0a070" stroke="#333" stroke-width="1"/>
<polygon points="148.56,259.28 188.56,259.28 223.21,239.28 203.21,273.92 203.21,313.92 183.21,279.28" fill="#e0a070" stroke="#333" stroke-width="1"/>
<polygon points="243.21,233.92 283.21,233.92 317.85,213.92 297.85,248.56 297.85,288.56 277.85,253.92" fill="#e0a070" stroke="#333" stroke-width="1"/>
<polygon points="337.85,208.56 377.85,208.56 412.49,188.56 392.49,223.21 392.49,263.21 372.49,228.56" fill="#e0a070" stroke="#333" stroke-width="1"/>
<text x="10" y="361" font-family="monospace" font-size="12">(3*d14,3,3*p2,3)A, (3*d14,3*p2,3,3)F</text>
</svg>
