<svg xmlns="http://www.w3.org/2000/svg" width="378" height="351">
<rect width="100%" height="100%" fill="white"/>
<polygon points="86.57,119.55 126.57,119.55 106.57,154.20" fill="#88b0d8" stroke="#333" stroke-width="1"/>
<polygon points="164.50,87.27 204.50,87.27 184.50,121.92" fill="#88b0d8" stroke="#333" stroke-width="1"/>
<polygon points="242.43,54.99 282.43,54.99 262.43,89.63" fill="#88b0d8" stroke="#333" stroke-width="1"/>
<polygon points="105.21,164.55 145.21,164.55 125.21,199.19" fill="#88b0d8" stroke="#333" stroke-width="1"/>
<polygon points="183.14,132.27 223.14,132.27 203.14,166.91" fill="#88b0d8" stroke="#333" stroke-width="1"/>
<polygon points="261.07,99.99 301.07,99.99 281.07,134.63" fill="#88b0d8" stroke="#333" stroke-width="1"/>
<polygon points="123.84,209.54 163.84,209.54 143.84,244.18" fill="#88b0d8" stroke="#333" stroke-width="1"/>
<polygon points="201.77,177.26 241.77,177.26 221.77,211.90" fill="#88b0d8" stroke="#333" stroke-width="1"/>
<polygon points="279.71,144.98 319.71,144.98 299.71,179.62" fill="#88b0d8" stroke="#333" stroke-width="1"/>
<polygon points="126.57,119.55 86.57,119.55 58.28,147.84 78.28,113.20 67.93,74.56 87.93,109.20" fill="#7fc4c4" stroke="#333" stroke-width="1"/>
<polygon points="204.50,87.27 164.50,87.27 136.22,115.56 156.22,80.92 145.86,42.28 165.86,76.92" fill="#7fc4c4" stroke="#333" stroke-width="1"/>
<polygon points="282.43,54.99 242.43,54.99 214.15,83.28 234.15,48.64 223.79,10.00 243.79,44.64" fill="#7fc4c4" stroke="#333" stroke-width="1"/>
<polygon points="145.21,164.55 105.21,164.55 76.92,192.83 96.92,158.19 86.57,119.55 106.57,154.20" fill="#7fc4c4" stroke="#333" stroke-width="1"/>
<polygon points="223.14,132.27 183.14,132.27 154.85,160.55 174.85,125.91 164.50,87.27 184.50,121.92" fill="#7fc4c4" stroke="#333" stroke-width="1"/>
<polygon points="301.07,99.99 261.07,99.99 232.78,128.27 252.78,93.63 242.43,54.99 262.43,89.63" fill="#7fc4c4" stroke="#333" stroke-width="1"/>
<polygon points="163.84,209.54 123.84,209.54 95.56,237.83 115.56,203.19 105.21,164.55 125.21,199.19" fill="#7fc4c4" stroke="#333" stroke-width="1"/>
<polygon points="241.77,177.26 201.77,177.26 173.49,205.55 193.49,170.90 183.14,132.27 203.14,166.91" fill="#7fc4c4" stroke="#333" stroke-width="1"/>
<polygon points="319.71,144.98 279.71,144.98 251.42,173.27 271.42,138.62 261.07,99.99 281.07,134.63" fill="#7fc4c4" stroke="#333" stroke-width="1"/>
<polygon points="58.28,147.84 86.57,119.55 96.92,158.19" fill="#88b0d8" stroke="#333" stroke-width="1"/>
<polygon points="136.22,115.56 164.50,87.27 174.85,125.91" fill="#88b0d8" stroke="#333" stroke-width="1"/>
<polygon points="214.15,83.28 242.43,54.99 252.78,93.63" fill="#88b0d8" stroke="#333" stroke-width="1"/>
<polygon points="76.92,192.83 105.21,164.55 115.56,203.19" fill="#88b0d8" stroke="#333" stroke-width="1"/>
<polygon points="154.85,160.55 183.14,132.27 193.49,170.90" fill="#88b0d8" stroke="#333" stroke-width="1"/>
<polygon points="232.78,128.27 261.07,99.99 271.42,138.62" fill="#88b0d8" stroke="#333" stroke-width="1"/>
<polygon points="95.56,237.83 123.84,209.54 134.20,248.18" fill="#88b0d8" stroke="#333" stroke-width="1"/>
<polygon points="173.49,205.55 201.77,177.26 212.13,215.90" fill="#88b0d8" stroke="#333" stroke-width="1"/>
<polygon points="251.42,173.27 279.71,144.98 290.06,183.62" fill="#88b0d8" stroke="#333" stroke-width="1"/>
<polygon points="96.92,158.19 86.57,119.55 106.57,154.20 145.21,164.55 105.21,164.55 76.92,192.83" fill="#7fc4c4" stroke="#333" stroke-width="1"/>
<polygon points="174.85,125.91 164.50,87.27 184.50,121.92 223.14,132.27 183.14,132.27 154.85,160.55" fill="#7fc4c4" stroke="#333" stroke-width="1"/>
<polygon points="252.78,93.63 242.43,54.99 262.43,89.63 301.07,99.99 261.07,99.99 232.78,128.27" fill="#7fc4c4" stroke="#333" stroke-width="1"/>
<polygon points="115.56,203.19 105.21,164.55 125.21,199.19 163.84,209.54 123.84,209.54 95.56,237.83" fill="#7fc4c4" stroke="#333" stroke-width="1"/>
<polygon points="193.49,170.90 183.14,132.27 203.14,166.91 241.77,177.26 201.77,177.26 173.49,205.55" fill="#7fc4c4" stroke="#333" stroke-width="1"/>
<polygon points="271.42,138.62 261.07,99.99 281.07,134.63 319.71,144.98 279.71,144.98 251.42,173.27" fill="#7fc4c4" stroke="#333" stroke-width="1"/>
<polygon points="134.20,248.18 123.84,209.54 143.84,244.18 182.48,254.54 142.48,254.54 114.20,282.82" fill="#7fc4c4" stroke="#333" stroke-width="1"/>
<polygon points="212.13,215.90 201.77,177.26 221.77,211.90 260.41,222.26 220.41,222.26 192.13,250.54" fill="#7fc4c4" stroke="#333" stroke-width="1"/>
<polygon points="290.06,183.62 279.71,144.98 299.71,179.62 338.34,189.98 298.34,189.98 270.06,218.26" fill="#7fc4c4" stroke="#333" stroke-width="1"/>
<polygon points="106.57,154.20 126.57,119.55 146.57,154.20" fill="#88b0d8" stroke="#333" stroke-width="1"/>
<polygon points="184.50,121.92 204.50,87.27 224.50,121.92" fill="#88b0d8" stroke="#333" stroke-width="1"/>
<polygon points="262.43,89.63 282.43,54.99 302.43,89.63" fill="#88b0d8" stroke="#333" stroke-width="1"/>
<polygon points="125.21,199.19 145.21,164.55 165.21,199.19" fill="#88b0d8" stroke="#333" stroke-width="1"/>
<polygon points="203.14,166.91 223.14,132.27 243.14,166.91" fill="#88b0d8" stroke="#333" stroke-width="1"/>
<polygon points="281.07,134.63 301.07,99.99 321.07,134.63" fill="#88b0d8" stroke="#333" stroke-width="1"/>
<polygon points="143.84,244.18 163.84,209.54 183.84,244.18" fill="#88b0d8" stroke="#333" stroke-width="1"/>
<polygon points="221.77,211.90 241.77,177.26 261.77,211.90" fill="#88b0d8" stroke="#333" stroke-width="1"/>
<polygon points="299.71,179.62 319.71,144.98 339.71,179.62" fill="#88b0d8" stroke="#333" stroke-width="1"/>
<polygon points="146.57,154.20 126.57,119.55 87.93,109.20 127.93,109.20 156.22,80.92 136.22,115.56" fill="#7fc4c4" stroke="#333" stroke-width="1"/>
<polygon points="224.50,121.92 204.50,87.27 165.86,76.92 205.86,76.92 234.15,48.64 214.15,83.28" fill="#7fc4c4" stroke="#333" stroke-width="1"/>
<polygon points="302.43,89.63 282.43,54.99 243.79,44.64 283.79,44.64 312.08,16.36 292.08,51.00" fill="#7fc4c4" stroke="#333" stroke-width="1"/>
<polygon points="165.21,199.19 145.21,164.55 106.57,154.20 146.57,154.20 174.85,125.91 154.85,160.55" fill="#7fc4c4" stroke="#333" stroke-width="1"/>
<polygon points="243.14,166.91 223.14,132.27 184.50,121.92 224.50,121.92 252.78,93.63 232.78,128.27" fill="#7fc4c4" stroke="#333" stroke-width="1"/>
<polygon points="321.07,134.63 301.07,99.99 262.43,89.63 302.43,89.63 330.72,61.35 310.72,95.99" fill="#7fc4c4" stroke="#333" stroke-width="1"/>
<polygon points="183.84,244.18 163.84,209.54 125.21,199.19 165.21,199.19 193.49,170.90 173.49,205.55" fill="#7fc4c4" stroke="#333" stroke-width="1"/>
<polygon points="261.77,211.90 241.77,177.26 203.14,166.91 243.14,166.91 271.42,138.62 251.42,173.27" fill="#7fc4c4" stroke="#333" stroke-width="1"/>
<polygon points="339.71,179.62 319.71,144.98 281.07,134.63 321.07,134.63 349.35,106.34 329.35,140.99" fill="#7fc4c4" stroke="#333" stroke-width="1"/>
<polygon points="78.28,113.20 58.28,147.84 68.64,186.48 48.64,151.83 10.00,141.48 50.00,141.48" fill="#7fc4c4" stroke="#333" stroke-width="1"/>
<polygon points="156.22,80.92 136.22,115.56 146.57,154.20 126.57,119.55 87.93,109.20 127.93,109.20" fill="#7fc4c4" stroke="#333" stroke-width="1"/>
<polygon points="234.15,48.64 214.15,83.28 224.50,121.92 204.50,87.27 165.86,76.92 205.86,76.92" fill="#7fc4c4" stroke="#333" stroke-width="1"/>
<polygon points="96.92,158.19 76.92,192.83 87.27,231.47 67.27,196.83 28.64,186.48 68.64,186.48" fill="#7fc4c4" stroke="#333" stroke-width="1"/>
<polygon points="174.85,125.91 154.85,160.55 165.21,199.19 145.21,164.55 106.57,154.20 146.57,154.20" fill="#7fc4c4" stroke="#333" stroke-width="1"/>
<polygon points="252.78,93.63 232.78,128.27 243.14,166.91 223.14,132.27 184.50,121.92 224.50,121.92" fill="#7fc4c4" stroke="#333" stroke-width="1"/>
<polygon points="115.56,203.19 95.56,237.83 105.91,276.46 85.91,241.82 47.27,231.47 87.27,231.47" fill="#7fc4c4" stroke="#333" stroke-width="1"/>
<polygon points="193.49,170.90 173.49,205.55 183.84,244.18 163.84,209.54 125.21,199.19 165.21,199.19" fill="#7fc4c4" stroke="#333" stroke-width="1"/>
<polygon points="271.42,138.62 251.42,173.27 261.77,211.90 241.77,177.26 203.14,166.91 243.14,166.91" fill="#7fc4c4" stroke="#333" stroke-width="1"/>
<polygon points="68.64,186.48 58.28,147.84 96.92,158.19" fill="#88b0d8" stroke="#333" stroke-width="1"/>
<polygon points="146.57,154.20 136.22,115.56 174.85,125.91" fill="#88b0d8" stroke="#333" stroke-width="1"/>
<polygon points="224.50,121.92 214.15,83.28 252.78,93.63" fill="#88b0d8" stroke="#333" stroke-width="1"/>
<polygon points="87.27,231.47 76.92,192.83 115.56,203.19" fill="#88b0d8" stroke="#333" stroke-width="1"/>
<polygon points="165.21,199.19 154.85,160.55 193.49,170.90" fill="#88b0d8" stroke="#333" stroke-width="1"/>
<polygon points="243.14,166.91 232.78,128.27 271.42,138.62" fill="#88b0d8" stroke="#333" stroke-width="1"/>
<polygon points="105.91,276.46 95.56,237.83 134.20,248.18" fill="#88b0d8" stroke="#333" stroke-width="1"/>
<polygon points="183.84,244.18 173.49,205.55 212.13,215.90" fill="#88b0d8" stroke="#333" stroke-width="1"/>
<polygon points="261.77,211.90 251.42,173.27 290.06,183.62" fill="#88b0d8" stroke="#333" stroke-width="1"/>
<polygon points="68.64,186.48 96.92,158.19 76.92,192.83 87.27,231.47 67.27,196.83 28.64,186.48" fill="#7fc4c4" stroke="#333" stroke-width="1"/>
<polygon points="146.57,154.20 174.85,125.91 154.85,160.55 165.21,199.19 145.21,164.55 106.57,154.20" fill="#7fc4c4" stroke="#333" stroke-width="1"/>
<polygon points="224.50,121.92 252.78,93.63 232.78,128.27 243.14,166.91 223.14,132.27 184.50,121.92" fill="#7fc4c4" stroke="#333" stroke-width="1"/>
<polygon points="87.27,231.47 115.56,203.19 95.56,237.83 105.91,276.46 85.91,241.82 47.27,231.47" fill="#7fc4c4" stroke="#333" stroke-width="1"/>
<polygon points="165.21,199.19 193.49,170.90 173.49,205.55 183.84,244.18 163.84,209.54 125.21,199.19" fill="#7fc4c4" stroke="#333" stroke-width="1"/>
<polygon points="243.14,166.91 271.42,138.62 251.42,173.27 261.77,211.90 241.77,177.26 203.14,166.91" fill="#7fc4c4" stroke="#333" stroke-width="1"/>
<polygon points="105.91,276.46 134.20,248.18 114.20,282.82 124.55,321.46 104.55,286.82 65.91,276.46" fill="#7fc4c4" stroke="#333" stroke-width="1"/>
<polygon points="183.84,244.18 212.13,215.90 192.13,250.54 202.48,289.18 182.48,254.54 143.84,244.18" fill="#7fc4c4" stroke="#333" stroke-width="1"/>
<polygon points="261.77,211.90 290.06,183.62 270.06,218.26 280.41,256.90 260.41,222.26 221.77,211.90" fill="#7fc4c4" stroke="#333" stroke-width="1"/>
<polygon points="106.57,154.20 146.57,154.20 174.85,125.91 154.85,160.55 165.21,199.19 145.21,164.55" fill="#7fc4c4" stroke="#333" stroke-width="1"/>
<polygon points="184.50,121.92 224.50,121.92 252.78,93.63 232.78,128.27 243.14,166.91 223.14,132.27" fill="#7fc4c4" stroke="#333" stroke-width="1"/>
<polygon points="262.43,89.63 302.43,89.63 330.72,61.35 310.72,95.99 321.07,134.63 301.07,99.99" fill="#7fc4c4" stroke="#333" stroke-width="1"/>
<polygon points="125.21,199.19 165.21,199.19 193.49,170.90 173.49,205.55 183.84,244.18 163.84,209.54" fill="#7fc4c4" stroke="#333" stroke-width="1"/>
<polygon points="203.14,166.91 243.14,166.91 271.42,138.62 251.42,173.27 261.77,211.90 241.77,177.26" fill="#7fc4c4" stroke="#333" stroke-width="1"/>
<polygon points="281.07,134.63 321.07,134.63 349.35,106.34 329.35,140.99 339.71,179.62 319.71,144.98" fill="#7fc4c4" stroke="#333" stroke-width="1"/>
<polygon points="143.84,244.18 183.84,244.18 212.13,215.90 192.13,250.54 202.48,289.18 182.48,254.54" fill="#7fc4c4" stroke="#333" stroke-width="1"/>
<polygon points="221.77,211.90 261.77,211.90 290.06,183.62 270.06,218.26 280.41,256.90 260.41,222.26" fill="#7fc4c4" stroke="#333" stroke-width="1"/>
<polygon points="299.71,179.62 339.71,179.62 367.99,151.34 347.99,185.98 358.34,224.62 338.34,189.98" fill="#7fc4c4" stroke="#333" stroke-width="1"/>
<text x="10" y="343" font-family="monospace" font-size="12">(3*d15,3,3*p1,3)A, (3*d15,3*p1,3,3)F</text>
</svg>
