<svg xmlns="http://www.w3.org/2000/svg" width="737" height="1044">
<rect width="100%" height="100%" fill="white"/>
<polygon points="119.28,467.13 159.28,467.13 139.28,501.77" fill="#88b0d8" stroke="#333" stroke-width="1"/>
<polygon points="213.92,303.21 253.92,303.21 233.92,337.85" fill="#88b0d8" stroke="#333" stroke-width="1"/>
<polygon points="308.56,139.28 348.56,139.28 328.56,173.92" fill="#88b0d8" stroke="#333" stroke-width="1"/>
<polygon points="213.92,631.05 253.92,631.05 233.92,665.69" fill="#88b0d8" stroke="#333" stroke-width="1"/>
<polygon points="308.56,467.13 348.56,467.13 328.56,501.77" fill="#88b0d8" stroke="#333" stroke-width="1"/>
<polygon points="403.21,303.21 443.21,303.21 423.21,337.85" fill="#88b0d8" stroke="#333" stroke-width="1"/>
<polygon points="308.56,794.97 348.56,794.97 328.56,829.62" fill="#88b0d8" stroke="#333" stroke-width="1"/>
<polygon points="403.21,631.05 443.21,631.05 423.21,665.69" fill="#88b0d8" stroke="#333" stroke-width="1"/>
<polygon points="497.85,467.13 537.85,467.13 517.85,501.77" fill="#88b0d8" stroke="#333" stroke-width="1"/>
<polygon points="159.28,467.13 119.28,467.13 139.28,501.77 104.64,481.77 104.64,521.77 84.64,487.13 64.64,521.77 64.64,481.77 30.00,501.77 50.00,467.13 10.00,467.13 44.64,447.13 10.00,427.13 50.00,427.13 30.00,392.49 64.64,412.49 64.64,372.49 84.64,407.13 104.64,372.49 104.64,412.49 139.28,392.49 119.28,427.13 159.28,427.13 124.64,447.13" fill="#d8c0a0" stroke="#333" stroke-width="1"/>
<polygon points="253.92,303.21 213.92,303.21 233.92,337.85 199.28,317.85 199.28,357.85 179.28,323.21 159.28,357.85 159.28,317.85 124.64,337.85 144.64,303.21 104.64,303.21 139.28,283.21 104.64,263.21 144.64,263.21 124.64,228.56 159.28,248.56 159.28,208.56 179.28,243.21 199.28,208.56 199.28,248.56 233.92,228.56 213.92,263.21 253.92,263.21 219.28,283.21" fill="#d8c0a0" stroke="#333" stroke-width="1"/>
<polygon points="348.56,139.28 308.56,139.28 328.56,173.92 293.92,153.92 293.92,193.92 273.92,159.28 253.92,193.92 253.92,153.92 219.28,173.92 239.28,139.28 199.28,139.28 233.92,119.28 199.28,99.28 239.28,99.28 219.28,64.64 253.92,84.64 253.92,44.64 273.92,79.28 293.92,44.64 293.92,84.64 328.56,64.64 308.56,99.28 348.56,99.28 313.92,119.28" fill="#d8c0a0" stroke="#333" stroke-width="1"/>
<polygon points="253.92,631.05 213.92,631.05 233.92,665.69 199.28,645.69 199.28,685.69 179.28,651.05 159.28,685.69 159.28,645.69 124.64,665.69 144.64,631.05 104.64,631.05 139.28,611.05 104.64,591.05 144.64,591.05 124.64,556.41 159.28,576.41 159.28,536.41 179.28,571.05 199.28,536.41 199.28,576.41 233.92,556.41 213.92,591.05 253.92,591.05 219.28,611.05" fill="#d8c0a0" stroke="#333" stroke-width="1"/>
<polygon points="348.56,467.13 308.56,467.13 328.56,501.77 293.92,481.77 293.92,521.77 273.92,487.13 253.92,521.77 253.92,481.77 219.28,501.77 239.28,467.13 199.28,467.13 233.92,447.13 199.28,427.13 239.28,427.13 219.28,392.49 253.92,412.49 253.92,372.49 273.92,407.13 293.92,372.49 293.92,412.49 328.56,392.49 308.56,427.13 348.56,427.13 313.92,447.13" fill="#d8c0a0" stroke="#333" stroke-width="1"/>
<polygon points="443.21,303.21 403.21,303.21 423.21,337.85 388.56,317.85 388.56,357.85 368.56,323.21 348.56,357.85 348.56,317.85 313.92,337.85 333.92,303.21 293.92,303.21 328.56,283.21 293.92,263.21 333.92,263.21 313.92,228.56 348.56,248.56 348.56,208.56 368.56,243.21 388.56,208.56 388.56,248.56 423.21,228.56 403.21,263.21 443.21,263.21 408.56,283.21" fill="#d8c0a0" stroke="#333" stroke-width="1"/>
<polygon points="348.56,794.97 308.56,794.97 328.56,829.62 293.92,809.62 293.92,849.62 273.92,814.97 253.92,849.62 253.92,809.62 219.28,829.62 239.28,794.97 199.28,794.97 233.92,774.97 199.28,754.97 239.28,754.97 219.28,720.33 253.92,740.33 253.92,700.33 273.92,734.97 293.92,700.33 293.92,740.33 328.56,720.33 308.56,754.97 348.56,754.97 313.92,774.97" fill="#d8c0a0" stroke="#333" stroke-width="1"/>
<polygon points="443.21,631.05 403.21,631.05 423.21,665.69 388.56,645.69 388.56,685.69 368.56,651.05 348.56,685.69 348.56,645.69 313.92,665.69 333.92,631.05 293.92,631.05 328.56,611.05 293.92,591.05 333.92,591.05 313.92,556.41 348.56,576.41 348.56,536.41 368.56,571.05 388.56,536.41 388.56,576.41 423.21,556.41 403.21,591.05 443.21,591.05 408.56,611.05" fill="#d8c0a0" stroke="#333" stroke-width="1"/>
<polygon points="537.85,467.13 497.85,467.13 517.85,501.77 483.21,481.77 483.21,521.77 463.21,487.13 443.21,521.77 443.21,481.77 408.56,501.77 428.56,467.13 388.56,467.13 423.21,447.13 388.56,427.13 428.56,427.13 408.56,392.49 443.21,412.49 443.21,372.49 463.21,407.13 483.21,372.49 483.21,412.49 517.85,392.49 497.85,427.13 537.85,427.13 503.21,447.13" fill="#d8c0a0" stroke="#333" stroke-width="1"/>
<polygon points="139.28,501.77 159.28,467.13 199.28,467.13 219.28,501.77 199.28,536.41 159.28,536.41" fill="#9ecf9e" stroke="#333" stroke-width="1"/>
<polygon points="233.92,337.85 253.92,303.21 293.92,303.21 313.92,337.85 293.92,372.49 253.92,372.49" fill="#9ecf9e" stroke="#333" stroke-width="1"/>
<polygon points="328.56,173.92 348.56,139.28 388.56,139.28 408.56,173.92 388.56,208.56 348.56,208.56" fill="#9ecf9e" stroke="#333" stroke-width="1"/>
<polygon points="233.92,665.69 253.92,631.05 293.92,631.05 313.92,665.69 293.92,700.33 253.92,700.33" fill="#9ecf9e" stroke="#333" stroke-width="1"/>
<polygon points="328.56,501.77 348.56,467.13 388.56,467.13 408.56,501.77 388.56,536.41 348.56,536.41" fill="#9ecf9e" stroke="#333" stroke-width="1"/>
<polygon points="423.21,337.85 443.21,303.21 483.21,303.21 503.21,337.85 483.21,372.49 443.21,372.49" fill="#9ecf9e" stroke="#333" stroke-width="1"/>
<polygon points="328.56,829.62 348.56,794.97 388.56,794.97 408.56,829.62 388.56,864.26 348.56,864.26" fill="#9ecf9e" stroke="#333" stroke-width="1"/>
<polygon points="423.21,665.69 443.21,631.05 483.21,631.05 503.21,665.69 483.21,700.33 443.21,700.33" fill="#9ecf9e" stroke="#333" stroke-width="1"/>
<polygon points="517.85,501.77 537.85,467.13 577.85,467.13 597.85,501.77 577.85,536.41 537.85,536.41" fill="#9ecf9e" stroke="#333" stroke-width="1"/>
<polygon points="199.28,467.13 159.28,467.13 159.28,427.13 199.28,427.13" fill="#e8c268" stroke="#333" stroke-width="1"/>
<polygon points="293.92,303.21 253.92,303.21 253.92,263.21 293.92,263.21" fill="#e8c268" stroke="#333" stroke-width="1"/>
<polygon points="388.56,139.28 348.56,139.28 348.56,99.28 388.56,99.28" fill="#e8c268" stroke="#333" stroke-width="1"/>
<polygon points="293.92,631.05 253.92,631.05 253.92,591.05 293.92,591.05" fill="#e8c268" stroke="#333" stroke-width="1"/>
<polygon points="388.56,467.13 348.56,467.13 348.56,427.13 388.56,427.13" fill="#e8c268" stroke="#333" stroke-width="1"/>
<polygon points="483.21,303.21 443.21,303.21 443.21,263.21 483.21,263.21" fill="#e8c268" stroke="#333" stroke-width="1"/>
<polygon points="388.56,794.97 348.56,794.97 348.56,754.97 388.56,754.97" fill="#e8c268" stroke="#333" stroke-width="1"/>
<polygon points="483.21,631.05 443.21,631.05 443.21,591.05 483.21,591.05" fill="#e8c268" stroke="#333" stroke-width="1"/>
<polygon points="577.85,467.13 537.85,467.13 537.85,427.13 577.85,427.13" fill="#e8c268" stroke="#333" stroke-width="1"/>
<polygon points="159.28,427.13 159.28,467.13 124.64,447.13" fill="#88b0d8" stroke="#333" stroke-width="1"/>
<polygon points="253.92,263.21 253.92,303.21 219.28,283.21" fill="#88b0d8" stroke="#333" stroke-width="1"/>
<polygon points="348.56,99.28 348.56,139.28 313.92,119.28" fill="#88b0d8" stroke="#333" stroke-width="1"/>
<polygon points="253.92,591.05 253.92,631.05 219.28,611.05" fill="#88b0d8" stroke="#333" stroke-width="1"/>
<polygon points="348.56,427.13 348.56,467.13 313.92,447.13" fill="#88b0d8" stroke="#333" stroke-width="1"/>
<polygon points="443.21,263.21 443.21,303.21 408.56,283.21" fill="#88b0d8" stroke="#333" stroke-width="1"/>
<polygon points="348.56,754.97 348.56,794.97 313.92,774.97" fill="#88b0d8" stroke="#333" stroke-width="1"/>
<polygon points="443.21,591.05 443.21,631.05 408.56,611.05" fill="#88b0d8" stroke="#333" stroke-width="1"/>
<polygon points="537.85,427.13 537.85,467.13 503.21,447.13" fill="#88b0d8" stroke="#333" stroke-width="1"/>
<polygon points="104.64,481.77 139.28,501.77 104.64,521.77" fill="#88b0d8" stroke="#333" stroke-width="1"/>
<polygon points="199.28,317.85 233.92,337.85 199.28,357.85" fill="#88b0d8" stroke="#333" stroke-width="1"/>
<polygon points="293.92,153.92 328.56,173.92 293.92,193.92" fill="#88b0d8" stroke="#333" stroke-width="1"/>
<polygon points="199.28,645.69 233.92,665.69 199.28,685.69" fill="#88b0d8" stroke="#333" stroke-width="1"/>
<polygon points="293.92,481.77 328.56,501.77 293.92,521.77" fill="#88b0d8" stroke="#333" stroke-width="1"/>
<polygon points="388.56,317.85 423.21,337.85 388.56,357.85" fill="#88b0d8" stroke="#333" stroke-width="1"/>
<polygon points="293.92,809.62 328.56,829.62 293.92,849.62" fill="#88b0d8" stroke="#333" stroke-width="1"/>
<polygon points="388.56,645.69 423.21,665.69 388.56,685.69" fill="#88b0d8" stroke="#333" stroke-width="1"/>
<polygon points="483.21,481.77 517.85,501.77 483.21,521.77" fill="#88b0d8" stroke="#333" stroke-width="1"/>
<polygon points="104.64,521.77 139.28,501.77 159.28,536.41 124.64,556.41" fill="#e8c268" stroke="#333" stroke-width="1"/>
<polygon points="199.28,357.85 233.92,337.85 253.92,372.49 219.28,392.49" fill="#e8c268" stroke="#333" stroke-width="1"/>
<polygon points="293.92,193.92 328.56,173.92 348.56,208.56 313.92,228.56" fill="#e8c268" stroke="#333" stroke-width="1"/>
<polygon points="199.28,685.69 233.92,665.69 253.92,700.33 219.28,720.33" fill="#e8c268" stroke="#333" stroke-width="1"/>
<polygon points="293.92,521.77 328.56,501.77 348.56,536.41 313.92,556.41" fill="#e8c268" stroke="#333" stroke-width="1"/>
<polygon points="388.56,357.85 423.21,337.85 443.21,372.49 408.56,392.49" fill="#e8c268" stroke="#333" stroke-width="1"/>
<polygon points="293.92,849.62 328.56,829.62 348.56,864.26 313.92,884.26" fill="#e8c268" stroke="#333" stroke-width="1"/>
<polygon points="388.56,685.69 423.21,665.69 443.21,700.33 408.56,720.33" fill="#e8c268" stroke="#333" stroke-width="1"/>
<polygon points="483.21,521.77 517.85,501.77 537.85,536.41 503.21,556.41" fill="#e8c268" stroke="#333" stroke-width="1"/>
<polygon points="219.28,501.77 199.28,467.13 239.28,467.13" fill="#88b0d8" stroke="#333" stroke-width="1"/>
<polygon points="313.92,337.85 293.92,303.21 333.92,303.21" fill="#88b0d8" stroke="#333" stroke-width="1"/>
<polygon points="408.56,173.92 388.56,139.28 428.56,139.28" fill="#88b0d8" stroke="#333" stroke-width="1"/>
<polygon points="313.92,665.69 293.92,631.05 333.92,631.05" fill="#88b0d8" stroke="#333" stroke-width="1"/>
<polygon points="408.56,501.77 388.56,467.13 428.56,467.13" fill="#88b0d8" stroke="#333" stroke-width="1"/>
<polygon points="503.21,337.85 483.21,303.21 523.21,303.21" fill="#88b0d8" stroke="#333" stroke-width="1"/>
<polygon points="408.56,829.62 388.56,794.97 428.56,794.97" fill="#88b0d8" stroke="#333" stroke-width="1"/>
<polygon points="503.21,665.69 483.21,631.05 523.21,631.05" fill="#88b0d8" stroke="#333" stroke-width="1"/>
<polygon points="597.85,501.77 577.85,467.13 617.85,467.13" fill="#88b0d8" stroke="#333" stroke-width="1"/>
<polygon points="239.28,467.13 199.28,467.13 233.92,447.13 199.28,427.13 239.28,427.13 219.28,392.49 253.92,412.49 253.92,372.49 273.92,407.13 293.92,372.49 293.92,412.49 328.56,392.49 308.56,427.13 348.56,427.13 313.92,447.13 348.56,467.13 308.56,467.13 328.56,501.77 293.92,481.77 293.92,521.77 273.92,487.13 253.92,521.77 253.92,481.77 219.28,501.77" fill="#d8c0a0" stroke="#333" stroke-width="1"/>
<polygon points="333.92,303.21 293.92,303.21 328.56,283.21 293.92,263.21 333.92,263.21 313.92,228.56 348.56,248.56 348.56,208.56 368.56,243.21 388.56,208.56 388.56,248.56 423.21,228.56 403.21,263.21 443.21,263.21 408.56,283.21 443.21,303.21 403.21,303.21 423.21,337.85 388.56,317.85 388.56,357.85 368.56,323.21 348.56,357.85 348.56,317.85 313.92,337.85" fill="#d8c0a0" stroke="#333" stroke-width="1"/>
<polygon points="428.56,139.28 388.56,139.28 423.21,119.28 388.56,99.28 428.56,99.28 408.56,64.64 443.21,84.64 443.21,44.64 463.21,79.28 483.21,44.64 483.21,84.64 517.85,64.64 497.85,99.28 537.85,99.28 503.21,119.28 537.85,139.28 497.85,139.28 517.85,173.92 483.21,153.92 483.21,193.92 463.21,159.28 443.21,193.92 443.21,153.92 408.56,173.92" fill="#d8c0a0" stroke="#333" stroke-width="1"/>
<polygon points="333.92,631.05 293.92,631.05 328.56,611.05 293.92,591.05 333.92,591.05 313.92,556.41 348.56,576.41 348.56,536.41 368.56,571.05 388.56,536.41 388.56,576.41 423.21,556.41 403.21,591.05 443.21,591.05 408.56,611.05 443.21,631.05 403.21,631.05 423.21,665.69 388.56,645.69 388.56,685.69 368.56,651.05 348.56,685.69 348.56,645.69 313.92,665.69" fill="#d8c0a0" stroke="#333" stroke-width="1"/>
<polygon points="428.56,467.13 388.56,467.13 423.21,447.13 388.56,427.13 428.56,427.13 408.56,392.49 443.21,412.49 443.21,372.49 463.21,407.13 483.21,372.49 483.21,412.49 517.85,392.49 497.85,427.13 537.85,427.13 503.21,447.13 537.85,467.13 497.85,467.13 517.85,501.77 483.21,481.77 483.21,521.77 463.21,487.13 443.21,521.77 443.21,481.77 408.56,501.77" fill="#d8c0a0" stroke="#333" stroke-width="1"/>
<polygon points="523.21,303.21 483.21,303.21 517.85,283.21 483.21,263.21 523.21,263.21 503.21,228.56 537.85,248.56 537.85,208.56 557.85,243.21 577.85,208.56 577.85,248.56 612.49,228.56 592.49,263.21 632.49,263.21 597.85,283.21 632.49,303.21 592.49,303.21 612.49,337.85 577.85,317.85 577.85,357.85 557.85,323.21 537.85,357.85 537.85,317.85 503.21,337.85" fill="#d8c0a0" stroke="#333" stroke-width="1"/>
<polygon points="428.56,794.97 388.56,794.97 423.21,774.97 388.56,754.97 428.56,754.97 408.56,720.33 443.21,740.33 443.21,700.33 463.21,734.97 483.21,700.33 483.21,740.33 517.85,720.33 497.85,754.97 537.85,754.97 503.21,774.97 537.85,794.97 497.85,794.97 517.85,829.62 483.21,809.62 483.21,849.62 463.21,814.97 443.21,849.62 443.21,809.62 408.56,829.62" fill="#d8c0a0" stroke="#333" stroke-width="1"/>
<polygon points="523.21,631.05 483.21,631.05 517.85,611.05 483.21,591.05 523.21,591.05 503.21,556.41 537.85,576.41 537.85,536.41 557.85,571.05 577.85,536.41 577.85,576.41 612.49,556.41 592.49,591.05 632.49,591.05 597.85,611.05 632.49,631.05 592.49,631.05 612.49,665.69 577.85,645.69 577.85,685.69 557.85,651.05 537.85,685.69 537.85,645.69 503.21,665.69" fill="#d8c0a0" stroke="#333" stroke-width="1"/>
<polygon points="617.85,467.13 577.85,467.13 612.49,447.13 577.85,427.13 617.85,427.13 597.85,392.49 632.49,412.49 632.49,372.49 652.49,407.13 672.49,372.49 672.49,412.49 707.13,392.49 687.13,427.13 727.13,427.13 692.49,447.13 727.13,467.13 687.13,467.13 707.13,501.77 672.49,481.77 672.49,521.77 652.49,487.13 632.49,521.77 632.49,481.77 597.85,501.77" fill="#d8c0a0" stroke="#333" stroke-width="1"/>
<polygon points="233.92,447.13 199.28,467.13 199.28,427.13" fill="#88b0d8" stroke="#333" stroke-width="1"/>
<polygon points="328.56,283.21 293.92,303.21 293.92,263.21" fill="#88b0d8" stroke="#333" stroke-width="1"/>
<polygon points="423.21,119.28 388.56,139.28 388.56,99.28" fill="#88b0d8" stroke="#333" stroke-width="1"/>
<polygon points="328.56,611.05 293.92,631.05 293.92,591.05" fill="#88b0d8" stroke="#333" stroke-width="1"/>
<polygon points="423.21,447.13 388.56,467.13 388.56,427.13" fill="#88b0d8" stroke="#333" stroke-width="1"/>
<polygon points="517.85,283.21 483.21,303.21 483.21,263.21" fill="#88b0d8" stroke="#333" stroke-width="1"/>
<polygon points="423.21,774.97 388.56,794.97 388.56,754.97" fill="#88b0d8" stroke="#333" stroke-width="1"/>
<polygon points="517.85,611.05 483.21,631.05 483.21,591.05" fill="#88b0d8" stroke="#333" stroke-width="1"/>
<polygon points="612.49,447.13 577.85,467.13 577.85,427.13" fill="#88b0d8" stroke="#333" stroke-width="1"/>
<polygon points="199.28,427.13 159.28,427.13 139.28,392.49 159.28,357.85 199.28,357.85 219.28,392.49" fill="#9ecf9e" stroke="#333" stroke-width="1"/>
<polygon points="293.92,263.21 253.92,263.21 233.92,228.56 253.92,193.92 293.92,193.92 313.92,228.56" fill="#9ecf9e" stroke="#333" stroke-width="1"/>
<polygon points="388.56,99.28 348.56,99.28 328.56,64.64 348.56,30.00 388.56,30.00 408.56,64.64" fill="#9ecf9e" stroke="#333" stroke-width="1"/>
<polygon points="293.92,591.05 253.92,591.05 233.92,556.41 253.92,521.77 293.92,521.77 313.92,556.41" fill="#9ecf9e" stroke="#333" stroke-width="1"/>
<polygon points="388.56,427.13 348.56,427.13 328.56,392.49 348.56,357.85 388.56,357.85 408.56,392.49" fill="#9ecf9e" stroke="#333" stroke-width="1"/>
<polygon points="483.21,263.21 443.21,263.21 423.21,228.56 443.21,193.92 483.21,193.92 503.21,228.56" fill="#9ecf9e" stroke="#333" stroke-width="1"/>
<polygon points="388.56,754.97 348.56,754.97 328.56,720.33 348.56,685.69 388.56,685.69 408.56,720.33" fill="#9ecf9e" stroke="#333" stroke-width="1"/>
<polygon points="483.21,591.05 443.21,591.05 423.21,556.41 443.21,521.77 483.21,521.77 503.21,556.41" fill="#9ecf9e" stroke="#333" stroke-width="1"/>
<polygon points="577.85,427.13 537.85,427.13 517.85,392.49 537.85,357.85 577.85,357.85 597.85,392.49" fill="#9ecf9e" stroke="#333" stroke-width="1"/>
<polygon points="139.28,392.49 159.28,427.13 119.28,427.13" fill="#88b0d8" stroke="#333" stroke-width="1"/>
<polygon points="233.92,228.56 253.92,263.21 213.92,263.21" fill="#88b0d8" stroke="#333" stroke-width="1"/>
<polygon points="328.56,64.64 348.56,99.28 308.56,99.28" fill="#88b0d8" stroke="#333" stroke-width="1"/>
<polygon points="233.92,556.41 253.92,591.05 213.92,591.05" fill="#88b0d8" stroke="#333" stroke-width="1"/>
<polygon points="328.56,392.49 348.56,427.13 308.56,427.13" fill="#88b0d8" stroke="#333" stroke-width="1"/>
<polygon points="423.21,228.56 443.21,263.21 403.21,263.21" fill="#88b0d8" stroke="#333" stroke-width="1"/>
<polygon points="328.56,720.33 348.56,754.97 308.56,754.97" fill="#88b0d8" stroke="#333" stroke-width="1"/>
<polygon points="423.21,556.41 443.21,591.05 403.21,591.05" fill="#88b0d8" stroke="#333" stroke-width="1"/>
<polygon points="517.85,392.49 537.85,427.13 497.85,427.13" fill="#88b0d8" stroke="#333" stroke-width="1"/>
<polygon points="84.64,487.13 104.64,521.77 64.64,521.77" fill="#88b0d8" stroke="#333" stroke-width="1"/>
<polygon points="179.28,323.21 199.28,357.85 159.28,357.85" fill="#88b0d8" stroke="#333" stroke-width="1"/>
<polygon points="273.92,159.28 293.92,193.92 253.92,193.92" fill="#88b0d8" stroke="#333" stroke-width="1"/>
<polygon points="179.28,651.05 199.28,685.69 159.28,685.69" fill="#88b0d8" stroke="#333" stroke-width="1"/>
<polygon points="273.92,487.13 293.92,521.77 253.92,521.77" fill="#88b0d8" stroke="#333" stroke-width="1"/>
<polygon points="368.56,323.21 388.56,357.85 348.56,357.85" fill="#88b0d8" stroke="#333" stroke-width="1"/>
<polygon points="273.92,814.97 293.92,849.62 253.92,849.62" fill="#88b0d8" stroke="#333" stroke-width="1"/>
<polygon points="368.56,651.05 388.56,685.69 348.56,685.69" fill="#88b0d8" stroke="#333" stroke-width="1"/>
<polygon points="463.21,487.13 483.21,521.77 443.21,521.77" fill="#88b0d8" stroke="#333" stroke-width="1"/>
<polygon points="64.64,521.77 104.64,521.77 124.64,556.41 104.64,591.05 64.64,591.05 44.64,556.41" fill="#9ecf9e" stroke="#333" stroke-width="1"/>
<polygon points="159.28,357.85 199.28,357.85 219.28,392.49 199.28,427.13 159.28,427.13 139.28,392.49" fill="#9ecf9e" stroke="#333" stroke-width="1"/>
<polygon points="253.92,193.92 293.92,193.92 313.92,228.56 293.92,263.21 253.92,263.21 233.92,228.56" fill="#9ecf9e" stroke="#333" stroke-width="1"/>
<polygon points="159.28,685.69 199.28,685.69 219.28,720.33 199.28,754.97 159.28,754.97 139.28,720.33" fill="#9ecf9e" stroke="#333" stroke-width="1"/>
<polygon points="253.92,521.77 293.92,521.77 313.92,556.41 293.92,591.05 253.92,591.05 233.92,556.41" fill="#9ecf9e" stroke="#333" stroke-width="1"/>
<polygon points="348.56,357.85 388.56,357.85 408.56,392.49 388.56,427.13 348.56,427.13 328.56,392.49" fill="#9ecf9e" stroke="#333" stroke-width="1"/>
<polygon points="253.92,849.62 293.92,849.62 313.92,884.26 293.92,918.90 253.92,918.90 233.92,884.26" fill="#9ecf9e" stroke="#333" stroke-width="1"/>
<polygon points="348.56,685.69 388.56,685.69 408.56,720.33 388.56,754.97 348.56,754.97 328.56,720.33" fill="#9ecf9e" stroke="#333" stroke-width="1"/>
<polygon points="443.21,521.77 483.21,521.77 503.21,556.41 483.21,591.05 443.21,591.05 423.21,556.41" fill="#9ecf9e" stroke="#333" stroke-width="1"/>
<polygon points="124.64,556.41 159.28,536.41 159.28,576.41" fill="#88b0d8" stroke="#333" stroke-width="1"/>
<polygon points="219.28,392.49 253.92,372.49 253.92,412.49" fill="#88b0d8" stroke="#333" stroke-width="1"/>
<polygon points="313.92,228.56 348.56,208.56 348.56,248.56" fill="#88b0d8" stroke="#333" stroke-width="1"/>
<polygon points="219.28,720.33 253.92,700.33 253.92,740.33" fill="#88b0d8" stroke="#333" stroke-width="1"/>
<polygon points="313.92,556.41 348.56,536.41 348.56,576.41" fill="#88b0d8" stroke="#333" stroke-width="1"/>
<polygon points="408.56,392.49 443.21,372.49 443.21,412.49" fill="#88b0d8" stroke="#333" stroke-width="1"/>
<polygon points="313.92,884.26 348.56,864.26 348.56,904.26" fill="#88b0d8" stroke="#333" stroke-width="1"/>
<polygon points="408.56,720.33 443.21,700.33 443.21,740.33" fill="#88b0d8" stroke="#333" stroke-width="1"/>
<polygon points="503.21,556.41 537.85,536.41 537.85,576.41" fill="#88b0d8" stroke="#333" stroke-width="1"/>
<polygon points="159.28,576.41 159.28,536.41 179.28,571.05 199.28,536.41 199.28,576.41 233.92,556.41 213.92,591.05 253.92,591.05 219.28,611.05 253.92,631.05 213.92,631.05 233.92,665.69 199.28,645.69 199.28,685.69 179.28,651.05 159.28,685.69 159.28,645.69 124.64,665.69 144.64,631.05 104.64,631.05 139.28,611.05 104.64,591.05 144.64,591.05 124.64,556.41" fill="#d8c0a0" stroke="#333" stroke-width="1"/>
<polygon points="253.92,412.49 253.92,372.49 273.92,407.13 293.92,372.49 293.92,412.49 328.56,392.49 308.56,427.13 348.56,427.13 313.92,447.13 348.56,467.13 308.56,467.13 328.56,501.77 293.92,481.77 293.92,521.77 273.92,487.13 253.92,521.77 253.92,481.77 219.28,501.77 239.28,467.13 199.28,467.13 233.92,447.13 199.28,427.13 239.28,427.13 219.28,392.49" fill="#d8c0a0" stroke="#333" stroke-width="1"/>
<polygon points="348.56,248.56 348.56,208.56 368.56,243.21 388.56,208.56 388.56,248.56 423.21,228.56 403.21,263.21 443.21,263.21 408.56,283.21 443.21,303.21 403.21,303.21 423.21,337.85 388.56,317.85 388.56,357.85 368.56,323.21 348.56,357.85 348.56,317.85 313.92,337.85 333.92,303.21 293.92,303.21 328.56,283.21 293.92,263.21 333.92,263.21 313.92,228.56" fill="#d8c0a0" stroke="#333" stroke-width="1"/>
<polygon points="253.92,740.33 253.92,700.33 273.92,734.97 293.92,700.33 293.92,740.33 328.56,720.33 308.56,754.97 348.56,754.97 313.92,774.97 348.56,794.97 308.56,794.97 328.56,829.62 293.92,809.62 293.92,849.62 273.92,814.97 253.92,849.62 253.92,809.62 219.28,829.62 239.28,794.97 199.28,794.97 233.92,774.97 199.28,754.97 239.28,754.97 219.28,720.33" fill="#d8c0a0" stroke="#333" stroke-width="1"/>
<polygon points="348.56,576.41 348.56,536.41 368.56,571.05 388.56,536.41 388.56,576.41 423.21,556.41 403.21,591.05 443.21,591.05 408.56,611.05 443.21,631.05 403.21,631.05 423.21,665.69 388.56,645.69 388.56,685.69 368.56,651.05 348.56,685.69 348.56,645.69 313.92,665.69 333.92,631.05 293.92,631.05 328.56,611.05 293.92,591.05 333.92,591.05 313.92,556.41" fill="#d8c0a0" stroke="#333" stroke-width="1"/>
<polygon points="443.21,412.49 443.21,372.49 463.21,407.13 483.21,372.49 483.21,412.49 517.85,392.49 497.85,427.13 537.85,427.13 503.21,447.13 537.85,467.13 497.85,467.13 517.85,501.77 483.21,481.77 483.21,521.77 463.21,487.13 443.21,521.77 443.21,481.77 408.56,501.77 428.56,467.13 388.56,467.13 423.21,447.13 388.56,427.13 428.56,427.13 408.56,392.49" fill="#d8c0a0" stroke="#333" stroke-width="1"/>
<polygon points="348.56,904.26 348.56,864.26 368.56,898.90 388.56,864.26 388.56,904.26 423.21,884.26 403.21,918.90 443.21,918.90 408.56,938.90 443.21,958.90 403.21,958.90 423.21,993.54 388.56,973.54 388.56,1013.54 368.56,978.90 348.56,1013.54 348.56,973.54 313.92,993.54 333.92,958.90 293.92,958.90 328.56,938.90 293.92,918.90 333.92,918.90 313.92,884.26" fill="#d8c0a0" stroke="#333" stroke-width="1"/>
<polygon points="443.21,740.33 443.21,700.33 463.21,734.97 483.21,700.33 483.21,740.33 517.85,720.33 497.85,754.97 537.85,754.97 503.21,774.97 537.85,794.97 497.85,794.97 517.85,829.62 483.21,809.62 483.21,849.62 463.21,814.97 443.21,849.62 443.21,809.62 408.56,829.62 428.56,794.97 388.56,794.97 423.21,774.97 388.56,754.97 428.56,754.97 408.56,720.33" fill="#d8c0a0" stroke="#333" stroke-width="1"/>
<polygon points="537.85,576.41 537.85,536.41 557.85,571.05 577.85,536.41 577.85,576.41 612.49,556.41 592.49,591.05 632.49,591.05 597.85,611.05 632.49,631.05 592.49,631.05 612.49,665.69 577.85,645.69 577.85,685.69 557.85,651.05 537.85,685.69 537.85,645.69 503.21,665.69 523.21,631.05 483.21,631.05 517.85,611.05 483.21,591.05 523.21,591.05 503.21,556.41" fill="#d8c0a0" stroke="#333" stroke-width="1"/>
<polygon points="179.28,571.05 159.28,536.41 199.28,536.41" fill="#88b0d8" stroke="#333" stroke-width="1"/>
<polygon points="273.92,407.13 253.92,372.49 293.92,372.49" fill="#88b0d8" stroke="#333" stroke-width="1"/>
<polygon points="368.56,243.21 348.56,208.56 388.56,208.56" fill="#88b0d8" stroke="#333" stroke-width="1"/>
<polygon points="273.92,734.97 253.92,700.33 293.92,700.33" fill="#88b0d8" stroke="#333" stroke-width="1"/>
<polygon points="368.56,571.05 348.56,536.41 388.56,536.41" fill="#88b0d8" stroke="#333" stroke-width="1"/>
<polygon points="463.21,407.13 443.21,372.49 483.21,372.49" fill="#88b0d8" stroke="#333" stroke-width="1"/>
<polygon points="368.56,898.90 348.56,864.26 388.56,864.26" fill="#88b0d8" stroke="#333" stroke-width="1"/>
<polygon points="463.21,734.97 443.21,700.33 483.21,700.33" fill="#88b0d8" stroke="#333" stroke-width="1"/>
<polygon points="557.85,571.05 537.85,536.41 577.85,536.41" fill="#88b0d8" stroke="#333" stroke-width="1"/>
<polygon points="199.28,536.41 219.28,501.77 253.92,521.77 233.92,556.41" fill="#e8c268" stroke="#333" stroke-width="1"/>
<polygon points="293.92,372.49 313.92,337.85 348.56,357.85 328.56,392.49" fill="#e8c268" stroke="#333" stroke-width="1"/>
<polygon points="388.56,208.56 408.56,173.92 443.21,193.92 423.21,228.56" fill="#e8c268" stroke="#333" stroke-width="1"/>
<polygon points="293.92,700.33 313.92,665.69 348.56,685.69 328.56,720.33" fill="#e8c268" stroke="#333" stroke-width="1"/>
<polygon points="388.56,536.41 408.56,501.77 443.21,521.77 423.21,556.41" fill="#e8c268" stroke="#333" stroke-width="1"/>
<polygon points="483.21,372.49 503.21,337.85 537.85,357.85 517.85,392.49" fill="#e8c268" stroke="#333" stroke-width="1"/>
<polygon points="388.56,864.26 408.56,829.62 443.21,849.62 423.21,884.26" fill="#e8c268" stroke="#333" stroke-width="1"/>
<polygon points="483.21,700.33 503.21,665.69 537.85,685.69 517.85,720.33" fill="#e8c268" stroke="#333" stroke-width="1"/>
<polygon points="577.85,536.41 597.85,501.77 632.49,521.77 612.49,556.41" fill="#e8c268" stroke="#333" stroke-width="1"/>
<polygon points="253.92,521.77 219.28,501.77 253.92,481.77" fill="#88b0d8" stroke="#333" stroke-width="1"/>
<polygon points="348.56,357.85 313.92,337.85 348.56,317.85" fill="#88b0d8" stroke="#333" stroke-width="1"/>
<polygon points="443.21,193.92 408.56,173.92 443.21,153.92" fill="#88b0d8" stroke="#333" stroke-width="1"/>
<polygon points="348.56,685.69 313.92,665.69 348.56,645.69" fill="#88b0d8" stroke="#333" stroke-width="1"/>
<polygon points="443.21,521.77 408.56,501.77 443.21,481.77" fill="#88b0d8" stroke="#333" stroke-width="1"/>
<polygon points="537.85,357.85 503.21,337.85 537.85,317.85" fill="#88b0d8" stroke="#333" stroke-width="1"/>
<polygon points="443.21,849.62 408.56,829.62 443.21,809.62" fill="#88b0d8" stroke="#333" stroke-width="1"/>
<polygon points="537.85,685.69 503.21,665.69 537.85,645.69" fill="#88b0d8" stroke="#333" stroke-width="1"/>
<polygon points="632.49,521.77 597.85,501.77 632.49,481.77" fill="#88b0d8" stroke="#333" stroke-width="1"/>
<polygon points="239.28,427.13 199.28,427.13 219.28,392.49" fill="#88b0d8" stroke="#333" stroke-width="1"/>
<polygon points="333.92,263.21 293.92,263.21 313.92,228.56" fill="#88b0d8" stroke="#333" stroke-width="1"/>
<polygon points="428.56,99.28 388.56,99.28 408.56,64.64" fill="#88b0d8" stroke="#333" stroke-width="1"/>
<polygon points="333.92,591.05 293.92,591.05 313.92,556.41" fill="#88b0d8" stroke="#333" stroke-width="1"/>
<polygon points="428.56,427.13 388.56,427.13 408.56,392.49" fill="#88b0d8" stroke="#333" stroke-width="1"/>
<polygon points="523.21,263.21 483.21,263.21 503.21,228.56" fill="#88b0d8" stroke="#333" stroke-width="1"/>
<polygon points="428.56,754.97 388.56,754.97 408.56,720.33" fill="#88b0d8" stroke="#333" stroke-width="1"/>
<polygon points="523.21,591.05 483.21,591.05 503.21,556.41" fill="#88b0d8" stroke="#333" stroke-width="1"/>
<polygon points="617.85,427.13 577.85,427.13 597.85,392.49" fill="#88b0d8" stroke="#333" stroke-width="1"/>
<polygon points="159.28,357.85 139.28,392.49 104.64,372.49 124.64,337.85" fill="#e8c268" stroke="#333" stroke-width="1"/>
<polygon points="253.92,193.92 233.92,228.56 199.28,208.56 219.28,173.92" fill="#e8c268" stroke="#333" stroke-width="1"/>
<polygon points="348.56,30.00 328.56,64.64 293.92,44.64 313.92,10.00" fill="#e8c268" stroke="#333" stroke-width="1"/>
<polygon points="253.92,521.77 233.92,556.41 199.28,536.41 219.28,501.77" fill="#e8c268" stroke="#333" stroke-width="1"/>
<polygon points="348.56,357.85 328.56,392.49 293.92,372.49 313.92,337.85" fill="#e8c268" stroke="#333" stroke-width="1"/>
<polygon points="443.21,193.92 423.21,228.56 388.56,208.56 408.56,173.92" fill="#e8c268" stroke="#333" stroke-width="1"/>
<polygon points="348.56,685.69 328.56,720.33 293.92,700.33 313.92,665.69" fill="#e8c268" stroke="#333" stroke-width="1"/>
<polygon points="443.21,521.77 423.21,556.41 388.56,536.41 408.56,501.77" fill="#e8c268" stroke="#333" stroke-width="1"/>
<polygon points="537.85,357.85 517.85,392.49 483.21,372.49 503.21,337.85" fill="#e8c268" stroke="#333" stroke-width="1"/>
<polygon points="104.64,372.49 139.28,392.49 104.64,412.49" fill="#88b0d8" stroke="#333" stroke-width="1"/>
<polygon points="199.28,208.56 233.92,228.56 199.28,248.56" fill="#88b0d8" stroke="#333" stroke-width="1"/>
<polygon points="293.92,44.64 328.56,64.64 293.92,84.64" fill="#88b0d8" stroke="#333" stroke-width="1"/>
<polygon points="199.28,536.41 233.92,556.41 199.28,576.41" fill="#88b0d8" stroke="#333" stroke-width="1"/>
<polygon points="293.92,372.49 328.56,392.49 293.92,412.49" fill="#88b0d8" stroke="#333" stroke-width="1"/>
<polygon points="388.56,208.56 423.21,228.56 388.56,248.56" fill="#88b0d8" stroke="#333" stroke-width="1"/>
<polygon points="293.92,700.33 328.56,720.33 293.92,740.33" fill="#88b0d8" stroke="#333" stroke-width="1"/>
<polygon points="388.56,536.41 423.21,556.41 388.56,576.41" fill="#88b0d8" stroke="#333" stroke-width="1"/>
<polygon points="483.21,372.49 517.85,392.49 483.21,412.49" fill="#88b0d8" stroke="#333" stroke-width="1"/>
<polygon points="64.64,481.77 64.64,521.77 30.00,501.77" fill="#88b0d8" stroke="#333" stroke-width="1"/>
<polygon points="159.28,317.85 159.28,357.85 124.64,337.85" fill="#88b0d8" stroke="#333" stroke-width="1"/>
<polygon points="253.92,153.92 253.92,193.92 219.28,173.92" fill="#88b0d8" stroke="#333" stroke-width="1"/>
<polygon points="159.28,645.69 159.28,685.69 124.64,665.69" fill="#88b0d8" stroke="#333" stroke-width="1"/>
<polygon points="253.92,481.77 253.92,521.77 219.28,501.77" fill="#88b0d8" stroke="#333" stroke-width="1"/>
<polygon points="348.56,317.85 348.56,357.85 313.92,337.85" fill="#88b0d8" stroke="#333" stroke-width="1"/>
<polygon points="253.92,809.62 253.92,849.62 219.28,829.62" fill="#88b0d8" stroke="#333" stroke-width="1"/>
<polygon points="348.56,645.69 348.56,685.69 313.92,665.69" fill="#88b0d8" stroke="#333" stroke-width="1"/>
<polygon points="443.21,481.77 443.21,521.77 408.56,501.77" fill="#88b0d8" stroke="#333" stroke-width="1"/>
<polygon points="124.64,556.41 144.64,591.05 104.64,591.05" fill="#88b0d8" stroke="#333" stroke-width="1"/>
<polygon points="219.28,392.49 239.28,427.13 199.28,427.13" fill="#88b0d8" stroke="#333" stroke-width="1"/>
<polygon points="313.92,228.56 333.92,263.21 293.92,263.21" fill="#88b0d8" stroke="#333" stroke-width="1"/>
<polygon points="219.28,720.33 239.28,754.97 199.28,754.97" fill="#88b0d8" stroke="#333" stroke-width="1"/>
<polygon points="313.92,556.41 333.92,591.05 293.92,591.05" fill="#88b0d8" stroke="#333" stroke-width="1"/>
<polygon points="408.56,392.49 428.56,427.13 388.56,427.13" fill="#88b0d8" stroke="#333" stroke-width="1"/>
<polygon points="313.92,884.26 333.92,918.90 293.92,918.90" fill="#88b0d8" stroke="#333" stroke-width="1"/>
<polygon points="408.56,720.33 428.56,754.97 388.56,754.97" fill="#88b0d8" stroke="#333" stroke-width="1"/>
<polygon points="503.21,556.41 523.21,591.05 483.21,591.05" fill="#88b0d8" stroke="#333" stroke-width="1"/>
<polygon points="199.28,576.41 199.28,536.41 233.92,556.41" fill="#88b0d8" stroke="#333" stroke-width="1"/>
<polygon points="293.92,412.49 293.92,372.49 328.56,392.49" fill="#88b0d8" stroke="#333" stroke-width="1"/>
<polygon points="388.56,248.56 388.56,208.56 423.21,228.56" fill="#88b0d8" stroke="#333" stroke-width="1"/>
<polygon points="293.92,740.33 293.92,700.33 328.56,720.33" fill="#88b0d8" stroke="#333" stroke-width="1"/>
<polygon points="388.56,576.41 388.56,536.41 423.21,556.41" fill="#88b0d8" stroke="#333" stroke-width="1"/>
<polygon points="483.21,412.49 483.21,372.49 517.85,392.49" fill="#88b0d8" stroke="#333" stroke-width="1"/>
<polygon points="388.56,904.26 388.56,864.26 423.21,884.26" fill="#88b0d8" stroke="#333" stroke-width="1"/>
<polygon points="483.21,740.33 483.21,700.33 517.85,720.33" fill="#88b0d8" stroke="#333" stroke-width="1"/>
<polygon points="577.85,576.41 577.85,536.41 612.49,556.41" fill="#88b0d8" stroke="#333" stroke-width="1"/>
<text x="10" y="1036" font-family="monospace" font-size="12">(12*d20,3)A, (12*p2,3,6,4,3)F, (12*d20,3)A</text>
</svg>
