<svg xmlns="http://www.w3.org/2000/svg" width="557" height="861">
<rect width="100%" height="100%" fill="white"/>
<polygon points="119.28,179.28 159.28,179.28 139.28,213.92" fill="#88b0d8" stroke="#333" stroke-width="1"/>
<polygon points="248.56,253.92 288.56,253.92 268.56,288.56" fill="#88b0d8" stroke="#333" stroke-width="1"/>
<polygon points="377.85,328.56 417.85,328.56 397.85,363.21" fill="#88b0d8" stroke="#333" stroke-width="1"/>
<polygon points="119.28,328.56 159.28,328.56 139.28,363.21" fill="#88b0d8" stroke="#333" stroke-width="1"/>
<polygon points="248.56,403.21 288.56,403.21 268.56,437.85" fill="#88b0d8" stroke="#333" stroke-width="1"/>
<polygon points="377.85,477.85 417.85,477.85 397.85,512.49" fill="#88b0d8" stroke="#333" stroke-width="1"/>
<polygon points="119.28,477.85 159.28,477.85 139.28,512.49" fill="#88b0d8" stroke="#333" stroke-width="1"/>
<polygon points="248.56,552.49 288.56,552.49 268.56,587.13" fill="#88b0d8" stroke="#333" stroke-width="1"/>
<polygon points="377.85,627.13 417.85,627.13 397.85,661.77" fill="#88b0d8" stroke="#333" stroke-width="1"/>
<polygon points="159.28,179.28 119.28,179.28 139.28,213.92 104.64,193.92 104.64,233.92 84.64,199.28 64.64,233.92 64.64,193.92 30.00,213.92 50.00,179.28 10.00,179.28 44.64,159.28 10.00,139.28 50.00,139.28 30.00,104.64 64.64,124.64 64.64,84.64 84.64,119.28 104.64,84.64 104.64,124.64 139.28,104.64 119.28,139.28 159.28,139.28 124.64,159.28" fill="#d8c0a0" stroke="#333" stroke-width="1"/>
<polygon points="288.56,253.92 248.56,253.92 268.56,288.56 233.92,268.56 233.92,308.56 213.92,273.92 193.92,308.56 193.92,268.56 159.28,288.56 179.28,253.92 139.28,253.92 173.92,233.92 139.28,213.92 179.28,213.92 159.28,179.28 193.92,199.28 193.92,159.28 213.92,193.92 233.92,159.28 233.92,199.28 268.56,179.28 248.56,213.92 288.56,213.92 253.92,233.92" fill="#d8c0a0" stroke="#333" stroke-width="1"/>
<polygon points="417.85,328.56 377.85,328.56 397.85,363.21 363.21,343.21 363.21,383.21 343.21,348.56 323.21,383.21 323.21,343.21 288.56,363.21 308.56,328.56 268.56,328.56 303.21,308.56 268.56,288.56 308.56,288.56 288.56,253.92 323.21,273.92 323.21,233.92 343.21,268.56 363.21,233.92 363.21,273.92 397.85,253.92 377.85,288.56 417.85,288.56 383.21,308.56" fill="#d8c0a0" stroke="#333" stroke-width="1"/>
<polygon points="159.28,328.56 119.28,328.56 139.28,363.21 104.64,343.21 104.64,383.21 84.64,348.56 64.64,383.21 64.64,343.21 30.00,363.21 50.00,328.56 10.00,328.56 44.64,308.56 10.00,288.56 50.00,288.56 30.00,253.92 64.64,273.92 64.64,233.92 84.64,268.56 104.64,233.92 104.64,273.92 139.28,253.92 119.28,288.56 159.28,288.56 124.64,308.56" fill="#d8c0a0" stroke="#333" stroke-width="1"/>
<polygon points="288.56,403.21 248.56,403.21 268.56,437.85 233.92,417.85 233.92,457.85 213.92,423.21 193.92,457.85 193.92,417.85 159.28,437.85 179.28,403.21 139.28,403.21 173.92,383.21 139.28,363.21 179.28,363.21 159.28,328.56 193.92,348.56 193.92,308.56 213.92,343.21 233.92,308.56 233.92,348.56 268.56,328.56 248.56,363.21 288.56,363.21 253.92,383.21" fill="#d8c0a0" stroke="#333" stroke-width="1"/>
<polygon points="417.85,477.85 377.85,477.85 397.85,512.49 363.21,492.49 363.21,532.49 343.21,497.85 323.21,532.49 323.21,492.49 288.56,512.49 308.56,477.85 268.56,477.85 303.21,457.85 268.56,437.85 308.56,437.85 288.56,403.21 323.21,423.21 323.21,383.21 343.21,417.85 363.21,383.21 363.21,423.21 397.85,403.21 377.85,437.85 417.85,437.85 383.21,457.85" fill="#d8c0a0" stroke="#333" stroke-width="1"/>
<polygon points="159.28,477.85 119.28,477.85 139.28,512.49 104.64,492.49 104.64,532.49 84.64,497.85 64.64,532.49 64.64,492.49 30.00,512.49 50.00,477.85 10.00,477.85 44.64,457.85 10.00,437.85 50.00,437.85 30.00,403.21 64.64,423.21 64.64,383.21 84.64,417.85 104.64,383.21 104.64,423.21 139.28,403.21 119.28,437.85 159.28,437.85 124.64,457.85" fill="#d8c0a0" stroke="#333" stroke-width="1"/>
<polygon points="288.56,552.49 248.56,552.49 268.56,587.13 233.92,567.13 233.92,607.13 213.92,572.49 193.92,607.13 193.92,567.13 159.28,587.13 179.28,552.49 139.28,552.49 173.92,532.49 139.28,512.49 179.28,512.49 159.28,477.85 193.92,497.85 193.92,457.85 213.92,492.49 233.92,457.85 233.92,497.85 268.56,477.85 248.56,512.49 288.56,512.49 253.92,532.49" fill="#d8c0a0" stroke="#333" stroke-width="1"/>
<polygon points="417.85,627.13 377.85,627.13 397.85,661.77 363.21,641.77 363.21,681.77 343.21,647.13 323.21,681.77 323.21,641.77 288.56,661.77 308.56,627.13 268.56,627.13 303.21,607.13 268.56,587.13 308.56,587.13 288.56,552.49 323.21,572.49 323.21,532.49 343.21,567.13 363.21,532.49 363.21,572.49 397.85,552.49 377.85,587.13 417.85,587.13 383.21,607.13" fill="#d8c0a0" stroke="#333" stroke-width="1"/>
<polygon points="139.28,213.92 159.28,179.28 179.28,213.92" fill="#88b0d8" stroke="#333" stroke-width="1"/>
<polygon points="268.56,288.56 288.56,253.92 308.56,288.56" fill="#88b0d8" stroke="#333" stroke-width="1"/>
<polygon points="397.85,363.21 417.85,328.56 437.85,363.21" fill="#88b0d8" stroke="#333" stroke-width="1"/>
<polygon points="139.28,363.21 159.28,328.56 179.28,363.21" fill="#88b0d8" stroke="#333" stroke-width="1"/>
<polygon points="268.56,437.85 288.56,403.21 308.56,437.85" fill="#88b0d8" stroke="#333" stroke-width="1"/>
<polygon points="397.85,512.49 417.85,477.85 437.85,512.49" fill="#88b0d8" stroke="#333" stroke-width="1"/>
<polygon points="139.28,512.49 159.28,477.85 179.28,512.49" fill="#88b0d8" stroke="#333" stroke-width="1"/>
<polygon points="268.56,587.13 288.56,552.49 308.56,587.13" fill="#88b0d8" stroke="#333" stroke-width="1"/>
<polygon points="397.85,661.77 417.85,627.13 437.85,661.77" fill="#88b0d8" stroke="#333" stroke-width="1"/>
<polygon points="179.28,213.92 159.28,179.28 193.92,199.28 193.92,159.28 213.92,193.92 233.92,159.28 233.92,199.28 268.56,179.28 248.56,213.92 288.56,213.92 253.92,233.92 288.56,253.92 248.56,253.92 268.56,288.56 233.92,268.56 233.92,308.56 213.92,273.92 193.92,308.56 193.92,268.56 159.28,288.56 179.28,253.92 139.28,253.92 173.92,233.92 139.28,213.92" fill="#d8c0a0" stroke="#333" stroke-width="1"/>
<polygon points="308.56,288.56 288.56,253.92 323.21,273.92 323.21,233.92 343.21,268.56 363.21,233.92 363.21,273.92 397.85,253.92 377.85,288.56 417.85,288.56 383.21,308.56 417.85,328.56 377.85,328.56 397.85,363.21 363.21,343.21 363.21,383.21 343.21,348.56 323.21,383.21 323.21,343.21 288.56,363.21 308.56,328.56 268.56,328.56 303.21,308.56 268.56,288.56" fill="#d8c0a0" stroke="#333" stroke-width="1"/>
<polygon points="437.85,363.21 417.85,328.56 452.49,348.56 452.49,308.56 472.49,343.21 492.49,308.56 492.49,348.56 527.13,328.56 507.13,363.21 547.13,363.21 512.49,383.21 547.13,403.21 507.13,403.21 527.13,437.85 492.49,417.85 492.49,457.85 472.49,423.21 452.49,457.85 452.49,417.85 417.85,437.85 437.85,403.21 397.85,403.21 432.49,383.21 397.85,363.21" fill="#d8c0a0" stroke="#333" stroke-width="1"/>
<polygon points="179.28,363.21 159.28,328.56 193.92,348.56 193.92,308.56 213.92,343.21 233.92,308.56 233.92,348.56 268.56,328.56 248.56,363.21 288.56,363.21 253.92,383.21 288.56,403.21 248.56,403.21 268.56,437.85 233.92,417.85 233.92,457.85 213.92,423.21 193.92,457.85 193.92,417.85 159.28,437.85 179.28,403.21 139.28,403.21 173.92,383.21 139.28,363.21" fill="#d8c0a0" stroke="#333" stroke-width="1"/>
<polygon points="308.56,437.85 288.56,403.21 323.21,423.21 323.21,383.21 343.21,417.85 363.21,383.21 363.21,423.21 397.85,403.21 377.85,437.85 417.85,437.85 383.21,457.85 417.85,477.85 377.85,477.85 397.85,512.49 363.21,492.49 363.21,532.49 343.21,497.85 323.21,532.49 323.21,492.49 288.56,512.49 308.56,477.85 268.56,477.85 303.21,457.85 268.56,437.85" fill="#d8c0a0" stroke="#333" stroke-width="1"/>
<polygon points="437.85,512.49 417.85,477.85 452.49,497.85 452.49,457.85 472.49,492.49 492.49,457.85 492.49,497.85 527.13,477.85 507.13,512.49 547.13,512.49 512.49,532.49 547.13,552.49 507.13,552.49 527.13,587.13 492.49,567.13 492.49,607.13 472.49,572.49 452.49,607.13 452.49,567.13 417.85,587.13 437.85,552.49 397.85,552.49 432.49,532.49 397.85,512.49" fill="#d8c0a0" stroke="#333" stroke-width="1"/>
<polygon points="179.28,512.49 159.28,477.85 193.92,497.85 193.92,457.85 213.92,492.49 233.92,457.85 233.92,497.85 268.56,477.85 248.56,512.49 288.56,512.49 253.92,532.49 288.56,552.49 248.56,552.49 268.56,587.13 233.92,567.13 233.92,607.13 213.92,572.49 193.92,607.13 193.92,567.13 159.28,587.13 179.28,552.49 139.28,552.49 173.92,532.49 139.28,512.49" fill="#d8c0a0" stroke="#333" stroke-width="1"/>
<polygon points="308.56,587.13 288.56,552.49 323.21,572.49 323.21,532.49 343.21,567.13 363.21,532.49 363.21,572.49 397.85,552.49 377.85,587.13 417.85,587.13 383.21,607.13 417.85,627.13 377.85,627.13 397.85,661.77 363.21,641.77 363.21,681.77 343.21,647.13 323.21,681.77 323.21,641.77 288.56,661.77 308.56,627.13 268.56,627.13 303.21,607.13 268.56,587.13" fill="#d8c0a0" stroke="#333" stroke-width="1"/>
<polygon points="437.85,661.77 417.85,627.13 452.49,647.13 452.49,607.13 472.49,641.77 492.49,607.13 492.49,647.13 527.13,627.13 507.13,661.77 547.13,661.77 512.49,681.77 547.13,701.77 507.13,701.77 527.13,736.41 492.49,716.41 492.49,756.41 472.49,721.77 452.49,756.41 452.49,716.41 417.85,736.41 437.85,701.77 397.85,701.77 432.49,681.77 397.85,661.77" fill="#d8c0a0" stroke="#333" stroke-width="1"/>
<polygon points="193.92,199.28 159.28,179.28 193.92,159.28" fill="#88b0d8" stroke="#333" stroke-width="1"/>
<polygon points="323.21,273.92 288.56,253.92 323.21,233.92" fill="#88b0d8" stroke="#333" stroke-width="1"/>
<polygon points="452.49,348.56 417.85,328.56 452.49,308.56" fill="#88b0d8" stroke="#333" stroke-width="1"/>
<polygon points="193.92,348.56 159.28,328.56 193.92,308.56" fill="#88b0d8" stroke="#333" stroke-width="1"/>
<polygon points="323.21,423.21 288.56,403.21 323.21,383.21" fill="#88b0d8" stroke="#333" stroke-width="1"/>
<polygon points="452.49,497.85 417.85,477.85 452.49,457.85" fill="#88b0d8" stroke="#333" stroke-width="1"/>
<polygon points="193.92,497.85 159.28,477.85 193.92,457.85" fill="#88b0d8" stroke="#333" stroke-width="1"/>
<polygon points="323.21,572.49 288.56,552.49 323.21,532.49" fill="#88b0d8" stroke="#333" stroke-width="1"/>
<polygon points="452.49,647.13 417.85,627.13 452.49,607.13" fill="#88b0d8" stroke="#333" stroke-width="1"/>
<polygon points="193.92,159.28 159.28,179.28 159.28,139.28" fill="#88b0d8" stroke="#333" stroke-width="1"/>
<polygon points="323.21,233.92 288.56,253.92 288.56,213.92" fill="#88b0d8" stroke="#333" stroke-width="1"/>
<polygon points="452.49,308.56 417.85,328.56 417.85,288.56" fill="#88b0d8" stroke="#333" stroke-width="1"/>
<polygon points="193.92,308.56 159.28,328.56 159.28,288.56" fill="#88b0d8" stroke="#333" stroke-width="1"/>
<polygon points="323.21,383.21 288.56,403.21 288.56,363.21" fill="#88b0d8" stroke="#333" stroke-width="1"/>
<polygon points="452.49,457.85 417.85,477.85 417.85,437.85" fill="#88b0d8" stroke="#333" stroke-width="1"/>
<polygon points="193.92,457.85 159.28,477.85 159.28,437.85" fill="#88b0d8" stroke="#333" stroke-width="1"/>
<polygon points="323.21,532.49 288.56,552.49 288.56,512.49" fill="#88b0d8" stroke="#333" stroke-width="1"/>
<polygon points="452.49,607.13 417.85,627.13 417.85,587.13" fill="#88b0d8" stroke="#333" stroke-width="1"/>
<polygon points="159.28,139.28 159.28,179.28 124.64,159.28" fill="#88b0d8" stroke="#333" stroke-width="1"/>
<polygon points="288.56,213.92 288.56,253.92 253.92,233.92" fill="#88b0d8" stroke="#333" stroke-width="1"/>
<polygon points="417.85,288.56 417.85,328.56 383.21,308.56" fill="#88b0d8" stroke="#333" stroke-width="1"/>
<polygon points="159.28,288.56 159.28,328.56 124.64,308.56" fill="#88b0d8" stroke="#333" stroke-width="1"/>
<polygon points="288.56,363.21 288.56,403.21 253.92,383.21" fill="#88b0d8" stroke="#333" stroke-width="1"/>
<polygon points="417.85,437.85 417.85,477.85 383.21,457.85" fill="#88b0d8" stroke="#333" stroke-width="1"/>
<polygon points="159.28,437.85 159.28,477.85 124.64,457.85" fill="#88b0d8" stroke="#333" stroke-width="1"/>
<polygon points="288.56,512.49 288.56,552.49 253.92,532.49" fill="#88b0d8" stroke="#333" stroke-width="1"/>
<polygon points="417.85,587.13 417.85,627.13 383.21,607.13" fill="#88b0d8" stroke="#333" stroke-width="1"/>
<polygon points="104.64,193.92 139.28,213.92 104.64,233.92" fill="#88b0d8" stroke="#333" stroke-width="1"/>
<polygon points="233.92,268.56 268.56,288.56 233.92,308.56" fill="#88b0d8" stroke="#333" stroke-width="1"/>
<polygon points="363.21,343.21 397.85,363.21 363.21,383.21" fill="#88b0d8" stroke="#333" stroke-width="1"/>
<polygon points="104.64,343.21 139.28,363.21 104.64,383.21" fill="#88b0d8" stroke="#333" stroke-width="1"/>
<polygon points="233.92,417.85 268.56,437.85 233.92,457.85" fill="#88b0d8" stroke="#333" stroke-width="1"/>
<polygon points="363.21,492.49 397.85,512.49 363.21,532.49" fill="#88b0d8" stroke="#333" stroke-width="1"/>
<polygon points="104.64,492.49 139.28,512.49 104.64,532.49" fill="#88b0d8" stroke="#333" stroke-width="1"/>
<polygon points="233.92,567.13 268.56,587.13 233.92,607.13" fill="#88b0d8" stroke="#333" stroke-width="1"/>
<polygon points="363.21,641.77 397.85,661.77 363.21,681.77" fill="#88b0d8" stroke="#333" stroke-width="1"/>
<polygon points="104.64,233.92 139.28,213.92 139.28,253.92" fill="#88b0d8" stroke="#333" stroke-width="1"/>
<polygon points="233.92,308.56 268.56,288.56 268.56,328.56" fill="#88b0d8" stroke="#333" stroke-width="1"/>
<polygon points="363.21,383.21 397.85,363.21 397.85,403.21" fill="#88b0d8" stroke="#333" stroke-width="1"/>
<polygon points="104.64,383.21 139.28,363.21 139.28,403.21" fill="#88b0d8" stroke="#333" stroke-width="1"/>
<polygon points="233.92,457.85 268.56,437.85 268.56,477.85" fill="#88b0d8" stroke="#333" stroke-width="1"/>
<polygon points="363.21,532.49 397.85,512.49 397.85,552.49" fill="#88b0d8" stroke="#333" stroke-width="1"/>
<polygon points="104.64,532.49 139.28,512.49 139.28,552.49" fill="#88b0d8" stroke="#333" stroke-width="1"/>
<polygon points="233.92,607.13 268.56,587.13 268.56,627.13" fill="#88b0d8" stroke="#333" stroke-width="1"/>
<polygon points="363.21,681.77 397.85,661.77 397.85,701.77" fill="#88b0d8" stroke="#333" stroke-width="1"/>
<polygon points="139.28,253.92 139.28,213.92 173.92,233.92" fill="#88b0d8" stroke="#333" stroke-width="1"/>
<polygon points="268.56,328.56 268.56,288.56 303.21,308.56" fill="#88b0d8" stroke="#333" stroke-width="1"/>
<polygon points="397.85,403.21 397.85,363.21 432.49,383.21" fill="#88b0d8" stroke="#333" stroke-width="1"/>
<polygon points="139.28,403.21 139.28,363.21 173.92,383.21" fill="#88b0d8" stroke="#333" stroke-width="1"/>
<polygon points="268.56,477.85 268.56,437.85 303.21,457.85" fill="#88b0d8" stroke="#333" stroke-width="1"/>
<polygon points="397.85,552.49 397.85,512.49 432.49,532.49" fill="#88b0d8" stroke="#333" stroke-width="1"/>
<polygon points="139.28,552.49 139.28,512.49 173.92,532.49" fill="#88b0d8" stroke="#333" stroke-width="1"/>
<polygon points="268.56,627.13 268.56,587.13 303.21,607.13" fill="#88b0d8" stroke="#333" stroke-width="1"/>
<polygon points="397.85,701.77 397.85,661.77 432.49,681.77" fill="#88b0d8" stroke="#333" stroke-width="1"/>
<polygon points="213.92,193.92 193.92,159.28 233.92,159.28" fill="#88b0d8" stroke="#333" stroke-width="1"/>
<polygon points="343.21,268.56 323.21,233.92 363.21,233.92" fill="#88b0d8" stroke="#333" stroke-width="1"/>
<polygon points="472.49,343.21 452.49,308.56 492.49,308.56" fill="#88b0d8" stroke="#333" stroke-width="1"/>
<polygon points="213.92,343.21 193.92,308.56 233.92,308.56" fill="#88b0d8" stroke="#333" stroke-width="1"/>
<polygon points="343.21,417.85 323.21,383.21 363.21,383.21" fill="#88b0d8" stroke="#333" stroke-width="1"/>
<polygon points="472.49,492.49 452.49,457.85 492.49,457.85" fill="#88b0d8" stroke="#333" stroke-width="1"/>
<polygon points="213.92,492.49 193.92,457.85 233.92,457.85" fill="#88b0d8" stroke="#333" stroke-width="1"/>
<polygon points="343.21,567.13 323.21,532.49 363.21,532.49" fill="#88b0d8" stroke="#333" stroke-width="1"/>
<polygon points="472.49,641.77 452.49,607.13 492.49,607.13" fill="#88b0d8" stroke="#333" stroke-width="1"/>
<polygon points="233.92,159.28 193.92,159.28 213.92,124.64" fill="#88b0d8" stroke="#333" stroke-width="1"/>
<polygon points="363.21,233.92 323.21,233.92 343.21,199.28" fill="#88b0d8" stroke="#333" stroke-width="1"/>
<polygon points="492.49,308.56 452.49,308.56 472.49,273.92" fill="#88b0d8" stroke="#333" stroke-width="1"/>
<polygon points="233.92,308.56 193.92,308.56 213.92,273.92" fill="#88b0d8" stroke="#333" stroke-width="1"/>
<polygon points="363.21,383.21 323.21,383.21 343.21,348.56" fill="#88b0d8" stroke="#333" stroke-width="1"/>
<polygon points="492.49,457.85 452.49,457.85 472.49,423.21" fill="#88b0d8" stroke="#333" stroke-width="1"/>
<polygon points="233.92,457.85 193.92,457.85 213.92,423.21" fill="#88b0d8" stroke="#333" stroke-width="1"/>
<polygon points="363.21,532.49 323.21,532.49 343.21,497.85" fill="#88b0d8" stroke="#333" stroke-width="1"/>
<polygon points="492.49,607.13 452.49,607.13 472.49,572.49" fill="#88b0d8" stroke="#333" stroke-width="1"/>
<polygon points="213.92,124.64 193.92,159.28 193.92,119.28 159.28,139.28 179.28,104.64 139.28,104.64 173.92,84.64 139.28,64.64 179.28,64.64 159.28,30.00 193.92,50.00 193.92,10.00 213.92,44.64 233.92,10.00 233.92,50.00 268.56,30.00 248.56,64.64 288.56,64.64 253.92,84.64 288.56,104.64 248.56,104.64 268.56,139.28 233.92,119.28 233.92,159.28" fill="#d8c0a0" stroke="#333" stroke-width="1"/>
<polygon points="343.21,199.28 323.21,233.92 323.21,193.92 288.56,213.92 308.56,179.28 268.56,179.28 303.21,159.28 268.56,139.28 308.56,139.28 288.56,104.64 323.21,124.64 323.21,84.64 343.21,119.28 363.21,84.64 363.21,124.64 397.85,104.64 377.85,139.28 417.85,139.28 383.21,159.28 417.85,179.28 377.85,179.28 397.85,213.92 363.21,193.92 363.21,233.92" fill="#d8c0a0" stroke="#333" stroke-width="1"/>
<polygon points="472.49,273.92 452.49,308.56 452.49,268.56 417.85,288.56 437.85,253.92 397.85,253.92 432.49,233.92 397.85,213.92 437.85,213.92 417.85,179.28 452.49,199.28 452.49,159.28 472.49,193.92 492.49,159.28 492.49,199.28 527.13,179.28 507.13,213.92 547.13,213.92 512.49,233.92 547.13,253.92 507.13,253.92 527.13,288.56 492.49,268.56 492.49,308.56" fill="#d8c0a0" stroke="#333" stroke-width="1"/>
<polygon points="213.92,273.92 193.92,308.56 193.92,268.56 159.28,288.56 179.28,253.92 139.28,253.92 173.92,233.92 139.28,213.92 179.28,213.92 159.28,179.28 193.92,199.28 193.92,159.28 213.92,193.92 233.92,159.28 233.92,199.28 268.56,179.28 248.56,213.92 288.56,213.92 253.92,233.92 288.56,253.92 248.56,253.92 268.56,288.56 233.92,268.56 233.92,308.56" fill="#d8c0a0" stroke="#333" stroke-width="1"/>
<polygon points="343.21,348.56 323.21,383.21 323.21,343.21 288.56,363.21 308.56,328.56 268.56,328.56 303.21,308.56 268.56,288.56 308.56,288.56 288.56,253.92 323.21,273.92 323.21,233.92 343.21,268.56 363.21,233.92 363.21,273.92 397.85,253.92 377.85,288.56 417.85,288.56 383.21,308.56 417.85,328.56 377.85,328.56 397.85,363.21 363.21,343.21 363.21,383.21" fill="#d8c0a0" stroke="#333" stroke-width="1"/>
<polygon points="472.49,423.21 452.49,457.85 452.49,417.85 417.85,437.85 437.85,403.21 397.85,403.21 432.49,383.21 397.85,363.21 437.85,363.21 417.85,328.56 452.49,348.56 452.49,308.56 472.49,343.21 492.49,308.56 492.49,348.56 527.13,328.56 507.13,363.21 547.13,363.21 512.49,383.21 547.13,403.21 507.13,403.21 527.13,437.85 492.49,417.85 492.49,457.85" fill="#d8c0a0" stroke="#333" stroke-width="1"/>
<polygon points="213.92,423.21 193.92,457.85 193.92,417.85 159.28,437.85 179.28,403.21 139.28,403.21 173.92,383.21 139.28,363.21 179.28,363.21 159.28,328.56 193.92,348.56 193.92,308.56 213.92,343.21 233.92,308.56 233.92,348.56 268.56,328.56 248.56,363.21 288.56,363.21 253.92,383.21 288.56,403.21 248.56,403.21 268.56,437.85 233.92,417.85 233.92,457.85" fill="#d8c0a0" stroke="#333" stroke-width="1"/>
<polygon points="343.21,497.85 323.21,532.49 323.21,492.49 288.56,512.49 308.56,477.85 268.56,477.85 303.21,457.85 268.56,437.85 308.56,437.85 288.56,403.21 323.21,423.21 323.21,383.21 343.21,417.85 363.21,383.21 363.21,423.21 397.85,403.21 377.85,437.85 417.85,437.85 383.21,457.85 417.85,477.85 377.85,477.85 397.85,512.49 363.21,492.49 363.21,532.49" fill="#d8c0a0" stroke="#333" stroke-width="1"/>
<polygon points="472.49,572.49 452.49,607.13 452.49,567.13 417.85,587.13 437.85,552.49 397.85,552.49 432.49,532.49 397.85,512.49 437.85,512.49 417.85,477.85 452.49,497.85 452.49,457.85 472.49,492.49 492.49,457.85 492.49,497.85 527.13,477.85 507.13,512.49 547.13,512.49 512.49,532.49 547.13,552.49 507.13,552.49 527.13,587.13 492.49,567.13 492.49,607.13" fill="#d8c0a0" stroke="#333" stroke-width="1"/>
<polygon points="193.92,119.28 193.92,159.28 159.28,139.28" fill="#88b0d8" stroke="#333" stroke-width="1"/>
<polygon points="323.21,193.92 323.21,233.92 288.56,213.92" fill="#88b0d8" stroke="#333" stroke-width="1"/>
<polygon points="452.49,268.56 452.49,308.56 417.85,288.56" fill="#88b0d8" stroke="#333" stroke-width="1"/>
<polygon points="193.92,268.56 193.92,308.56 159.28,288.56" fill="#88b0d8" stroke="#333" stroke-width="1"/>
<polygon points="323.21,343.21 323.21,383.21 288.56,363.21" fill="#88b0d8" stroke="#333" stroke-width="1"/>
<polygon points="452.49,417.85 452.49,457.85 417.85,437.85" fill="#88b0d8" stroke="#333" stroke-width="1"/>
<polygon points="193.92,417.85 193.92,457.85 159.28,437.85" fill="#88b0d8" stroke="#333" stroke-width="1"/>
<polygon points="323.21,492.49 323.21,532.49 288.56,512.49" fill="#88b0d8" stroke="#333" stroke-width="1"/>
<polygon points="452.49,567.13 452.49,607.13 417.85,587.13" fill="#88b0d8" stroke="#333" stroke-width="1"/>
<polygon points="179.28,104.64 159.28,139.28 139.28,104.64" fill="#88b0d8" stroke="#333" stroke-width="1"/>
<polygon points="308.56,179.28 288.56,213.92 268.56,179.28" fill="#88b0d8" stroke="#333" stroke-width="1"/>
<polygon points="437.85,253.92 417.85,288.56 397.85,253.92" fill="#88b0d8" stroke="#333" stroke-width="1"/>
<polygon points="179.28,253.92 159.28,288.56 139.28,253.92" fill="#88b0d8" stroke="#333" stroke-width="1"/>
<polygon points="308.56,328.56 288.56,363.21 268.56,328.56" fill="#88b0d8" stroke="#333" stroke-width="1"/>
<polygon points="437.85,403.21 417.85,437.85 397.85,403.21" fill="#88b0d8" stroke="#333" stroke-width="1"/>
<polygon points="179.28,403.21 159.28,437.85 139.28,403.21" fill="#88b0d8" stroke="#333" stroke-width="1"/>
<polygon points="308.56,477.85 288.56,512.49 268.56,477.85" fill="#88b0d8" stroke="#333" stroke-width="1"/>
<polygon points="437.85,552.49 417.85,587.13 397.85,552.49" fill="#88b0d8" stroke="#333" stroke-width="1"/>
<polygon points="139.28,104.64 159.28,139.28 119.28,139.28" fill="#88b0d8" stroke="#333" stroke-width="1"/>
<polygon points="268.56,179.28 288.56,213.92 248.56,213.92" fill="#88b0d8" stroke="#333" stroke-width="1"/>
<polygon points="397.85,253.92 417.85,288.56 377.85,288.56" fill="#88b0d8" stroke="#333" stroke-width="1"/>
<polygon points="139.28,253.92 159.28,288.56 119.28,288.56" fill="#88b0d8" stroke="#333" stroke-width="1"/>
<polygon points="268.56,328.56 288.56,363.21 248.56,363.21" fill="#88b0d8" stroke="#333" stroke-width="1"/>
<polygon points="397.85,403.21 417.85,437.85 377.85,437.85" fill="#88b0d8" stroke="#333" stroke-width="1"/>
<polygon points="139.28,403.21 159.28,437.85 119.28,437.85" fill="#88b0d8" stroke="#333" stroke-width="1"/>
<polygon points="268.56,477.85 288.56,512.49 248.56,512.49" fill="#88b0d8" stroke="#333" stroke-width="1"/>
<polygon points="397.85,552.49 417.85,587.13 377.85,587.13" fill="#88b0d8" stroke="#333" stroke-width="1"/>
<polygon points="84.64,199.28 104.64,233.92 64.64,233.92" fill="#88b0d8" stroke="#333" stroke-width="1"/>
<polygon points="213.92,273.92 233.92,308.56 193.92,308.56" fill="#88b0d8" stroke="#333" stroke-width="1"/>
<polygon points="343.21,348.56 363.21,383.21 323.21,383.21" fill="#88b0d8" stroke="#333" stroke-width="1"/>
<polygon points="84.64,348.56 104.64,383.21 64.64,383.21" fill="#88b0d8" stroke="#333" stroke-width="1"/>
<polygon points="213.92,423.21 233.92,457.85 193.92,457.85" fill="#88b0d8" stroke="#333" stroke-width="1"/>
<polygon points="343.21,497.85 363.21,532.49 323.21,532.49" fill="#88b0d8" stroke="#333" stroke-width="1"/>
<polygon points="84.64,497.85 104.64,532.49 64.64,532.49" fill="#88b0d8" stroke="#333" stroke-width="1"/>
<polygon points="213.92,572.49 233.92,607.13 193.92,607.13" fill="#88b0d8" stroke="#333" stroke-width="1"/>
<polygon points="343.21,647.13 363.21,681.77 323.21,681.77" fill="#88b0d8" stroke="#333" stroke-width="1"/>
<polygon points="104.64,233.92 84.64,268.56 64.64,233.92" fill="#88b0d8" stroke="#333" stroke-width="1"/>
<polygon points="233.92,308.56 213.92,343.21 193.92,308.56" fill="#88b0d8" stroke="#333" stroke-width="1"/>
<polygon points="363.21,383.21 343.21,417.85 323.21,383.21" fill="#88b0d8" stroke="#333" stroke-width="1"/>
<polygon points="104.64,383.21 84.64,417.85 64.64,383.21" fill="#88b0d8" stroke="#333" stroke-width="1"/>
<polygon points="233.92,457.85 213.92,492.49 193.92,457.85" fill="#88b0d8" stroke="#333" stroke-width="1"/>
<polygon points="363.21,532.49 343.21,567.13 323.21,532.49" fill="#88b0d8" stroke="#333" stroke-width="1"/>
<polygon points="104.64,532.49 84.64,567.13 64.64,532.49" fill="#88b0d8" stroke="#333" stroke-width="1"/>
<polygon points="233.92,607.13 213.92,641.77 193.92,607.13" fill="#88b0d8" stroke="#333" stroke-width="1"/>
<polygon points="363.21,681.77 343.21,716.41 323.21,681.77" fill="#88b0d8" stroke="#333" stroke-width="1"/>
<polygon points="84.64,268.56 104.64,233.92 104.64,273.92 139.28,253.92 119.28,288.56 159.28,288.56 124.64,308.56 159.28,328.56 119.28,328.56 139.28,363.21 104.64,343.21 104.64,383.21 84.64,348.56 64.64,383.21 64.64,343.21 30.00,363.21 50.00,328.56 10.00,328.56 44.64,308.56 10.00,288.56 50.00,288.56 30.00,253.92 64.64,273.92 64.64,233.92" fill="#d8c0a0" stroke="#333" stroke-width="1"/>
<polygon points="213.92,343.21 233.92,308.56 233.92,348.56 268.56,328.56 248.56,363.21 288.56,363.21 253.92,383.21 288.56,403.21 248.56,403.21 268.56,437.85 233.92,417.85 233.92,457.85 213.92,423.21 193.92,457.85 193.92,417.85 159.28,437.85 179.28,403.21 139.28,403.21 173.92,383.21 139.28,363.21 179.28,363.21 159.28,328.56 193.92,348.56 193.92,308.56" fill="#d8c0a0" stroke="#333" stroke-width="1"/>
<polygon points="343.21,417.85 363.21,383.21 363.21,423.21 397.85,403.21 377.85,437.85 417.85,437.85 383.21,457.85 417.85,477.85 377.85,477.85 397.85,512.49 363.21,492.49 363.21,532.49 343.21,497.85 323.21,532.49 323.21,492.49 288.56,512.49 308.56,477.85 268.56,477.85 303.21,457.85 268.56,437.85 308.56,437.85 288.56,403.21 323.21,423.21 323.21,383.21" fill="#d8c0a0" stroke="#333" stroke-width="1"/>
<polygon points="84.64,417.85 104.64,383.21 104.64,423.21 139.28,403.21 119.28,437.85 159.28,437.85 124.64,457.85 159.28,477.85 119.28,477.85 139.28,512.49 104.64,492.49 104.64,532.49 84.64,497.85 64.64,532.49 64.64,492.49 30.00,512.49 50.00,477.85 10.00,477.85 44.64,457.85 10.00,437.85 50.00,437.85 30.00,403.21 64.64,423.21 64.64,383.21" fill="#d8c0a0" stroke="#333" stroke-width="1"/>
<polygon points="213.92,492.49 233.92,457.85 233.92,497.85 268.56,477.85 248.56,512.49 288.56,512.49 253.92,532.49 288.56,552.49 248.56,552.49 268.56,587.13 233.92,567.13 233.92,607.13 213.92,572.49 193.92,607.13 193.92,567.13 159.28,587.13 179.28,552.49 139.28,552.49 173.92,532.49 139.28,512.49 179.28,512.49 159.28,477.85 193.92,497.85 193.92,457.85" fill="#d8c0a0" stroke="#333" stroke-width="1"/>
<polygon points="343.21,567.13 363.21,532.49 363.21,572.49 397.85,552.49 377.85,587.13 417.85,587.13 383.21,607.13 417.85,627.13 377.85,627.13 397.85,661.77 363.21,641.77 363.21,681.77 343.21,647.13 323.21,681.77 323.21,641.77 288.56,661.77 308.56,627.13 268.56,627.13 303.21,607.13 268.56,587.13 308.56,587.13 288.56,552.49 323.21,572.49 323.21,532.49" fill="#d8c0a0" stroke="#333" stroke-width="1"/>
<polygon points="84.64,567.13 104.64,532.49 104.64,572.49 139.28,552.49 119.28,587.13 159.28,587.13 124.64,607.13 159.28,627.13 119.28,627.13 139.28,661.77 104.64,641.77 104.64,681.77 84.64,647.13 64.64,681.77 64.64,641.77 30.00,661.77 50.00,627.13 10.00,627.13 44.64,607.13 10.00,587.13 50.00,587.13 30.00,552.49 64.64,572.49 64.64,532.49" fill="#d8c0a0" stroke="#333" stroke-width="1"/>
<polygon points="213.92,641.77 233.92,607.13 233.92,647.13 268.56,627.13 248.56,661.77 288.56,661.77 253.92,681.77 288.56,701.77 248.56,701.77 268.56,736.41 233.92,716.41 233.92,756.41 213.92,721.77 193.92,756.41 193.92,716.41 159.28,736.41 179.28,701.77 139.28,701.77 173.92,681.77 139.28,661.77 179.28,661.77 159.28,627.13 193.92,647.13 193.92,607.13" fill="#d8c0a0" stroke="#333" stroke-width="1"/>
<polygon points="343.21,716.41 363.21,681.77 363.21,721.77 397.85,701.77 377.85,736.41 417.85,736.41 383.21,756.41 417.85,776.41 377.85,776.41 397.85,811.05 363.21,791.05 363.21,831.05 343.21,796.41 323.21,831.05 323.21,791.05 288.56,811.05 308.56,776.41 268.56,776.41 303.21,756.41 268.56,736.41 308.56,736.41 288.56,701.77 323.21,721.77 323.21,681.77" fill="#d8c0a0" stroke="#333" stroke-width="1"/>
<polygon points="104.64,273.92 104.64,233.92 139.28,253.92" fill="#88b0d8" stroke="#333" stroke-width="1"/>
<polygon points="233.92,348.56 233.92,308.56 268.56,328.56" fill="#88b0d8" stroke="#333" stroke-width="1"/>
<polygon points="363.21,423.21 363.21,383.21 397.85,403.21" fill="#88b0d8" stroke="#333" stroke-width="1"/>
<polygon points="104.64,423.21 104.64,383.21 139.28,403.21" fill="#88b0d8" stroke="#333" stroke-width="1"/>
<polygon points="233.92,497.85 233.92,457.85 268.56,477.85" fill="#88b0d8" stroke="#333" stroke-width="1"/>
<polygon points="363.21,572.49 363.21,532.49 397.85,552.49" fill="#88b0d8" stroke="#333" stroke-width="1"/>
<polygon points="104.64,572.49 104.64,532.49 139.28,552.49" fill="#88b0d8" stroke="#333" stroke-width="1"/>
<polygon points="233.92,647.13 233.92,607.13 268.56,627.13" fill="#88b0d8" stroke="#333" stroke-width="1"/>
<polygon points="363.21,721.77 363.21,681.77 397.85,701.77" fill="#88b0d8" stroke="#333" stroke-width="1"/>
<polygon points="119.28,288.56 139.28,253.92 159.28,288.56" fill="#88b0d8" stroke="#333" stroke-width="1"/>
<polygon points="248.56,363.21 268.56,328.56 288.56,363.21" fill="#88b0d8" stroke="#333" stroke-width="1"/>
<polygon points="377.85,437.85 397.85,403.21 417.85,437.85" fill="#88b0d8" stroke="#333" stroke-width="1"/>
<polygon points="119.28,437.85 139.28,403.21 159.28,437.85" fill="#88b0d8" stroke="#333" stroke-width="1"/>
<polygon points="248.56,512.49 268.56,477.85 288.56,512.49" fill="#88b0d8" stroke="#333" stroke-width="1"/>
<polygon points="377.85,587.13 397.85,552.49 417.85,587.13" fill="#88b0d8" stroke="#333" stroke-width="1"/>
<polygon points="119.28,587.13 139.28,552.49 159.28,587.13" fill="#88b0d8" stroke="#333" stroke-width="1"/>
<polygon points="248.56,661.77 268.56,627.13 288.56,661.77" fill="#88b0d8" stroke="#333" stroke-width="1"/>
<polygon points="377.85,736.41 397.85,701.77 417.85,736.41" fill="#88b0d8" stroke="#333" stroke-width="1"/>
<polygon points="139.28,253.92 179.28,253.92 159.28,288.56" fill="#88b0d8" stroke="#333" stroke-width="1"/>
<polygon points="268.56,328.56 308.56,328.56 288.56,363.21" fill="#88b0d8" stroke="#333" stroke-width="1"/>
<polygon points="397.85,403.21 437.85,403.21 417.85,437.85" fill="#88b0d8" stroke="#333" stroke-width="1"/>
<polygon points="139.28,403.21 179.28,403.21 159.28,437.85" fill="#88b0d8" stroke="#333" stroke-width="1"/>
<polygon points="268.56,477.85 308.56,477.85 288.56,512.49" fill="#88b0d8" stroke="#333" stroke-width="1"/>
<polygon points="397.85,552.49 437.85,552.49 417.85,587.13" fill="#88b0d8" stroke="#333" stroke-width="1"/>
<polygon points="139.28,552.49 179.28,552.49 159.28,587.13" fill="#88b0d8" stroke="#333" stroke-width="1"/>
<polygon points="268.56,627.13 308.56,627.13 288.56,661.77" fill="#88b0d8" stroke="#333" stroke-width="1"/>
<polygon points="397.85,701.77 437.85,701.77 417.85,736.41" fill="#88b0d8" stroke="#333" stroke-width="1"/>
<text x="10" y="853" font-family="monospace" font-size="12">(12*d20,3)A, (12*p2,3,3,12*p2,3,3,3)A, (12*d20,3)A</text>
</svg>
