<svg xmlns="http://www.w3.org/2000/svg" width="617" height="856">
<rect width="100%" height="100%" fill="white"/>
<polygon points="173.92,457.85 213.92,457.85 248.56,477.85 268.56,512.49 268.56,552.49 248.56,587.13 213.92,607.13 173.92,607.13 139.28,587.13 119.28,552.49 119.28,512.49 139.28,477.85" fill="#b8a0d0" stroke="#333" stroke-width="1"/>
<polygon points="283.21,567.13 323.21,567.13 357.85,587.13 377.85,621.77 377.85,661.77 357.85,696.41 323.21,716.41 283.21,716.41 248.56,696.41 228.56,661.77 228.56,621.77 248.56,587.13" fill="#b8a0d0" stroke="#333" stroke-width="1"/>
<polygon points="392.49,676.41 432.49,676.41 467.13,696.41 487.13,731.05 487.13,771.05 467.13,805.69 432.49,825.69 392.49,825.69 357.85,805.69 337.85,771.05 337.85,731.05 357.85,696.41" fill="#b8a0d0" stroke="#333" stroke-width="1"/>
<polygon points="213.92,308.56 253.92,308.56 288.56,328.56 308.56,363.21 308.56,403.21 288.56,437.85 253.92,457.85 213.92,457.85 179.28,437.85 159.28,403.21 159.28,363.21 179.28,328.56" fill="#b8a0d0" stroke="#333" stroke-width="1"/>
<polygon points="323.21,417.85 363.21,417.85 397.85,437.85 417.85,472.49 417.85,512.49 397.85,547.13 363.21,567.13 323.21,567.13 288.56,547.13 268.56,512.49 268.56,472.49 288.56,437.85" fill="#b8a0d0" stroke="#333" stroke-width="1"/>
<polygon points="432.49,527.13 472.49,527.13 507.13,547.13 527.13,581.77 527.13,621.77 507.13,656.41 472.49,676.41 432.49,676.41 397.85,656.41 377.85,621.77 377.85,581.77 397.85,547.13" fill="#b8a0d0" stroke="#333" stroke-width="1"/>
<polygon points="253.92,159.28 293.92,159.28 328.56,179.28 348.56,213.92 348.56,253.92 328.56,288.56 293.92,308.56 253.92,308.56 219.28,288.56 199.28,253.92 199.28,213.92 219.28,179.28" fill="#b8a0d0" stroke="#333" stroke-width="1"/>
<polygon points="363.21,268.56 403.21,268.56 437.85,288.56 457.85,323.21 457.85,363.21 437.85,397.85 403.21,417.85 363.21,417.85 328.56,397.85 308.56,363.21 308.56,323.21 328.56,288.56" fill="#b8a0d0" stroke="#333" stroke-width="1"/>
<polygon points="472.49,377.85 512.49,377.85 547.13,397.85 567.13,432.49 567.13,472.49 547.13,507.13 512.49,527.13 472.49,527.13 437.85,507.13 417.85,472.49 417.85,432.49 437.85,397.85" fill="#b8a0d0" stroke="#333" stroke-width="1"/>
<polygon points="213.92,457.85 173.92,457.85 139.28,477.85 159.28,443.21 159.28,403.21 179.28,437.85" fill="#e0a070" stroke="#333" stroke-width="1"/>
<polygon points="323.21,567.13 283.21,567.13 248.56,587.13 268.56,552.49 268.56,512.49 288.56,547.13" fill="#e0a070" stroke="#333" stroke-width="1"/>
<polygon points="432.49,676.41 392.49,676.41 357.85,696.41 377.85,661.77 377.85,621.77 397.85,656.41" fill="#e0a070" stroke="#333" stroke-width="1"/>
<polygon points="253.92,308.56 213.92,308.56 179.28,328.56 199.28,293.92 199.28,253.92 219.28,288.56" fill="#e0a070" stroke="#333" stroke-width="1"/>
<polygon points="363.21,417.85 323.21,417.85 288.56,437.85 308.56,403.21 308.56,363.21 328.56,397.85" fill="#e0a070" stroke="#333" stroke-width="1"/>
<polygon points="472.49,527.13 432.49,527.13 397.85,547.13 417.85,512.49 417.85,472.49 437.85,507.13" fill="#e0a070" stroke="#333" stroke-width="1"/>
<polygon points="293.92,159.28 253.92,159.28 219.28,179.28 239.28,144.64 239.28,104.64 259.28,139.28" fill="#e0a070" stroke="#333" stroke-width="1"/>
<polygon points="403.21,268.56 363.21,268.56 328.56,288.56 348.56,253.92 348.56,213.92 368.56,248.56" fill="#e0a070" stroke="#333" stroke-width="1"/>
<polygon points="512.49,377.85 472.49,377.85 437.85,397.85 457.85,363.21 457.85,323.21 477.85,357.85" fill="#e0a070" stroke="#333" stroke-width="1"/>
<polygon points="248.56,477.85 213.92,457.85 253.92,457.85 288.56,437.85 268.56,472.49 268.56,512.49" fill="#e0a070" stroke="#333" stroke-width="1"/>
<polygon points="357.85,587.13 323.21,567.13 363.21,567.13 397.85,547.13 377.85,581.77 377.85,621.77" fill="#e0a070" stroke="#333" stroke-width="1"/>
<polygon points="467.13,696.41 432.49,676.41 472.49,676.41 507.13,656.41 487.13,691.05 487.13,731.05" fill="#e0a070" stroke="#333" stroke-width="1"/>
<polygon points="288.56,328.56 253.92,308.56 293.92,308.56 328.56,288.56 308.56,323.21 308.56,363.21" fill="#e0a070" stroke="#333" stroke-width="1"/>
<polygon points="397.85,437.85 363.21,417.85 403.21,417.85 437.85,397.85 417.85,432.49 417.85,472.49" fill="#e0a070" stroke="#333" stroke-width="1"/>
<polygon points="507.13,547.13 472.49,527.13 512.49,527.13 547.13,507.13 527.13,541.77 527.13,581.77" fill="#e0a070" stroke="#333" stroke-width="1"/>
<polygon points="328.56,179.28 293.92,159.28 333.92,159.28 368.56,139.28 348.56,173.92 348.56,213.92" fill="#e0a070" stroke="#333" stroke-width="1"/>
<polygon points="437.85,288.56 403.21,268.56 443.21,268.56 477.85,248.56 457.85,283.21 457.85,323.21" fill="#e0a070" stroke="#333" stroke-width="1"/>
<polygon points="547.13,397.85 512.49,377.85 552.49,377.85 587.13,357.85 567.13,392.49 567.13,432.49" fill="#e0a070" stroke="#333" stroke-width="1"/>
<polygon points="253.92,457.85 213.92,457.85 179.28,437.85 159.28,403.21 159.28,363.21 179.28,328.56 213.92,308.56 253.92,308.56 288.56,328.56 308.56,363.21 308.56,403.21 288.56,437.85" fill="#b8a0d0" stroke="#333" stroke-width="1"/>
<polygon points="363.21,567.13 323.21,567.13 288.56,547.13 268.56,512.49 268.56,472.49 288.56,437.85 323.21,417.85 363.21,417.85 397.85,437.85 417.85,472.49 417.85,512.49 397.85,547.13" fill="#b8a0d0" stroke="#333" stroke-width="1"/>
<polygon points="472.49,676.41 432.49,676.41 397.85,656.41 377.85,621.77 377.85,581.77 397.85,547.13 432.49,527.13 472.49,527.13 507.13,547.13 527.13,581.77 527.13,621.77 507.13,656.41" fill="#b8a0d0" stroke="#333" stroke-width="1"/>
<polygon points="293.92,308.56 253.92,308.56 219.28,288.56 199.28,253.92 199.28,213.92 219.28,179.28 253.92,159.28 293.92,159.28 328.56,179.28 348.56,213.92 348.56,253.92 328.56,288.56" fill="#b8a0d0" stroke="#333" stroke-width="1"/>
<polygon points="403.21,417.85 363.21,417.85 328.56,397.85 308.56,363.21 308.56,323.21 328.56,288.56 363.21,268.56 403.21,268.56 437.85,288.56 457.85,323.21 457.85,363.21 437.85,397.85" fill="#b8a0d0" stroke="#333" stroke-width="1"/>
<polygon points="512.49,527.13 472.49,527.13 437.85,507.13 417.85,472.49 417.85,432.49 437.85,397.85 472.49,377.85 512.49,377.85 547.13,397.85 567.13,432.49 567.13,472.49 547.13,507.13" fill="#b8a0d0" stroke="#333" stroke-width="1"/>
<polygon points="333.92,159.28 293.92,159.28 259.28,139.28 239.28,104.64 239.28,64.64 259.28,30.00 293.92,10.00 333.92,10.00 368.56,30.00 388.56,64.64 388.56,104.64 368.56,139.28" fill="#b8a0d0" stroke="#333" stroke-width="1"/>
<polygon points="443.21,268.56 403.21,268.56 368.56,248.56 348.56,213.92 348.56,173.92 368.56,139.28 403.21,119.28 443.21,119.28 477.85,139.28 497.85,173.92 497.85,213.92 477.85,248.56" fill="#b8a0d0" stroke="#333" stroke-width="1"/>
<polygon points="552.49,377.85 512.49,377.85 477.85,357.85 457.85,323.21 457.85,283.21 477.85,248.56 512.49,228.56 552.49,228.56 587.13,248.56 607.13,283.21 607.13,323.21 587.13,357.85" fill="#b8a0d0" stroke="#333" stroke-width="1"/>
<polygon points="159.28,443.21 139.28,477.85 104.64,497.85 64.64,497.85 30.00,477.85 10.00,443.21 10.00,403.21 30.00,368.56 64.64,348.56 104.64,348.56 139.28,368.56 159.28,403.21" fill="#b8a0d0" stroke="#333" stroke-width="1"/>
<polygon points="268.56,552.49 248.56,587.13 213.92,607.13 173.92,607.13 139.28,587.13 119.28,552.49 119.28,512.49 139.28,477.85 173.92,457.85 213.92,457.85 248.56,477.85 268.56,512.49" fill="#b8a0d0" stroke="#333" stroke-width="1"/>
<polygon points="377.85,661.77 357.85,696.41 323.21,716.41 283.21,716.41 248.56,696.41 228.56,661.77 228.56,621.77 248.56,587.13 283.21,567.13 323.21,567.13 357.85,587.13 377.85,621.77" fill="#b8a0d0" stroke="#333" stroke-width="1"/>
<polygon points="199.28,293.92 179.28,328.56 144.64,348.56 104.64,348.56 70.00,328.56 50.00,293.92 50.00,253.92 70.00,219.28 104.64,199.28 144.64,199.28 179.28,219.28 199.28,253.92" fill="#b8a0d0" stroke="#333" stroke-width="1"/>
<polygon points="308.56,403.21 288.56,437.85 253.92,457.85 213.92,457.85 179.28,437.85 159.28,403.21 159.28,363.21 179.28,328.56 213.92,308.56 253.92,308.56 288.56,328.56 308.56,363.21" fill="#b8a0d0" stroke="#333" stroke-width="1"/>
<polygon points="417.85,512.49 397.85,547.13 363.21,567.13 323.21,567.13 288.56,547.13 268.56,512.49 268.56,472.49 288.56,437.85 323.21,417.85 363.21,417.85 397.85,437.85 417.85,472.49" fill="#b8a0d0" stroke="#333" stroke-width="1"/>
<polygon points="239.28,144.64 219.28,179.28 184.64,199.28 144.64,199.28 110.00,179.28 90.00,144.64 90.00,104.64 110.00,70.00 144.64,50.00 184.64,50.00 219.28,70.00 239.28,104.64" fill="#b8a0d0" stroke="#333" stroke-width="1"/>
<polygon points="348.56,253.92 328.56,288.56 293.92,308.56 253.92,308.56 219.28,288.56 199.28,253.92 199.28,213.92 219.28,179.28 253.92,159.28 293.92,159.28 328.56,179.28 348.56,213.92" fill="#b8a0d0" stroke="#333" stroke-width="1"/>
<polygon points="457.85,363.21 437.85,397.85 403.21,417.85 363.21,417.85 328.56,397.85 308.56,363.21 308.56,323.21 328.56,288.56 363.21,268.56 403.21,268.56 437.85,288.56 457.85,323.21" fill="#b8a0d0" stroke="#333" stroke-width="1"/>
<polygon points="104.64,497.85 139.28,477.85 119.28,512.49 119.28,552.49 99.28,517.85 64.64,497.85" fill="#e0a070" stroke="#333" stroke-width="1"/>
<polygon points="213.92,607.13 248.56,587.13 228.56,621.77 228.56,661.77 208.56,627.13 173.92,607.13" fill="#e0a070" stroke="#333" stroke-width="1"/>
<polygon points="323.21,716.41 357.85,696.41 337.85,731.05 337.85,771.05 317.85,736.41 283.21,716.41" fill="#e0a070" stroke="#333" stroke-width="1"/>
<polygon points="144.64,348.56 179.28,328.56 159.28,363.21 159.28,403.21 139.28,368.56 104.64,348.56" fill="#e0a070" stroke="#333" stroke-width="1"/>
<polygon points="253.92,457.85 288.56,437.85 268.56,472.49 268.56,512.49 248.56,477.85 213.92,457.85" fill="#e0a070" stroke="#333" stroke-width="1"/>
<polygon points="363.21,567.13 397.85,547.13 377.85,581.77 377.85,621.77 357.85,587.13 323.21,567.13" fill="#e0a070" stroke="#333" stroke-width="1"/>
<polygon points="184.64,199.28 219.28,179.28 199.28,213.92 199.28,253.92 179.28,219.28 144.64,199.28" fill="#e0a070" stroke="#333" stroke-width="1"/>
<polygon points="293.92,308.56 328.56,288.56 308.56,323.21 308.56,363.21 288.56,328.56 253.92,308.56" fill="#e0a070" stroke="#333" stroke-width="1"/>
<polygon points="403.21,417.85 437.85,397.85 417.85,432.49 417.85,472.49 397.85,437.85 363.21,417.85" fill="#e0a070" stroke="#333" stroke-width="1"/>
<text x="10" y="848" font-family="monospace" font-size="12">(3*d14,12)A, (3*p2,12,3*p2,12)S2</text>
</svg>
