<svg xmlns="http://www.w3.org/2000/svg" width="726" height="1068">
<rect width="100%" height="100%" fill="white"/>
<polygon points="209.27,191.56 249.27,191.56 277.55,219.85 277.55,259.85 249.27,288.13 209.27,288.13 180.99,259.85 180.99,219.85" fill="#d89898" stroke="#333" stroke-width="1"/>
<polygon points="182.91,391.76 222.91,391.76 251.20,420.05 251.20,460.05 222.91,488.33 182.91,488.33 154.63,460.05 154.63,420.05" fill="#d89898" stroke="#333" stroke-width="1"/>
<polygon points="156.56,591.96 196.56,591.96 224.84,620.25 224.84,660.25 196.56,688.53 156.56,688.53 128.27,660.25 128.27,620.25" fill="#d89898" stroke="#333" stroke-width="1"/>
<polygon points="369.47,314.49 409.47,314.49 437.75,342.77 437.75,382.77 409.47,411.06 369.47,411.06 341.18,382.77 341.18,342.77" fill="#d89898" stroke="#333" stroke-width="1"/>
<polygon points="343.11,514.69 383.11,514.69 411.40,542.97 411.40,582.97 383.11,611.26 343.11,611.26 314.83,582.97 314.83,542.97" fill="#d89898" stroke="#333" stroke-width="1"/>
<polygon points="316.76,714.89 356.76,714.89 385.04,743.17 385.04,783.17 356.76,811.45 316.76,811.45 288.47,783.17 288.47,743.17" fill="#d89898" stroke="#333" stroke-width="1"/>
<polygon points="529.67,437.41 569.67,437.41 597.95,465.70 597.95,505.70 569.67,533.98 529.67,533.98 501.38,505.70 501.38,465.70" fill="#d89898" stroke="#333" stroke-width="1"/>
<polygon points="503.31,637.61 543.31,637.61 571.60,665.90 571.60,705.90 543.31,734.18 503.31,734.18 475.03,705.90 475.03,665.90" fill="#d89898" stroke="#333" stroke-width="1"/>
<polygon points="476.95,837.81 516.95,837.81 545.24,866.10 545.24,906.10 516.95,934.38 476.95,934.38 448.67,906.10 448.67,866.10" fill="#d89898" stroke="#333" stroke-width="1"/>
<polygon points="249.27,191.56 209.27,191.56 180.99,219.85 200.99,185.21 190.63,146.57 210.63,181.21" fill="#7fc4c4" stroke="#333" stroke-width="1"/>
<polygon points="222.91,391.76 182.91,391.76 154.63,420.05 174.63,385.40 164.28,346.77 184.28,381.41" fill="#7fc4c4" stroke="#333" stroke-width="1"/>
<polygon points="196.56,591.96 156.56,591.96 128.27,620.25 148.27,585.60 137.92,546.97 157.92,581.61" fill="#7fc4c4" stroke="#333" stroke-width="1"/>
<polygon points="409.47,314.49 369.47,314.49 341.18,342.77 361.18,308.13 350.83,269.49 370.83,304.13" fill="#7fc4c4" stroke="#333" stroke-width="1"/>
<polygon points="383.11,514.69 343.11,514.69 314.83,542.97 334.83,508.33 324.48,469.69 344.48,504.33" fill="#7fc4c4" stroke="#333" stroke-width="1"/>
<polygon points="356.76,714.89 316.76,714.89 288.47,743.17 308.47,708.53 298.12,669.89 318.12,704.53" fill="#7fc4c4" stroke="#333" stroke-width="1"/>
<polygon points="569.67,437.41 529.67,437.41 501.38,465.70 521.38,431.06 511.03,392.42 531.03,427.06" fill="#7fc4c4" stroke="#333" stroke-width="1"/>
<polygon points="543.31,637.61 503.31,637.61 475.03,665.90 495.03,631.26 484.67,592.62 504.67,627.26" fill="#7fc4c4" stroke="#333" stroke-width="1"/>
<polygon points="516.95,837.81 476.95,837.81 448.67,866.10 468.67,831.45 458.32,792.82 478.32,827.46" fill="#7fc4c4" stroke="#333" stroke-width="1"/>
<polygon points="277.55,219.85 249.27,191.56 283.91,171.56 294.26,132.93 328.90,152.93 367.54,142.57 367.54,182.57 395.83,210.86 361.18,230.86 350.83,269.49 316.19,249.49 277.55,259.85" fill="#b0d078" stroke="#333" stroke-width="1"/>
<polygon points="251.20,420.05 222.91,391.76 257.55,371.76 267.91,333.12 302.55,353.12 341.18,342.77 341.18,382.77 369.47,411.06 334.83,431.06 324.48,469.69 289.83,449.69 251.20,460.05" fill="#b0d078" stroke="#333" stroke-width="1"/>
<polygon points="224.84,620.25 196.56,591.96 231.20,571.96 241.55,533.32 276.19,553.32 314.83,542.97 314.83,582.97 343.11,611.26 308.47,631.26 298.12,669.89 263.48,649.89 224.84,660.25" fill="#b0d078" stroke="#333" stroke-width="1"/>
<polygon points="437.75,342.77 409.47,314.49 444.11,294.49 454.46,255.85 489.10,275.85 527.74,265.50 527.74,305.50 556.03,333.78 521.38,353.78 511.03,392.42 476.39,372.42 437.75,382.77" fill="#b0d078" stroke="#333" stroke-width="1"/>
<polygon points="411.40,542.97 383.11,514.69 417.75,494.69 428.11,456.05 462.75,476.05 501.38,465.70 501.38,505.70 529.67,533.98 495.03,553.98 484.67,592.62 450.03,572.62 411.40,582.97" fill="#b0d078" stroke="#333" stroke-width="1"/>
<polygon points="385.04,743.17 356.76,714.89 391.40,694.89 401.75,656.25 436.39,676.25 475.03,665.90 475.03,705.90 503.31,734.18 468.67,754.18 458.32,792.82 423.68,772.82 385.04,783.17" fill="#b0d078" stroke="#333" stroke-width="1"/>
<polygon points="597.95,465.70 569.67,437.41 604.31,417.41 614.66,378.78 649.30,398.78 687.94,388.42 687.94,428.42 716.22,456.71 681.58,476.71 671.23,515.34 636.59,495.34 597.95,505.70" fill="#b0d078" stroke="#333" stroke-width="1"/>
<polygon points="571.60,665.90 543.31,637.61 577.95,617.61 588.31,578.98 622.95,598.98 661.58,588.62 661.58,628.62 689.87,656.91 655.23,676.91 644.87,715.54 610.23,695.54 571.60,705.90" fill="#b0d078" stroke="#333" stroke-width="1"/>
<polygon points="545.24,866.10 516.95,837.81 551.60,817.81 561.95,779.17 596.59,799.17 635.23,788.82 635.23,828.82 663.51,857.11 628.87,877.11 618.52,915.74 583.88,895.74 545.24,906.10" fill="#b0d078" stroke="#333" stroke-width="1"/>
<polygon points="283.91,171.56 249.27,191.56 210.63,181.21 190.63,146.57 200.99,107.93 235.63,87.93 274.26,98.28 294.26,132.93" fill="#d89898" stroke="#333" stroke-width="1"/>
<polygon points="257.55,371.76 222.91,391.76 184.28,381.41 164.28,346.77 174.63,308.13 209.27,288.13 247.91,298.48 267.91,333.12" fill="#d89898" stroke="#333" stroke-width="1"/>
<polygon points="231.20,571.96 196.56,591.96 157.92,581.61 137.92,546.97 148.27,508.33 182.91,488.33 221.55,498.68 241.55,533.32" fill="#d89898" stroke="#333" stroke-width="1"/>
<polygon points="444.11,294.49 409.47,314.49 370.83,304.13 350.83,269.49 361.18,230.86 395.83,210.86 434.46,221.21 454.46,255.85" fill="#d89898" stroke="#333" stroke-width="1"/>
<polygon points="417.75,494.69 383.11,514.69 344.48,504.33 324.48,469.69 334.83,431.06 369.47,411.06 408.11,421.41 428.11,456.05" fill="#d89898" stroke="#333" stroke-width="1"/>
<polygon points="391.40,694.89 356.76,714.89 318.12,704.53 298.12,669.89 308.47,631.26 343.11,611.26 381.75,621.61 401.75,656.25" fill="#d89898" stroke="#333" stroke-width="1"/>
<polygon points="604.31,417.41 569.67,437.41 531.03,427.06 511.03,392.42 521.38,353.78 556.03,333.78 594.66,344.13 614.66,378.78" fill="#d89898" stroke="#333" stroke-width="1"/>
<polygon points="577.95,617.61 543.31,637.61 504.67,627.26 484.67,592.62 495.03,553.98 529.67,533.98 568.31,544.33 588.31,578.98" fill="#d89898" stroke="#333" stroke-width="1"/>
<polygon points="551.60,817.81 516.95,837.81 478.32,827.46 458.32,792.82 468.67,754.18 503.31,734.18 541.95,744.53 561.95,779.17" fill="#d89898" stroke="#333" stroke-width="1"/>
<polygon points="200.99,185.21 180.99,219.85 142.35,230.20 107.71,210.20 97.35,171.56 117.35,136.92 155.99,126.57 190.63,146.57" fill="#d89898" stroke="#333" stroke-width="1"/>
<polygon points="174.63,385.40 154.63,420.05 115.99,430.40 81.35,410.40 71.00,371.76 91.00,337.12 129.63,326.77 164.28,346.77" fill="#d89898" stroke="#333" stroke-width="1"/>
<polygon points="148.27,585.60 128.27,620.25 89.63,630.60 54.99,610.60 44.64,571.96 64.64,537.32 103.28,526.97 137.92,546.97" fill="#d89898" stroke="#333" stroke-width="1"/>
<polygon points="361.18,308.13 341.18,342.77 302.55,353.12 267.91,333.12 257.55,294.49 277.55,259.85 316.19,249.49 350.83,269.49" fill="#d89898" stroke="#333" stroke-width="1"/>
<polygon points="334.83,508.33 314.83,542.97 276.19,553.32 241.55,533.32 231.20,494.69 251.20,460.05 289.83,449.69 324.48,469.69" fill="#d89898" stroke="#333" stroke-width="1"/>
<polygon points="308.47,708.53 288.47,743.17 249.83,753.52 215.19,733.52 204.84,694.89 224.84,660.25 263.48,649.89 298.12,669.89" fill="#d89898" stroke="#333" stroke-width="1"/>
<polygon points="521.38,431.06 501.38,465.70 462.75,476.05 428.11,456.05 417.75,417.41 437.75,382.77 476.39,372.42 511.03,392.42" fill="#d89898" stroke="#333" stroke-width="1"/>
<polygon points="495.03,631.26 475.03,665.90 436.39,676.25 401.75,656.25 391.40,617.61 411.40,582.97 450.03,572.62 484.67,592.62" fill="#d89898" stroke="#333" stroke-width="1"/>
<polygon points="468.67,831.45 448.67,866.10 410.03,876.45 375.39,856.45 365.04,817.81 385.04,783.17 423.68,772.82 458.32,792.82" fill="#d89898" stroke="#333" stroke-width="1"/>
<polygon points="142.35,230.20 180.99,219.85 180.99,259.85 209.27,288.13 174.63,308.13 164.28,346.77 129.63,326.77 91.00,337.12 91.00,297.12 62.71,268.84 97.35,248.84 107.71,210.20" fill="#b0d078" stroke="#333" stroke-width="1"/>
<polygon points="115.99,430.40 154.63,420.05 154.63,460.05 182.91,488.33 148.27,508.33 137.92,546.97 103.28,526.97 64.64,537.32 64.64,497.32 36.36,469.04 71.00,449.04 81.35,410.40" fill="#b0d078" stroke="#333" stroke-width="1"/>
<polygon points="89.63,630.60 128.27,620.25 128.27,660.25 156.56,688.53 121.92,708.53 111.56,747.17 76.92,727.17 38.28,737.52 38.28,697.52 10.00,669.24 44.64,649.24 54.99,610.60" fill="#b0d078" stroke="#333" stroke-width="1"/>
<polygon points="302.55,353.12 341.18,342.77 341.18,382.77 369.47,411.06 334.83,431.06 324.48,469.69 289.83,449.69 251.20,460.05 251.20,420.05 222.91,391.76 257.55,371.76 267.91,333.12" fill="#b0d078" stroke="#333" stroke-width="1"/>
<polygon points="276.19,553.32 314.83,542.97 314.83,582.97 343.11,611.26 308.47,631.26 298.12,669.89 263.48,649.89 224.84,660.25 224.84,620.25 196.56,591.96 231.20,571.96 241.55,533.32" fill="#b0d078" stroke="#333" stroke-width="1"/>
<polygon points="249.83,753.52 288.47,743.17 288.47,783.17 316.76,811.45 282.11,831.45 271.76,870.09 237.12,850.09 198.48,860.44 198.48,820.44 170.20,792.16 204.84,772.16 215.19,733.52" fill="#b0d078" stroke="#333" stroke-width="1"/>
<polygon points="462.75,476.05 501.38,465.70 501.38,505.70 529.67,533.98 495.03,553.98 484.67,592.62 450.03,572.62 411.40,582.97 411.40,542.97 383.11,514.69 417.75,494.69 428.11,456.05" fill="#b0d078" stroke="#333" stroke-width="1"/>
<polygon points="436.39,676.25 475.03,665.90 475.03,705.90 503.31,734.18 468.67,754.18 458.32,792.82 423.68,772.82 385.04,783.17 385.04,743.17 356.76,714.89 391.40,694.89 401.75,656.25" fill="#b0d078" stroke="#333" stroke-width="1"/>
<polygon points="410.03,876.45 448.67,866.10 448.67,906.10 476.95,934.38 442.31,954.38 431.96,993.02 397.32,973.02 358.68,983.37 358.68,943.37 330.40,915.09 365.04,895.09 375.39,856.45" fill="#b0d078" stroke="#333" stroke-width="1"/>
<polygon points="249.27,288.13 277.55,259.85 257.55,294.49 267.91,333.12 247.91,298.48 209.27,288.13" fill="#7fc4c4" stroke="#333" stroke-width="1"/>
<polygon points="222.91,488.33 251.20,460.05 231.20,494.69 241.55,533.32 221.55,498.68 182.91,488.33" fill="#7fc4c4" stroke="#333" stroke-width="1"/>
<polygon points="196.56,688.53 224.84,660.25 204.84,694.89 215.19,733.52 195.19,698.88 156.56,688.53" fill="#7fc4c4" stroke="#333" stroke-width="1"/>
<polygon points="409.47,411.06 437.75,382.77 417.75,417.41 428.11,456.05 408.11,421.41 369.47,411.06" fill="#7fc4c4" stroke="#333" stroke-width="1"/>
<polygon points="383.11,611.26 411.40,582.97 391.40,617.61 401.75,656.25 381.75,621.61 343.11,611.26" fill="#7fc4c4" stroke="#333" stroke-width="1"/>
<polygon points="356.76,811.45 385.04,783.17 365.04,817.81 375.39,856.45 355.39,821.81 316.76,811.45" fill="#7fc4c4" stroke="#333" stroke-width="1"/>
<polygon points="569.67,533.98 597.95,505.70 577.95,540.34 588.31,578.98 568.31,544.33 529.67,533.98" fill="#7fc4c4" stroke="#333" stroke-width="1"/>
<polygon points="543.31,734.18 571.60,705.90 551.60,740.54 561.95,779.17 541.95,744.53 503.31,734.18" fill="#7fc4c4" stroke="#333" stroke-width="1"/>
<polygon points="516.95,934.38 545.24,906.10 525.24,940.74 535.59,979.37 515.59,944.73 476.95,934.38" fill="#7fc4c4" stroke="#333" stroke-width="1"/>
<polygon points="257.55,294.49 277.55,259.85 316.19,249.49 350.83,269.49 361.18,308.13 341.18,342.77 302.55,353.12 267.91,333.12" fill="#d89898" stroke="#333" stroke-width="1"/>
<polygon points="231.20,494.69 251.20,460.05 289.83,449.69 324.48,469.69 334.83,508.33 314.83,542.97 276.19,553.32 241.55,533.32" fill="#d89898" stroke="#333" stroke-width="1"/>
<polygon points="204.84,694.89 224.84,660.25 263.48,649.89 298.12,669.89 308.47,708.53 288.47,743.17 249.83,753.52 215.19,733.52" fill="#d89898" stroke="#333" stroke-width="1"/>
<polygon points="417.75,417.41 437.75,382.77 476.39,372.42 511.03,392.42 521.38,431.06 501.38,465.70 462.75,476.05 428.11,456.05" fill="#d89898" stroke="#333" stroke-width="1"/>
<polygon points="391.40,617.61 411.40,582.97 450.03,572.62 484.67,592.62 495.03,631.26 475.03,665.90 436.39,676.25 401.75,656.25" fill="#d89898" stroke="#333" stroke-width="1"/>
<polygon points="365.04,817.81 385.04,783.17 423.68,772.82 458.32,792.82 468.67,831.45 448.67,866.10 410.03,876.45 375.39,856.45" fill="#d89898" stroke="#333" stroke-width="1"/>
<polygon points="577.95,540.34 597.95,505.70 636.59,495.34 671.23,515.34 681.58,553.98 661.58,588.62 622.95,598.98 588.31,578.98" fill="#d89898" stroke="#333" stroke-width="1"/>
<polygon points="551.60,740.54 571.60,705.90 610.23,695.54 644.87,715.54 655.23,754.18 635.23,788.82 596.59,799.17 561.95,779.17" fill="#d89898" stroke="#333" stroke-width="1"/>
<polygon points="525.24,940.74 545.24,906.10 583.88,895.74 618.52,915.74 628.87,954.38 608.87,989.02 570.23,999.37 535.59,979.37" fill="#d89898" stroke="#333" stroke-width="1"/>
<polygon points="294.26,132.93 283.91,94.29 303.91,59.65 342.55,49.29 377.19,69.29 387.54,107.93 367.54,142.57 328.90,152.93" fill="#d89898" stroke="#333" stroke-width="1"/>
<polygon points="267.91,333.12 257.55,294.49 277.55,259.85 316.19,249.49 350.83,269.49 361.18,308.13 341.18,342.77 302.55,353.12" fill="#d89898" stroke="#333" stroke-width="1"/>
<polygon points="241.55,533.32 231.20,494.69 251.20,460.05 289.83,449.69 324.48,469.69 334.83,508.33 314.83,542.97 276.19,553.32" fill="#d89898" stroke="#333" stroke-width="1"/>
<polygon points="454.46,255.85 444.11,217.21 464.11,182.57 502.75,172.22 537.39,192.22 547.74,230.86 527.74,265.50 489.10,275.85" fill="#d89898" stroke="#333" stroke-width="1"/>
<polygon points="428.11,456.05 417.75,417.41 437.75,382.77 476.39,372.42 511.03,392.42 521.38,431.06 501.38,465.70 462.75,476.05" fill="#d89898" stroke="#333" stroke-width="1"/>
<polygon points="401.75,656.25 391.40,617.61 411.40,582.97 450.03,572.62 484.67,592.62 495.03,631.26 475.03,665.90 436.39,676.25" fill="#d89898" stroke="#333" stroke-width="1"/>
<polygon points="614.66,378.78 604.31,340.14 624.31,305.50 662.95,295.15 697.59,315.15 707.94,353.78 687.94,388.42 649.30,398.78" fill="#d89898" stroke="#333" stroke-width="1"/>
<polygon points="588.31,578.98 577.95,540.34 597.95,505.70 636.59,495.34 671.23,515.34 681.58,553.98 661.58,588.62 622.95,598.98" fill="#d89898" stroke="#333" stroke-width="1"/>
<polygon points="561.95,779.17 551.60,740.54 571.60,705.90 610.23,695.54 644.87,715.54 655.23,754.18 635.23,788.82 596.59,799.17" fill="#d89898" stroke="#333" stroke-width="1"/>
<polygon points="283.91,94.29 294.26,132.93 274.26,98.28 235.63,87.93 275.63,87.93 303.91,59.65" fill="#7fc4c4" stroke="#333" stroke-width="1"/>
<polygon points="257.55,294.49 267.91,333.12 247.91,298.48 209.27,288.13 249.27,288.13 277.55,259.85" fill="#7fc4c4" stroke="#333" stroke-width="1"/>
<polygon points="231.20,494.69 241.55,533.32 221.55,498.68 182.91,488.33 222.91,488.33 251.20,460.05" fill="#7fc4c4" stroke="#333" stroke-width="1"/>
<polygon points="444.11,217.21 454.46,255.85 434.46,221.21 395.83,210.86 435.83,210.86 464.11,182.57" fill="#7fc4c4" stroke="#333" stroke-width="1"/>
<polygon points="417.75,417.41 428.11,456.05 408.11,421.41 369.47,411.06 409.47,411.06 437.75,382.77" fill="#7fc4c4" stroke="#333" stroke-width="1"/>
<polygon points="391.40,617.61 401.75,656.25 381.75,621.61 343.11,611.26 383.11,611.26 411.40,582.97" fill="#7fc4c4" stroke="#333" stroke-width="1"/>
<polygon points="604.31,340.14 614.66,378.78 594.66,344.13 556.03,333.78 596.03,333.78 624.31,305.50" fill="#7fc4c4" stroke="#333" stroke-width="1"/>
<polygon points="577.95,540.34 588.31,578.98 568.31,544.33 529.67,533.98 569.67,533.98 597.95,505.70" fill="#7fc4c4" stroke="#333" stroke-width="1"/>
<polygon points="551.60,740.54 561.95,779.17 541.95,744.53 503.31,734.18 543.31,734.18 571.60,705.90" fill="#7fc4c4" stroke="#333" stroke-width="1"/>
<polygon points="200.99,107.93 190.63,146.57 155.99,126.57 117.35,136.92 117.35,96.92 89.07,68.64 123.71,48.64 134.06,10.00 168.71,30.00 207.34,19.65 207.34,59.65 235.63,87.93" fill="#b0d078" stroke="#333" stroke-width="1"/>
<polygon points="174.63,308.13 164.28,346.77 129.63,326.77 91.00,337.12 91.00,297.12 62.71,268.84 97.35,248.84 107.71,210.20 142.35,230.20 180.99,219.85 180.99,259.85 209.27,288.13" fill="#b0d078" stroke="#333" stroke-width="1"/>
<polygon points="148.27,508.33 137.92,546.97 103.28,526.97 64.64,537.32 64.64,497.32 36.36,469.04 71.00,449.04 81.35,410.40 115.99,430.40 154.63,420.05 154.63,460.05 182.91,488.33" fill="#b0d078" stroke="#333" stroke-width="1"/>
<polygon points="361.18,230.86 350.83,269.49 316.19,249.49 277.55,259.85 277.55,219.85 249.27,191.56 283.91,171.56 294.26,132.93 328.90,152.93 367.54,142.57 367.54,182.57 395.83,210.86" fill="#b0d078" stroke="#333" stroke-width="1"/>
<polygon points="334.83,431.06 324.48,469.69 289.83,449.69 251.20,460.05 251.20,420.05 222.91,391.76 257.55,371.76 267.91,333.12 302.55,353.12 341.18,342.77 341.18,382.77 369.47,411.06" fill="#b0d078" stroke="#333" stroke-width="1"/>
<polygon points="308.47,631.26 298.12,669.89 263.48,649.89 224.84,660.25 224.84,620.25 196.56,591.96 231.20,571.96 241.55,533.32 276.19,553.32 314.83,542.97 314.83,582.97 343.11,611.26" fill="#b0d078" stroke="#333" stroke-width="1"/>
<polygon points="521.38,353.78 511.03,392.42 476.39,372.42 437.75,382.77 437.75,342.77 409.47,314.49 444.11,294.49 454.46,255.85 489.10,275.85 527.74,265.50 527.74,305.50 556.03,333.78" fill="#b0d078" stroke="#333" stroke-width="1"/>
<polygon points="495.03,553.98 484.67,592.62 450.03,572.62 411.40,582.97 411.40,542.97 383.11,514.69 417.75,494.69 428.11,456.05 462.75,476.05 501.38,465.70 501.38,505.70 529.67,533.98" fill="#b0d078" stroke="#333" stroke-width="1"/>
<polygon points="468.67,754.18 458.32,792.82 423.68,772.82 385.04,783.17 385.04,743.17 356.76,714.89 391.40,694.89 401.75,656.25 436.39,676.25 475.03,665.90 475.03,705.90 503.31,734.18" fill="#b0d078" stroke="#333" stroke-width="1"/>
<polygon points="174.63,308.13 209.27,288.13 247.91,298.48 267.91,333.12 257.55,371.76 222.91,391.76 184.28,381.41 164.28,346.77" fill="#d89898" stroke="#333" stroke-width="1"/>
<polygon points="148.27,508.33 182.91,488.33 221.55,498.68 241.55,533.32 231.20,571.96 196.56,591.96 157.92,581.61 137.92,546.97" fill="#d89898" stroke="#333" stroke-width="1"/>
<polygon points="121.92,708.53 156.56,688.53 195.19,698.88 215.19,733.52 204.84,772.16 170.20,792.16 131.56,781.81 111.56,747.17" fill="#d89898" stroke="#333" stroke-width="1"/>
<polygon points="334.83,431.06 369.47,411.06 408.11,421.41 428.11,456.05 417.75,494.69 383.11,514.69 344.48,504.33 324.48,469.69" fill="#d89898" stroke="#333" stroke-width="1"/>
<polygon points="308.47,631.26 343.11,611.26 381.75,621.61 401.75,656.25 391.40,694.89 356.76,714.89 318.12,704.53 298.12,669.89" fill="#d89898" stroke="#333" stroke-width="1"/>
<polygon points="282.11,831.45 316.76,811.45 355.39,821.81 375.39,856.45 365.04,895.09 330.40,915.09 291.76,904.73 271.76,870.09" fill="#d89898" stroke="#333" stroke-width="1"/>
<polygon points="495.03,553.98 529.67,533.98 568.31,544.33 588.31,578.98 577.95,617.61 543.31,637.61 504.67,627.26 484.67,592.62" fill="#d89898" stroke="#333" stroke-width="1"/>
<polygon points="468.67,754.18 503.31,734.18 541.95,744.53 561.95,779.17 551.60,817.81 516.95,837.81 478.32,827.46 458.32,792.82" fill="#d89898" stroke="#333" stroke-width="1"/>
<polygon points="442.31,954.38 476.95,934.38 515.59,944.73 535.59,979.37 525.24,1018.01 490.60,1038.01 451.96,1027.66 431.96,993.02" fill="#d89898" stroke="#333" stroke-width="1"/>
<text x="10" y="1060" font-family="monospace" font-size="12">(3*d15,8)A, (6*p5,8,3*p1,8)A, (6*d15,8)A</text>
</svg>
