<svg xmlns="http://www.w3.org/2000/svg" width="781" height="726">
<rect width="100%" height="100%" fill="white"/>
<polygon points="193.92,397.85 233.92,397.85 268.56,417.85 288.56,452.49 288.56,492.49 268.56,527.13 233.92,547.13 193.92,547.13 159.28,527.13 139.28,492.49 139.28,452.49 159.28,417.85" fill="#b8a0d0" stroke="#333" stroke-width="1"/>
<polygon points="323.21,472.49 363.21,472.49 397.85,492.49 417.85,527.13 417.85,567.13 397.85,601.77 363.21,621.77 323.21,621.77 288.56,601.77 268.56,567.13 268.56,527.13 288.56,492.49" fill="#b8a0d0" stroke="#333" stroke-width="1"/>
<polygon points="452.49,547.13 492.49,547.13 527.13,567.13 547.13,601.77 547.13,641.77 527.13,676.41 492.49,696.41 452.49,696.41 417.85,676.41 397.85,641.77 397.85,601.77 417.85,567.13" fill="#b8a0d0" stroke="#333" stroke-width="1"/>
<polygon points="268.56,268.56 308.56,268.56 343.21,288.56 363.21,323.21 363.21,363.21 343.21,397.85 308.56,417.85 268.56,417.85 233.92,397.85 213.92,363.21 213.92,323.21 233.92,288.56" fill="#b8a0d0" stroke="#333" stroke-width="1"/>
<polygon points="397.85,343.21 437.85,343.21 472.49,363.21 492.49,397.85 492.49,437.85 472.49,472.49 437.85,492.49 397.85,492.49 363.21,472.49 343.21,437.85 343.21,397.85 363.21,363.21" fill="#b8a0d0" stroke="#333" stroke-width="1"/>
<polygon points="527.13,417.85 567.13,417.85 601.77,437.85 621.77,472.49 621.77,512.49 601.77,547.13 567.13,567.13 527.13,567.13 492.49,547.13 472.49,512.49 472.49,472.49 492.49,437.85" fill="#b8a0d0" stroke="#333" stroke-width="1"/>
<polygon points="343.21,139.28 383.21,139.28 417.85,159.28 437.85,193.92 437.85,233.92 417.85,268.56 383.21,288.56 343.21,288.56 308.56,268.56 288.56,233.92 288.56,193.92 308.56,159.28" fill="#b8a0d0" stroke="#333" stroke-width="1"/>
<polygon points="472.49,213.92 512.49,213.92 547.13,233.92 567.13,268.56 567.13,308.56 547.13,343.21 512.49,363.21 472.49,363.21 437.85,343.21 417.85,308.56 417.85,268.56 437.85,233.92" fill="#b8a0d0" stroke="#333" stroke-width="1"/>
<polygon points="601.77,288.56 641.77,288.56 676.41,308.56 696.41,343.21 696.41,383.21 676.41,417.85 641.77,437.85 601.77,437.85 567.13,417.85 547.13,383.21 547.13,343.21 567.13,308.56" fill="#b8a0d0" stroke="#333" stroke-width="1"/>
<polygon points="233.92,397.85 193.92,397.85 159.28,417.85 159.28,377.85 139.28,343.21 179.28,343.21 213.92,323.21 213.92,363.21" fill="#d0a8c0" stroke="#333" stroke-width="1"/>
<polygon points="363.21,472.49 323.21,472.49 288.56,492.49 288.56,452.49 268.56,417.85 308.56,417.85 343.21,397.85 343.21,437.85" fill="#d0a8c0" stroke="#333" stroke-width="1"/>
<polygon points="492.49,547.13 452.49,547.13 417.85,567.13 417.85,527.13 397.85,492.49 437.85,492.49 472.49,472.49 472.49,512.49" fill="#d0a8c0" stroke="#333" stroke-width="1"/>
<polygon points="308.56,268.56 268.56,268.56 233.92,288.56 233.92,248.56 213.92,213.92 253.92,213.92 288.56,193.92 288.56,233.92" fill="#d0a8c0" stroke="#333" stroke-width="1"/>
<polygon points="437.85,343.21 397.85,343.21 363.21,363.21 363.21,323.21 343.21,288.56 383.21,288.56 417.85,268.56 417.85,308.56" fill="#d0a8c0" stroke="#333" stroke-width="1"/>
<polygon points="567.13,417.85 527.13,417.85 492.49,437.85 492.49,397.85 472.49,363.21 512.49,363.21 547.13,343.21 547.13,383.21" fill="#d0a8c0" stroke="#333" stroke-width="1"/>
<polygon points="383.21,139.28 343.21,139.28 308.56,159.28 308.56,119.28 288.56,84.64 328.56,84.64 363.21,64.64 363.21,104.64" fill="#d0a8c0" stroke="#333" stroke-width="1"/>
<polygon points="512.49,213.92 472.49,213.92 437.85,233.92 437.85,193.92 417.85,159.28 457.85,159.28 492.49,139.28 492.49,179.28" fill="#d0a8c0" stroke="#333" stroke-width="1"/>
<polygon points="641.77,288.56 601.77,288.56 567.13,308.56 567.13,268.56 547.13,233.92 587.13,233.92 621.77,213.92 621.77,253.92" fill="#d0a8c0" stroke="#333" stroke-width="1"/>
<polygon points="268.56,417.85 233.92,397.85 213.92,363.21 213.92,323.21 233.92,288.56 268.56,268.56 308.56,268.56 343.21,288.56 363.21,323.21 363.21,363.21 343.21,397.85 308.56,417.85" fill="#b8a0d0" stroke="#333" stroke-width="1"/>
<polygon points="397.85,492.49 363.21,472.49 343.21,437.85 343.21,397.85 363.21,363.21 397.85,343.21 437.85,343.21 472.49,363.21 492.49,397.85 492.49,437.85 472.49,472.49 437.85,492.49" fill="#b8a0d0" stroke="#333" stroke-width="1"/>
<polygon points="527.13,567.13 492.49,547.13 472.49,512.49 472.49,472.49 492.49,437.85 527.13,417.85 567.13,417.85 601.77,437.85 621.77,472.49 621.77,512.49 601.77,547.13 567.13,567.13" fill="#b8a0d0" stroke="#333" stroke-width="1"/>
<polygon points="343.21,288.56 308.56,268.56 288.56,233.92 288.56,193.92 308.56,159.28 343.21,139.28 383.21,139.28 417.85,159.28 437.85,193.92 437.85,233.92 417.85,268.56 383.21,288.56" fill="#b8a0d0" stroke="#333" stroke-width="1"/>
<polygon points="472.49,363.21 437.85,343.21 417.85,308.56 417.85,268.56 437.85,233.92 472.49,213.92 512.49,213.92 547.13,233.92 567.13,268.56 567.13,308.56 547.13,343.21 512.49,363.21" fill="#b8a0d0" stroke="#333" stroke-width="1"/>
<polygon points="601.77,437.85 567.13,417.85 547.13,383.21 547.13,343.21 567.13,308.56 601.77,288.56 641.77,288.56 676.41,308.56 696.41,343.21 696.41,383.21 676.41,417.85 641.77,437.85" fill="#b8a0d0" stroke="#333" stroke-width="1"/>
<polygon points="417.85,159.28 383.21,139.28 363.21,104.64 363.21,64.64 383.21,30.00 417.85,10.00 457.85,10.00 492.49,30.00 512.49,64.64 512.49,104.64 492.49,139.28 457.85,159.28" fill="#b8a0d0" stroke="#333" stroke-width="1"/>
<polygon points="547.13,233.92 512.49,213.92 492.49,179.28 492.49,139.28 512.49,104.64 547.13,84.64 587.13,84.64 621.77,104.64 641.77,139.28 641.77,179.28 621.77,213.92 587.13,233.92" fill="#b8a0d0" stroke="#333" stroke-width="1"/>
<polygon points="676.41,308.56 641.77,288.56 621.77,253.92 621.77,213.92 641.77,179.28 676.41,159.28 716.41,159.28 751.05,179.28 771.05,213.92 771.05,253.92 751.05,288.56 716.41,308.56" fill="#b8a0d0" stroke="#333" stroke-width="1"/>
<polygon points="159.28,377.85 159.28,417.85 139.28,452.49 104.64,472.49 64.64,472.49 30.00,452.49 10.00,417.85 10.00,377.85 30.00,343.21 64.64,323.21 104.64,323.21 139.28,343.21" fill="#b8a0d0" stroke="#333" stroke-width="1"/>
<polygon points="288.56,452.49 288.56,492.49 268.56,527.13 233.92,547.13 193.92,547.13 159.28,527.13 139.28,492.49 139.28,452.49 159.28,417.85 193.92,397.85 233.92,397.85 268.56,417.85" fill="#b8a0d0" stroke="#333" stroke-width="1"/>
<polygon points="417.85,527.13 417.85,567.13 397.85,601.77 363.21,621.77 323.21,621.77 288.56,601.77 268.56,567.13 268.56,527.13 288.56,492.49 323.21,472.49 363.21,472.49 397.85,492.49" fill="#b8a0d0" stroke="#333" stroke-width="1"/>
<polygon points="233.92,248.56 233.92,288.56 213.92,323.21 179.28,343.21 139.28,343.21 104.64,323.21 84.64,288.56 84.64,248.56 104.64,213.92 139.28,193.92 179.28,193.92 213.92,213.92" fill="#b8a0d0" stroke="#333" stroke-width="1"/>
<polygon points="363.21,323.21 363.21,363.21 343.21,397.85 308.56,417.85 268.56,417.85 233.92,397.85 213.92,363.21 213.92,323.21 233.92,288.56 268.56,268.56 308.56,268.56 343.21,288.56" fill="#b8a0d0" stroke="#333" stroke-width="1"/>
<polygon points="492.49,397.85 492.49,437.85 472.49,472.49 437.85,492.49 397.85,492.49 363.21,472.49 343.21,437.85 343.21,397.85 363.21,363.21 397.85,343.21 437.85,343.21 472.49,363.21" fill="#b8a0d0" stroke="#333" stroke-width="1"/>
<polygon points="308.56,119.28 308.56,159.28 288.56,193.92 253.92,213.92 213.92,213.92 179.28,193.92 159.28,159.28 159.28,119.28 179.28,84.64 213.92,64.64 253.92,64.64 288.56,84.64" fill="#b8a0d0" stroke="#333" stroke-width="1"/>
<polygon points="437.85,193.92 437.85,233.92 417.85,268.56 383.21,288.56 343.21,288.56 308.56,268.56 288.56,233.92 288.56,193.92 308.56,159.28 343.21,139.28 383.21,139.28 417.85,159.28" fill="#b8a0d0" stroke="#333" stroke-width="1"/>
<polygon points="567.13,268.56 567.13,308.56 547.13,343.21 512.49,363.21 472.49,363.21 437.85,343.21 417.85,308.56 417.85,268.56 437.85,233.92 472.49,213.92 512.49,213.92 547.13,233.92" fill="#b8a0d0" stroke="#333" stroke-width="1"/>
<polygon points="288.56,452.49 268.56,417.85 308.56,417.85 343.21,397.85 343.21,437.85 363.21,472.49 323.21,472.49 288.56,492.49" fill="#d0a8c0" stroke="#333" stroke-width="1"/>
<polygon points="417.85,527.13 397.85,492.49 437.85,492.49 472.49,472.49 472.49,512.49 492.49,547.13 452.49,547.13 417.85,567.13" fill="#d0a8c0" stroke="#333" stroke-width="1"/>
<polygon points="547.13,601.77 527.13,567.13 567.13,567.13 601.77,547.13 601.77,587.13 621.77,621.77 581.77,621.77 547.13,641.77" fill="#d0a8c0" stroke="#333" stroke-width="1"/>
<polygon points="363.21,323.21 343.21,288.56 383.21,288.56 417.85,268.56 417.85,308.56 437.85,343.21 397.85,343.21 363.21,363.21" fill="#d0a8c0" stroke="#333" stroke-width="1"/>
<polygon points="492.49,397.85 472.49,363.21 512.49,363.21 547.13,343.21 547.13,383.21 567.13,417.85 527.13,417.85 492.49,437.85" fill="#d0a8c0" stroke="#333" stroke-width="1"/>
<polygon points="621.77,472.49 601.77,437.85 641.77,437.85 676.41,417.85 676.41,457.85 696.41,492.49 656.41,492.49 621.77,512.49" fill="#d0a8c0" stroke="#333" stroke-width="1"/>
<polygon points="437.85,193.92 417.85,159.28 457.85,159.28 492.49,139.28 492.49,179.28 512.49,213.92 472.49,213.92 437.85,233.92" fill="#d0a8c0" stroke="#333" stroke-width="1"/>
<polygon points="567.13,268.56 547.13,233.92 587.13,233.92 621.77,213.92 621.77,253.92 641.77,288.56 601.77,288.56 567.13,308.56" fill="#d0a8c0" stroke="#333" stroke-width="1"/>
<polygon points="696.41,343.21 676.41,308.56 716.41,308.56 751.05,288.56 751.05,328.56 771.05,363.21 731.05,363.21 696.41,383.21" fill="#d0a8c0" stroke="#333" stroke-width="1"/>
<polygon points="104.64,472.49 139.28,452.49 139.28,492.49 159.28,527.13 119.28,527.13 84.64,547.13 84.64,507.13 64.64,472.49" fill="#d0a8c0" stroke="#333" stroke-width="1"/>
<polygon points="233.92,547.13 268.56,527.13 268.56,567.13 288.56,601.77 248.56,601.77 213.92,621.77 213.92,581.77 193.92,547.13" fill="#d0a8c0" stroke="#333" stroke-width="1"/>
<polygon points="363.21,621.77 397.85,601.77 397.85,641.77 417.85,676.41 377.85,676.41 343.21,696.41 343.21,656.41 323.21,621.77" fill="#d0a8c0" stroke="#333" stroke-width="1"/>
<polygon points="179.28,343.21 213.92,323.21 213.92,363.21 233.92,397.85 193.92,397.85 159.28,417.85 159.28,377.85 139.28,343.21" fill="#d0a8c0" stroke="#333" stroke-width="1"/>
<polygon points="308.56,417.85 343.21,397.85 343.21,437.85 363.21,472.49 323.21,472.49 288.56,492.49 288.56,452.49 268.56,417.85" fill="#d0a8c0" stroke="#333" stroke-width="1"/>
<polygon points="437.85,492.49 472.49,472.49 472.49,512.49 492.49,547.13 452.49,547.13 417.85,567.13 417.85,527.13 397.85,492.49" fill="#d0a8c0" stroke="#333" stroke-width="1"/>
<polygon points="253.92,213.92 288.56,193.92 288.56,233.92 308.56,268.56 268.56,268.56 233.92,288.56 233.92,248.56 213.92,213.92" fill="#d0a8c0" stroke="#333" stroke-width="1"/>
<polygon points="383.21,288.56 417.85,268.56 417.85,308.56 437.85,343.21 397.85,343.21 363.21,363.21 363.21,323.21 343.21,288.56" fill="#d0a8c0" stroke="#333" stroke-width="1"/>
<polygon points="512.49,363.21 547.13,343.21 547.13,383.21 567.13,417.85 527.13,417.85 492.49,437.85 492.49,397.85 472.49,363.21" fill="#d0a8c0" stroke="#333" stroke-width="1"/>
<text x="10" y="718" font-family="monospace" font-size="12">(4*d14,12)A, (4*p4,12,12)A</text>
</svg>
