<svg xmlns="http://www.w3.org/2000/svg" width="555" height="535">
<rect width="100%" height="100%" fill="white"/>
<polygon points="134.85,299.71 174.85,299.71 203.14,327.99 203.14,367.99 174.85,396.27 134.85,396.27 106.57,367.99 106.57,327.99" fill="#d89898" stroke="#333" stroke-width="1"/>
<polygon points="231.42,339.71 271.42,339.71 299.71,367.99 299.71,407.99 271.42,436.27 231.42,436.27 203.14,407.99 203.14,367.99" fill="#d89898" stroke="#333" stroke-width="1"/>
<polygon points="327.99,379.71 367.99,379.71 396.27,407.99 396.27,447.99 367.99,476.27 327.99,476.27 299.71,447.99 299.71,407.99" fill="#d89898" stroke="#333" stroke-width="1"/>
<polygon points="174.85,203.14 214.85,203.14 243.14,231.42 243.14,271.42 214.85,299.71 174.85,299.71 146.57,271.42 146.57,231.42" fill="#d89898" stroke="#333" stroke-width="1"/>
<polygon points="271.42,243.14 311.42,243.14 339.71,271.42 339.71,311.42 311.42,339.71 271.42,339.71 243.14,311.42 243.14,271.42" fill="#d89898" stroke="#333" stroke-width="1"/>
<polygon points="367.99,283.14 407.99,283.14 436.27,311.42 436.27,351.42 407.99,379.71 367.99,379.71 339.71,351.42 339.71,311.42" fill="#d89898" stroke="#333" stroke-width="1"/>
<polygon points="214.85,106.57 254.85,106.57 283.14,134.85 283.14,174.85 254.85,203.14 214.85,203.14 186.57,174.85 186.57,134.85" fill="#d89898" stroke="#333" stroke-width="1"/>
<polygon points="311.42,146.57 351.42,146.57 379.71,174.85 379.71,214.85 351.42,243.14 311.42,243.14 283.14,214.85 283.14,174.85" fill="#d89898" stroke="#333" stroke-width="1"/>
<polygon points="407.99,186.57 447.99,186.57 476.27,214.85 476.27,254.85 447.99,283.14 407.99,283.14 379.71,254.85 379.71,214.85" fill="#d89898" stroke="#333" stroke-width="1"/>
<polygon points="174.85,299.71 134.85,299.71 106.57,327.99 106.57,287.99 78.28,259.71 118.28,259.71 146.57,231.42 146.57,271.42" fill="#a0b8e8" stroke="#333" stroke-width="1"/>
<polygon points="271.42,339.71 231.42,339.71 203.14,367.99 203.14,327.99 174.85,299.71 214.85,299.71 243.14,271.42 243.14,311.42" fill="#a0b8e8" stroke="#333" stroke-width="1"/>
<polygon points="367.99,379.71 327.99,379.71 299.71,407.99 299.71,367.99 271.42,339.71 311.42,339.71 339.71,311.42 339.71,351.42" fill="#a0b8e8" stroke="#333" stroke-width="1"/>
<polygon points="214.85,203.14 174.85,203.14 146.57,231.42 146.57,191.42 118.28,163.14 158.28,163.14 186.57,134.85 186.57,174.85" fill="#a0b8e8" stroke="#333" stroke-width="1"/>
<polygon points="311.42,243.14 271.42,243.14 243.14,271.42 243.14,231.42 214.85,203.14 254.85,203.14 283.14,174.85 283.14,214.85" fill="#a0b8e8" stroke="#333" stroke-width="1"/>
<polygon points="407.99,283.14 367.99,283.14 339.71,311.42 339.71,271.42 311.42,243.14 351.42,243.14 379.71,214.85 379.71,254.85" fill="#a0b8e8" stroke="#333" stroke-width="1"/>
<polygon points="254.85,106.57 214.85,106.57 186.57,134.85 186.57,94.85 158.28,66.57 198.28,66.57 226.57,38.28 226.57,78.28" fill="#a0b8e8" stroke="#333" stroke-width="1"/>
<polygon points="351.42,146.57 311.42,146.57 283.14,174.85 283.14,134.85 254.85,106.57 294.85,106.57 323.14,78.28 323.14,118.28" fill="#a0b8e8" stroke="#333" stroke-width="1"/>
<polygon points="447.99,186.57 407.99,186.57 379.71,214.85 379.71,174.85 351.42,146.57 391.42,146.57 419.71,118.28 419.71,158.28" fill="#a0b8e8" stroke="#333" stroke-width="1"/>
<polygon points="203.14,327.99 174.85,299.71 214.85,299.71 243.14,271.42 243.14,311.42 271.42,339.71 231.42,339.71 203.14,367.99" fill="#a0b8e8" stroke="#333" stroke-width="1"/>
<polygon points="299.71,367.99 271.42,339.71 311.42,339.71 339.71,311.42 339.71,351.42 367.99,379.71 327.99,379.71 299.71,407.99" fill="#a0b8e8" stroke="#333" stroke-width="1"/>
<polygon points="396.27,407.99 367.99,379.71 407.99,379.71 436.27,351.42 436.27,391.42 464.56,419.71 424.56,419.71 396.27,447.99" fill="#a0b8e8" stroke="#333" stroke-width="1"/>
<polygon points="243.14,231.42 214.85,203.14 254.85,203.14 283.14,174.85 283.14,214.85 311.42,243.14 271.42,243.14 243.14,271.42" fill="#a0b8e8" stroke="#333" stroke-width="1"/>
<polygon points="339.71,271.42 311.42,243.14 351.42,243.14 379.71,214.85 379.71,254.85 407.99,283.14 367.99,283.14 339.71,311.42" fill="#a0b8e8" stroke="#333" stroke-width="1"/>
<polygon points="436.27,311.42 407.99,283.14 447.99,283.14 476.27,254.85 476.27,294.85 504.56,323.14 464.56,323.14 436.27,351.42" fill="#a0b8e8" stroke="#333" stroke-width="1"/>
<polygon points="283.14,134.85 254.85,106.57 294.85,106.57 323.14,78.28 323.14,118.28 351.42,146.57 311.42,146.57 283.14,174.85" fill="#a0b8e8" stroke="#333" stroke-width="1"/>
<polygon points="379.71,174.85 351.42,146.57 391.42,146.57 419.71,118.28 419.71,158.28 447.99,186.57 407.99,186.57 379.71,214.85" fill="#a0b8e8" stroke="#333" stroke-width="1"/>
<polygon points="476.27,214.85 447.99,186.57 487.99,186.57 516.27,158.28 516.27,198.28 544.56,226.57 504.56,226.57 476.27,254.85" fill="#a0b8e8" stroke="#333" stroke-width="1"/>
<polygon points="214.85,299.71 174.85,299.71 146.57,271.42 146.57,231.42 174.85,203.14 214.85,203.14 243.14,231.42 243.14,271.42" fill="#d89898" stroke="#333" stroke-width="1"/>
<polygon points="311.42,339.71 271.42,339.71 243.14,311.42 243.14,271.42 271.42,243.14 311.42,243.14 339.71,271.42 339.71,311.42" fill="#d89898" stroke="#333" stroke-width="1"/>
<polygon points="407.99,379.71 367.99,379.71 339.71,351.42 339.71,311.42 367.99,283.14 407.99,283.14 436.27,311.42 436.27,351.42" fill="#d89898" stroke="#333" stroke-width="1"/>
<polygon points="254.85,203.14 214.85,203.14 186.57,174.85 186.57,134.85 214.85,106.57 254.85,106.57 283.14,134.85 283.14,174.85" fill="#d89898" stroke="#333" stroke-width="1"/>
<polygon points="351.42,243.14 311.42,243.14 283.14,214.85 283.14,174.85 311.42,146.57 351.42,146.57 379.71,174.85 379.71,214.85" fill="#d89898" stroke="#333" stroke-width="1"/>
<polygon points="447.99,283.14 407.99,283.14 379.71,254.85 379.71,214.85 407.99,186.57 447.99,186.57 476.27,214.85 476.27,254.85" fill="#d89898" stroke="#333" stroke-width="1"/>
<polygon points="294.85,106.57 254.85,106.57 226.57,78.28 226.57,38.28 254.85,10.00 294.85,10.00 323.14,38.28 323.14,78.28" fill="#d89898" stroke="#333" stroke-width="1"/>
<polygon points="391.42,146.57 351.42,146.57 323.14,118.28 323.14,78.28 351.42,50.00 391.42,50.00 419.71,78.28 419.71,118.28" fill="#d89898" stroke="#333" stroke-width="1"/>
<polygon points="487.99,186.57 447.99,186.57 419.71,158.28 419.71,118.28 447.99,90.00 487.99,90.00 516.27,118.28 516.27,158.28" fill="#d89898" stroke="#333" stroke-width="1"/>
<polygon points="106.57,287.99 106.57,327.99 78.28,356.27 38.28,356.27 10.00,327.99 10.00,287.99 38.28,259.71 78.28,259.71" fill="#d89898" stroke="#333" stroke-width="1"/>
<polygon points="203.14,327.99 203.14,367.99 174.85,396.27 134.85,396.27 106.57,367.99 106.57,327.99 134.85,299.71 174.85,299.71" fill="#d89898" stroke="#333" stroke-width="1"/>
<polygon points="299.71,367.99 299.71,407.99 271.42,436.27 231.42,436.27 203.14,407.99 203.14,367.99 231.42,339.71 271.42,339.71" fill="#d89898" stroke="#333" stroke-width="1"/>
<polygon points="146.57,191.42 146.57,231.42 118.28,259.71 78.28,259.71 50.00,231.42 50.00,191.42 78.28,163.14 118.28,163.14" fill="#d89898" stroke="#333" stroke-width="1"/>
<polygon points="243.14,231.42 243.14,271.42 214.85,299.71 174.85,299.71 146.57,271.42 146.57,231.42 174.85,203.14 214.85,203.14" fill="#d89898" stroke="#333" stroke-width="1"/>
<polygon points="339.71,271.42 339.71,311.42 311.42,339.71 271.42,339.71 243.14,311.42 243.14,271.42 271.42,243.14 311.42,243.14" fill="#d89898" stroke="#333" stroke-width="1"/>
<polygon points="186.57,94.85 186.57,134.85 158.28,163.14 118.28,163.14 90.00,134.85 90.00,94.85 118.28,66.57 158.28,66.57" fill="#d89898" stroke="#333" stroke-width="1"/>
<polygon points="283.14,134.85 283.14,174.85 254.85,203.14 214.85,203.14 186.57,174.85 186.57,134.85 214.85,106.57 254.85,106.57" fill="#d89898" stroke="#333" stroke-width="1"/>
<polygon points="379.71,174.85 379.71,214.85 351.42,243.14 311.42,243.14 283.14,214.85 283.14,174.85 311.42,146.57 351.42,146.57" fill="#d89898" stroke="#333" stroke-width="1"/>
<polygon points="78.28,356.27 106.57,327.99 106.57,367.99 134.85,396.27 94.85,396.27 66.57,424.56 66.57,384.56 38.28,356.27" fill="#a0b8e8" stroke="#333" stroke-width="1"/>
<polygon points="174.85,396.27 203.14,367.99 203.14,407.99 231.42,436.27 191.42,436.27 163.14,464.56 163.14,424.56 134.85,396.27" fill="#a0b8e8" stroke="#333" stroke-width="1"/>
<polygon points="271.42,436.27 299.71,407.99 299.71,447.99 327.99,476.27 287.99,476.27 259.71,504.56 259.71,464.56 231.42,436.27" fill="#a0b8e8" stroke="#333" stroke-width="1"/>
<polygon points="118.28,259.71 146.57,231.42 146.57,271.42 174.85,299.71 134.85,299.71 106.57,327.99 106.57,287.99 78.28,259.71" fill="#a0b8e8" stroke="#333" stroke-width="1"/>
<polygon points="214.85,299.71 243.14,271.42 243.14,311.42 271.42,339.71 231.42,339.71 203.14,367.99 203.14,327.99 174.85,299.71" fill="#a0b8e8" stroke="#333" stroke-width="1"/>
<polygon points="311.42,339.71 339.71,311.42 339.71,351.42 367.99,379.71 327.99,379.71 299.71,407.99 299.71,367.99 271.42,339.71" fill="#a0b8e8" stroke="#333" stroke-width="1"/>
<polygon points="158.28,163.14 186.57,134.85 186.57,174.85 214.85,203.14 174.85,203.14 146.57,231.42 146.57,191.42 118.28,163.14" fill="#a0b8e8" stroke="#333" stroke-width="1"/>
<polygon points="254.85,203.14 283.14,174.85 283.14,214.85 311.42,243.14 271.42,243.14 243.14,271.42 243.14,231.42 214.85,203.14" fill="#a0b8e8" stroke="#333" stroke-width="1"/>
<polygon points="351.42,243.14 379.71,214.85 379.71,254.85 407.99,283.14 367.99,283.14 339.71,311.42 339.71,271.42 311.42,243.14" fill="#a0b8e8" stroke="#333" stroke-width="1"/>
<text x="10" y="527" font-family="monospace" font-size="12">(4*d15,8)A, (4*p3,8,4*p3,8)S2</text>
</svg>
