<svg xmlns="http://www.w3.org/2000/svg" width="537" height="548">
<rect width="100%" height="100%" fill="white"/>
<polygon points="99.28,199.28 139.28,199.28 159.28,233.92 139.28,268.56 99.28,268.56 79.28,233.92" fill="#9ecf9e" stroke="#333" stroke-width="1"/>
<polygon points="193.92,144.64 233.92,144.64 253.92,179.28 233.92,213.92 193.92,213.92 173.92,179.28" fill="#9ecf9e" stroke="#333" stroke-width="1"/>
<polygon points="288.56,90.00 328.56,90.00 348.56,124.64 328.56,159.28 288.56,159.28 268.56,124.64" fill="#9ecf9e" stroke="#333" stroke-width="1"/>
<polygon points="153.92,293.92 193.92,293.92 213.92,328.56 193.92,363.21 153.92,363.21 133.92,328.56" fill="#9ecf9e" stroke="#333" stroke-width="1"/>
<polygon points="248.56,239.28 288.56,239.28 308.56,273.92 288.56,308.56 248.56,308.56 228.56,273.92" fill="#9ecf9e" stroke="#333" stroke-width="1"/>
<polygon points="343.21,184.64 383.21,184.64 403.21,219.28 383.21,253.92 343.21,253.92 323.21,219.28" fill="#9ecf9e" stroke="#333" stroke-width="1"/>
<polygon points="208.56,388.56 248.56,388.56 268.56,423.21 248.56,457.85 208.56,457.85 188.56,423.21" fill="#9ecf9e" stroke="#333" stroke-width="1"/>
<polygon points="303.21,333.92 343.21,333.92 363.21,368.56 343.21,403.21 303.21,403.21 283.21,368.56" fill="#9ecf9e" stroke="#333" stroke-width="1"/>
<polygon points="397.85,279.28 437.85,279.28 457.85,313.92 437.85,348.56 397.85,348.56 377.85,313.92" fill="#9ecf9e" stroke="#333" stroke-width="1"/>
<polygon points="139.28,199.28 99.28,199.28 79.28,233.92 79.28,193.92 44.64,173.92 84.64,173.92 104.64,139.28 104.64,179.28" fill="#c0c078" stroke="#333" stroke-width="1"/>
<polygon points="233.92,144.64 193.92,144.64 173.92,179.28 173.92,139.28 139.28,119.28 179.28,119.28 199.28,84.64 199.28,124.64" fill="#c0c078" stroke="#333" stroke-width="1"/>
<polygon points="328.56,90.00 288.56,90.00 268.56,124.64 268.56,84.64 233.92,64.64 273.92,64.64 293.92,30.00 293.92,70.00" fill="#c0c078" stroke="#333" stroke-width="1"/>
<polygon points="193.92,293.92 153.92,293.92 133.92,328.56 133.92,288.56 99.28,268.56 139.28,268.56 159.28,233.92 159.28,273.92" fill="#c0c078" stroke="#333" stroke-width="1"/>
<polygon points="288.56,239.28 248.56,239.28 228.56,273.92 228.56,233.92 193.92,213.92 233.92,213.92 253.92,179.28 253.92,219.28" fill="#c0c078" stroke="#333" stroke-width="1"/>
<polygon points="383.21,184.64 343.21,184.64 323.21,219.28 323.21,179.28 288.56,159.28 328.56,159.28 348.56,124.64 348.56,164.64" fill="#c0c078" stroke="#333" stroke-width="1"/>
<polygon points="248.56,388.56 208.56,388.56 188.56,423.21 188.56,383.21 153.92,363.21 193.92,363.21 213.92,328.56 213.92,368.56" fill="#c0c078" stroke="#333" stroke-width="1"/>
<polygon points="343.21,333.92 303.21,333.92 283.21,368.56 283.21,328.56 248.56,308.56 288.56,308.56 308.56,273.92 308.56,313.92" fill="#c0c078" stroke="#333" stroke-width="1"/>
<polygon points="437.85,279.28 397.85,279.28 377.85,313.92 377.85,273.92 343.21,253.92 383.21,253.92 403.21,219.28 403.21,259.28" fill="#c0c078" stroke="#333" stroke-width="1"/>
<polygon points="159.28,233.92 139.28,199.28 173.92,179.28 193.92,213.92" fill="#e8c268" stroke="#333" stroke-width="1"/>
<polygon points="253.92,179.28 233.92,144.64 268.56,124.64 288.56,159.28" fill="#e8c268" stroke="#333" stroke-width="1"/>
<polygon points="348.56,124.64 328.56,90.00 363.21,70.00 383.21,104.64" fill="#e8c268" stroke="#333" stroke-width="1"/>
<polygon points="213.92,328.56 193.92,293.92 228.56,273.92 248.56,308.56" fill="#e8c268" stroke="#333" stroke-width="1"/>
<polygon points="308.56,273.92 288.56,239.28 323.21,219.28 343.21,253.92" fill="#e8c268" stroke="#333" stroke-width="1"/>
<polygon points="403.21,219.28 383.21,184.64 417.85,164.64 437.85,199.28" fill="#e8c268" stroke="#333" stroke-width="1"/>
<polygon points="268.56,423.21 248.56,388.56 283.21,368.56 303.21,403.21" fill="#e8c268" stroke="#333" stroke-width="1"/>
<polygon points="363.21,368.56 343.21,333.92 377.85,313.92 397.85,348.56" fill="#e8c268" stroke="#333" stroke-width="1"/>
<polygon points="457.85,313.92 437.85,279.28 472.49,259.28 492.49,293.92" fill="#e8c268" stroke="#333" stroke-width="1"/>
<polygon points="173.92,179.28 139.28,199.28 104.64,179.28 104.64,139.28 139.28,119.28 173.92,139.28" fill="#9ecf9e" stroke="#333" stroke-width="1"/>
<polygon points="268.56,124.64 233.92,144.64 199.28,124.64 199.28,84.64 233.92,64.64 268.56,84.64" fill="#9ecf9e" stroke="#333" stroke-width="1"/>
<polygon points="363.21,70.00 328.56,90.00 293.92,70.00 293.92,30.00 328.56,10.00 363.21,30.00" fill="#9ecf9e" stroke="#333" stroke-width="1"/>
<polygon points="228.56,273.92 193.92,293.92 159.28,273.92 159.28,233.92 193.92,213.92 228.56,233.92" fill="#9ecf9e" stroke="#333" stroke-width="1"/>
<polygon points="323.21,219.28 288.56,239.28 253.92,219.28 253.92,179.28 288.56,159.28 323.21,179.28" fill="#9ecf9e" stroke="#333" stroke-width="1"/>
<polygon points="417.85,164.64 383.21,184.64 348.56,164.64 348.56,124.64 383.21,104.64 417.85,124.64" fill="#9ecf9e" stroke="#333" stroke-width="1"/>
<polygon points="283.21,368.56 248.56,388.56 213.92,368.56 213.92,328.56 248.56,308.56 283.21,328.56" fill="#9ecf9e" stroke="#333" stroke-width="1"/>
<polygon points="377.85,313.92 343.21,333.92 308.56,313.92 308.56,273.92 343.21,253.92 377.85,273.92" fill="#9ecf9e" stroke="#333" stroke-width="1"/>
<polygon points="472.49,259.28 437.85,279.28 403.21,259.28 403.21,219.28 437.85,199.28 472.49,219.28" fill="#9ecf9e" stroke="#333" stroke-width="1"/>
<polygon points="79.28,193.92 79.28,233.92 44.64,253.92 10.00,233.92 10.00,193.92 44.64,173.92" fill="#9ecf9e" stroke="#333" stroke-width="1"/>
<polygon points="173.92,139.28 173.92,179.28 139.28,199.28 104.64,179.28 104.64,139.28 139.28,119.28" fill="#9ecf9e" stroke="#333" stroke-width="1"/>
<polygon points="268.56,84.64 268.56,124.64 233.92,144.64 199.28,124.64 199.28,84.64 233.92,64.64" fill="#9ecf9e" stroke="#333" stroke-width="1"/>
<polygon points="133.92,288.56 133.92,328.56 99.28,348.56 64.64,328.56 64.64,288.56 99.28,268.56" fill="#9ecf9e" stroke="#333" stroke-width="1"/>
<polygon points="228.56,233.92 228.56,273.92 193.92,293.92 159.28,273.92 159.28,233.92 193.92,213.92" fill="#9ecf9e" stroke="#333" stroke-width="1"/>
<polygon points="323.21,179.28 323.21,219.28 288.56,239.28 253.92,219.28 253.92,179.28 288.56,159.28" fill="#9ecf9e" stroke="#333" stroke-width="1"/>
<polygon points="188.56,383.21 188.56,423.21 153.92,443.21 119.28,423.21 119.28,383.21 153.92,363.21" fill="#9ecf9e" stroke="#333" stroke-width="1"/>
<polygon points="283.21,328.56 283.21,368.56 248.56,388.56 213.92,368.56 213.92,328.56 248.56,308.56" fill="#9ecf9e" stroke="#333" stroke-width="1"/>
<polygon points="377.85,273.92 377.85,313.92 343.21,333.92 308.56,313.92 308.56,273.92 343.21,253.92" fill="#9ecf9e" stroke="#333" stroke-width="1"/>
<polygon points="79.28,233.92 99.28,268.56 64.64,288.56 44.64,253.92" fill="#e8c268" stroke="#333" stroke-width="1"/>
<polygon points="173.92,179.28 193.92,213.92 159.28,233.92 139.28,199.28" fill="#e8c268" stroke="#333" stroke-width="1"/>
<polygon points="268.56,124.64 288.56,159.28 253.92,179.28 233.92,144.64" fill="#e8c268" stroke="#333" stroke-width="1"/>
<polygon points="133.92,328.56 153.92,363.21 119.28,383.21 99.28,348.56" fill="#e8c268" stroke="#333" stroke-width="1"/>
<polygon points="228.56,273.92 248.56,308.56 213.92,328.56 193.92,293.92" fill="#e8c268" stroke="#333" stroke-width="1"/>
<polygon points="323.21,219.28 343.21,253.92 308.56,273.92 288.56,239.28" fill="#e8c268" stroke="#333" stroke-width="1"/>
<polygon points="188.56,423.21 208.56,457.85 173.92,477.85 153.92,443.21" fill="#e8c268" stroke="#333" stroke-width="1"/>
<polygon points="283.21,368.56 303.21,403.21 268.56,423.21 248.56,388.56" fill="#e8c268" stroke="#333" stroke-width="1"/>
<polygon points="377.85,313.92 397.85,348.56 363.21,368.56 343.21,333.92" fill="#e8c268" stroke="#333" stroke-width="1"/>
<polygon points="139.28,268.56 159.28,233.92 159.28,273.92 193.92,293.92 153.92,293.92 133.92,328.56 133.92,288.56 99.28,268.56" fill="#c0c078" stroke="#333" stroke-width="1"/>
<polygon points="233.92,213.92 253.92,179.28 253.92,219.28 288.56,239.28 248.56,239.28 228.56,273.92 228.56,233.92 193.92,213.92" fill="#c0c078" stroke="#333" stroke-width="1"/>
<polygon points="328.56,159.28 348.56,124.64 348.56,164.64 383.21,184.64 343.21,184.64 323.21,219.28 323.21,179.28 288.56,159.28" fill="#c0c078" stroke="#333" stroke-width="1"/>
<polygon points="193.92,363.21 213.92,328.56 213.92,368.56 248.56,388.56 208.56,388.56 188.56,423.21 188.56,383.21 153.92,363.21" fill="#c0c078" stroke="#333" stroke-width="1"/>
<polygon points="288.56,308.56 308.56,273.92 308.56,313.92 343.21,333.92 303.21,333.92 283.21,368.56 283.21,328.56 248.56,308.56" fill="#c0c078" stroke="#333" stroke-width="1"/>
<polygon points="383.21,253.92 403.21,219.28 403.21,259.28 437.85,279.28 397.85,279.28 377.85,313.92 377.85,273.92 343.21,253.92" fill="#c0c078" stroke="#333" stroke-width="1"/>
<polygon points="248.56,457.85 268.56,423.21 268.56,463.21 303.21,483.21 263.21,483.21 243.21,517.85 243.21,477.85 208.56,457.85" fill="#c0c078" stroke="#333" stroke-width="1"/>
<polygon points="343.21,403.21 363.21,368.56 363.21,408.56 397.85,428.56 357.85,428.56 337.85,463.21 337.85,423.21 303.21,403.21" fill="#c0c078" stroke="#333" stroke-width="1"/>
<polygon points="437.85,348.56 457.85,313.92 457.85,353.92 492.49,373.92 452.49,373.92 432.49,408.56 432.49,368.56 397.85,348.56" fill="#c0c078" stroke="#333" stroke-width="1"/>
<polygon points="159.28,273.92 159.28,233.92 193.92,213.92 228.56,233.92 228.56,273.92 193.92,293.92" fill="#9ecf9e" stroke="#333" stroke-width="1"/>
<polygon points="253.92,219.28 253.92,179.28 288.56,159.28 323.21,179.28 323.21,219.28 288.56,239.28" fill="#9ecf9e" stroke="#333" stroke-width="1"/>
<polygon points="348.56,164.64 348.56,124.64 383.21,104.64 417.85,124.64 417.85,164.64 383.21,184.64" fill="#9ecf9e" stroke="#333" stroke-width="1"/>
<polygon points="213.92,368.56 213.92,328.56 248.56,308.56 283.21,328.56 283.21,368.56 248.56,388.56" fill="#9ecf9e" stroke="#333" stroke-width="1"/>
<polygon points="308.56,313.92 308.56,273.92 343.21,253.92 377.85,273.92 377.85,313.92 343.21,333.92" fill="#9ecf9e" stroke="#333" stroke-width="1"/>
<polygon points="403.21,259.28 403.21,219.28 437.85,199.28 472.49,219.28 472.49,259.28 437.85,279.28" fill="#9ecf9e" stroke="#333" stroke-width="1"/>
<polygon points="268.56,463.21 268.56,423.21 303.21,403.21 337.85,423.21 337.85,463.21 303.21,483.21" fill="#9ecf9e" stroke="#333" stroke-width="1"/>
<polygon points="363.21,408.56 363.21,368.56 397.85,348.56 432.49,368.56 432.49,408.56 397.85,428.56" fill="#9ecf9e" stroke="#333" stroke-width="1"/>
<polygon points="457.85,353.92 457.85,313.92 492.49,293.92 527.13,313.92 527.13,353.92 492.49,373.92" fill="#9ecf9e" stroke="#333" stroke-width="1"/>
<text x="10" y="540" font-family="monospace" font-size="12">(4*d16,6)A, (4*p2,6,4,6)A</text>
</svg>
