<svg xmlns="http://www.w3.org/2000/svg" width="860" height="594">
<rect width="100%" height="100%" fill="white"/>
<polygon points="330.00,391.05 370.00,391.05 390.00,425.69 370.00,460.33 330.00,460.33 310.00,425.69" fill="#9ecf9e" stroke="#333" stroke-width="1"/>
<polygon points="490.00,391.05 530.00,391.05 550.00,425.69 530.00,460.33 490.00,460.33 470.00,425.69" fill="#9ecf9e" stroke="#333" stroke-width="1"/>
<polygon points="650.00,391.05 690.00,391.05 710.00,425.69 690.00,460.33 650.00,460.33 630.00,425.69" fill="#9ecf9e" stroke="#333" stroke-width="1"/>
<polygon points="250.00,252.49 290.00,252.49 310.00,287.13 290.00,321.77 250.00,321.77 230.00,287.13" fill="#9ecf9e" stroke="#333" stroke-width="1"/>
<polygon points="410.00,252.49 450.00,252.49 470.00,287.13 450.00,321.77 410.00,321.77 390.00,287.13" fill="#9ecf9e" stroke="#333" stroke-width="1"/>
<polygon points="570.00,252.49 610.00,252.49 630.00,287.13 610.00,321.77 570.00,321.77 550.00,287.13" fill="#9ecf9e" stroke="#333" stroke-width="1"/>
<polygon points="170.00,113.92 210.00,113.92 230.00,148.56 210.00,183.21 170.00,183.21 150.00,148.56" fill="#9ecf9e" stroke="#333" stroke-width="1"/>
<polygon points="330.00,113.92 370.00,113.92 390.00,148.56 370.00,183.21 330.00,183.21 310.00,148.56" fill="#9ecf9e" stroke="#333" stroke-width="1"/>
<polygon points="490.00,113.92 530.00,113.92 550.00,148.56 530.00,183.21 490.00,183.21 470.00,148.56" fill="#9ecf9e" stroke="#333" stroke-width="1"/>
<polygon points="370.00,391.05 330.00,391.05 310.00,425.69 290.00,391.05 250.00,391.05 270.00,356.41 250.00,321.77 290.00,321.77 310.00,287.13 330.00,321.77 370.00,321.77 350.00,356.41" fill="#c8b898" stroke="#333" stroke-width="1"/>
<polygon points="530.00,391.05 490.00,391.05 470.00,425.69 450.00,391.05 410.00,391.05 430.00,356.41 410.00,321.77 450.00,321.77 470.00,287.13 490.00,321.77 530.00,321.77 510.00,356.41" fill="#c8b898" stroke="#333" stroke-width="1"/>
<polygon points="690.00,391.05 650.00,391.05 630.00,425.69 610.00,391.05 570.00,391.05 590.00,356.41 570.00,321.77 610.00,321.77 630.00,287.13 650.00,321.77 690.00,321.77 670.00,356.41" fill="#c8b898" stroke="#333" stroke-width="1"/>
<polygon points="290.00,252.49 250.00,252.49 230.00,287.13 210.00,252.49 170.00,252.49 190.00,217.85 170.00,183.21 210.00,183.21 230.00,148.56 250.00,183.21 290.00,183.21 270.00,217.85" fill="#c8b898" stroke="#333" stroke-width="1"/>
<polygon points="450.00,252.49 410.00,252.49 390.00,287.13 370.00,252.49 330.00,252.49 350.00,217.85 330.00,183.21 370.00,183.21 390.00,148.56 410.00,183.21 450.00,183.21 430.00,217.85" fill="#c8b898" stroke="#333" stroke-width="1"/>
<polygon points="610.00,252.49 570.00,252.49 550.00,287.13 530.00,252.49 490.00,252.49 510.00,217.85 490.00,183.21 530.00,183.21 550.00,148.56 570.00,183.21 610.00,183.21 590.00,217.85" fill="#c8b898" stroke="#333" stroke-width="1"/>
<polygon points="210.00,113.92 170.00,113.92 150.00,148.56 130.00,113.92 90.00,113.92 110.00,79.28 90.00,44.64 130.00,44.64 150.00,10.00 170.00,44.64 210.00,44.64 190.00,79.28" fill="#c8b898" stroke="#333" stroke-width="1"/>
<polygon points="370.00,113.92 330.00,113.92 310.00,148.56 290.00,113.92 250.00,113.92 270.00,79.28 250.00,44.64 290.00,44.64 310.00,10.00 330.00,44.64 370.00,44.64 350.00,79.28" fill="#c8b898" stroke="#333" stroke-width="1"/>
<polygon points="530.00,113.92 490.00,113.92 470.00,148.56 450.00,113.92 410.00,113.92 430.00,79.28 410.00,44.64 450.00,44.64 470.00,10.00 490.00,44.64 530.00,44.64 510.00,79.28" fill="#c8b898" stroke="#333" stroke-width="1"/>
<polygon points="390.00,425.69 370.00,391.05 410.00,391.05" fill="#88b0d8" stroke="#333" stroke-width="1"/>
<polygon points="550.00,425.69 530.00,391.05 570.00,391.05" fill="#88b0d8" stroke="#333" stroke-width="1"/>
<polygon points="710.00,425.69 690.00,391.05 730.00,391.05" fill="#88b0d8" stroke="#333" stroke-width="1"/>
<polygon points="310.00,287.13 290.00,252.49 330.00,252.49" fill="#88b0d8" stroke="#333" stroke-width="1"/>
<polygon points="470.00,287.13 450.00,252.49 490.00,252.49" fill="#88b0d8" stroke="#333" stroke-width="1"/>
<polygon points="630.00,287.13 610.00,252.49 650.00,252.49" fill="#88b0d8" stroke="#333" stroke-width="1"/>
<polygon points="230.00,148.56 210.00,113.92 250.00,113.92" fill="#88b0d8" stroke="#333" stroke-width="1"/>
<polygon points="390.00,148.56 370.00,113.92 410.00,113.92" fill="#88b0d8" stroke="#333" stroke-width="1"/>
<polygon points="550.00,148.56 530.00,113.92 570.00,113.92" fill="#88b0d8" stroke="#333" stroke-width="1"/>
<polygon points="410.00,391.05 370.00,391.05 350.00,356.41 370.00,321.77 410.00,321.77 430.00,356.41" fill="#9ecf9e" stroke="#333" stroke-width="1"/>
<polygon points="570.00,391.05 530.00,391.05 510.00,356.41 530.00,321.77 570.00,321.77 590.00,356.41" fill="#9ecf9e" stroke="#333" stroke-width="1"/>
<polygon points="730.00,391.05 690.00,391.05 670.00,356.41 690.00,321.77 730.00,321.77 750.00,356.41" fill="#9ecf9e" stroke="#333" stroke-width="1"/>
<polygon points="330.00,252.49 290.00,252.49 270.00,217.85 290.00,183.21 330.00,183.21 350.00,217.85" fill="#9ecf9e" stroke="#333" stroke-width="1"/>
<polygon points="490.00,252.49 450.00,252.49 430.00,217.85 450.00,183.21 490.00,183.21 510.00,217.85" fill="#9ecf9e" stroke="#333" stroke-width="1"/>
<polygon points="650.00,252.49 610.00,252.49 590.00,217.85 610.00,183.21 650.00,183.21 670.00,217.85" fill="#9ecf9e" stroke="#333" stroke-width="1"/>
<polygon points="250.00,113.92 210.00,113.92 190.00,79.28 210.00,44.64 250.00,44.64 270.00,79.28" fill="#9ecf9e" stroke="#333" stroke-width="1"/>
<polygon points="410.00,113.92 370.00,113.92 350.00,79.28 370.00,44.64 410.00,44.64 430.00,79.28" fill="#9ecf9e" stroke="#333" stroke-width="1"/>
<polygon points="570.00,113.92 530.00,113.92 510.00,79.28 530.00,44.64 570.00,44.64 590.00,79.28" fill="#9ecf9e" stroke="#333" stroke-width="1"/>
<polygon points="290.00,391.05 310.00,425.69 290.00,460.33 250.00,460.33 230.00,425.69 250.00,391.05" fill="#9ecf9e" stroke="#333" stroke-width="1"/>
<polygon points="450.00,391.05 470.00,425.69 450.00,460.33 410.00,460.33 390.00,425.69 410.00,391.05" fill="#9ecf9e" stroke="#333" stroke-width="1"/>
<polygon points="610.00,391.05 630.00,425.69 610.00,460.33 570.00,460.33 550.00,425.69 570.00,391.05" fill="#9ecf9e" stroke="#333" stroke-width="1"/>
<polygon points="210.00,252.49 230.00,287.13 210.00,321.77 170.00,321.77 150.00,287.13 170.00,252.49" fill="#9ecf9e" stroke="#333" stroke-width="1"/>
<polygon points="370.00,252.49 390.00,287.13 370.00,321.77 330.00,321.77 310.00,287.13 330.00,252.49" fill="#9ecf9e" stroke="#333" stroke-width="1"/>
<polygon points="530.00,252.49 550.00,287.13 530.00,321.77 490.00,321.77 470.00,287.13 490.00,252.49" fill="#9ecf9e" stroke="#333" stroke-width="1"/>
<polygon points="130.00,113.92 150.00,148.56 130.00,183.21 90.00,183.21 70.00,148.56 90.00,113.92" fill="#9ecf9e" stroke="#333" stroke-width="1"/>
<polygon points="290.00,113.92 310.00,148.56 290.00,183.21 250.00,183.21 230.00,148.56 250.00,113.92" fill="#9ecf9e" stroke="#333" stroke-width="1"/>
<polygon points="450.00,113.92 470.00,148.56 450.00,183.21 410.00,183.21 390.00,148.56 410.00,113.92" fill="#9ecf9e" stroke="#333" stroke-width="1"/>
<polygon points="290.00,460.33 310.00,425.69 330.00,460.33" fill="#88b0d8" stroke="#333" stroke-width="1"/>
<polygon points="450.00,460.33 470.00,425.69 490.00,460.33" fill="#88b0d8" stroke="#333" stroke-width="1"/>
<polygon points="610.00,460.33 630.00,425.69 650.00,460.33" fill="#88b0d8" stroke="#333" stroke-width="1"/>
<polygon points="210.00,321.77 230.00,287.13 250.00,321.77" fill="#88b0d8" stroke="#333" stroke-width="1"/>
<polygon points="370.00,321.77 390.00,287.13 410.00,321.77" fill="#88b0d8" stroke="#333" stroke-width="1"/>
<polygon points="530.00,321.77 550.00,287.13 570.00,321.77" fill="#88b0d8" stroke="#333" stroke-width="1"/>
<polygon points="130.00,183.21 150.00,148.56 170.00,183.21" fill="#88b0d8" stroke="#333" stroke-width="1"/>
<polygon points="290.00,183.21 310.00,148.56 330.00,183.21" fill="#88b0d8" stroke="#333" stroke-width="1"/>
<polygon points="450.00,183.21 470.00,148.56 490.00,183.21" fill="#88b0d8" stroke="#333" stroke-width="1"/>
<polygon points="370.00,460.33 390.00,425.69 410.00,460.33 450.00,460.33 430.00,494.97 450.00,529.62 410.00,529.62 390.00,564.26 370.00,529.62 330.00,529.62 350.00,494.97 330.00,460.33" fill="#c8b898" stroke="#333" stroke-width="1"/>
<polygon points="530.00,460.33 550.00,425.69 570.00,460.33 610.00,460.33 590.00,494.97 610.00,529.62 570.00,529.62 550.00,564.26 530.00,529.62 490.00,529.62 510.00,494.97 490.00,460.33" fill="#c8b898" stroke="#333" stroke-width="1"/>
<polygon points="690.00,460.33 710.00,425.69 730.00,460.33 770.00,460.33 750.00,494.97 770.00,529.62 730.00,529.62 710.00,564.26 690.00,529.62 650.00,529.62 670.00,494.97 650.00,460.33" fill="#c8b898" stroke="#333" stroke-width="1"/>
<polygon points="290.00,321.77 310.00,287.13 330.00,321.77 370.00,321.77 350.00,356.41 370.00,391.05 330.00,391.05 310.00,425.69 290.00,391.05 250.00,391.05 270.00,356.41 250.00,321.77" fill="#c8b898" stroke="#333" stroke-width="1"/>
<polygon points="450.00,321.77 470.00,287.13 490.00,321.77 530.00,321.77 510.00,356.41 530.00,391.05 490.00,391.05 470.00,425.69 450.00,391.05 410.00,391.05 430.00,356.41 410.00,321.77" fill="#c8b898" stroke="#333" stroke-width="1"/>
<polygon points="610.00,321.77 630.00,287.13 650.00,321.77 690.00,321.77 670.00,356.41 690.00,391.05 650.00,391.05 630.00,425.69 610.00,391.05 570.00,391.05 590.00,356.41 570.00,321.77" fill="#c8b898" stroke="#333" stroke-width="1"/>
<polygon points="210.00,183.21 230.00,148.56 250.00,183.21 290.00,183.21 270.00,217.85 290.00,252.49 250.00,252.49 230.00,287.13 210.00,252.49 170.00,252.49 190.00,217.85 170.00,183.21" fill="#c8b898" stroke="#333" stroke-width="1"/>
<polygon points="370.00,183.21 390.00,148.56 410.00,183.21 450.00,183.21 430.00,217.85 450.00,252.49 410.00,252.49 390.00,287.13 370.00,252.49 330.00,252.49 350.00,217.85 330.00,183.21" fill="#c8b898" stroke="#333" stroke-width="1"/>
<polygon points="530.00,183.21 550.00,148.56 570.00,183.21 610.00,183.21 590.00,217.85 610.00,252.49 570.00,252.49 550.00,287.13 530.00,252.49 490.00,252.49 510.00,217.85 490.00,183.21" fill="#c8b898" stroke="#333" stroke-width="1"/>
<polygon points="410.00,460.33 390.00,425.69 410.00,391.05 450.00,391.05 470.00,425.69 450.00,460.33" fill="#9ecf9e" stroke="#333" stroke-width="1"/>
<polygon points="570.00,460.33 550.00,425.69 570.00,391.05 610.00,391.05 630.00,425.69 610.00,460.33" fill="#9ecf9e" stroke="#333" stroke-width="1"/>
<polygon points="730.00,460.33 710.00,425.69 730.00,391.05 770.00,391.05 790.00,425.69 770.00,460.33" fill="#9ecf9e" stroke="#333" stroke-width="1"/>
<polygon points="330.00,321.77 310.00,287.13 330.00,252.49 370.00,252.49 390.00,287.13 370.00,321.77" fill="#9ecf9e" stroke="#333" stroke-width="1"/>
<polygon points="490.00,321.77 470.00,287.13 490.00,252.49 530.00,252.49 550.00,287.13 530.00,321.77" fill="#9ecf9e" stroke="#333" stroke-width="1"/>
<polygon points="650.00,321.77 630.00,287.13 650.00,252.49 690.00,252.49 710.00,287.13 690.00,321.77" fill="#9ecf9e" stroke="#333" stroke-width="1"/>
<polygon points="250.00,183.21 230.00,148.56 250.00,113.92 290.00,113.92 310.00,148.56 290.00,183.21" fill="#9ecf9e" stroke="#333" stroke-width="1"/>
<polygon points="410.00,183.21 390.00,148.56 410.00,113.92 450.00,113.92 470.00,148.56 450.00,183.21" fill="#9ecf9e" stroke="#333" stroke-width="1"/>
<polygon points="570.00,183.21 550.00,148.56 570.00,113.92 610.00,113.92 630.00,148.56 610.00,183.21" fill="#9ecf9e" stroke="#333" stroke-width="1"/>
<polygon points="450.00,391.05 410.00,391.05 430.00,356.41 410.00,321.77 450.00,321.77 470.00,287.13 490.00,321.77 530.00,321.77 510.00,356.41 530.00,391.05 490.00,391.05 470.00,425.69" fill="#c8b898" stroke="#333" stroke-width="1"/>
<polygon points="610.00,391.05 570.00,391.05 590.00,356.41 570.00,321.77 610.00,321.77 630.00,287.13 650.00,321.77 690.00,321.77 670.00,356.41 690.00,391.05 650.00,391.05 630.00,425.69" fill="#c8b898" stroke="#333" stroke-width="1"/>
<polygon points="770.00,391.05 730.00,391.05 750.00,356.41 730.00,321.77 770.00,321.77 790.00,287.13 810.00,321.77 850.00,321.77 830.00,356.41 850.00,391.05 810.00,391.05 790.00,425.69" fill="#c8b898" stroke="#333" stroke-width="1"/>
<polygon points="370.00,252.49 330.00,252.49 350.00,217.85 330.00,183.21 370.00,183.21 390.00,148.56 410.00,183.21 450.00,183.21 430.00,217.85 450.00,252.49 410.00,252.49 390.00,287.13" fill="#c8b898" stroke="#333" stroke-width="1"/>
<polygon points="530.00,252.49 490.00,252.49 510.00,217.85 490.00,183.21 530.00,183.21 550.00,148.56 570.00,183.21 610.00,183.21 590.00,217.85 610.00,252.49 570.00,252.49 550.00,287.13" fill="#c8b898" stroke="#333" stroke-width="1"/>
<polygon points="690.00,252.49 650.00,252.49 670.00,217.85 650.00,183.21 690.00,183.21 710.00,148.56 730.00,183.21 770.00,183.21 750.00,217.85 770.00,252.49 730.00,252.49 710.00,287.13" fill="#c8b898" stroke="#333" stroke-width="1"/>
<polygon points="290.00,113.92 250.00,113.92 270.00,79.28 250.00,44.64 290.00,44.64 310.00,10.00 330.00,44.64 370.00,44.64 350.00,79.28 370.00,113.92 330.00,113.92 310.00,148.56" fill="#c8b898" stroke="#333" stroke-width="1"/>
<polygon points="450.00,113.92 410.00,113.92 430.00,79.28 410.00,44.64 450.00,44.64 470.00,10.00 490.00,44.64 530.00,44.64 510.00,79.28 530.00,113.92 490.00,113.92 470.00,148.56" fill="#c8b898" stroke="#333" stroke-width="1"/>
<polygon points="610.00,113.92 570.00,113.92 590.00,79.28 570.00,44.64 610.00,44.64 630.00,10.00 650.00,44.64 690.00,44.64 670.00,79.28 690.00,113.92 650.00,113.92 630.00,148.56" fill="#c8b898" stroke="#333" stroke-width="1"/>
<polygon points="250.00,460.33 290.00,460.33 270.00,494.97 290.00,529.62 250.00,529.62 230.00,564.26 210.00,529.62 170.00,529.62 190.00,494.97 170.00,460.33 210.00,460.33 230.00,425.69" fill="#c8b898" stroke="#333" stroke-width="1"/>
<polygon points="410.00,460.33 450.00,460.33 430.00,494.97 450.00,529.62 410.00,529.62 390.00,564.26 370.00,529.62 330.00,529.62 350.00,494.97 330.00,460.33 370.00,460.33 390.00,425.69" fill="#c8b898" stroke="#333" stroke-width="1"/>
<polygon points="570.00,460.33 610.00,460.33 590.00,494.97 610.00,529.62 570.00,529.62 550.00,564.26 530.00,529.62 490.00,529.62 510.00,494.97 490.00,460.33 530.00,460.33 550.00,425.69" fill="#c8b898" stroke="#333" stroke-width="1"/>
<polygon points="170.00,321.77 210.00,321.77 190.00,356.41 210.00,391.05 170.00,391.05 150.00,425.69 130.00,391.05 90.00,391.05 110.00,356.41 90.00,321.77 130.00,321.77 150.00,287.13" fill="#c8b898" stroke="#333" stroke-width="1"/>
<polygon points="330.00,321.77 370.00,321.77 350.00,356.41 370.00,391.05 330.00,391.05 310.00,425.69 290.00,391.05 250.00,391.05 270.00,356.41 250.00,321.77 290.00,321.77 310.00,287.13" fill="#c8b898" stroke="#333" stroke-width="1"/>
<polygon points="490.00,321.77 530.00,321.77 510.00,356.41 530.00,391.05 490.00,391.05 470.00,425.69 450.00,391.05 410.00,391.05 430.00,356.41 410.00,321.77 450.00,321.77 470.00,287.13" fill="#c8b898" stroke="#333" stroke-width="1"/>
<polygon points="90.00,183.21 130.00,183.21 110.00,217.85 130.00,252.49 90.00,252.49 70.00,287.13 50.00,252.49 10.00,252.49 30.00,217.85 10.00,183.21 50.00,183.21 70.00,148.56" fill="#c8b898" stroke="#333" stroke-width="1"/>
<polygon points="250.00,183.21 290.00,183.21 270.00,217.85 290.00,252.49 250.00,252.49 230.00,287.13 210.00,252.49 170.00,252.49 190.00,217.85 170.00,183.21 210.00,183.21 230.00,148.56" fill="#c8b898" stroke="#333" stroke-width="1"/>
<polygon points="410.00,183.21 450.00,183.21 430.00,217.85 450.00,252.49 410.00,252.49 390.00,287.13 370.00,252.49 330.00,252.49 350.00,217.85 330.00,183.21 370.00,183.21 390.00,148.56" fill="#c8b898" stroke="#333" stroke-width="1"/>
<polygon points="290.00,460.33 330.00,460.33 350.00,494.97 330.00,529.62 290.00,529.62 270.00,494.97" fill="#9ecf9e" stroke="#333" stroke-width="1"/>
<polygon points="450.00,460.33 490.00,460.33 510.00,494.97 490.00,529.62 450.00,529.62 430.00,494.97" fill="#9ecf9e" stroke="#333" stroke-width="1"/>
<polygon points="610.00,460.33 650.00,460.33 670.00,494.97 650.00,529.62 610.00,529.62 590.00,494.97" fill="#9ecf9e" stroke="#333" stroke-width="1"/>
<polygon points="210.00,321.77 250.00,321.77 270.00,356.41 250.00,391.05 210.00,391.05 190.00,356.41" fill="#9ecf9e" stroke="#333" stroke-width="1"/>
<polygon points="370.00,321.77 410.00,321.77 430.00,356.41 410.00,391.05 370.00,391.05 350.00,356.41" fill="#9ecf9e" stroke="#333" stroke-width="1"/>
<polygon points="530.00,321.77 570.00,321.77 590.00,356.41 570.00,391.05 530.00,391.05 510.00,356.41" fill="#9ecf9e" stroke="#333" stroke-width="1"/>
<polygon points="130.00,183.21 170.00,183.21 190.00,217.85 170.00,252.49 130.00,252.49 110.00,217.85" fill="#9ecf9e" stroke="#333" stroke-width="1"/>
<polygon points="290.00,183.21 330.00,183.21 350.00,217.85 330.00,252.49 290.00,252.49 270.00,217.85" fill="#9ecf9e" stroke="#333" stroke-width="1"/>
<polygon points="450.00,183.21 490.00,183.21 510.00,217.85 490.00,252.49 450.00,252.49 430.00,217.85" fill="#9ecf9e" stroke="#333" stroke-width="1"/>
<text x="10" y="586" font-family="monospace" font-size="12">(6*d16,6)A, (6*p4,6,3,6)A</text>
</svg>
