<svg xmlns="http://www.w3.org/2000/svg" width="760" height="594">
<rect width="100%" height="100%" fill="white"/>
<polygon points="350.00,391.05 390.00,391.05 410.00,425.69 390.00,460.33 350.00,460.33 330.00,425.69" fill="#9ecf9e" stroke="#333" stroke-width="1"/>
<polygon points="230.00,321.77 270.00,321.77 290.00,356.41 270.00,391.05 230.00,391.05 210.00,356.41" fill="#9ecf9e" stroke="#333" stroke-width="1"/>
<polygon points="110.00,252.49 150.00,252.49 170.00,287.13 150.00,321.77 110.00,321.77 90.00,287.13" fill="#9ecf9e" stroke="#333" stroke-width="1"/>
<polygon points="470.00,321.77 510.00,321.77 530.00,356.41 510.00,391.05 470.00,391.05 450.00,356.41" fill="#9ecf9e" stroke="#333" stroke-width="1"/>
<polygon points="350.00,252.49 390.00,252.49 410.00,287.13 390.00,321.77 350.00,321.77 330.00,287.13" fill="#9ecf9e" stroke="#333" stroke-width="1"/>
<polygon points="230.00,183.21 270.00,183.21 290.00,217.85 270.00,252.49 230.00,252.49 210.00,217.85" fill="#9ecf9e" stroke="#333" stroke-width="1"/>
<polygon points="590.00,252.49 630.00,252.49 650.00,287.13 630.00,321.77 590.00,321.77 570.00,287.13" fill="#9ecf9e" stroke="#333" stroke-width="1"/>
<polygon points="470.00,183.21 510.00,183.21 530.00,217.85 510.00,252.49 470.00,252.49 450.00,217.85" fill="#9ecf9e" stroke="#333" stroke-width="1"/>
<polygon points="350.00,113.92 390.00,113.92 410.00,148.56 390.00,183.21 350.00,183.21 330.00,148.56" fill="#9ecf9e" stroke="#333" stroke-width="1"/>
<polygon points="390.00,391.05 350.00,391.05 330.00,425.69 310.00,391.05 270.00,391.05 290.00,356.41 270.00,321.77 310.00,321.77 330.00,287.13 350.00,321.77 390.00,321.77 370.00,356.41" fill="#c8b898" stroke="#333" stroke-width="1"/>
<polygon points="270.00,321.77 230.00,321.77 210.00,356.41 190.00,321.77 150.00,321.77 170.00,287.13 150.00,252.49 190.00,252.49 210.00,217.85 230.00,252.49 270.00,252.49 250.00,287.13" fill="#c8b898" stroke="#333" stroke-width="1"/>
<polygon points="150.00,252.49 110.00,252.49 90.00,287.13 70.00,252.49 30.00,252.49 50.00,217.85 30.00,183.21 70.00,183.21 90.00,148.56 110.00,183.21 150.00,183.21 130.00,217.85" fill="#c8b898" stroke="#333" stroke-width="1"/>
<polygon points="510.00,321.77 470.00,321.77 450.00,356.41 430.00,321.77 390.00,321.77 410.00,287.13 390.00,252.49 430.00,252.49 450.00,217.85 470.00,252.49 510.00,252.49 490.00,287.13" fill="#c8b898" stroke="#333" stroke-width="1"/>
<polygon points="390.00,252.49 350.00,252.49 330.00,287.13 310.00,252.49 270.00,252.49 290.00,217.85 270.00,183.21 310.00,183.21 330.00,148.56 350.00,183.21 390.00,183.21 370.00,217.85" fill="#c8b898" stroke="#333" stroke-width="1"/>
<polygon points="270.00,183.21 230.00,183.21 210.00,217.85 190.00,183.21 150.00,183.21 170.00,148.56 150.00,113.92 190.00,113.92 210.00,79.28 230.00,113.92 270.00,113.92 250.00,148.56" fill="#c8b898" stroke="#333" stroke-width="1"/>
<polygon points="630.00,252.49 590.00,252.49 570.00,287.13 550.00,252.49 510.00,252.49 530.00,217.85 510.00,183.21 550.00,183.21 570.00,148.56 590.00,183.21 630.00,183.21 610.00,217.85" fill="#c8b898" stroke="#333" stroke-width="1"/>
<polygon points="510.00,183.21 470.00,183.21 450.00,217.85 430.00,183.21 390.00,183.21 410.00,148.56 390.00,113.92 430.00,113.92 450.00,79.28 470.00,113.92 510.00,113.92 490.00,148.56" fill="#c8b898" stroke="#333" stroke-width="1"/>
<polygon points="390.00,113.92 350.00,113.92 330.00,148.56 310.00,113.92 270.00,113.92 290.00,79.28 270.00,44.64 310.00,44.64 330.00,10.00 350.00,44.64 390.00,44.64 370.00,79.28" fill="#c8b898" stroke="#333" stroke-width="1"/>
<polygon points="410.00,425.69 390.00,391.05 430.00,391.05 450.00,356.41 470.00,391.05 510.00,391.05 490.00,425.69 510.00,460.33 470.00,460.33 450.00,494.97 430.00,460.33 390.00,460.33" fill="#c8b898" stroke="#333" stroke-width="1"/>
<polygon points="290.00,356.41 270.00,321.77 310.00,321.77 330.00,287.13 350.00,321.77 390.00,321.77 370.00,356.41 390.00,391.05 350.00,391.05 330.00,425.69 310.00,391.05 270.00,391.05" fill="#c8b898" stroke="#333" stroke-width="1"/>
<polygon points="170.00,287.13 150.00,252.49 190.00,252.49 210.00,217.85 230.00,252.49 270.00,252.49 250.00,287.13 270.00,321.77 230.00,321.77 210.00,356.41 190.00,321.77 150.00,321.77" fill="#c8b898" stroke="#333" stroke-width="1"/>
<polygon points="530.00,356.41 510.00,321.77 550.00,321.77 570.00,287.13 590.00,321.77 630.00,321.77 610.00,356.41 630.00,391.05 590.00,391.05 570.00,425.69 550.00,391.05 510.00,391.05" fill="#c8b898" stroke="#333" stroke-width="1"/>
<polygon points="410.00,287.13 390.00,252.49 430.00,252.49 450.00,217.85 470.00,252.49 510.00,252.49 490.00,287.13 510.00,321.77 470.00,321.77 450.00,356.41 430.00,321.77 390.00,321.77" fill="#c8b898" stroke="#333" stroke-width="1"/>
<polygon points="290.00,217.85 270.00,183.21 310.00,183.21 330.00,148.56 350.00,183.21 390.00,183.21 370.00,217.85 390.00,252.49 350.00,252.49 330.00,287.13 310.00,252.49 270.00,252.49" fill="#c8b898" stroke="#333" stroke-width="1"/>
<polygon points="650.00,287.13 630.00,252.49 670.00,252.49 690.00,217.85 710.00,252.49 750.00,252.49 730.00,287.13 750.00,321.77 710.00,321.77 690.00,356.41 670.00,321.77 630.00,321.77" fill="#c8b898" stroke="#333" stroke-width="1"/>
<polygon points="530.00,217.85 510.00,183.21 550.00,183.21 570.00,148.56 590.00,183.21 630.00,183.21 610.00,217.85 630.00,252.49 590.00,252.49 570.00,287.13 550.00,252.49 510.00,252.49" fill="#c8b898" stroke="#333" stroke-width="1"/>
<polygon points="410.00,148.56 390.00,113.92 430.00,113.92 450.00,79.28 470.00,113.92 510.00,113.92 490.00,148.56 510.00,183.21 470.00,183.21 450.00,217.85 430.00,183.21 390.00,183.21" fill="#c8b898" stroke="#333" stroke-width="1"/>
<polygon points="430.00,391.05 390.00,391.05 370.00,356.41 390.00,321.77 430.00,321.77 450.00,356.41" fill="#9ecf9e" stroke="#333" stroke-width="1"/>
<polygon points="310.00,321.77 270.00,321.77 250.00,287.13 270.00,252.49 310.00,252.49 330.00,287.13" fill="#9ecf9e" stroke="#333" stroke-width="1"/>
<polygon points="190.00,252.49 150.00,252.49 130.00,217.85 150.00,183.21 190.00,183.21 210.00,217.85" fill="#9ecf9e" stroke="#333" stroke-width="1"/>
<polygon points="550.00,321.77 510.00,321.77 490.00,287.13 510.00,252.49 550.00,252.49 570.00,287.13" fill="#9ecf9e" stroke="#333" stroke-width="1"/>
<polygon points="430.00,252.49 390.00,252.49 370.00,217.85 390.00,183.21 430.00,183.21 450.00,217.85" fill="#9ecf9e" stroke="#333" stroke-width="1"/>
<polygon points="310.00,183.21 270.00,183.21 250.00,148.56 270.00,113.92 310.00,113.92 330.00,148.56" fill="#9ecf9e" stroke="#333" stroke-width="1"/>
<polygon points="670.00,252.49 630.00,252.49 610.00,217.85 630.00,183.21 670.00,183.21 690.00,217.85" fill="#9ecf9e" stroke="#333" stroke-width="1"/>
<polygon points="550.00,183.21 510.00,183.21 490.00,148.56 510.00,113.92 550.00,113.92 570.00,148.56" fill="#9ecf9e" stroke="#333" stroke-width="1"/>
<polygon points="430.00,113.92 390.00,113.92 370.00,79.28 390.00,44.64 430.00,44.64 450.00,79.28" fill="#9ecf9e" stroke="#333" stroke-width="1"/>
<polygon points="310.00,391.05 330.00,425.69 310.00,460.33 270.00,460.33 250.00,425.69 270.00,391.05" fill="#9ecf9e" stroke="#333" stroke-width="1"/>
<polygon points="190.00,321.77 210.00,356.41 190.00,391.05 150.00,391.05 130.00,356.41 150.00,321.77" fill="#9ecf9e" stroke="#333" stroke-width="1"/>
<polygon points="70.00,252.49 90.00,287.13 70.00,321.77 30.00,321.77 10.00,287.13 30.00,252.49" fill="#9ecf9e" stroke="#333" stroke-width="1"/>
<polygon points="430.00,321.77 450.00,356.41 430.00,391.05 390.00,391.05 370.00,356.41 390.00,321.77" fill="#9ecf9e" stroke="#333" stroke-width="1"/>
<polygon points="310.00,252.49 330.00,287.13 310.00,321.77 270.00,321.77 250.00,287.13 270.00,252.49" fill="#9ecf9e" stroke="#333" stroke-width="1"/>
<polygon points="190.00,183.21 210.00,217.85 190.00,252.49 150.00,252.49 130.00,217.85 150.00,183.21" fill="#9ecf9e" stroke="#333" stroke-width="1"/>
<polygon points="550.00,252.49 570.00,287.13 550.00,321.77 510.00,321.77 490.00,287.13 510.00,252.49" fill="#9ecf9e" stroke="#333" stroke-width="1"/>
<polygon points="430.00,183.21 450.00,217.85 430.00,252.49 390.00,252.49 370.00,217.85 390.00,183.21" fill="#9ecf9e" stroke="#333" stroke-width="1"/>
<polygon points="310.00,113.92 330.00,148.56 310.00,183.21 270.00,183.21 250.00,148.56 270.00,113.92" fill="#9ecf9e" stroke="#333" stroke-width="1"/>
<polygon points="310.00,460.33 330.00,425.69 350.00,460.33 390.00,460.33 370.00,494.97 390.00,529.62 350.00,529.62 330.00,564.26 310.00,529.62 270.00,529.62 290.00,494.97 270.00,460.33" fill="#c8b898" stroke="#333" stroke-width="1"/>
<polygon points="190.00,391.05 210.00,356.41 230.00,391.05 270.00,391.05 250.00,425.69 270.00,460.33 230.00,460.33 210.00,494.97 190.00,460.33 150.00,460.33 170.00,425.69 150.00,391.05" fill="#c8b898" stroke="#333" stroke-width="1"/>
<polygon points="70.00,321.77 90.00,287.13 110.00,321.77 150.00,321.77 130.00,356.41 150.00,391.05 110.00,391.05 90.00,425.69 70.00,391.05 30.00,391.05 50.00,356.41 30.00,321.77" fill="#c8b898" stroke="#333" stroke-width="1"/>
<polygon points="430.00,391.05 450.00,356.41 470.00,391.05 510.00,391.05 490.00,425.69 510.00,460.33 470.00,460.33 450.00,494.97 430.00,460.33 390.00,460.33 410.00,425.69 390.00,391.05" fill="#c8b898" stroke="#333" stroke-width="1"/>
<polygon points="310.00,321.77 330.00,287.13 350.00,321.77 390.00,321.77 370.00,356.41 390.00,391.05 350.00,391.05 330.00,425.69 310.00,391.05 270.00,391.05 290.00,356.41 270.00,321.77" fill="#c8b898" stroke="#333" stroke-width="1"/>
<polygon points="190.00,252.49 210.00,217.85 230.00,252.49 270.00,252.49 250.00,287.13 270.00,321.77 230.00,321.77 210.00,356.41 190.00,321.77 150.00,321.77 170.00,287.13 150.00,252.49" fill="#c8b898" stroke="#333" stroke-width="1"/>
<polygon points="550.00,321.77 570.00,287.13 590.00,321.77 630.00,321.77 610.00,356.41 630.00,391.05 590.00,391.05 570.00,425.69 550.00,391.05 510.00,391.05 530.00,356.41 510.00,321.77" fill="#c8b898" stroke="#333" stroke-width="1"/>
<polygon points="430.00,252.49 450.00,217.85 470.00,252.49 510.00,252.49 490.00,287.13 510.00,321.77 470.00,321.77 450.00,356.41 430.00,321.77 390.00,321.77 410.00,287.13 390.00,252.49" fill="#c8b898" stroke="#333" stroke-width="1"/>
<polygon points="310.00,183.21 330.00,148.56 350.00,183.21 390.00,183.21 370.00,217.85 390.00,252.49 350.00,252.49 330.00,287.13 310.00,252.49 270.00,252.49 290.00,217.85 270.00,183.21" fill="#c8b898" stroke="#333" stroke-width="1"/>
<text x="10" y="586" font-family="monospace" font-size="12">(6*d16,6)A, (6*p4,6,6*p4,6)S2</text>
</svg>
