<svg xmlns="http://www.w3.org/2000/svg" width="956" height="736">
<rect width="100%" height="100%" fill="white"/>
<polygon points="173.92,413.92 213.92,413.92 213.92,453.92 173.92,453.92" fill="#e8c268" stroke="#333" stroke-width="1"/>
<polygon points="337.85,457.85 377.85,457.85 377.85,497.85 337.85,497.85" fill="#e8c268" stroke="#333" stroke-width="1"/>
<polygon points="501.77,501.77 541.77,501.77 541.77,541.77 501.77,541.77" fill="#e8c268" stroke="#333" stroke-width="1"/>
<polygon points="293.92,293.92 333.92,293.92 333.92,333.92 293.92,333.92" fill="#e8c268" stroke="#333" stroke-width="1"/>
<polygon points="457.85,337.85 497.85,337.85 497.85,377.85 457.85,377.85" fill="#e8c268" stroke="#333" stroke-width="1"/>
<polygon points="621.77,381.77 661.77,381.77 661.77,421.77 621.77,421.77" fill="#e8c268" stroke="#333" stroke-width="1"/>
<polygon points="413.92,173.92 453.92,173.92 453.92,213.92 413.92,213.92" fill="#e8c268" stroke="#333" stroke-width="1"/>
<polygon points="577.85,217.85 617.85,217.85 617.85,257.85 577.85,257.85" fill="#e8c268" stroke="#333" stroke-width="1"/>
<polygon points="741.77,261.77 781.77,261.77 781.77,301.77 741.77,301.77" fill="#e8c268" stroke="#333" stroke-width="1"/>
<polygon points="213.92,413.92 173.92,413.92 173.92,453.92 153.92,419.28 119.28,439.28 139.28,404.64 104.64,384.64 144.64,384.64 144.64,344.64 164.64,379.28 199.28,359.28 179.28,393.92" fill="#98c8b0" stroke="#333" stroke-width="1"/>
<polygon points="377.85,457.85 337.85,457.85 337.85,497.85 317.85,463.21 283.21,483.21 303.21,448.56 268.56,428.56 308.56,428.56 308.56,388.56 328.56,423.21 363.21,403.21 343.21,437.85" fill="#98c8b0" stroke="#333" stroke-width="1"/>
<polygon points="541.77,501.77 501.77,501.77 501.77,541.77 481.77,507.13 447.13,527.13 467.13,492.49 432.49,472.49 472.49,472.49 472.49,432.49 492.49,467.13 527.13,447.13 507.13,481.77" fill="#98c8b0" stroke="#333" stroke-width="1"/>
<polygon points="333.92,293.92 293.92,293.92 293.92,333.92 273.92,299.28 239.28,319.28 259.28,284.64 224.64,264.64 264.64,264.64 264.64,224.64 284.64,259.28 319.28,239.28 299.28,273.92" fill="#98c8b0" stroke="#333" stroke-width="1"/>
<polygon points="497.85,337.85 457.85,337.85 457.85,377.85 437.85,343.21 403.21,363.21 423.21,328.56 388.56,308.56 428.56,308.56 428.56,268.56 448.56,303.21 483.21,283.21 463.21,317.85" fill="#98c8b0" stroke="#333" stroke-width="1"/>
<polygon points="661.77,381.77 621.77,381.77 621.77,421.77 601.77,387.13 567.13,407.13 587.13,372.49 552.49,352.49 592.49,352.49 592.49,312.49 612.49,347.13 647.13,327.13 627.13,361.77" fill="#98c8b0" stroke="#333" stroke-width="1"/>
<polygon points="453.92,173.92 413.92,173.92 413.92,213.92 393.92,179.28 359.28,199.28 379.28,164.64 344.64,144.64 384.64,144.64 384.64,104.64 404.64,139.28 439.28,119.28 419.28,153.92" fill="#98c8b0" stroke="#333" stroke-width="1"/>
<polygon points="617.85,217.85 577.85,217.85 577.85,257.85 557.85,223.21 523.21,243.21 543.21,208.56 508.56,188.56 548.56,188.56 548.56,148.56 568.56,183.21 603.21,163.21 583.21,197.85" fill="#98c8b0" stroke="#333" stroke-width="1"/>
<polygon points="781.77,261.77 741.77,261.77 741.77,301.77 721.77,267.13 687.13,287.13 707.13,252.49 672.49,232.49 712.49,232.49 712.49,192.49 732.49,227.13 767.13,207.13 747.13,241.77" fill="#98c8b0" stroke="#333" stroke-width="1"/>
<polygon points="213.92,453.92 213.92,413.92 233.92,448.56 268.56,428.56 248.56,463.21 283.21,483.21 243.21,483.21 243.21,523.21 223.21,488.56 188.56,508.56 208.56,473.92 173.92,453.92" fill="#98c8b0" stroke="#333" stroke-width="1"/>
<polygon points="377.85,497.85 377.85,457.85 397.85,492.49 432.49,472.49 412.49,507.13 447.13,527.13 407.13,527.13 407.13,567.13 387.13,532.49 352.49,552.49 372.49,517.85 337.85,497.85" fill="#98c8b0" stroke="#333" stroke-width="1"/>
<polygon points="541.77,541.77 541.77,501.77 561.77,536.41 596.41,516.41 576.41,551.05 611.05,571.05 571.05,571.05 571.05,611.05 551.05,576.41 516.41,596.41 536.41,561.77 501.77,541.77" fill="#98c8b0" stroke="#333" stroke-width="1"/>
<polygon points="333.92,333.92 333.92,293.92 353.92,328.56 388.56,308.56 368.56,343.21 403.21,363.21 363.21,363.21 363.21,403.21 343.21,368.56 308.56,388.56 328.56,353.92 293.92,333.92" fill="#98c8b0" stroke="#333" stroke-width="1"/>
<polygon points="497.85,377.85 497.85,337.85 517.85,372.49 552.49,352.49 532.49,387.13 567.13,407.13 527.13,407.13 527.13,447.13 507.13,412.49 472.49,432.49 492.49,397.85 457.85,377.85" fill="#98c8b0" stroke="#333" stroke-width="1"/>
<polygon points="661.77,421.77 661.77,381.77 681.77,416.41 716.41,396.41 696.41,431.05 731.05,451.05 691.05,451.05 691.05,491.05 671.05,456.41 636.41,476.41 656.41,441.77 621.77,421.77" fill="#98c8b0" stroke="#333" stroke-width="1"/>
<polygon points="453.92,213.92 453.92,173.92 473.92,208.56 508.56,188.56 488.56,223.21 523.21,243.21 483.21,243.21 483.21,283.21 463.21,248.56 428.56,268.56 448.56,233.92 413.92,213.92" fill="#98c8b0" stroke="#333" stroke-width="1"/>
<polygon points="617.85,257.85 617.85,217.85 637.85,252.49 672.49,232.49 652.49,267.13 687.13,287.13 647.13,287.13 647.13,327.13 627.13,292.49 592.49,312.49 612.49,277.85 577.85,257.85" fill="#98c8b0" stroke="#333" stroke-width="1"/>
<polygon points="781.77,301.77 781.77,261.77 801.77,296.41 836.41,276.41 816.41,311.05 851.05,331.05 811.05,331.05 811.05,371.05 791.05,336.41 756.41,356.41 776.41,321.77 741.77,301.77" fill="#98c8b0" stroke="#333" stroke-width="1"/>
<polygon points="233.92,448.56 213.92,413.92 179.28,393.92 199.28,359.28 199.28,319.28 239.28,319.28 273.92,299.28 293.92,333.92 328.56,353.92 308.56,388.56 308.56,428.56 268.56,428.56" fill="#e89898" stroke="#333" stroke-width="1"/>
<polygon points="397.85,492.49 377.85,457.85 343.21,437.85 363.21,403.21 363.21,363.21 403.21,363.21 437.85,343.21 457.85,377.85 492.49,397.85 472.49,432.49 472.49,472.49 432.49,472.49" fill="#e89898" stroke="#333" stroke-width="1"/>
<polygon points="561.77,536.41 541.77,501.77 507.13,481.77 527.13,447.13 527.13,407.13 567.13,407.13 601.77,387.13 621.77,421.77 656.41,441.77 636.41,476.41 636.41,516.41 596.41,516.41" fill="#e89898" stroke="#333" stroke-width="1"/>
<polygon points="353.92,328.56 333.92,293.92 299.28,273.92 319.28,239.28 319.28,199.28 359.28,199.28 393.92,179.28 413.92,213.92 448.56,233.92 428.56,268.56 428.56,308.56 388.56,308.56" fill="#e89898" stroke="#333" stroke-width="1"/>
<polygon points="517.85,372.49 497.85,337.85 463.21,317.85 483.21,283.21 483.21,243.21 523.21,243.21 557.85,223.21 577.85,257.85 612.49,277.85 592.49,312.49 592.49,352.49 552.49,352.49" fill="#e89898" stroke="#333" stroke-width="1"/>
<polygon points="681.77,416.41 661.77,381.77 627.13,361.77 647.13,327.13 647.13,287.13 687.13,287.13 721.77,267.13 741.77,301.77 776.41,321.77 756.41,356.41 756.41,396.41 716.41,396.41" fill="#e89898" stroke="#333" stroke-width="1"/>
<polygon points="473.92,208.56 453.92,173.92 419.28,153.92 439.28,119.28 439.28,79.28 479.28,79.28 513.92,59.28 533.92,93.92 568.56,113.92 548.56,148.56 548.56,188.56 508.56,188.56" fill="#e89898" stroke="#333" stroke-width="1"/>
<polygon points="637.85,252.49 617.85,217.85 583.21,197.85 603.21,163.21 603.21,123.21 643.21,123.21 677.85,103.21 697.85,137.85 732.49,157.85 712.49,192.49 712.49,232.49 672.49,232.49" fill="#e89898" stroke="#333" stroke-width="1"/>
<polygon points="801.77,296.41 781.77,261.77 747.13,241.77 767.13,207.13 767.13,167.13 807.13,167.13 841.77,147.13 861.77,181.77 896.41,201.77 876.41,236.41 876.41,276.41 836.41,276.41" fill="#e89898" stroke="#333" stroke-width="1"/>
<polygon points="153.92,419.28 173.92,453.92 208.56,473.92 188.56,508.56 188.56,548.56 148.56,548.56 113.92,568.56 93.92,533.92 59.28,513.92 79.28,479.28 79.28,439.28 119.28,439.28" fill="#e89898" stroke="#333" stroke-width="1"/>
<polygon points="317.85,463.21 337.85,497.85 372.49,517.85 352.49,552.49 352.49,592.49 312.49,592.49 277.85,612.49 257.85,577.85 223.21,557.85 243.21,523.21 243.21,483.21 283.21,483.21" fill="#e89898" stroke="#333" stroke-width="1"/>
<polygon points="481.77,507.13 501.77,541.77 536.41,561.77 516.41,596.41 516.41,636.41 476.41,636.41 441.77,656.41 421.77,621.77 387.13,601.77 407.13,567.13 407.13,527.13 447.13,527.13" fill="#e89898" stroke="#333" stroke-width="1"/>
<polygon points="273.92,299.28 293.92,333.92 328.56,353.92 308.56,388.56 308.56,428.56 268.56,428.56 233.92,448.56 213.92,413.92 179.28,393.92 199.28,359.28 199.28,319.28 239.28,319.28" fill="#e89898" stroke="#333" stroke-width="1"/>
<polygon points="437.85,343.21 457.85,377.85 492.49,397.85 472.49,432.49 472.49,472.49 432.49,472.49 397.85,492.49 377.85,457.85 343.21,437.85 363.21,403.21 363.21,363.21 403.21,363.21" fill="#e89898" stroke="#333" stroke-width="1"/>
<polygon points="601.77,387.13 621.77,421.77 656.41,441.77 636.41,476.41 636.41,516.41 596.41,516.41 561.77,536.41 541.77,501.77 507.13,481.77 527.13,447.13 527.13,407.13 567.13,407.13" fill="#e89898" stroke="#333" stroke-width="1"/>
<polygon points="393.92,179.28 413.92,213.92 448.56,233.92 428.56,268.56 428.56,308.56 388.56,308.56 353.92,328.56 333.92,293.92 299.28,273.92 319.28,239.28 319.28,199.28 359.28,199.28" fill="#e89898" stroke="#333" stroke-width="1"/>
<polygon points="557.85,223.21 577.85,257.85 612.49,277.85 592.49,312.49 592.49,352.49 552.49,352.49 517.85,372.49 497.85,337.85 463.21,317.85 483.21,283.21 483.21,243.21 523.21,243.21" fill="#e89898" stroke="#333" stroke-width="1"/>
<polygon points="721.77,267.13 741.77,301.77 776.41,321.77 756.41,356.41 756.41,396.41 716.41,396.41 681.77,416.41 661.77,381.77 627.13,361.77 647.13,327.13 647.13,287.13 687.13,287.13" fill="#e89898" stroke="#333" stroke-width="1"/>
<polygon points="248.56,463.21 268.56,428.56 303.21,448.56 283.21,483.21" fill="#e8c268" stroke="#333" stroke-width="1"/>
<polygon points="412.49,507.13 432.49,472.49 467.13,492.49 447.13,527.13" fill="#e8c268" stroke="#333" stroke-width="1"/>
<polygon points="576.41,551.05 596.41,516.41 631.05,536.41 611.05,571.05" fill="#e8c268" stroke="#333" stroke-width="1"/>
<polygon points="368.56,343.21 388.56,308.56 423.21,328.56 403.21,363.21" fill="#e8c268" stroke="#333" stroke-width="1"/>
<polygon points="532.49,387.13 552.49,352.49 587.13,372.49 567.13,407.13" fill="#e8c268" stroke="#333" stroke-width="1"/>
<polygon points="696.41,431.05 716.41,396.41 751.05,416.41 731.05,451.05" fill="#e8c268" stroke="#333" stroke-width="1"/>
<polygon points="488.56,223.21 508.56,188.56 543.21,208.56 523.21,243.21" fill="#e8c268" stroke="#333" stroke-width="1"/>
<polygon points="652.49,267.13 672.49,232.49 707.13,252.49 687.13,287.13" fill="#e8c268" stroke="#333" stroke-width="1"/>
<polygon points="816.41,311.05 836.41,276.41 871.05,296.41 851.05,331.05" fill="#e8c268" stroke="#333" stroke-width="1"/>
<polygon points="303.21,448.56 268.56,428.56 308.56,428.56 308.56,388.56 328.56,423.21 363.21,403.21 343.21,437.85 377.85,457.85 337.85,457.85 337.85,497.85 317.85,463.21 283.21,483.21" fill="#98c8b0" stroke="#333" stroke-width="1"/>
<polygon points="467.13,492.49 432.49,472.49 472.49,472.49 472.49,432.49 492.49,467.13 527.13,447.13 507.13,481.77 541.77,501.77 501.77,501.77 501.77,541.77 481.77,507.13 447.13,527.13" fill="#98c8b0" stroke="#333" stroke-width="1"/>
<polygon points="631.05,536.41 596.41,516.41 636.41,516.41 636.41,476.41 656.41,511.05 691.05,491.05 671.05,525.69 705.69,545.69 665.69,545.69 665.69,585.69 645.69,551.05 611.05,571.05" fill="#98c8b0" stroke="#333" stroke-width="1"/>
<polygon points="423.21,328.56 388.56,308.56 428.56,308.56 428.56,268.56 448.56,303.21 483.21,283.21 463.21,317.85 497.85,337.85 457.85,337.85 457.85,377.85 437.85,343.21 403.21,363.21" fill="#98c8b0" stroke="#333" stroke-width="1"/>
<polygon points="587.13,372.49 552.49,352.49 592.49,352.49 592.49,312.49 612.49,347.13 647.13,327.13 627.13,361.77 661.77,381.77 621.77,381.77 621.77,421.77 601.77,387.13 567.13,407.13" fill="#98c8b0" stroke="#333" stroke-width="1"/>
<polygon points="751.05,416.41 716.41,396.41 756.41,396.41 756.41,356.41 776.41,391.05 811.05,371.05 791.05,405.69 825.69,425.69 785.69,425.69 785.69,465.69 765.69,431.05 731.05,451.05" fill="#98c8b0" stroke="#333" stroke-width="1"/>
<polygon points="543.21,208.56 508.56,188.56 548.56,188.56 548.56,148.56 568.56,183.21 603.21,163.21 583.21,197.85 617.85,217.85 577.85,217.85 577.85,257.85 557.85,223.21 523.21,243.21" fill="#98c8b0" stroke="#333" stroke-width="1"/>
<polygon points="707.13,252.49 672.49,232.49 712.49,232.49 712.49,192.49 732.49,227.13 767.13,207.13 747.13,241.77 781.77,261.77 741.77,261.77 741.77,301.77 721.77,267.13 687.13,287.13" fill="#98c8b0" stroke="#333" stroke-width="1"/>
<polygon points="871.05,296.41 836.41,276.41 876.41,276.41 876.41,236.41 896.41,271.05 931.05,251.05 911.05,285.69 945.69,305.69 905.69,305.69 905.69,345.69 885.69,311.05 851.05,331.05" fill="#98c8b0" stroke="#333" stroke-width="1"/>
<polygon points="199.28,319.28 199.28,359.28 179.28,324.64 144.64,344.64 164.64,310.00 130.00,290.00 170.00,290.00 170.00,250.00 190.00,284.64 224.64,264.64 204.64,299.28 239.28,319.28" fill="#98c8b0" stroke="#333" stroke-width="1"/>
<polygon points="363.21,363.21 363.21,403.21 343.21,368.56 308.56,388.56 328.56,353.92 293.92,333.92 333.92,333.92 333.92,293.92 353.92,328.56 388.56,308.56 368.56,343.21 403.21,363.21" fill="#98c8b0" stroke="#333" stroke-width="1"/>
<polygon points="527.13,407.13 527.13,447.13 507.13,412.49 472.49,432.49 492.49,397.85 457.85,377.85 497.85,377.85 497.85,337.85 517.85,372.49 552.49,352.49 532.49,387.13 567.13,407.13" fill="#98c8b0" stroke="#333" stroke-width="1"/>
<polygon points="319.28,199.28 319.28,239.28 299.28,204.64 264.64,224.64 284.64,190.00 250.00,170.00 290.00,170.00 290.00,130.00 310.00,164.64 344.64,144.64 324.64,179.28 359.28,199.28" fill="#98c8b0" stroke="#333" stroke-width="1"/>
<polygon points="483.21,243.21 483.21,283.21 463.21,248.56 428.56,268.56 448.56,233.92 413.92,213.92 453.92,213.92 453.92,173.92 473.92,208.56 508.56,188.56 488.56,223.21 523.21,243.21" fill="#98c8b0" stroke="#333" stroke-width="1"/>
<polygon points="647.13,287.13 647.13,327.13 627.13,292.49 592.49,312.49 612.49,277.85 577.85,257.85 617.85,257.85 617.85,217.85 637.85,252.49 672.49,232.49 652.49,267.13 687.13,287.13" fill="#98c8b0" stroke="#333" stroke-width="1"/>
<polygon points="439.28,79.28 439.28,119.28 419.28,84.64 384.64,104.64 404.64,70.00 370.00,50.00 410.00,50.00 410.00,10.00 430.00,44.64 464.64,24.64 444.64,59.28 479.28,79.28" fill="#98c8b0" stroke="#333" stroke-width="1"/>
<polygon points="603.21,123.21 603.21,163.21 583.21,128.56 548.56,148.56 568.56,113.92 533.92,93.92 573.92,93.92 573.92,53.92 593.92,88.56 628.56,68.56 608.56,103.21 643.21,123.21" fill="#98c8b0" stroke="#333" stroke-width="1"/>
<polygon points="767.13,167.13 767.13,207.13 747.13,172.49 712.49,192.49 732.49,157.85 697.85,137.85 737.85,137.85 737.85,97.85 757.85,132.49 792.49,112.49 772.49,147.13 807.13,167.13" fill="#98c8b0" stroke="#333" stroke-width="1"/>
<polygon points="179.28,324.64 199.28,359.28 164.64,379.28 144.64,344.64" fill="#e8c268" stroke="#333" stroke-width="1"/>
<polygon points="343.21,368.56 363.21,403.21 328.56,423.21 308.56,388.56" fill="#e8c268" stroke="#333" stroke-width="1"/>
<polygon points="507.13,412.49 527.13,447.13 492.49,467.13 472.49,432.49" fill="#e8c268" stroke="#333" stroke-width="1"/>
<polygon points="299.28,204.64 319.28,239.28 284.64,259.28 264.64,224.64" fill="#e8c268" stroke="#333" stroke-width="1"/>
<polygon points="463.21,248.56 483.21,283.21 448.56,303.21 428.56,268.56" fill="#e8c268" stroke="#333" stroke-width="1"/>
<polygon points="627.13,292.49 647.13,327.13 612.49,347.13 592.49,312.49" fill="#e8c268" stroke="#333" stroke-width="1"/>
<polygon points="419.28,84.64 439.28,119.28 404.64,139.28 384.64,104.64" fill="#e8c268" stroke="#333" stroke-width="1"/>
<polygon points="583.21,128.56 603.21,163.21 568.56,183.21 548.56,148.56" fill="#e8c268" stroke="#333" stroke-width="1"/>
<polygon points="747.13,172.49 767.13,207.13 732.49,227.13 712.49,192.49" fill="#e8c268" stroke="#333" stroke-width="1"/>
<polygon points="139.28,404.64 119.28,439.28 84.64,419.28 104.64,384.64" fill="#e8c268" stroke="#333" stroke-width="1"/>
<polygon points="303.21,448.56 283.21,483.21 248.56,463.21 268.56,428.56" fill="#e8c268" stroke="#333" stroke-width="1"/>
<polygon points="467.13,492.49 447.13,527.13 412.49,507.13 432.49,472.49" fill="#e8c268" stroke="#333" stroke-width="1"/>
<polygon points="259.28,284.64 239.28,319.28 204.64,299.28 224.64,264.64" fill="#e8c268" stroke="#333" stroke-width="1"/>
<polygon points="423.21,328.56 403.21,363.21 368.56,343.21 388.56,308.56" fill="#e8c268" stroke="#333" stroke-width="1"/>
<polygon points="587.13,372.49 567.13,407.13 532.49,387.13 552.49,352.49" fill="#e8c268" stroke="#333" stroke-width="1"/>
<polygon points="379.28,164.64 359.28,199.28 324.64,179.28 344.64,144.64" fill="#e8c268" stroke="#333" stroke-width="1"/>
<polygon points="543.21,208.56 523.21,243.21 488.56,223.21 508.56,188.56" fill="#e8c268" stroke="#333" stroke-width="1"/>
<polygon points="707.13,252.49 687.13,287.13 652.49,267.13 672.49,232.49" fill="#e8c268" stroke="#333" stroke-width="1"/>
<polygon points="84.64,419.28 119.28,439.28 79.28,439.28 79.28,479.28 59.28,444.64 24.64,464.64 44.64,430.00 10.00,410.00 50.00,410.00 50.00,370.00 70.00,404.64 104.64,384.64" fill="#98c8b0" stroke="#333" stroke-width="1"/>
<polygon points="248.56,463.21 283.21,483.21 243.21,483.21 243.21,523.21 223.21,488.56 188.56,508.56 208.56,473.92 173.92,453.92 213.92,453.92 213.92,413.92 233.92,448.56 268.56,428.56" fill="#98c8b0" stroke="#333" stroke-width="1"/>
<polygon points="412.49,507.13 447.13,527.13 407.13,527.13 407.13,567.13 387.13,532.49 352.49,552.49 372.49,517.85 337.85,497.85 377.85,497.85 377.85,457.85 397.85,492.49 432.49,472.49" fill="#98c8b0" stroke="#333" stroke-width="1"/>
<polygon points="204.64,299.28 239.28,319.28 199.28,319.28 199.28,359.28 179.28,324.64 144.64,344.64 164.64,310.00 130.00,290.00 170.00,290.00 170.00,250.00 190.00,284.64 224.64,264.64" fill="#98c8b0" stroke="#333" stroke-width="1"/>
<polygon points="368.56,343.21 403.21,363.21 363.21,363.21 363.21,403.21 343.21,368.56 308.56,388.56 328.56,353.92 293.92,333.92 333.92,333.92 333.92,293.92 353.92,328.56 388.56,308.56" fill="#98c8b0" stroke="#333" stroke-width="1"/>
<polygon points="532.49,387.13 567.13,407.13 527.13,407.13 527.13,447.13 507.13,412.49 472.49,432.49 492.49,397.85 457.85,377.85 497.85,377.85 497.85,337.85 517.85,372.49 552.49,352.49" fill="#98c8b0" stroke="#333" stroke-width="1"/>
<polygon points="324.64,179.28 359.28,199.28 319.28,199.28 319.28,239.28 299.28,204.64 264.64,224.64 284.64,190.00 250.00,170.00 290.00,170.00 290.00,130.00 310.00,164.64 344.64,144.64" fill="#98c8b0" stroke="#333" stroke-width="1"/>
<polygon points="488.56,223.21 523.21,243.21 483.21,243.21 483.21,283.21 463.21,248.56 428.56,268.56 448.56,233.92 413.92,213.92 453.92,213.92 453.92,173.92 473.92,208.56 508.56,188.56" fill="#98c8b0" stroke="#333" stroke-width="1"/>
<polygon points="652.49,267.13 687.13,287.13 647.13,287.13 647.13,327.13 627.13,292.49 592.49,312.49 612.49,277.85 577.85,257.85 617.85,257.85 617.85,217.85 637.85,252.49 672.49,232.49" fill="#98c8b0" stroke="#333" stroke-width="1"/>
<polygon points="188.56,548.56 188.56,508.56 208.56,543.21 243.21,523.21 223.21,557.85 257.85,577.85 217.85,577.85 217.85,617.85 197.85,583.21 163.21,603.21 183.21,568.56 148.56,548.56" fill="#98c8b0" stroke="#333" stroke-width="1"/>
<polygon points="352.49,592.49 352.49,552.49 372.49,587.13 407.13,567.13 387.13,601.77 421.77,621.77 381.77,621.77 381.77,661.77 361.77,627.13 327.13,647.13 347.13,612.49 312.49,592.49" fill="#98c8b0" stroke="#333" stroke-width="1"/>
<polygon points="516.41,636.41 516.41,596.41 536.41,631.05 571.05,611.05 551.05,645.69 585.69,665.69 545.69,665.69 545.69,705.69 525.69,671.05 491.05,691.05 511.05,656.41 476.41,636.41" fill="#98c8b0" stroke="#333" stroke-width="1"/>
<polygon points="308.56,428.56 308.56,388.56 328.56,423.21 363.21,403.21 343.21,437.85 377.85,457.85 337.85,457.85 337.85,497.85 317.85,463.21 283.21,483.21 303.21,448.56 268.56,428.56" fill="#98c8b0" stroke="#333" stroke-width="1"/>
<polygon points="472.49,472.49 472.49,432.49 492.49,467.13 527.13,447.13 507.13,481.77 541.77,501.77 501.77,501.77 501.77,541.77 481.77,507.13 447.13,527.13 467.13,492.49 432.49,472.49" fill="#98c8b0" stroke="#333" stroke-width="1"/>
<polygon points="636.41,516.41 636.41,476.41 656.41,511.05 691.05,491.05 671.05,525.69 705.69,545.69 665.69,545.69 665.69,585.69 645.69,551.05 611.05,571.05 631.05,536.41 596.41,516.41" fill="#98c8b0" stroke="#333" stroke-width="1"/>
<polygon points="428.56,308.56 428.56,268.56 448.56,303.21 483.21,283.21 463.21,317.85 497.85,337.85 457.85,337.85 457.85,377.85 437.85,343.21 403.21,363.21 423.21,328.56 388.56,308.56" fill="#98c8b0" stroke="#333" stroke-width="1"/>
<polygon points="592.49,352.49 592.49,312.49 612.49,347.13 647.13,327.13 627.13,361.77 661.77,381.77 621.77,381.77 621.77,421.77 601.77,387.13 567.13,407.13 587.13,372.49 552.49,352.49" fill="#98c8b0" stroke="#333" stroke-width="1"/>
<polygon points="756.41,396.41 756.41,356.41 776.41,391.05 811.05,371.05 791.05,405.69 825.69,425.69 785.69,425.69 785.69,465.69 765.69,431.05 731.05,451.05 751.05,416.41 716.41,396.41" fill="#98c8b0" stroke="#333" stroke-width="1"/>
<polygon points="208.56,543.21 188.56,508.56 223.21,488.56 243.21,523.21" fill="#e8c268" stroke="#333" stroke-width="1"/>
<polygon points="372.49,587.13 352.49,552.49 387.13,532.49 407.13,567.13" fill="#e8c268" stroke="#333" stroke-width="1"/>
<polygon points="536.41,631.05 516.41,596.41 551.05,576.41 571.05,611.05" fill="#e8c268" stroke="#333" stroke-width="1"/>
<polygon points="328.56,423.21 308.56,388.56 343.21,368.56 363.21,403.21" fill="#e8c268" stroke="#333" stroke-width="1"/>
<polygon points="492.49,467.13 472.49,432.49 507.13,412.49 527.13,447.13" fill="#e8c268" stroke="#333" stroke-width="1"/>
<polygon points="656.41,511.05 636.41,476.41 671.05,456.41 691.05,491.05" fill="#e8c268" stroke="#333" stroke-width="1"/>
<polygon points="448.56,303.21 428.56,268.56 463.21,248.56 483.21,283.21" fill="#e8c268" stroke="#333" stroke-width="1"/>
<polygon points="612.49,347.13 592.49,312.49 627.13,292.49 647.13,327.13" fill="#e8c268" stroke="#333" stroke-width="1"/>
<polygon points="776.41,391.05 756.41,356.41 791.05,336.41 811.05,371.05" fill="#e8c268" stroke="#333" stroke-width="1"/>
<text x="10" y="728" font-family="monospace" font-size="12">(6*d18,4)A, (6*d14,6*p2,4,6*p2)A, (6*p6,6*d18)A</text>
</svg>
