<svg xmlns="http://www.w3.org/2000/svg" width="439" height="597">
<rect width="100%" height="100%" fill="white"/>
<polygon points="104.64,293.92 144.64,293.92 144.64,333.92 104.64,333.92" fill="#e8c268" stroke="#333" stroke-width="1"/>
<polygon points="130.00,199.28 170.00,199.28 170.00,239.28 130.00,239.28" fill="#e8c268" stroke="#333" stroke-width="1"/>
<polygon points="155.36,104.64 195.36,104.64 195.36,144.64 155.36,144.64" fill="#e8c268" stroke="#333" stroke-width="1"/>
<polygon points="173.92,363.21 213.92,363.21 213.92,403.21 173.92,403.21" fill="#e8c268" stroke="#333" stroke-width="1"/>
<polygon points="199.28,268.56 239.28,268.56 239.28,308.56 199.28,308.56" fill="#e8c268" stroke="#333" stroke-width="1"/>
<polygon points="224.64,173.92 264.64,173.92 264.64,213.92 224.64,213.92" fill="#e8c268" stroke="#333" stroke-width="1"/>
<polygon points="243.21,432.49 283.21,432.49 283.21,472.49 243.21,472.49" fill="#e8c268" stroke="#333" stroke-width="1"/>
<polygon points="268.56,337.85 308.56,337.85 308.56,377.85 268.56,377.85" fill="#e8c268" stroke="#333" stroke-width="1"/>
<polygon points="293.92,243.21 333.92,243.21 333.92,283.21 293.92,283.21" fill="#e8c268" stroke="#333" stroke-width="1"/>
<polygon points="144.64,293.92 104.64,293.92 104.64,333.92 84.64,299.28 50.00,319.28 70.00,284.64 35.36,264.64 75.36,264.64 75.36,224.64 95.36,259.28 130.00,239.28 110.00,273.92" fill="#98c8b0" stroke="#333" stroke-width="1"/>
<polygon points="170.00,199.28 130.00,199.28 130.00,239.28 110.00,204.64 75.36,224.64 95.36,190.00 60.72,170.00 100.72,170.00 100.72,130.00 120.72,164.64 155.36,144.64 135.36,179.28" fill="#98c8b0" stroke="#333" stroke-width="1"/>
<polygon points="195.36,104.64 155.36,104.64 155.36,144.64 135.36,110.00 100.72,130.00 120.72,95.36 86.08,75.36 126.08,75.36 126.08,35.36 146.08,70.00 180.72,50.00 160.72,84.64" fill="#98c8b0" stroke="#333" stroke-width="1"/>
<polygon points="213.92,363.21 173.92,363.21 173.92,403.21 153.92,368.56 119.28,388.56 139.28,353.92 104.64,333.92 144.64,333.92 144.64,293.92 164.64,328.56 199.28,308.56 179.28,343.21" fill="#98c8b0" stroke="#333" stroke-width="1"/>
<polygon points="239.28,268.56 199.28,268.56 199.28,308.56 179.28,273.92 144.64,293.92 164.64,259.28 130.00,239.28 170.00,239.28 170.00,199.28 190.00,233.92 224.64,213.92 204.64,248.56" fill="#98c8b0" stroke="#333" stroke-width="1"/>
<polygon points="264.64,173.92 224.64,173.92 224.64,213.92 204.64,179.28 170.00,199.28 190.00,164.64 155.36,144.64 195.36,144.64 195.36,104.64 215.36,139.28 250.00,119.28 230.00,153.92" fill="#98c8b0" stroke="#333" stroke-width="1"/>
<polygon points="283.21,432.49 243.21,432.49 243.21,472.49 223.21,437.85 188.56,457.85 208.56,423.21 173.92,403.21 213.92,403.21 213.92,363.21 233.92,397.85 268.56,377.85 248.56,412.49" fill="#98c8b0" stroke="#333" stroke-width="1"/>
<polygon points="308.56,337.85 268.56,337.85 268.56,377.85 248.56,343.21 213.92,363.21 233.92,328.56 199.28,308.56 239.28,308.56 239.28,268.56 259.28,303.21 293.92,283.21 273.92,317.85" fill="#98c8b0" stroke="#333" stroke-width="1"/>
<polygon points="333.92,243.21 293.92,243.21 293.92,283.21 273.92,248.56 239.28,268.56 259.28,233.92 224.64,213.92 264.64,213.92 264.64,173.92 284.64,208.56 319.28,188.56 299.28,223.21" fill="#98c8b0" stroke="#333" stroke-width="1"/>
<polygon points="144.64,333.92 144.64,293.92 164.64,328.56 199.28,308.56 179.28,343.21 213.92,363.21 173.92,363.21 173.92,403.21 153.92,368.56 119.28,388.56 139.28,353.92 104.64,333.92" fill="#98c8b0" stroke="#333" stroke-width="1"/>
<polygon points="170.00,239.28 170.00,199.28 190.00,233.92 224.64,213.92 204.64,248.56 239.28,268.56 199.28,268.56 199.28,308.56 179.28,273.92 144.64,293.92 164.64,259.28 130.00,239.28" fill="#98c8b0" stroke="#333" stroke-width="1"/>
<polygon points="195.36,144.64 195.36,104.64 215.36,139.28 250.00,119.28 230.00,153.92 264.64,173.92 224.64,173.92 224.64,213.92 204.64,179.28 170.00,199.28 190.00,164.64 155.36,144.64" fill="#98c8b0" stroke="#333" stroke-width="1"/>
<polygon points="213.92,403.21 213.92,363.21 233.92,397.85 268.56,377.85 248.56,412.49 283.21,432.49 243.21,432.49 243.21,472.49 223.21,437.85 188.56,457.85 208.56,423.21 173.92,403.21" fill="#98c8b0" stroke="#333" stroke-width="1"/>
<polygon points="239.28,308.56 239.28,268.56 259.28,303.21 293.92,283.21 273.92,317.85 308.56,337.85 268.56,337.85 268.56,377.85 248.56,343.21 213.92,363.21 233.92,328.56 199.28,308.56" fill="#98c8b0" stroke="#333" stroke-width="1"/>
<polygon points="264.64,213.92 264.64,173.92 284.64,208.56 319.28,188.56 299.28,223.21 333.92,243.21 293.92,243.21 293.92,283.21 273.92,248.56 239.28,268.56 259.28,233.92 224.64,213.92" fill="#98c8b0" stroke="#333" stroke-width="1"/>
<polygon points="283.21,472.49 283.21,432.49 303.21,467.13 337.85,447.13 317.85,481.77 352.49,501.77 312.49,501.77 312.49,541.77 292.49,507.13 257.85,527.13 277.85,492.49 243.21,472.49" fill="#98c8b0" stroke="#333" stroke-width="1"/>
<polygon points="308.56,377.85 308.56,337.85 328.56,372.49 363.21,352.49 343.21,387.13 377.85,407.13 337.85,407.13 337.85,447.13 317.85,412.49 283.21,432.49 303.21,397.85 268.56,377.85" fill="#98c8b0" stroke="#333" stroke-width="1"/>
<polygon points="333.92,283.21 333.92,243.21 353.92,277.85 388.56,257.85 368.56,292.49 403.21,312.49 363.21,312.49 363.21,352.49 343.21,317.85 308.56,337.85 328.56,303.21 293.92,283.21" fill="#98c8b0" stroke="#333" stroke-width="1"/>
<polygon points="164.64,328.56 144.64,293.92 179.28,273.92 199.28,308.56" fill="#e8c268" stroke="#333" stroke-width="1"/>
<polygon points="190.00,233.92 170.00,199.28 204.64,179.28 224.64,213.92" fill="#e8c268" stroke="#333" stroke-width="1"/>
<polygon points="215.36,139.28 195.36,104.64 230.00,84.64 250.00,119.28" fill="#e8c268" stroke="#333" stroke-width="1"/>
<polygon points="233.92,397.85 213.92,363.21 248.56,343.21 268.56,377.85" fill="#e8c268" stroke="#333" stroke-width="1"/>
<polygon points="259.28,303.21 239.28,268.56 273.92,248.56 293.92,283.21" fill="#e8c268" stroke="#333" stroke-width="1"/>
<polygon points="284.64,208.56 264.64,173.92 299.28,153.92 319.28,188.56" fill="#e8c268" stroke="#333" stroke-width="1"/>
<polygon points="303.21,467.13 283.21,432.49 317.85,412.49 337.85,447.13" fill="#e8c268" stroke="#333" stroke-width="1"/>
<polygon points="328.56,372.49 308.56,337.85 343.21,317.85 363.21,352.49" fill="#e8c268" stroke="#333" stroke-width="1"/>
<polygon points="353.92,277.85 333.92,243.21 368.56,223.21 388.56,257.85" fill="#e8c268" stroke="#333" stroke-width="1"/>
<polygon points="179.28,273.92 144.64,293.92 164.64,259.28 130.00,239.28 170.00,239.28 170.00,199.28 190.00,233.92 224.64,213.92 204.64,248.56 239.28,268.56 199.28,268.56 199.28,308.56" fill="#98c8b0" stroke="#333" stroke-width="1"/>
<polygon points="204.64,179.28 170.00,199.28 190.00,164.64 155.36,144.64 195.36,144.64 195.36,104.64 215.36,139.28 250.00,119.28 230.00,153.92 264.64,173.92 224.64,173.92 224.64,213.92" fill="#98c8b0" stroke="#333" stroke-width="1"/>
<polygon points="230.00,84.64 195.36,104.64 215.36,70.00 180.72,50.00 220.72,50.00 220.72,10.00 240.72,44.64 275.36,24.64 255.36,59.28 290.00,79.28 250.00,79.28 250.00,119.28" fill="#98c8b0" stroke="#333" stroke-width="1"/>
<polygon points="248.56,343.21 213.92,363.21 233.92,328.56 199.28,308.56 239.28,308.56 239.28,268.56 259.28,303.21 293.92,283.21 273.92,317.85 308.56,337.85 268.56,337.85 268.56,377.85" fill="#98c8b0" stroke="#333" stroke-width="1"/>
<polygon points="273.92,248.56 239.28,268.56 259.28,233.92 224.64,213.92 264.64,213.92 264.64,173.92 284.64,208.56 319.28,188.56 299.28,223.21 333.92,243.21 293.92,243.21 293.92,283.21" fill="#98c8b0" stroke="#333" stroke-width="1"/>
<polygon points="299.28,153.92 264.64,173.92 284.64,139.28 250.00,119.28 290.00,119.28 290.00,79.28 310.00,113.92 344.64,93.92 324.64,128.56 359.28,148.56 319.28,148.56 319.28,188.56" fill="#98c8b0" stroke="#333" stroke-width="1"/>
<polygon points="317.85,412.49 283.21,432.49 303.21,397.85 268.56,377.85 308.56,377.85 308.56,337.85 328.56,372.49 363.21,352.49 343.21,387.13 377.85,407.13 337.85,407.13 337.85,447.13" fill="#98c8b0" stroke="#333" stroke-width="1"/>
<polygon points="343.21,317.85 308.56,337.85 328.56,303.21 293.92,283.21 333.92,283.21 333.92,243.21 353.92,277.85 388.56,257.85 368.56,292.49 403.21,312.49 363.21,312.49 363.21,352.49" fill="#98c8b0" stroke="#333" stroke-width="1"/>
<polygon points="368.56,223.21 333.92,243.21 353.92,208.56 319.28,188.56 359.28,188.56 359.28,148.56 379.28,183.21 413.92,163.21 393.92,197.85 428.56,217.85 388.56,217.85 388.56,257.85" fill="#98c8b0" stroke="#333" stroke-width="1"/>
<polygon points="164.64,259.28 144.64,293.92 110.00,273.92 130.00,239.28" fill="#e8c268" stroke="#333" stroke-width="1"/>
<polygon points="190.00,164.64 170.00,199.28 135.36,179.28 155.36,144.64" fill="#e8c268" stroke="#333" stroke-width="1"/>
<polygon points="215.36,70.00 195.36,104.64 160.72,84.64 180.72,50.00" fill="#e8c268" stroke="#333" stroke-width="1"/>
<polygon points="233.92,328.56 213.92,363.21 179.28,343.21 199.28,308.56" fill="#e8c268" stroke="#333" stroke-width="1"/>
<polygon points="259.28,233.92 239.28,268.56 204.64,248.56 224.64,213.92" fill="#e8c268" stroke="#333" stroke-width="1"/>
<polygon points="284.64,139.28 264.64,173.92 230.00,153.92 250.00,119.28" fill="#e8c268" stroke="#333" stroke-width="1"/>
<polygon points="303.21,397.85 283.21,432.49 248.56,412.49 268.56,377.85" fill="#e8c268" stroke="#333" stroke-width="1"/>
<polygon points="328.56,303.21 308.56,337.85 273.92,317.85 293.92,283.21" fill="#e8c268" stroke="#333" stroke-width="1"/>
<polygon points="353.92,208.56 333.92,243.21 299.28,223.21 319.28,188.56" fill="#e8c268" stroke="#333" stroke-width="1"/>
<polygon points="84.64,299.28 104.64,333.92 70.00,353.92 50.00,319.28" fill="#e8c268" stroke="#333" stroke-width="1"/>
<polygon points="110.00,204.64 130.00,239.28 95.36,259.28 75.36,224.64" fill="#e8c268" stroke="#333" stroke-width="1"/>
<polygon points="135.36,110.00 155.36,144.64 120.72,164.64 100.72,130.00" fill="#e8c268" stroke="#333" stroke-width="1"/>
<polygon points="153.92,368.56 173.92,403.21 139.28,423.21 119.28,388.56" fill="#e8c268" stroke="#333" stroke-width="1"/>
<polygon points="179.28,273.92 199.28,308.56 164.64,328.56 144.64,293.92" fill="#e8c268" stroke="#333" stroke-width="1"/>
<polygon points="204.64,179.28 224.64,213.92 190.00,233.92 170.00,199.28" fill="#e8c268" stroke="#333" stroke-width="1"/>
<polygon points="223.21,437.85 243.21,472.49 208.56,492.49 188.56,457.85" fill="#e8c268" stroke="#333" stroke-width="1"/>
<polygon points="248.56,343.21 268.56,377.85 233.92,397.85 213.92,363.21" fill="#e8c268" stroke="#333" stroke-width="1"/>
<polygon points="273.92,248.56 293.92,283.21 259.28,303.21 239.28,268.56" fill="#e8c268" stroke="#333" stroke-width="1"/>
<polygon points="70.00,353.92 104.64,333.92 84.64,368.56 119.28,388.56 79.28,388.56 79.28,428.56 59.28,393.92 24.64,413.92 44.64,379.28 10.00,359.28 50.00,359.28 50.00,319.28" fill="#98c8b0" stroke="#333" stroke-width="1"/>
<polygon points="95.36,259.28 130.00,239.28 110.00,273.92 144.64,293.92 104.64,293.92 104.64,333.92 84.64,299.28 50.00,319.28 70.00,284.64 35.36,264.64 75.36,264.64 75.36,224.64" fill="#98c8b0" stroke="#333" stroke-width="1"/>
<polygon points="120.72,164.64 155.36,144.64 135.36,179.28 170.00,199.28 130.00,199.28 130.00,239.28 110.00,204.64 75.36,224.64 95.36,190.00 60.72,170.00 100.72,170.00 100.72,130.00" fill="#98c8b0" stroke="#333" stroke-width="1"/>
<polygon points="139.28,423.21 173.92,403.21 153.92,437.85 188.56,457.85 148.56,457.85 148.56,497.85 128.56,463.21 93.92,483.21 113.92,448.56 79.28,428.56 119.28,428.56 119.28,388.56" fill="#98c8b0" stroke="#333" stroke-width="1"/>
<polygon points="164.64,328.56 199.28,308.56 179.28,343.21 213.92,363.21 173.92,363.21 173.92,403.21 153.92,368.56 119.28,388.56 139.28,353.92 104.64,333.92 144.64,333.92 144.64,293.92" fill="#98c8b0" stroke="#333" stroke-width="1"/>
<polygon points="190.00,233.92 224.64,213.92 204.64,248.56 239.28,268.56 199.28,268.56 199.28,308.56 179.28,273.92 144.64,293.92 164.64,259.28 130.00,239.28 170.00,239.28 170.00,199.28" fill="#98c8b0" stroke="#333" stroke-width="1"/>
<polygon points="208.56,492.49 243.21,472.49 223.21,507.13 257.85,527.13 217.85,527.13 217.85,567.13 197.85,532.49 163.21,552.49 183.21,517.85 148.56,497.85 188.56,497.85 188.56,457.85" fill="#98c8b0" stroke="#333" stroke-width="1"/>
<polygon points="233.92,397.85 268.56,377.85 248.56,412.49 283.21,432.49 243.21,432.49 243.21,472.49 223.21,437.85 188.56,457.85 208.56,423.21 173.92,403.21 213.92,403.21 213.92,363.21" fill="#98c8b0" stroke="#333" stroke-width="1"/>
<polygon points="259.28,303.21 293.92,283.21 273.92,317.85 308.56,337.85 268.56,337.85 268.56,377.85 248.56,343.21 213.92,363.21 233.92,328.56 199.28,308.56 239.28,308.56 239.28,268.56" fill="#98c8b0" stroke="#333" stroke-width="1"/>
<polygon points="84.64,368.56 104.64,333.92 139.28,353.92 119.28,388.56" fill="#e8c268" stroke="#333" stroke-width="1"/>
<polygon points="110.00,273.92 130.00,239.28 164.64,259.28 144.64,293.92" fill="#e8c268" stroke="#333" stroke-width="1"/>
<polygon points="135.36,179.28 155.36,144.64 190.00,164.64 170.00,199.28" fill="#e8c268" stroke="#333" stroke-width="1"/>
<polygon points="153.92,437.85 173.92,403.21 208.56,423.21 188.56,457.85" fill="#e8c268" stroke="#333" stroke-width="1"/>
<polygon points="179.28,343.21 199.28,308.56 233.92,328.56 213.92,363.21" fill="#e8c268" stroke="#333" stroke-width="1"/>
<polygon points="204.64,248.56 224.64,213.92 259.28,233.92 239.28,268.56" fill="#e8c268" stroke="#333" stroke-width="1"/>
<polygon points="223.21,507.13 243.21,472.49 277.85,492.49 257.85,527.13" fill="#e8c268" stroke="#333" stroke-width="1"/>
<polygon points="248.56,412.49 268.56,377.85 303.21,397.85 283.21,432.49" fill="#e8c268" stroke="#333" stroke-width="1"/>
<polygon points="273.92,317.85 293.92,283.21 328.56,303.21 308.56,337.85" fill="#e8c268" stroke="#333" stroke-width="1"/>
<text x="10" y="589" font-family="monospace" font-size="12">(6*d18,4)A, (6*p2,4,6*p2,4,6*p2,4)S3</text>
</svg>
