<svg xmlns="http://www.w3.org/2000/svg" width="489" height="717">
<rect width="100%" height="100%" fill="white"/>
<polygon points="95.36,259.28 135.36,259.28 135.36,299.28 95.36,299.28" fill="#e8c268" stroke="#333" stroke-width="1"/>
<polygon points="90.00,388.56 130.00,388.56 130.00,428.56 90.00,428.56" fill="#e8c268" stroke="#333" stroke-width="1"/>
<polygon points="84.64,517.85 124.64,517.85 124.64,557.85 84.64,557.85" fill="#e8c268" stroke="#333" stroke-width="1"/>
<polygon points="210.00,199.28 250.00,199.28 250.00,239.28 210.00,239.28" fill="#e8c268" stroke="#333" stroke-width="1"/>
<polygon points="204.64,328.56 244.64,328.56 244.64,368.56 204.64,368.56" fill="#e8c268" stroke="#333" stroke-width="1"/>
<polygon points="199.28,457.85 239.28,457.85 239.28,497.85 199.28,497.85" fill="#e8c268" stroke="#333" stroke-width="1"/>
<polygon points="324.64,139.28 364.64,139.28 364.64,179.28 324.64,179.28" fill="#e8c268" stroke="#333" stroke-width="1"/>
<polygon points="319.28,268.56 359.28,268.56 359.28,308.56 319.28,308.56" fill="#e8c268" stroke="#333" stroke-width="1"/>
<polygon points="313.92,397.85 353.92,397.85 353.92,437.85 313.92,437.85" fill="#e8c268" stroke="#333" stroke-width="1"/>
<polygon points="135.36,259.28 95.36,259.28 95.36,299.28 75.36,264.64 40.72,284.64 60.72,250.00 26.08,230.00 66.08,230.00 66.08,190.00 86.08,224.64 120.72,204.64 100.72,239.28" fill="#98c8b0" stroke="#333" stroke-width="1"/>
<polygon points="130.00,388.56 90.00,388.56 90.00,428.56 70.00,393.92 35.36,413.92 55.36,379.28 20.72,359.28 60.72,359.28 60.72,319.28 80.72,353.92 115.36,333.92 95.36,368.56" fill="#98c8b0" stroke="#333" stroke-width="1"/>
<polygon points="124.64,517.85 84.64,517.85 84.64,557.85 64.64,523.21 30.00,543.21 50.00,508.56 15.36,488.56 55.36,488.56 55.36,448.56 75.36,483.21 110.00,463.21 90.00,497.85" fill="#98c8b0" stroke="#333" stroke-width="1"/>
<polygon points="250.00,199.28 210.00,199.28 210.00,239.28 190.00,204.64 155.36,224.64 175.36,190.00 140.72,170.00 180.72,170.00 180.72,130.00 200.72,164.64 235.36,144.64 215.36,179.28" fill="#98c8b0" stroke="#333" stroke-width="1"/>
<polygon points="244.64,328.56 204.64,328.56 204.64,368.56 184.64,333.92 150.00,353.92 170.00,319.28 135.36,299.28 175.36,299.28 175.36,259.28 195.36,293.92 230.00,273.92 210.00,308.56" fill="#98c8b0" stroke="#333" stroke-width="1"/>
<polygon points="239.28,457.85 199.28,457.85 199.28,497.85 179.28,463.21 144.64,483.21 164.64,448.56 130.00,428.56 170.00,428.56 170.00,388.56 190.00,423.21 224.64,403.21 204.64,437.85" fill="#98c8b0" stroke="#333" stroke-width="1"/>
<polygon points="364.64,139.28 324.64,139.28 324.64,179.28 304.64,144.64 270.00,164.64 290.00,130.00 255.36,110.00 295.36,110.00 295.36,70.00 315.36,104.64 350.00,84.64 330.00,119.28" fill="#98c8b0" stroke="#333" stroke-width="1"/>
<polygon points="359.28,268.56 319.28,268.56 319.28,308.56 299.28,273.92 264.64,293.92 284.64,259.28 250.00,239.28 290.00,239.28 290.00,199.28 310.00,233.92 344.64,213.92 324.64,248.56" fill="#98c8b0" stroke="#333" stroke-width="1"/>
<polygon points="353.92,397.85 313.92,397.85 313.92,437.85 293.92,403.21 259.28,423.21 279.28,388.56 244.64,368.56 284.64,368.56 284.64,328.56 304.64,363.21 339.28,343.21 319.28,377.85" fill="#98c8b0" stroke="#333" stroke-width="1"/>
<polygon points="135.36,299.28 135.36,259.28 175.36,259.28 175.36,299.28" fill="#e8c268" stroke="#333" stroke-width="1"/>
<polygon points="130.00,428.56 130.00,388.56 170.00,388.56 170.00,428.56" fill="#e8c268" stroke="#333" stroke-width="1"/>
<polygon points="124.64,557.85 124.64,517.85 164.64,517.85 164.64,557.85" fill="#e8c268" stroke="#333" stroke-width="1"/>
<polygon points="250.00,239.28 250.00,199.28 290.00,199.28 290.00,239.28" fill="#e8c268" stroke="#333" stroke-width="1"/>
<polygon points="244.64,368.56 244.64,328.56 284.64,328.56 284.64,368.56" fill="#e8c268" stroke="#333" stroke-width="1"/>
<polygon points="239.28,497.85 239.28,457.85 279.28,457.85 279.28,497.85" fill="#e8c268" stroke="#333" stroke-width="1"/>
<polygon points="364.64,179.28 364.64,139.28 404.64,139.28 404.64,179.28" fill="#e8c268" stroke="#333" stroke-width="1"/>
<polygon points="359.28,308.56 359.28,268.56 399.28,268.56 399.28,308.56" fill="#e8c268" stroke="#333" stroke-width="1"/>
<polygon points="353.92,437.85 353.92,397.85 393.92,397.85 393.92,437.85" fill="#e8c268" stroke="#333" stroke-width="1"/>
<polygon points="175.36,259.28 135.36,259.28 155.36,224.64" fill="#88b0d8" stroke="#333" stroke-width="1"/>
<polygon points="170.00,388.56 130.00,388.56 150.00,353.92" fill="#88b0d8" stroke="#333" stroke-width="1"/>
<polygon points="164.64,517.85 124.64,517.85 144.64,483.21" fill="#88b0d8" stroke="#333" stroke-width="1"/>
<polygon points="290.00,199.28 250.00,199.28 270.00,164.64" fill="#88b0d8" stroke="#333" stroke-width="1"/>
<polygon points="284.64,328.56 244.64,328.56 264.64,293.92" fill="#88b0d8" stroke="#333" stroke-width="1"/>
<polygon points="279.28,457.85 239.28,457.85 259.28,423.21" fill="#88b0d8" stroke="#333" stroke-width="1"/>
<polygon points="404.64,139.28 364.64,139.28 384.64,104.64" fill="#88b0d8" stroke="#333" stroke-width="1"/>
<polygon points="399.28,268.56 359.28,268.56 379.28,233.92" fill="#88b0d8" stroke="#333" stroke-width="1"/>
<polygon points="393.92,397.85 353.92,397.85 373.92,363.21" fill="#88b0d8" stroke="#333" stroke-width="1"/>
<polygon points="155.36,224.64 135.36,259.28 100.72,239.28 120.72,204.64" fill="#e8c268" stroke="#333" stroke-width="1"/>
<polygon points="150.00,353.92 130.00,388.56 95.36,368.56 115.36,333.92" fill="#e8c268" stroke="#333" stroke-width="1"/>
<polygon points="144.64,483.21 124.64,517.85 90.00,497.85 110.00,463.21" fill="#e8c268" stroke="#333" stroke-width="1"/>
<polygon points="270.00,164.64 250.00,199.28 215.36,179.28 235.36,144.64" fill="#e8c268" stroke="#333" stroke-width="1"/>
<polygon points="264.64,293.92 244.64,328.56 210.00,308.56 230.00,273.92" fill="#e8c268" stroke="#333" stroke-width="1"/>
<polygon points="259.28,423.21 239.28,457.85 204.64,437.85 224.64,403.21" fill="#e8c268" stroke="#333" stroke-width="1"/>
<polygon points="384.64,104.64 364.64,139.28 330.00,119.28 350.00,84.64" fill="#e8c268" stroke="#333" stroke-width="1"/>
<polygon points="379.28,233.92 359.28,268.56 324.64,248.56 344.64,213.92" fill="#e8c268" stroke="#333" stroke-width="1"/>
<polygon points="373.92,363.21 353.92,397.85 319.28,377.85 339.28,343.21" fill="#e8c268" stroke="#333" stroke-width="1"/>
<polygon points="75.36,264.64 95.36,299.28 60.72,319.28 40.72,284.64" fill="#e8c268" stroke="#333" stroke-width="1"/>
<polygon points="70.00,393.92 90.00,428.56 55.36,448.56 35.36,413.92" fill="#e8c268" stroke="#333" stroke-width="1"/>
<polygon points="64.64,523.21 84.64,557.85 50.00,577.85 30.00,543.21" fill="#e8c268" stroke="#333" stroke-width="1"/>
<polygon points="190.00,204.64 210.00,239.28 175.36,259.28 155.36,224.64" fill="#e8c268" stroke="#333" stroke-width="1"/>
<polygon points="184.64,333.92 204.64,368.56 170.00,388.56 150.00,353.92" fill="#e8c268" stroke="#333" stroke-width="1"/>
<polygon points="179.28,463.21 199.28,497.85 164.64,517.85 144.64,483.21" fill="#e8c268" stroke="#333" stroke-width="1"/>
<polygon points="304.64,144.64 324.64,179.28 290.00,199.28 270.00,164.64" fill="#e8c268" stroke="#333" stroke-width="1"/>
<polygon points="299.28,273.92 319.28,308.56 284.64,328.56 264.64,293.92" fill="#e8c268" stroke="#333" stroke-width="1"/>
<polygon points="293.92,403.21 313.92,437.85 279.28,457.85 259.28,423.21" fill="#e8c268" stroke="#333" stroke-width="1"/>
<polygon points="60.72,319.28 95.36,299.28 115.36,333.92 80.72,353.92" fill="#e8c268" stroke="#333" stroke-width="1"/>
<polygon points="55.36,448.56 90.00,428.56 110.00,463.21 75.36,483.21" fill="#e8c268" stroke="#333" stroke-width="1"/>
<polygon points="50.00,577.85 84.64,557.85 104.64,592.49 70.00,612.49" fill="#e8c268" stroke="#333" stroke-width="1"/>
<polygon points="175.36,259.28 210.00,239.28 230.00,273.92 195.36,293.92" fill="#e8c268" stroke="#333" stroke-width="1"/>
<polygon points="170.00,388.56 204.64,368.56 224.64,403.21 190.00,423.21" fill="#e8c268" stroke="#333" stroke-width="1"/>
<polygon points="164.64,517.85 199.28,497.85 219.28,532.49 184.64,552.49" fill="#e8c268" stroke="#333" stroke-width="1"/>
<polygon points="290.00,199.28 324.64,179.28 344.64,213.92 310.00,233.92" fill="#e8c268" stroke="#333" stroke-width="1"/>
<polygon points="284.64,328.56 319.28,308.56 339.28,343.21 304.64,363.21" fill="#e8c268" stroke="#333" stroke-width="1"/>
<polygon points="279.28,457.85 313.92,437.85 333.92,472.49 299.28,492.49" fill="#e8c268" stroke="#333" stroke-width="1"/>
<polygon points="115.36,333.92 95.36,299.28 135.36,299.28" fill="#88b0d8" stroke="#333" stroke-width="1"/>
<polygon points="110.00,463.21 90.00,428.56 130.00,428.56" fill="#88b0d8" stroke="#333" stroke-width="1"/>
<polygon points="104.64,592.49 84.64,557.85 124.64,557.85" fill="#88b0d8" stroke="#333" stroke-width="1"/>
<polygon points="230.00,273.92 210.00,239.28 250.00,239.28" fill="#88b0d8" stroke="#333" stroke-width="1"/>
<polygon points="224.64,403.21 204.64,368.56 244.64,368.56" fill="#88b0d8" stroke="#333" stroke-width="1"/>
<polygon points="219.28,532.49 199.28,497.85 239.28,497.85" fill="#88b0d8" stroke="#333" stroke-width="1"/>
<polygon points="344.64,213.92 324.64,179.28 364.64,179.28" fill="#88b0d8" stroke="#333" stroke-width="1"/>
<polygon points="339.28,343.21 319.28,308.56 359.28,308.56" fill="#88b0d8" stroke="#333" stroke-width="1"/>
<polygon points="333.92,472.49 313.92,437.85 353.92,437.85" fill="#88b0d8" stroke="#333" stroke-width="1"/>
<polygon points="115.36,333.92 135.36,299.28 170.00,319.28 150.00,353.92" fill="#e8c268" stroke="#333" stroke-width="1"/>
<polygon points="110.00,463.21 130.00,428.56 164.64,448.56 144.64,483.21" fill="#e8c268" stroke="#333" stroke-width="1"/>
<polygon points="104.64,592.49 124.64,557.85 159.28,577.85 139.28,612.49" fill="#e8c268" stroke="#333" stroke-width="1"/>
<polygon points="230.00,273.92 250.00,239.28 284.64,259.28 264.64,293.92" fill="#e8c268" stroke="#333" stroke-width="1"/>
<polygon points="224.64,403.21 244.64,368.56 279.28,388.56 259.28,423.21" fill="#e8c268" stroke="#333" stroke-width="1"/>
<polygon points="219.28,532.49 239.28,497.85 273.92,517.85 253.92,552.49" fill="#e8c268" stroke="#333" stroke-width="1"/>
<polygon points="344.64,213.92 364.64,179.28 399.28,199.28 379.28,233.92" fill="#e8c268" stroke="#333" stroke-width="1"/>
<polygon points="339.28,343.21 359.28,308.56 393.92,328.56 373.92,363.21" fill="#e8c268" stroke="#333" stroke-width="1"/>
<polygon points="333.92,472.49 353.92,437.85 388.56,457.85 368.56,492.49" fill="#e8c268" stroke="#333" stroke-width="1"/>
<polygon points="170.00,319.28 135.36,299.28 175.36,299.28 175.36,259.28 195.36,293.92 230.00,273.92 210.00,308.56 244.64,328.56 204.64,328.56 204.64,368.56 184.64,333.92 150.00,353.92" fill="#98c8b0" stroke="#333" stroke-width="1"/>
<polygon points="164.64,448.56 130.00,428.56 170.00,428.56 170.00,388.56 190.00,423.21 224.64,403.21 204.64,437.85 239.28,457.85 199.28,457.85 199.28,497.85 179.28,463.21 144.64,483.21" fill="#98c8b0" stroke="#333" stroke-width="1"/>
<polygon points="159.28,577.85 124.64,557.85 164.64,557.85 164.64,517.85 184.64,552.49 219.28,532.49 199.28,567.13 233.92,587.13 193.92,587.13 193.92,627.13 173.92,592.49 139.28,612.49" fill="#98c8b0" stroke="#333" stroke-width="1"/>
<polygon points="284.64,259.28 250.00,239.28 290.00,239.28 290.00,199.28 310.00,233.92 344.64,213.92 324.64,248.56 359.28,268.56 319.28,268.56 319.28,308.56 299.28,273.92 264.64,293.92" fill="#98c8b0" stroke="#333" stroke-width="1"/>
<polygon points="279.28,388.56 244.64,368.56 284.64,368.56 284.64,328.56 304.64,363.21 339.28,343.21 319.28,377.85 353.92,397.85 313.92,397.85 313.92,437.85 293.92,403.21 259.28,423.21" fill="#98c8b0" stroke="#333" stroke-width="1"/>
<polygon points="273.92,517.85 239.28,497.85 279.28,497.85 279.28,457.85 299.28,492.49 333.92,472.49 313.92,507.13 348.56,527.13 308.56,527.13 308.56,567.13 288.56,532.49 253.92,552.49" fill="#98c8b0" stroke="#333" stroke-width="1"/>
<polygon points="399.28,199.28 364.64,179.28 404.64,179.28 404.64,139.28 424.64,173.92 459.28,153.92 439.28,188.56 473.92,208.56 433.92,208.56 433.92,248.56 413.92,213.92 379.28,233.92" fill="#98c8b0" stroke="#333" stroke-width="1"/>
<polygon points="393.92,328.56 359.28,308.56 399.28,308.56 399.28,268.56 419.28,303.21 453.92,283.21 433.92,317.85 468.56,337.85 428.56,337.85 428.56,377.85 408.56,343.21 373.92,363.21" fill="#98c8b0" stroke="#333" stroke-width="1"/>
<polygon points="388.56,457.85 353.92,437.85 393.92,437.85 393.92,397.85 413.92,432.49 448.56,412.49 428.56,447.13 463.21,467.13 423.21,467.13 423.21,507.13 403.21,472.49 368.56,492.49" fill="#98c8b0" stroke="#333" stroke-width="1"/>
<polygon points="195.36,293.92 175.36,259.28 210.00,239.28 230.00,273.92" fill="#e8c268" stroke="#333" stroke-width="1"/>
<polygon points="190.00,423.21 170.00,388.56 204.64,368.56 224.64,403.21" fill="#e8c268" stroke="#333" stroke-width="1"/>
<polygon points="184.64,552.49 164.64,517.85 199.28,497.85 219.28,532.49" fill="#e8c268" stroke="#333" stroke-width="1"/>
<polygon points="310.00,233.92 290.00,199.28 324.64,179.28 344.64,213.92" fill="#e8c268" stroke="#333" stroke-width="1"/>
<polygon points="304.64,363.21 284.64,328.56 319.28,308.56 339.28,343.21" fill="#e8c268" stroke="#333" stroke-width="1"/>
<polygon points="299.28,492.49 279.28,457.85 313.92,437.85 333.92,472.49" fill="#e8c268" stroke="#333" stroke-width="1"/>
<polygon points="424.64,173.92 404.64,139.28 439.28,119.28 459.28,153.92" fill="#e8c268" stroke="#333" stroke-width="1"/>
<polygon points="419.28,303.21 399.28,268.56 433.92,248.56 453.92,283.21" fill="#e8c268" stroke="#333" stroke-width="1"/>
<polygon points="413.92,432.49 393.92,397.85 428.56,377.85 448.56,412.49" fill="#e8c268" stroke="#333" stroke-width="1"/>
<polygon points="175.36,259.28 155.36,224.64 190.00,204.64 210.00,239.28" fill="#e8c268" stroke="#333" stroke-width="1"/>
<polygon points="170.00,388.56 150.00,353.92 184.64,333.92 204.64,368.56" fill="#e8c268" stroke="#333" stroke-width="1"/>
<polygon points="164.64,517.85 144.64,483.21 179.28,463.21 199.28,497.85" fill="#e8c268" stroke="#333" stroke-width="1"/>
<polygon points="290.00,199.28 270.00,164.64 304.64,144.64 324.64,179.28" fill="#e8c268" stroke="#333" stroke-width="1"/>
<polygon points="284.64,328.56 264.64,293.92 299.28,273.92 319.28,308.56" fill="#e8c268" stroke="#333" stroke-width="1"/>
<polygon points="279.28,457.85 259.28,423.21 293.92,403.21 313.92,437.85" fill="#e8c268" stroke="#333" stroke-width="1"/>
<polygon points="404.64,139.28 384.64,104.64 419.28,84.64 439.28,119.28" fill="#e8c268" stroke="#333" stroke-width="1"/>
<polygon points="399.28,268.56 379.28,233.92 413.92,213.92 433.92,248.56" fill="#e8c268" stroke="#333" stroke-width="1"/>
<polygon points="393.92,397.85 373.92,363.21 408.56,343.21 428.56,377.85" fill="#e8c268" stroke="#333" stroke-width="1"/>
<polygon points="190.00,204.64 155.36,224.64 175.36,190.00 140.72,170.00 180.72,170.00 180.72,130.00 200.72,164.64 235.36,144.64 215.36,179.28 250.00,199.28 210.00,199.28 210.00,239.28" fill="#98c8b0" stroke="#333" stroke-width="1"/>
<polygon points="184.64,333.92 150.00,353.92 170.00,319.28 135.36,299.28 175.36,299.28 175.36,259.28 195.36,293.92 230.00,273.92 210.00,308.56 244.64,328.56 204.64,328.56 204.64,368.56" fill="#98c8b0" stroke="#333" stroke-width="1"/>
<polygon points="179.28,463.21 144.64,483.21 164.64,448.56 130.00,428.56 170.00,428.56 170.00,388.56 190.00,423.21 224.64,403.21 204.64,437.85 239.28,457.85 199.28,457.85 199.28,497.85" fill="#98c8b0" stroke="#333" stroke-width="1"/>
<polygon points="304.64,144.64 270.00,164.64 290.00,130.00 255.36,110.00 295.36,110.00 295.36,70.00 315.36,104.64 350.00,84.64 330.00,119.28 364.64,139.28 324.64,139.28 324.64,179.28" fill="#98c8b0" stroke="#333" stroke-width="1"/>
<polygon points="299.28,273.92 264.64,293.92 284.64,259.28 250.00,239.28 290.00,239.28 290.00,199.28 310.00,233.92 344.64,213.92 324.64,248.56 359.28,268.56 319.28,268.56 319.28,308.56" fill="#98c8b0" stroke="#333" stroke-width="1"/>
<polygon points="293.92,403.21 259.28,423.21 279.28,388.56 244.64,368.56 284.64,368.56 284.64,328.56 304.64,363.21 339.28,343.21 319.28,377.85 353.92,397.85 313.92,397.85 313.92,437.85" fill="#98c8b0" stroke="#333" stroke-width="1"/>
<polygon points="419.28,84.64 384.64,104.64 404.64,70.00 370.00,50.00 410.00,50.00 410.00,10.00 430.00,44.64 464.64,24.64 444.64,59.28 479.28,79.28 439.28,79.28 439.28,119.28" fill="#98c8b0" stroke="#333" stroke-width="1"/>
<polygon points="413.92,213.92 379.28,233.92 399.28,199.28 364.64,179.28 404.64,179.28 404.64,139.28 424.64,173.92 459.28,153.92 439.28,188.56 473.92,208.56 433.92,208.56 433.92,248.56" fill="#98c8b0" stroke="#333" stroke-width="1"/>
<polygon points="408.56,343.21 373.92,363.21 393.92,328.56 359.28,308.56 399.28,308.56 399.28,268.56 419.28,303.21 453.92,283.21 433.92,317.85 468.56,337.85 428.56,337.85 428.56,377.85" fill="#98c8b0" stroke="#333" stroke-width="1"/>
<polygon points="175.36,190.00 155.36,224.64 120.72,204.64 140.72,170.00" fill="#e8c268" stroke="#333" stroke-width="1"/>
<polygon points="170.00,319.28 150.00,353.92 115.36,333.92 135.36,299.28" fill="#e8c268" stroke="#333" stroke-width="1"/>
<polygon points="164.64,448.56 144.64,483.21 110.00,463.21 130.00,428.56" fill="#e8c268" stroke="#333" stroke-width="1"/>
<polygon points="290.00,130.00 270.00,164.64 235.36,144.64 255.36,110.00" fill="#e8c268" stroke="#333" stroke-width="1"/>
<polygon points="284.64,259.28 264.64,293.92 230.00,273.92 250.00,239.28" fill="#e8c268" stroke="#333" stroke-width="1"/>
<polygon points="279.28,388.56 259.28,423.21 224.64,403.21 244.64,368.56" fill="#e8c268" stroke="#333" stroke-width="1"/>
<polygon points="404.64,70.00 384.64,104.64 350.00,84.64 370.00,50.00" fill="#e8c268" stroke="#333" stroke-width="1"/>
<polygon points="399.28,199.28 379.28,233.92 344.64,213.92 364.64,179.28" fill="#e8c268" stroke="#333" stroke-width="1"/>
<polygon points="393.92,328.56 373.92,363.21 339.28,343.21 359.28,308.56" fill="#e8c268" stroke="#333" stroke-width="1"/>
<polygon points="80.72,353.92 115.36,333.92 95.36,368.56 130.00,388.56 90.00,388.56 90.00,428.56 70.00,393.92 35.36,413.92 55.36,379.28 20.72,359.28 60.72,359.28 60.72,319.28" fill="#98c8b0" stroke="#333" stroke-width="1"/>
<polygon points="75.36,483.21 110.00,463.21 90.00,497.85 124.64,517.85 84.64,517.85 84.64,557.85 64.64,523.21 30.00,543.21 50.00,508.56 15.36,488.56 55.36,488.56 55.36,448.56" fill="#98c8b0" stroke="#333" stroke-width="1"/>
<polygon points="70.00,612.49 104.64,592.49 84.64,627.13 119.28,647.13 79.28,647.13 79.28,687.13 59.28,652.49 24.64,672.49 44.64,637.85 10.00,617.85 50.00,617.85 50.00,577.85" fill="#98c8b0" stroke="#333" stroke-width="1"/>
<polygon points="195.36,293.92 230.00,273.92 210.00,308.56 244.64,328.56 204.64,328.56 204.64,368.56 184.64,333.92 150.00,353.92 170.00,319.28 135.36,299.28 175.36,299.28 175.36,259.28" fill="#98c8b0" stroke="#333" stroke-width="1"/>
<polygon points="190.00,423.21 224.64,403.21 204.64,437.85 239.28,457.85 199.28,457.85 199.28,497.85 179.28,463.21 144.64,483.21 164.64,448.56 130.00,428.56 170.00,428.56 170.00,388.56" fill="#98c8b0" stroke="#333" stroke-width="1"/>
<polygon points="184.64,552.49 219.28,532.49 199.28,567.13 233.92,587.13 193.92,587.13 193.92,627.13 173.92,592.49 139.28,612.49 159.28,577.85 124.64,557.85 164.64,557.85 164.64,517.85" fill="#98c8b0" stroke="#333" stroke-width="1"/>
<polygon points="310.00,233.92 344.64,213.92 324.64,248.56 359.28,268.56 319.28,268.56 319.28,308.56 299.28,273.92 264.64,293.92 284.64,259.28 250.00,239.28 290.00,239.28 290.00,199.28" fill="#98c8b0" stroke="#333" stroke-width="1"/>
<polygon points="304.64,363.21 339.28,343.21 319.28,377.85 353.92,397.85 313.92,397.85 313.92,437.85 293.92,403.21 259.28,423.21 279.28,388.56 244.64,368.56 284.64,368.56 284.64,328.56" fill="#98c8b0" stroke="#333" stroke-width="1"/>
<polygon points="299.28,492.49 333.92,472.49 313.92,507.13 348.56,527.13 308.56,527.13 308.56,567.13 288.56,532.49 253.92,552.49 273.92,517.85 239.28,497.85 279.28,497.85 279.28,457.85" fill="#98c8b0" stroke="#333" stroke-width="1"/>
<text x="10" y="709" font-family="monospace" font-size="12">(6*d18,4)F, (6*p2,4,4,3,4)F</text>
</svg>
