<svg xmlns="http://www.w3.org/2000/svg" width="638" height="694">
<rect width="100%" height="100%" fill="white"/>
<polygon points="121.92,222.96 161.92,222.96 141.92,257.60" fill="#88b0d8" stroke="#333" stroke-width="1"/>
<polygon points="253.83,187.61 293.83,187.61 273.83,222.26" fill="#88b0d8" stroke="#333" stroke-width="1"/>
<polygon points="385.75,152.27 425.75,152.27 405.75,186.91" fill="#88b0d8" stroke="#333" stroke-width="1"/>
<polygon points="157.26,354.88 197.26,354.88 177.26,389.52" fill="#88b0d8" stroke="#333" stroke-width="1"/>
<polygon points="289.18,319.53 329.18,319.53 309.18,354.17" fill="#88b0d8" stroke="#333" stroke-width="1"/>
<polygon points="421.09,284.18 461.09,284.18 441.09,318.82" fill="#88b0d8" stroke="#333" stroke-width="1"/>
<polygon points="192.61,486.79 232.61,486.79 212.61,521.43" fill="#88b0d8" stroke="#333" stroke-width="1"/>
<polygon points="324.52,451.44 364.52,451.44 344.52,486.09" fill="#88b0d8" stroke="#333" stroke-width="1"/>
<polygon points="456.44,416.10 496.44,416.10 476.44,450.74" fill="#88b0d8" stroke="#333" stroke-width="1"/>
<polygon points="161.92,222.96 121.92,222.96 141.92,257.60 113.63,229.32 103.28,267.95 103.28,227.95 68.64,247.95 96.92,219.67 58.28,209.32 98.28,209.32 78.28,174.68 106.57,202.96 116.92,164.32 116.92,204.32 151.56,184.32 123.28,212.61" fill="#a8c0d8" stroke="#333" stroke-width="1"/>
<polygon points="293.83,187.61 253.83,187.61 273.83,222.26 245.55,193.97 235.19,232.61 235.19,192.61 200.55,212.61 228.84,184.32 190.20,173.97 230.20,173.97 210.20,139.33 238.48,167.61 248.84,128.98 248.84,168.98 283.48,148.98 255.19,177.26" fill="#a8c0d8" stroke="#333" stroke-width="1"/>
<polygon points="425.75,152.27 385.75,152.27 405.75,186.91 377.46,158.62 367.11,197.26 367.11,157.26 332.47,177.26 360.75,148.98 322.11,138.62 362.11,138.62 342.11,103.98 370.40,132.27 380.75,93.63 380.75,133.63 415.39,113.63 387.11,141.92" fill="#a8c0d8" stroke="#333" stroke-width="1"/>
<polygon points="197.26,354.88 157.26,354.88 177.26,389.52 148.98,361.23 138.62,399.87 138.62,359.87 103.98,379.87 132.27,351.59 93.63,341.23 133.63,341.23 113.63,306.59 141.92,334.88 152.27,296.24 152.27,336.24 186.91,316.24 158.62,344.52" fill="#a8c0d8" stroke="#333" stroke-width="1"/>
<polygon points="329.18,319.53 289.18,319.53 309.18,354.17 280.89,325.89 270.54,364.52 270.54,324.52 235.90,344.52 264.18,316.24 225.55,305.89 265.55,305.89 245.55,271.25 273.83,299.53 284.18,260.89 284.18,300.89 318.82,280.89 290.54,309.18" fill="#a8c0d8" stroke="#333" stroke-width="1"/>
<polygon points="461.09,284.18 421.09,284.18 441.09,318.82 412.81,290.54 402.45,329.18 402.45,289.18 367.81,309.18 396.10,280.89 357.46,270.54 397.46,270.54 377.46,235.90 405.75,264.18 416.10,225.55 416.10,265.55 450.74,245.55 422.45,273.83" fill="#a8c0d8" stroke="#333" stroke-width="1"/>
<polygon points="232.61,486.79 192.61,486.79 212.61,521.43 184.32,493.15 173.97,531.78 173.97,491.78 139.33,511.78 167.61,483.50 128.98,473.15 168.98,473.15 148.98,438.51 177.26,466.79 187.61,428.15 187.61,468.15 222.26,448.15 193.97,476.44" fill="#a8c0d8" stroke="#333" stroke-width="1"/>
<polygon points="364.52,451.44 324.52,451.44 344.52,486.09 316.24,457.80 305.89,496.44 305.89,456.44 271.25,476.44 299.53,448.15 260.89,437.80 300.89,437.80 280.89,403.16 309.18,431.44 319.53,392.81 319.53,432.81 354.17,412.81 325.89,441.09" fill="#a8c0d8" stroke="#333" stroke-width="1"/>
<polygon points="496.44,416.10 456.44,416.10 476.44,450.74 448.15,422.45 437.80,461.09 437.80,421.09 403.16,441.09 431.44,412.81 392.81,402.45 432.81,402.45 412.81,367.81 441.09,396.10 451.44,357.46 451.44,397.46 486.09,377.46 457.80,405.75" fill="#a8c0d8" stroke="#333" stroke-width="1"/>
<polygon points="141.92,257.60 161.92,222.96 200.55,212.61 235.19,232.61 245.55,271.25 225.55,305.89 186.91,316.24 152.27,296.24" fill="#d89898" stroke="#333" stroke-width="1"/>
<polygon points="273.83,222.26 293.83,187.61 332.47,177.26 367.11,197.26 377.46,235.90 357.46,270.54 318.82,280.89 284.18,260.89" fill="#d89898" stroke="#333" stroke-width="1"/>
<polygon points="405.75,186.91 425.75,152.27 464.38,141.92 499.02,161.92 509.38,200.55 489.38,235.19 450.74,245.55 416.10,225.55" fill="#d89898" stroke="#333" stroke-width="1"/>
<polygon points="177.26,389.52 197.26,354.88 235.90,344.52 270.54,364.52 280.89,403.16 260.89,437.80 222.26,448.15 187.61,428.15" fill="#d89898" stroke="#333" stroke-width="1"/>
<polygon points="309.18,354.17 329.18,319.53 367.81,309.18 402.45,329.18 412.81,367.81 392.81,402.45 354.17,412.81 319.53,392.81" fill="#d89898" stroke="#333" stroke-width="1"/>
<polygon points="441.09,318.82 461.09,284.18 499.73,273.83 534.37,293.83 544.72,332.47 524.72,367.11 486.09,377.46 451.44,357.46" fill="#d89898" stroke="#333" stroke-width="1"/>
<polygon points="212.61,521.43 232.61,486.79 271.25,476.44 305.89,496.44 316.24,535.08 296.24,569.72 257.60,580.07 222.96,560.07" fill="#d89898" stroke="#333" stroke-width="1"/>
<polygon points="344.52,486.09 364.52,451.44 403.16,441.09 437.80,461.09 448.15,499.73 428.15,534.37 389.52,544.72 354.88,524.72" fill="#d89898" stroke="#333" stroke-width="1"/>
<polygon points="476.44,450.74 496.44,416.10 535.08,405.75 569.72,425.75 580.07,464.38 560.07,499.02 521.43,509.38 486.79,489.38" fill="#d89898" stroke="#333" stroke-width="1"/>
<polygon points="200.55,212.61 161.92,222.96 151.56,184.32 190.20,173.97" fill="#e8c268" stroke="#333" stroke-width="1"/>
<polygon points="332.47,177.26 293.83,187.61 283.48,148.98 322.11,138.62" fill="#e8c268" stroke="#333" stroke-width="1"/>
<polygon points="464.38,141.92 425.75,152.27 415.39,113.63 454.03,103.28" fill="#e8c268" stroke="#333" stroke-width="1"/>
<polygon points="235.90,344.52 197.26,354.88 186.91,316.24 225.55,305.89" fill="#e8c268" stroke="#333" stroke-width="1"/>
<polygon points="367.81,309.18 329.18,319.53 318.82,280.89 357.46,270.54" fill="#e8c268" stroke="#333" stroke-width="1"/>
<polygon points="499.73,273.83 461.09,284.18 450.74,245.55 489.38,235.19" fill="#e8c268" stroke="#333" stroke-width="1"/>
<polygon points="271.25,476.44 232.61,486.79 222.26,448.15 260.89,437.80" fill="#e8c268" stroke="#333" stroke-width="1"/>
<polygon points="403.16,441.09 364.52,451.44 354.17,412.81 392.81,402.45" fill="#e8c268" stroke="#333" stroke-width="1"/>
<polygon points="535.08,405.75 496.44,416.10 486.09,377.46 524.72,367.11" fill="#e8c268" stroke="#333" stroke-width="1"/>
<polygon points="151.56,184.32 161.92,222.96 123.28,212.61" fill="#88b0d8" stroke="#333" stroke-width="1"/>
<polygon points="283.48,148.98 293.83,187.61 255.19,177.26" fill="#88b0d8" stroke="#333" stroke-width="1"/>
<polygon points="415.39,113.63 425.75,152.27 387.11,141.92" fill="#88b0d8" stroke="#333" stroke-width="1"/>
<polygon points="186.91,316.24 197.26,354.88 158.62,344.52" fill="#88b0d8" stroke="#333" stroke-width="1"/>
<polygon points="318.82,280.89 329.18,319.53 290.54,309.18" fill="#88b0d8" stroke="#333" stroke-width="1"/>
<polygon points="450.74,245.55 461.09,284.18 422.45,273.83" fill="#88b0d8" stroke="#333" stroke-width="1"/>
<polygon points="222.26,448.15 232.61,486.79 193.97,476.44" fill="#88b0d8" stroke="#333" stroke-width="1"/>
<polygon points="354.17,412.81 364.52,451.44 325.89,441.09" fill="#88b0d8" stroke="#333" stroke-width="1"/>
<polygon points="486.09,377.46 496.44,416.10 457.80,405.75" fill="#88b0d8" stroke="#333" stroke-width="1"/>
<polygon points="113.63,229.32 141.92,257.60 103.28,267.95" fill="#88b0d8" stroke="#333" stroke-width="1"/>
<polygon points="245.55,193.97 273.83,222.26 235.19,232.61" fill="#88b0d8" stroke="#333" stroke-width="1"/>
<polygon points="377.46,158.62 405.75,186.91 367.11,197.26" fill="#88b0d8" stroke="#333" stroke-width="1"/>
<polygon points="148.98,361.23 177.26,389.52 138.62,399.87" fill="#88b0d8" stroke="#333" stroke-width="1"/>
<polygon points="280.89,325.89 309.18,354.17 270.54,364.52" fill="#88b0d8" stroke="#333" stroke-width="1"/>
<polygon points="412.81,290.54 441.09,318.82 402.45,329.18" fill="#88b0d8" stroke="#333" stroke-width="1"/>
<polygon points="184.32,493.15 212.61,521.43 173.97,531.78" fill="#88b0d8" stroke="#333" stroke-width="1"/>
<polygon points="316.24,457.80 344.52,486.09 305.89,496.44" fill="#88b0d8" stroke="#333" stroke-width="1"/>
<polygon points="448.15,422.45 476.44,450.74 437.80,461.09" fill="#88b0d8" stroke="#333" stroke-width="1"/>
<polygon points="103.28,267.95 141.92,257.60 152.27,296.24 113.63,306.59" fill="#e8c268" stroke="#333" stroke-width="1"/>
<polygon points="235.19,232.61 273.83,222.26 284.18,260.89 245.55,271.25" fill="#e8c268" stroke="#333" stroke-width="1"/>
<polygon points="367.11,197.26 405.75,186.91 416.10,225.55 377.46,235.90" fill="#e8c268" stroke="#333" stroke-width="1"/>
<polygon points="138.62,399.87 177.26,389.52 187.61,428.15 148.98,438.51" fill="#e8c268" stroke="#333" stroke-width="1"/>
<polygon points="270.54,364.52 309.18,354.17 319.53,392.81 280.89,403.16" fill="#e8c268" stroke="#333" stroke-width="1"/>
<polygon points="402.45,329.18 441.09,318.82 451.44,357.46 412.81,367.81" fill="#e8c268" stroke="#333" stroke-width="1"/>
<polygon points="173.97,531.78 212.61,521.43 222.96,560.07 184.32,570.42" fill="#e8c268" stroke="#333" stroke-width="1"/>
<polygon points="305.89,496.44 344.52,486.09 354.88,524.72 316.24,535.08" fill="#e8c268" stroke="#333" stroke-width="1"/>
<polygon points="437.80,461.09 476.44,450.74 486.79,489.38 448.15,499.73" fill="#e8c268" stroke="#333" stroke-width="1"/>
<polygon points="235.19,232.61 200.55,212.61 235.19,192.61" fill="#88b0d8" stroke="#333" stroke-width="1"/>
<polygon points="367.11,197.26 332.47,177.26 367.11,157.26" fill="#88b0d8" stroke="#333" stroke-width="1"/>
<polygon points="499.02,161.92 464.38,141.92 499.02,121.92" fill="#88b0d8" stroke="#333" stroke-width="1"/>
<polygon points="270.54,364.52 235.90,344.52 270.54,324.52" fill="#88b0d8" stroke="#333" stroke-width="1"/>
<polygon points="402.45,329.18 367.81,309.18 402.45,289.18" fill="#88b0d8" stroke="#333" stroke-width="1"/>
<polygon points="534.37,293.83 499.73,273.83 534.37,253.83" fill="#88b0d8" stroke="#333" stroke-width="1"/>
<polygon points="305.89,496.44 271.25,476.44 305.89,456.44" fill="#88b0d8" stroke="#333" stroke-width="1"/>
<polygon points="437.80,461.09 403.16,441.09 437.80,421.09" fill="#88b0d8" stroke="#333" stroke-width="1"/>
<polygon points="569.72,425.75 535.08,405.75 569.72,385.75" fill="#88b0d8" stroke="#333" stroke-width="1"/>
<polygon points="235.19,192.61 200.55,212.61 228.84,184.32 190.20,173.97 230.20,173.97 210.20,139.33 238.48,167.61 248.84,128.98 248.84,168.98 283.48,148.98 255.19,177.26 293.83,187.61 253.83,187.61 273.83,222.26 245.55,193.97 235.19,232.61" fill="#a8c0d8" stroke="#333" stroke-width="1"/>
<polygon points="367.11,157.26 332.47,177.26 360.75,148.98 322.11,138.62 362.11,138.62 342.11,103.98 370.40,132.27 380.75,93.63 380.75,133.63 415.39,113.63 387.11,141.92 425.75,152.27 385.75,152.27 405.75,186.91 377.46,158.62 367.11,197.26" fill="#a8c0d8" stroke="#333" stroke-width="1"/>
<polygon points="499.02,121.92 464.38,141.92 492.67,113.63 454.03,103.28 494.03,103.28 474.03,68.64 502.31,96.92 512.67,58.28 512.67,98.28 547.31,78.28 519.02,106.57 557.66,116.92 517.66,116.92 537.66,151.56 509.38,123.28 499.02,161.92" fill="#a8c0d8" stroke="#333" stroke-width="1"/>
<polygon points="270.54,324.52 235.90,344.52 264.18,316.24 225.55,305.89 265.55,305.89 245.55,271.25 273.83,299.53 284.18,260.89 284.18,300.89 318.82,280.89 290.54,309.18 329.18,319.53 289.18,319.53 309.18,354.17 280.89,325.89 270.54,364.52" fill="#a8c0d8" stroke="#333" stroke-width="1"/>
<polygon points="402.45,289.18 367.81,309.18 396.10,280.89 357.46,270.54 397.46,270.54 377.46,235.90 405.75,264.18 416.10,225.55 416.10,265.55 450.74,245.55 422.45,273.83 461.09,284.18 421.09,284.18 441.09,318.82 412.81,290.54 402.45,329.18" fill="#a8c0d8" stroke="#333" stroke-width="1"/>
<polygon points="534.37,253.83 499.73,273.83 528.01,245.55 489.38,235.19 529.38,235.19 509.38,200.55 537.66,228.84 548.01,190.20 548.01,230.20 582.65,210.20 554.37,238.48 593.01,248.84 553.01,248.84 573.01,283.48 544.72,255.19 534.37,293.83" fill="#a8c0d8" stroke="#333" stroke-width="1"/>
<polygon points="305.89,456.44 271.25,476.44 299.53,448.15 260.89,437.80 300.89,437.80 280.89,403.16 309.18,431.44 319.53,392.81 319.53,432.81 354.17,412.81 325.89,441.09 364.52,451.44 324.52,451.44 344.52,486.09 316.24,457.80 305.89,496.44" fill="#a8c0d8" stroke="#333" stroke-width="1"/>
<polygon points="437.80,421.09 403.16,441.09 431.44,412.81 392.81,402.45 432.81,402.45 412.81,367.81 441.09,396.10 451.44,357.46 451.44,397.46 486.09,377.46 457.80,405.75 496.44,416.10 456.44,416.10 476.44,450.74 448.15,422.45 437.80,461.09" fill="#a8c0d8" stroke="#333" stroke-width="1"/>
<polygon points="569.72,385.75 535.08,405.75 563.36,377.46 524.72,367.11 564.72,367.11 544.72,332.47 573.01,360.75 583.36,322.11 583.36,362.11 618.00,342.11 589.72,370.40 628.35,380.75 588.35,380.75 608.35,415.39 580.07,387.11 569.72,425.75" fill="#a8c0d8" stroke="#333" stroke-width="1"/>
<polygon points="228.84,184.32 200.55,212.61 190.20,173.97" fill="#88b0d8" stroke="#333" stroke-width="1"/>
<polygon points="360.75,148.98 332.47,177.26 322.11,138.62" fill="#88b0d8" stroke="#333" stroke-width="1"/>
<polygon points="492.67,113.63 464.38,141.92 454.03,103.28" fill="#88b0d8" stroke="#333" stroke-width="1"/>
<polygon points="264.18,316.24 235.90,344.52 225.55,305.89" fill="#88b0d8" stroke="#333" stroke-width="1"/>
<polygon points="396.10,280.89 367.81,309.18 357.46,270.54" fill="#88b0d8" stroke="#333" stroke-width="1"/>
<polygon points="528.01,245.55 499.73,273.83 489.38,235.19" fill="#88b0d8" stroke="#333" stroke-width="1"/>
<polygon points="299.53,448.15 271.25,476.44 260.89,437.80" fill="#88b0d8" stroke="#333" stroke-width="1"/>
<polygon points="431.44,412.81 403.16,441.09 392.81,402.45" fill="#88b0d8" stroke="#333" stroke-width="1"/>
<polygon points="563.36,377.46 535.08,405.75 524.72,367.11" fill="#88b0d8" stroke="#333" stroke-width="1"/>
<polygon points="190.20,173.97 151.56,184.32 116.92,164.32 106.57,125.69 126.57,91.05 165.21,80.69 199.85,100.69 210.20,139.33" fill="#d89898" stroke="#333" stroke-width="1"/>
<polygon points="322.11,138.62 283.48,148.98 248.84,128.98 238.48,90.34 258.48,55.70 297.12,45.35 331.76,65.35 342.11,103.98" fill="#d89898" stroke="#333" stroke-width="1"/>
<polygon points="454.03,103.28 415.39,113.63 380.75,93.63 370.40,54.99 390.40,20.35 429.04,10.00 463.68,30.00 474.03,68.64" fill="#d89898" stroke="#333" stroke-width="1"/>
<polygon points="225.55,305.89 186.91,316.24 152.27,296.24 141.92,257.60 161.92,222.96 200.55,212.61 235.19,232.61 245.55,271.25" fill="#d89898" stroke="#333" stroke-width="1"/>
<polygon points="357.46,270.54 318.82,280.89 284.18,260.89 273.83,222.26 293.83,187.61 332.47,177.26 367.11,197.26 377.46,235.90" fill="#d89898" stroke="#333" stroke-width="1"/>
<polygon points="489.38,235.19 450.74,245.55 416.10,225.55 405.75,186.91 425.75,152.27 464.38,141.92 499.02,161.92 509.38,200.55" fill="#d89898" stroke="#333" stroke-width="1"/>
<polygon points="260.89,437.80 222.26,448.15 187.61,428.15 177.26,389.52 197.26,354.88 235.90,344.52 270.54,364.52 280.89,403.16" fill="#d89898" stroke="#333" stroke-width="1"/>
<polygon points="392.81,402.45 354.17,412.81 319.53,392.81 309.18,354.17 329.18,319.53 367.81,309.18 402.45,329.18 412.81,367.81" fill="#d89898" stroke="#333" stroke-width="1"/>
<polygon points="524.72,367.11 486.09,377.46 451.44,357.46 441.09,318.82 461.09,284.18 499.73,273.83 534.37,293.83 544.72,332.47" fill="#d89898" stroke="#333" stroke-width="1"/>
<polygon points="116.92,164.32 151.56,184.32 116.92,204.32" fill="#88b0d8" stroke="#333" stroke-width="1"/>
<polygon points="248.84,128.98 283.48,148.98 248.84,168.98" fill="#88b0d8" stroke="#333" stroke-width="1"/>
<polygon points="380.75,93.63 415.39,113.63 380.75,133.63" fill="#88b0d8" stroke="#333" stroke-width="1"/>
<polygon points="152.27,296.24 186.91,316.24 152.27,336.24" fill="#88b0d8" stroke="#333" stroke-width="1"/>
<polygon points="284.18,260.89 318.82,280.89 284.18,300.89" fill="#88b0d8" stroke="#333" stroke-width="1"/>
<polygon points="416.10,225.55 450.74,245.55 416.10,265.55" fill="#88b0d8" stroke="#333" stroke-width="1"/>
<polygon points="187.61,428.15 222.26,448.15 187.61,468.15" fill="#88b0d8" stroke="#333" stroke-width="1"/>
<polygon points="319.53,392.81 354.17,412.81 319.53,432.81" fill="#88b0d8" stroke="#333" stroke-width="1"/>
<polygon points="451.44,357.46 486.09,377.46 451.44,397.46" fill="#88b0d8" stroke="#333" stroke-width="1"/>
<polygon points="103.28,227.95 103.28,267.95 68.64,247.95" fill="#88b0d8" stroke="#333" stroke-width="1"/>
<polygon points="235.19,192.61 235.19,232.61 200.55,212.61" fill="#88b0d8" stroke="#333" stroke-width="1"/>
<polygon points="367.11,157.26 367.11,197.26 332.47,177.26" fill="#88b0d8" stroke="#333" stroke-width="1"/>
<polygon points="138.62,359.87 138.62,399.87 103.98,379.87" fill="#88b0d8" stroke="#333" stroke-width="1"/>
<polygon points="270.54,324.52 270.54,364.52 235.90,344.52" fill="#88b0d8" stroke="#333" stroke-width="1"/>
<polygon points="402.45,289.18 402.45,329.18 367.81,309.18" fill="#88b0d8" stroke="#333" stroke-width="1"/>
<polygon points="173.97,491.78 173.97,531.78 139.33,511.78" fill="#88b0d8" stroke="#333" stroke-width="1"/>
<polygon points="305.89,456.44 305.89,496.44 271.25,476.44" fill="#88b0d8" stroke="#333" stroke-width="1"/>
<polygon points="437.80,421.09 437.80,461.09 403.16,441.09" fill="#88b0d8" stroke="#333" stroke-width="1"/>
<polygon points="103.28,267.95 113.63,306.59 93.63,341.23 54.99,351.59 20.35,331.59 10.00,292.95 30.00,258.31 68.64,247.95" fill="#d89898" stroke="#333" stroke-width="1"/>
<polygon points="235.19,232.61 245.55,271.25 225.55,305.89 186.91,316.24 152.27,296.24 141.92,257.60 161.92,222.96 200.55,212.61" fill="#d89898" stroke="#333" stroke-width="1"/>
<polygon points="367.11,197.26 377.46,235.90 357.46,270.54 318.82,280.89 284.18,260.89 273.83,222.26 293.83,187.61 332.47,177.26" fill="#d89898" stroke="#333" stroke-width="1"/>
<polygon points="138.62,399.87 148.98,438.51 128.98,473.15 90.34,483.50 55.70,463.50 45.35,424.86 65.35,390.22 103.98,379.87" fill="#d89898" stroke="#333" stroke-width="1"/>
<polygon points="270.54,364.52 280.89,403.16 260.89,437.80 222.26,448.15 187.61,428.15 177.26,389.52 197.26,354.88 235.90,344.52" fill="#d89898" stroke="#333" stroke-width="1"/>
<polygon points="402.45,329.18 412.81,367.81 392.81,402.45 354.17,412.81 319.53,392.81 309.18,354.17 329.18,319.53 367.81,309.18" fill="#d89898" stroke="#333" stroke-width="1"/>
<polygon points="173.97,531.78 184.32,570.42 164.32,605.06 125.69,615.42 91.05,595.42 80.69,556.78 100.69,522.14 139.33,511.78" fill="#d89898" stroke="#333" stroke-width="1"/>
<polygon points="305.89,496.44 316.24,535.08 296.24,569.72 257.60,580.07 222.96,560.07 212.61,521.43 232.61,486.79 271.25,476.44" fill="#d89898" stroke="#333" stroke-width="1"/>
<polygon points="437.80,461.09 448.15,499.73 428.15,534.37 389.52,544.72 354.88,524.72 344.52,486.09 364.52,451.44 403.16,441.09" fill="#d89898" stroke="#333" stroke-width="1"/>
<polygon points="113.63,306.59 152.27,296.24 141.92,334.88" fill="#88b0d8" stroke="#333" stroke-width="1"/>
<polygon points="245.55,271.25 284.18,260.89 273.83,299.53" fill="#88b0d8" stroke="#333" stroke-width="1"/>
<polygon points="377.46,235.90 416.10,225.55 405.75,264.18" fill="#88b0d8" stroke="#333" stroke-width="1"/>
<polygon points="148.98,438.51 187.61,428.15 177.26,466.79" fill="#88b0d8" stroke="#333" stroke-width="1"/>
<polygon points="280.89,403.16 319.53,392.81 309.18,431.44" fill="#88b0d8" stroke="#333" stroke-width="1"/>
<polygon points="412.81,367.81 451.44,357.46 441.09,396.10" fill="#88b0d8" stroke="#333" stroke-width="1"/>
<polygon points="184.32,570.42 222.96,560.07 212.61,598.71" fill="#88b0d8" stroke="#333" stroke-width="1"/>
<polygon points="316.24,535.08 354.88,524.72 344.52,563.36" fill="#88b0d8" stroke="#333" stroke-width="1"/>
<polygon points="448.15,499.73 486.79,489.38 476.44,528.01" fill="#88b0d8" stroke="#333" stroke-width="1"/>
<polygon points="141.92,334.88 152.27,296.24 152.27,336.24 186.91,316.24 158.62,344.52 197.26,354.88 157.26,354.88 177.26,389.52 148.98,361.23 138.62,399.87 138.62,359.87 103.98,379.87 132.27,351.59 93.63,341.23 133.63,341.23 113.63,306.59" fill="#a8c0d8" stroke="#333" stroke-width="1"/>
<polygon points="273.83,299.53 284.18,260.89 284.18,300.89 318.82,280.89 290.54,309.18 329.18,319.53 289.18,319.53 309.18,354.17 280.89,325.89 270.54,364.52 270.54,324.52 235.90,344.52 264.18,316.24 225.55,305.89 265.55,305.89 245.55,271.25" fill="#a8c0d8" stroke="#333" stroke-width="1"/>
<polygon points="405.75,264.18 416.10,225.55 416.10,265.55 450.74,245.55 422.45,273.83 461.09,284.18 421.09,284.18 441.09,318.82 412.81,290.54 402.45,329.18 402.45,289.18 367.81,309.18 396.10,280.89 357.46,270.54 397.46,270.54 377.46,235.90" fill="#a8c0d8" stroke="#333" stroke-width="1"/>
<polygon points="177.26,466.79 187.61,428.15 187.61,468.15 222.26,448.15 193.97,476.44 232.61,486.79 192.61,486.79 212.61,521.43 184.32,493.15 173.97,531.78 173.97,491.78 139.33,511.78 167.61,483.50 128.98,473.15 168.98,473.15 148.98,438.51" fill="#a8c0d8" stroke="#333" stroke-width="1"/>
<polygon points="309.18,431.44 319.53,392.81 319.53,432.81 354.17,412.81 325.89,441.09 364.52,451.44 324.52,451.44 344.52,486.09 316.24,457.80 305.89,496.44 305.89,456.44 271.25,476.44 299.53,448.15 260.89,437.80 300.89,437.80 280.89,403.16" fill="#a8c0d8" stroke="#333" stroke-width="1"/>
<polygon points="441.09,396.10 451.44,357.46 451.44,397.46 486.09,377.46 457.80,405.75 496.44,416.10 456.44,416.10 476.44,450.74 448.15,422.45 437.80,461.09 437.80,421.09 403.16,441.09 431.44,412.81 392.81,402.45 432.81,402.45 412.81,367.81" fill="#a8c0d8" stroke="#333" stroke-width="1"/>
<polygon points="212.61,598.71 222.96,560.07 222.96,600.07 257.60,580.07 229.32,608.35 267.95,618.71 227.95,618.71 247.95,653.35 219.67,625.06 209.32,663.70 209.32,623.70 174.68,643.70 202.96,615.42 164.32,605.06 204.32,605.06 184.32,570.42" fill="#a8c0d8" stroke="#333" stroke-width="1"/>
<polygon points="344.52,563.36 354.88,524.72 354.88,564.72 389.52,544.72 361.23,573.01 399.87,583.36 359.87,583.36 379.87,618.00 351.59,589.72 341.23,628.35 341.23,588.35 306.59,608.35 334.88,580.07 296.24,569.72 336.24,569.72 316.24,535.08" fill="#a8c0d8" stroke="#333" stroke-width="1"/>
<polygon points="476.44,528.01 486.79,489.38 486.79,529.38 521.43,509.38 493.15,537.66 531.78,548.01 491.78,548.01 511.78,582.65 483.50,554.37 473.15,593.01 473.15,553.01 438.51,573.01 466.79,544.72 428.15,534.37 468.15,534.37 448.15,499.73" fill="#a8c0d8" stroke="#333" stroke-width="1"/>
<polygon points="152.27,336.24 152.27,296.24 186.91,316.24" fill="#88b0d8" stroke="#333" stroke-width="1"/>
<polygon points="284.18,300.89 284.18,260.89 318.82,280.89" fill="#88b0d8" stroke="#333" stroke-width="1"/>
<polygon points="416.10,265.55 416.10,225.55 450.74,245.55" fill="#88b0d8" stroke="#333" stroke-width="1"/>
<polygon points="187.61,468.15 187.61,428.15 222.26,448.15" fill="#88b0d8" stroke="#333" stroke-width="1"/>
<polygon points="319.53,432.81 319.53,392.81 354.17,412.81" fill="#88b0d8" stroke="#333" stroke-width="1"/>
<polygon points="451.44,397.46 451.44,357.46 486.09,377.46" fill="#88b0d8" stroke="#333" stroke-width="1"/>
<polygon points="222.96,600.07 222.96,560.07 257.60,580.07" fill="#88b0d8" stroke="#333" stroke-width="1"/>
<polygon points="354.88,564.72 354.88,524.72 389.52,544.72" fill="#88b0d8" stroke="#333" stroke-width="1"/>
<polygon points="486.79,529.38 486.79,489.38 521.43,509.38" fill="#88b0d8" stroke="#333" stroke-width="1"/>
<polygon points="230.20,173.97 190.20,173.97 210.20,139.33" fill="#88b0d8" stroke="#333" stroke-width="1"/>
<polygon points="362.11,138.62 322.11,138.62 342.11,103.98" fill="#88b0d8" stroke="#333" stroke-width="1"/>
<polygon points="494.03,103.28 454.03,103.28 474.03,68.64" fill="#88b0d8" stroke="#333" stroke-width="1"/>
<polygon points="265.55,305.89 225.55,305.89 245.55,271.25" fill="#88b0d8" stroke="#333" stroke-width="1"/>
<polygon points="397.46,270.54 357.46,270.54 377.46,235.90" fill="#88b0d8" stroke="#333" stroke-width="1"/>
<polygon points="529.38,235.19 489.38,235.19 509.38,200.55" fill="#88b0d8" stroke="#333" stroke-width="1"/>
<polygon points="300.89,437.80 260.89,437.80 280.89,403.16" fill="#88b0d8" stroke="#333" stroke-width="1"/>
<polygon points="432.81,402.45 392.81,402.45 412.81,367.81" fill="#88b0d8" stroke="#333" stroke-width="1"/>
<polygon points="564.72,367.11 524.72,367.11 544.72,332.47" fill="#88b0d8" stroke="#333" stroke-width="1"/>
<polygon points="113.63,306.59 133.63,341.23 93.63,341.23" fill="#88b0d8" stroke="#333" stroke-width="1"/>
<polygon points="245.55,271.25 265.55,305.89 225.55,305.89" fill="#88b0d8" stroke="#333" stroke-width="1"/>
<polygon points="377.46,235.90 397.46,270.54 357.46,270.54" fill="#88b0d8" stroke="#333" stroke-width="1"/>
<polygon points="148.98,438.51 168.98,473.15 128.98,473.15" fill="#88b0d8" stroke="#333" stroke-width="1"/>
<polygon points="280.89,403.16 300.89,437.80 260.89,437.80" fill="#88b0d8" stroke="#333" stroke-width="1"/>
<polygon points="412.81,367.81 432.81,402.45 392.81,402.45" fill="#88b0d8" stroke="#333" stroke-width="1"/>
<polygon points="184.32,570.42 204.32,605.06 164.32,605.06" fill="#88b0d8" stroke="#333" stroke-width="1"/>
<polygon points="316.24,535.08 336.24,569.72 296.24,569.72" fill="#88b0d8" stroke="#333" stroke-width="1"/>
<polygon points="448.15,499.73 468.15,534.37 428.15,534.37" fill="#88b0d8" stroke="#333" stroke-width="1"/>
<text x="10" y="686" font-family="monospace" font-size="12">(8*d20,3)A, (8*p1,3,8,4,3)F, (8*d20,3)A</text>
</svg>
