<svg xmlns="http://www.w3.org/2000/svg" width="519" height="558">
<rect width="100%" height="100%" fill="white"/>
<polygon points="170.20,152.27 210.20,152.27 190.20,186.91" fill="#88b0d8" stroke="#333" stroke-width="1"/>
<polygon points="121.92,235.90 161.92,235.90 141.92,270.54" fill="#88b0d8" stroke="#333" stroke-width="1"/>
<polygon points="73.63,319.53 113.63,319.53 93.63,354.17" fill="#88b0d8" stroke="#333" stroke-width="1"/>
<polygon points="253.83,200.55 293.83,200.55 273.83,235.19" fill="#88b0d8" stroke="#333" stroke-width="1"/>
<polygon points="205.55,284.18 245.55,284.18 225.55,318.82" fill="#88b0d8" stroke="#333" stroke-width="1"/>
<polygon points="157.26,367.81 197.26,367.81 177.26,402.45" fill="#88b0d8" stroke="#333" stroke-width="1"/>
<polygon points="337.46,248.84 377.46,248.84 357.46,283.48" fill="#88b0d8" stroke="#333" stroke-width="1"/>
<polygon points="289.18,332.47 329.18,332.47 309.18,367.11" fill="#88b0d8" stroke="#333" stroke-width="1"/>
<polygon points="240.89,416.10 280.89,416.10 260.89,450.74" fill="#88b0d8" stroke="#333" stroke-width="1"/>
<polygon points="210.20,152.27 170.20,152.27 190.20,186.91 161.92,158.62 151.56,197.26 151.56,157.26 116.92,177.26 145.21,148.98 106.57,138.62 146.57,138.62 126.57,103.98 154.85,132.27 165.21,93.63 165.21,133.63 199.85,113.63 171.56,141.92" fill="#a8c0d8" stroke="#333" stroke-width="1"/>
<polygon points="161.92,235.90 121.92,235.90 141.92,270.54 113.63,242.26 103.28,280.89 103.28,240.89 68.64,260.89 96.92,232.61 58.28,222.26 98.28,222.26 78.28,187.61 106.57,215.90 116.92,177.26 116.92,217.26 151.56,197.26 123.28,225.55" fill="#a8c0d8" stroke="#333" stroke-width="1"/>
<polygon points="113.63,319.53 73.63,319.53 93.63,354.17 65.35,325.89 54.99,364.52 54.99,324.52 20.35,344.52 48.64,316.24 10.00,305.89 50.00,305.89 30.00,271.25 58.28,299.53 68.64,260.89 68.64,300.89 103.28,280.89 74.99,309.18" fill="#a8c0d8" stroke="#333" stroke-width="1"/>
<polygon points="293.83,200.55 253.83,200.55 273.83,235.19 245.55,206.91 235.19,245.55 235.19,205.55 200.55,225.55 228.84,197.26 190.20,186.91 230.20,186.91 210.20,152.27 238.48,180.55 248.84,141.92 248.84,181.92 283.48,161.92 255.19,190.20" fill="#a8c0d8" stroke="#333" stroke-width="1"/>
<polygon points="245.55,284.18 205.55,284.18 225.55,318.82 197.26,290.54 186.91,329.18 186.91,289.18 152.27,309.18 180.55,280.89 141.92,270.54 181.92,270.54 161.92,235.90 190.20,264.18 200.55,225.55 200.55,265.55 235.19,245.55 206.91,273.83" fill="#a8c0d8" stroke="#333" stroke-width="1"/>
<polygon points="197.26,367.81 157.26,367.81 177.26,402.45 148.98,374.17 138.62,412.81 138.62,372.81 103.98,392.81 132.27,364.52 93.63,354.17 133.63,354.17 113.63,319.53 141.92,347.81 152.27,309.18 152.27,349.18 186.91,329.18 158.62,357.46" fill="#a8c0d8" stroke="#333" stroke-width="1"/>
<polygon points="377.46,248.84 337.46,248.84 357.46,283.48 329.18,255.19 318.82,293.83 318.82,253.83 284.18,273.83 312.47,245.55 273.83,235.19 313.83,235.19 293.83,200.55 322.11,228.84 332.47,190.20 332.47,230.20 367.11,210.20 338.82,238.48" fill="#a8c0d8" stroke="#333" stroke-width="1"/>
<polygon points="329.18,332.47 289.18,332.47 309.18,367.11 280.89,338.82 270.54,377.46 270.54,337.46 235.90,357.46 264.18,329.18 225.55,318.82 265.55,318.82 245.55,284.18 273.83,312.47 284.18,273.83 284.18,313.83 318.82,293.83 290.54,322.11" fill="#a8c0d8" stroke="#333" stroke-width="1"/>
<polygon points="280.89,416.10 240.89,416.10 260.89,450.74 232.61,422.45 222.26,461.09 222.26,421.09 187.61,441.09 215.90,412.81 177.26,402.45 217.26,402.45 197.26,367.81 225.55,396.10 235.90,357.46 235.90,397.46 270.54,377.46 242.26,405.75" fill="#a8c0d8" stroke="#333" stroke-width="1"/>
<polygon points="190.20,186.91 210.20,152.27 230.20,186.91" fill="#88b0d8" stroke="#333" stroke-width="1"/>
<polygon points="141.92,270.54 161.92,235.90 181.92,270.54" fill="#88b0d8" stroke="#333" stroke-width="1"/>
<polygon points="93.63,354.17 113.63,319.53 133.63,354.17" fill="#88b0d8" stroke="#333" stroke-width="1"/>
<polygon points="273.83,235.19 293.83,200.55 313.83,235.19" fill="#88b0d8" stroke="#333" stroke-width="1"/>
<polygon points="225.55,318.82 245.55,284.18 265.55,318.82" fill="#88b0d8" stroke="#333" stroke-width="1"/>
<polygon points="177.26,402.45 197.26,367.81 217.26,402.45" fill="#88b0d8" stroke="#333" stroke-width="1"/>
<polygon points="357.46,283.48 377.46,248.84 397.46,283.48" fill="#88b0d8" stroke="#333" stroke-width="1"/>
<polygon points="309.18,367.11 329.18,332.47 349.18,367.11" fill="#88b0d8" stroke="#333" stroke-width="1"/>
<polygon points="260.89,450.74 280.89,416.10 300.89,450.74" fill="#88b0d8" stroke="#333" stroke-width="1"/>
<polygon points="230.20,186.91 210.20,152.27 238.48,180.55 248.84,141.92 248.84,181.92 283.48,161.92 255.19,190.20 293.83,200.55 253.83,200.55 273.83,235.19 245.55,206.91 235.19,245.55 235.19,205.55 200.55,225.55 228.84,197.26 190.20,186.91" fill="#a8c0d8" stroke="#333" stroke-width="1"/>
<polygon points="181.92,270.54 161.92,235.90 190.20,264.18 200.55,225.55 200.55,265.55 235.19,245.55 206.91,273.83 245.55,284.18 205.55,284.18 225.55,318.82 197.26,290.54 186.91,329.18 186.91,289.18 152.27,309.18 180.55,280.89 141.92,270.54" fill="#a8c0d8" stroke="#333" stroke-width="1"/>
<polygon points="133.63,354.17 113.63,319.53 141.92,347.81 152.27,309.18 152.27,349.18 186.91,329.18 158.62,357.46 197.26,367.81 157.26,367.81 177.26,402.45 148.98,374.17 138.62,412.81 138.62,372.81 103.98,392.81 132.27,364.52 93.63,354.17" fill="#a8c0d8" stroke="#333" stroke-width="1"/>
<polygon points="313.83,235.19 293.83,200.55 322.11,228.84 332.47,190.20 332.47,230.20 367.11,210.20 338.82,238.48 377.46,248.84 337.46,248.84 357.46,283.48 329.18,255.19 318.82,293.83 318.82,253.83 284.18,273.83 312.47,245.55 273.83,235.19" fill="#a8c0d8" stroke="#333" stroke-width="1"/>
<polygon points="265.55,318.82 245.55,284.18 273.83,312.47 284.18,273.83 284.18,313.83 318.82,293.83 290.54,322.11 329.18,332.47 289.18,332.47 309.18,367.11 280.89,338.82 270.54,377.46 270.54,337.46 235.90,357.46 264.18,329.18 225.55,318.82" fill="#a8c0d8" stroke="#333" stroke-width="1"/>
<polygon points="217.26,402.45 197.26,367.81 225.55,396.10 235.90,357.46 235.90,397.46 270.54,377.46 242.26,405.75 280.89,416.10 240.89,416.10 260.89,450.74 232.61,422.45 222.26,461.09 222.26,421.09 187.61,441.09 215.90,412.81 177.26,402.45" fill="#a8c0d8" stroke="#333" stroke-width="1"/>
<polygon points="397.46,283.48 377.46,248.84 405.75,277.12 416.10,238.48 416.10,278.48 450.74,258.48 422.45,286.77 461.09,297.12 421.09,297.12 441.09,331.76 412.81,303.48 402.45,342.11 402.45,302.11 367.81,322.11 396.10,293.83 357.46,283.48" fill="#a8c0d8" stroke="#333" stroke-width="1"/>
<polygon points="349.18,367.11 329.18,332.47 357.46,360.75 367.81,322.11 367.81,362.11 402.45,342.11 374.17,370.40 412.81,380.75 372.81,380.75 392.81,415.39 364.52,387.11 354.17,425.75 354.17,385.75 319.53,405.75 347.81,377.46 309.18,367.11" fill="#a8c0d8" stroke="#333" stroke-width="1"/>
<polygon points="300.89,450.74 280.89,416.10 309.18,444.38 319.53,405.75 319.53,445.75 354.17,425.75 325.89,454.03 364.52,464.38 324.52,464.38 344.52,499.02 316.24,470.74 305.89,509.38 305.89,469.38 271.25,489.38 299.53,461.09 260.89,450.74" fill="#a8c0d8" stroke="#333" stroke-width="1"/>
<polygon points="238.48,180.55 210.20,152.27 171.56,141.92 199.85,113.63 210.20,74.99 238.48,103.28 277.12,113.63 248.84,141.92" fill="#d0a8c0" stroke="#333" stroke-width="1"/>
<polygon points="190.20,264.18 161.92,235.90 123.28,225.55 151.56,197.26 161.92,158.62 190.20,186.91 228.84,197.26 200.55,225.55" fill="#d0a8c0" stroke="#333" stroke-width="1"/>
<polygon points="141.92,347.81 113.63,319.53 74.99,309.18 103.28,280.89 113.63,242.26 141.92,270.54 180.55,280.89 152.27,309.18" fill="#d0a8c0" stroke="#333" stroke-width="1"/>
<polygon points="322.11,228.84 293.83,200.55 255.19,190.20 283.48,161.92 293.83,123.28 322.11,151.56 360.75,161.92 332.47,190.20" fill="#d0a8c0" stroke="#333" stroke-width="1"/>
<polygon points="273.83,312.47 245.55,284.18 206.91,273.83 235.19,245.55 245.55,206.91 273.83,235.19 312.47,245.55 284.18,273.83" fill="#d0a8c0" stroke="#333" stroke-width="1"/>
<polygon points="225.55,396.10 197.26,367.81 158.62,357.46 186.91,329.18 197.26,290.54 225.55,318.82 264.18,329.18 235.90,357.46" fill="#d0a8c0" stroke="#333" stroke-width="1"/>
<polygon points="405.75,277.12 377.46,248.84 338.82,238.48 367.11,210.20 377.46,171.56 405.75,199.85 444.38,210.20 416.10,238.48" fill="#d0a8c0" stroke="#333" stroke-width="1"/>
<polygon points="357.46,360.75 329.18,332.47 290.54,322.11 318.82,293.83 329.18,255.19 357.46,283.48 396.10,293.83 367.81,322.11" fill="#d0a8c0" stroke="#333" stroke-width="1"/>
<polygon points="309.18,444.38 280.89,416.10 242.26,405.75 270.54,377.46 280.89,338.82 309.18,367.11 347.81,377.46 319.53,405.75" fill="#d0a8c0" stroke="#333" stroke-width="1"/>
<polygon points="161.92,158.62 190.20,186.91 228.84,197.26 200.55,225.55 190.20,264.18 161.92,235.90 123.28,225.55 151.56,197.26" fill="#d0a8c0" stroke="#333" stroke-width="1"/>
<polygon points="113.63,242.26 141.92,270.54 180.55,280.89 152.27,309.18 141.92,347.81 113.63,319.53 74.99,309.18 103.28,280.89" fill="#d0a8c0" stroke="#333" stroke-width="1"/>
<polygon points="65.35,325.89 93.63,354.17 132.27,364.52 103.98,392.81 93.63,431.44 65.35,403.16 26.71,392.81 54.99,364.52" fill="#d0a8c0" stroke="#333" stroke-width="1"/>
<polygon points="245.55,206.91 273.83,235.19 312.47,245.55 284.18,273.83 273.83,312.47 245.55,284.18 206.91,273.83 235.19,245.55" fill="#d0a8c0" stroke="#333" stroke-width="1"/>
<polygon points="197.26,290.54 225.55,318.82 264.18,329.18 235.90,357.46 225.55,396.10 197.26,367.81 158.62,357.46 186.91,329.18" fill="#d0a8c0" stroke="#333" stroke-width="1"/>
<polygon points="148.98,374.17 177.26,402.45 215.90,412.81 187.61,441.09 177.26,479.73 148.98,451.44 110.34,441.09 138.62,412.81" fill="#d0a8c0" stroke="#333" stroke-width="1"/>
<polygon points="329.18,255.19 357.46,283.48 396.10,293.83 367.81,322.11 357.46,360.75 329.18,332.47 290.54,322.11 318.82,293.83" fill="#d0a8c0" stroke="#333" stroke-width="1"/>
<polygon points="280.89,338.82 309.18,367.11 347.81,377.46 319.53,405.75 309.18,444.38 280.89,416.10 242.26,405.75 270.54,377.46" fill="#d0a8c0" stroke="#333" stroke-width="1"/>
<polygon points="232.61,422.45 260.89,450.74 299.53,461.09 271.25,489.38 260.89,528.01 232.61,499.73 193.97,489.38 222.26,461.09" fill="#d0a8c0" stroke="#333" stroke-width="1"/>
<polygon points="248.84,181.92 248.84,141.92 283.48,161.92" fill="#88b0d8" stroke="#333" stroke-width="1"/>
<polygon points="200.55,265.55 200.55,225.55 235.19,245.55" fill="#88b0d8" stroke="#333" stroke-width="1"/>
<polygon points="152.27,349.18 152.27,309.18 186.91,329.18" fill="#88b0d8" stroke="#333" stroke-width="1"/>
<polygon points="332.47,230.20 332.47,190.20 367.11,210.20" fill="#88b0d8" stroke="#333" stroke-width="1"/>
<polygon points="284.18,313.83 284.18,273.83 318.82,293.83" fill="#88b0d8" stroke="#333" stroke-width="1"/>
<polygon points="235.90,397.46 235.90,357.46 270.54,377.46" fill="#88b0d8" stroke="#333" stroke-width="1"/>
<polygon points="416.10,278.48 416.10,238.48 450.74,258.48" fill="#88b0d8" stroke="#333" stroke-width="1"/>
<polygon points="367.81,362.11 367.81,322.11 402.45,342.11" fill="#88b0d8" stroke="#333" stroke-width="1"/>
<polygon points="319.53,445.75 319.53,405.75 354.17,425.75" fill="#88b0d8" stroke="#333" stroke-width="1"/>
<polygon points="283.48,161.92 248.84,141.92 283.48,121.92" fill="#88b0d8" stroke="#333" stroke-width="1"/>
<polygon points="235.19,245.55 200.55,225.55 235.19,205.55" fill="#88b0d8" stroke="#333" stroke-width="1"/>
<polygon points="186.91,329.18 152.27,309.18 186.91,289.18" fill="#88b0d8" stroke="#333" stroke-width="1"/>
<polygon points="367.11,210.20 332.47,190.20 367.11,170.20" fill="#88b0d8" stroke="#333" stroke-width="1"/>
<polygon points="318.82,293.83 284.18,273.83 318.82,253.83" fill="#88b0d8" stroke="#333" stroke-width="1"/>
<polygon points="270.54,377.46 235.90,357.46 270.54,337.46" fill="#88b0d8" stroke="#333" stroke-width="1"/>
<polygon points="450.74,258.48 416.10,238.48 450.74,218.48" fill="#88b0d8" stroke="#333" stroke-width="1"/>
<polygon points="402.45,342.11 367.81,322.11 402.45,302.11" fill="#88b0d8" stroke="#333" stroke-width="1"/>
<polygon points="354.17,425.75 319.53,405.75 354.17,385.75" fill="#88b0d8" stroke="#333" stroke-width="1"/>
<polygon points="283.48,121.92 248.84,141.92 277.12,113.63 238.48,103.28 278.48,103.28 258.48,68.64 286.77,96.92 297.12,58.28 297.12,98.28 331.76,78.28 303.48,106.57 342.11,116.92 302.11,116.92 322.11,151.56 293.83,123.28 283.48,161.92" fill="#a8c0d8" stroke="#333" stroke-width="1"/>
<polygon points="235.19,205.55 200.55,225.55 228.84,197.26 190.20,186.91 230.20,186.91 210.20,152.27 238.48,180.55 248.84,141.92 248.84,181.92 283.48,161.92 255.19,190.20 293.83,200.55 253.83,200.55 273.83,235.19 245.55,206.91 235.19,245.55" fill="#a8c0d8" stroke="#333" stroke-width="1"/>
<polygon points="186.91,289.18 152.27,309.18 180.55,280.89 141.92,270.54 181.92,270.54 161.92,235.90 190.20,264.18 200.55,225.55 200.55,265.55 235.19,245.55 206.91,273.83 245.55,284.18 205.55,284.18 225.55,318.82 197.26,290.54 186.91,329.18" fill="#a8c0d8" stroke="#333" stroke-width="1"/>
<polygon points="367.11,170.20 332.47,190.20 360.75,161.92 322.11,151.56 362.11,151.56 342.11,116.92 370.40,145.21 380.75,106.57 380.75,146.57 415.39,126.57 387.11,154.85 425.75,165.21 385.75,165.21 405.75,199.85 377.46,171.56 367.11,210.20" fill="#a8c0d8" stroke="#333" stroke-width="1"/>
<polygon points="318.82,253.83 284.18,273.83 312.47,245.55 273.83,235.19 313.83,235.19 293.83,200.55 322.11,228.84 332.47,190.20 332.47,230.20 367.11,210.20 338.82,238.48 377.46,248.84 337.46,248.84 357.46,283.48 329.18,255.19 318.82,293.83" fill="#a8c0d8" stroke="#333" stroke-width="1"/>
<polygon points="270.54,337.46 235.90,357.46 264.18,329.18 225.55,318.82 265.55,318.82 245.55,284.18 273.83,312.47 284.18,273.83 284.18,313.83 318.82,293.83 290.54,322.11 329.18,332.47 289.18,332.47 309.18,367.11 280.89,338.82 270.54,377.46" fill="#a8c0d8" stroke="#333" stroke-width="1"/>
<polygon points="450.74,218.48 416.10,238.48 444.38,210.20 405.75,199.85 445.75,199.85 425.75,165.21 454.03,193.49 464.38,154.85 464.38,194.85 499.02,174.85 470.74,203.14 509.38,213.49 469.38,213.49 489.38,248.13 461.09,219.85 450.74,258.48" fill="#a8c0d8" stroke="#333" stroke-width="1"/>
<polygon points="402.45,302.11 367.81,322.11 396.10,293.83 357.46,283.48 397.46,283.48 377.46,248.84 405.75,277.12 416.10,238.48 416.10,278.48 450.74,258.48 422.45,286.77 461.09,297.12 421.09,297.12 441.09,331.76 412.81,303.48 402.45,342.11" fill="#a8c0d8" stroke="#333" stroke-width="1"/>
<polygon points="354.17,385.75 319.53,405.75 347.81,377.46 309.18,367.11 349.18,367.11 329.18,332.47 357.46,360.75 367.81,322.11 367.81,362.11 402.45,342.11 374.17,370.40 412.81,380.75 372.81,380.75 392.81,415.39 364.52,387.11 354.17,425.75" fill="#a8c0d8" stroke="#333" stroke-width="1"/>
<polygon points="199.85,113.63 199.85,73.63 165.21,93.63 193.49,65.35 154.85,54.99 194.85,54.99 174.85,20.35 203.14,48.64 213.49,10.00 213.49,50.00 248.13,30.00 219.85,58.28 258.48,68.64 218.48,68.64 238.48,103.28 210.20,74.99" fill="#a8c0d8" stroke="#333" stroke-width="1"/>
<polygon points="151.56,197.26 151.56,157.26 116.92,177.26 145.21,148.98 106.57,138.62 146.57,138.62 126.57,103.98 154.85,132.27 165.21,93.63 165.21,133.63 199.85,113.63 171.56,141.92 210.20,152.27 170.20,152.27 190.20,186.91 161.92,158.62" fill="#a8c0d8" stroke="#333" stroke-width="1"/>
<polygon points="103.28,280.89 103.28,240.89 68.64,260.89 96.92,232.61 58.28,222.26 98.28,222.26 78.28,187.61 106.57,215.90 116.92,177.26 116.92,217.26 151.56,197.26 123.28,225.55 161.92,235.90 121.92,235.90 141.92,270.54 113.63,242.26" fill="#a8c0d8" stroke="#333" stroke-width="1"/>
<polygon points="283.48,161.92 283.48,121.92 248.84,141.92 277.12,113.63 238.48,103.28 278.48,103.28 258.48,68.64 286.77,96.92 297.12,58.28 297.12,98.28 331.76,78.28 303.48,106.57 342.11,116.92 302.11,116.92 322.11,151.56 293.83,123.28" fill="#a8c0d8" stroke="#333" stroke-width="1"/>
<polygon points="235.19,245.55 235.19,205.55 200.55,225.55 228.84,197.26 190.20,186.91 230.20,186.91 210.20,152.27 238.48,180.55 248.84,141.92 248.84,181.92 283.48,161.92 255.19,190.20 293.83,200.55 253.83,200.55 273.83,235.19 245.55,206.91" fill="#a8c0d8" stroke="#333" stroke-width="1"/>
<polygon points="186.91,329.18 186.91,289.18 152.27,309.18 180.55,280.89 141.92,270.54 181.92,270.54 161.92,235.90 190.20,264.18 200.55,225.55 200.55,265.55 235.19,245.55 206.91,273.83 245.55,284.18 205.55,284.18 225.55,318.82 197.26,290.54" fill="#a8c0d8" stroke="#333" stroke-width="1"/>
<polygon points="367.11,210.20 367.11,170.20 332.47,190.20 360.75,161.92 322.11,151.56 362.11,151.56 342.11,116.92 370.40,145.21 380.75,106.57 380.75,146.57 415.39,126.57 387.11,154.85 425.75,165.21 385.75,165.21 405.75,199.85 377.46,171.56" fill="#a8c0d8" stroke="#333" stroke-width="1"/>
<polygon points="318.82,293.83 318.82,253.83 284.18,273.83 312.47,245.55 273.83,235.19 313.83,235.19 293.83,200.55 322.11,228.84 332.47,190.20 332.47,230.20 367.11,210.20 338.82,238.48 377.46,248.84 337.46,248.84 357.46,283.48 329.18,255.19" fill="#a8c0d8" stroke="#333" stroke-width="1"/>
<polygon points="270.54,377.46 270.54,337.46 235.90,357.46 264.18,329.18 225.55,318.82 265.55,318.82 245.55,284.18 273.83,312.47 284.18,273.83 284.18,313.83 318.82,293.83 290.54,322.11 329.18,332.47 289.18,332.47 309.18,367.11 280.89,338.82" fill="#a8c0d8" stroke="#333" stroke-width="1"/>
<polygon points="199.85,73.63 199.85,113.63 165.21,93.63" fill="#88b0d8" stroke="#333" stroke-width="1"/>
<polygon points="151.56,157.26 151.56,197.26 116.92,177.26" fill="#88b0d8" stroke="#333" stroke-width="1"/>
<polygon points="103.28,240.89 103.28,280.89 68.64,260.89" fill="#88b0d8" stroke="#333" stroke-width="1"/>
<polygon points="283.48,121.92 283.48,161.92 248.84,141.92" fill="#88b0d8" stroke="#333" stroke-width="1"/>
<polygon points="235.19,205.55 235.19,245.55 200.55,225.55" fill="#88b0d8" stroke="#333" stroke-width="1"/>
<polygon points="186.91,289.18 186.91,329.18 152.27,309.18" fill="#88b0d8" stroke="#333" stroke-width="1"/>
<polygon points="367.11,170.20 367.11,210.20 332.47,190.20" fill="#88b0d8" stroke="#333" stroke-width="1"/>
<polygon points="318.82,253.83 318.82,293.83 284.18,273.83" fill="#88b0d8" stroke="#333" stroke-width="1"/>
<polygon points="270.54,337.46 270.54,377.46 235.90,357.46" fill="#88b0d8" stroke="#333" stroke-width="1"/>
<polygon points="199.85,113.63 165.21,133.63 165.21,93.63" fill="#88b0d8" stroke="#333" stroke-width="1"/>
<polygon points="151.56,197.26 116.92,217.26 116.92,177.26" fill="#88b0d8" stroke="#333" stroke-width="1"/>
<polygon points="103.28,280.89 68.64,300.89 68.64,260.89" fill="#88b0d8" stroke="#333" stroke-width="1"/>
<polygon points="283.48,161.92 248.84,181.92 248.84,141.92" fill="#88b0d8" stroke="#333" stroke-width="1"/>
<polygon points="235.19,245.55 200.55,265.55 200.55,225.55" fill="#88b0d8" stroke="#333" stroke-width="1"/>
<polygon points="186.91,329.18 152.27,349.18 152.27,309.18" fill="#88b0d8" stroke="#333" stroke-width="1"/>
<polygon points="367.11,210.20 332.47,230.20 332.47,190.20" fill="#88b0d8" stroke="#333" stroke-width="1"/>
<polygon points="318.82,293.83 284.18,313.83 284.18,273.83" fill="#88b0d8" stroke="#333" stroke-width="1"/>
<polygon points="270.54,377.46 235.90,397.46 235.90,357.46" fill="#88b0d8" stroke="#333" stroke-width="1"/>
<text x="10" y="550" font-family="monospace" font-size="12">(8*d20,3)A, (8*p1,4*d14,8*p1,3,3)A, (8*d20,4*p4)A</text>
</svg>
