<svg xmlns="http://www.w3.org/2000/svg" width="478" height="498">
<rect width="100%" height="100%" fill="white"/>
<polygon points="73.63,143.62 113.63,143.62 93.63,178.26" fill="#88b0d8" stroke="#333" stroke-width="1"/>
<polygon points="98.62,236.90 138.62,236.90 118.62,271.54" fill="#88b0d8" stroke="#333" stroke-width="1"/>
<polygon points="123.62,330.17 163.62,330.17 143.62,364.82" fill="#88b0d8" stroke="#333" stroke-width="1"/>
<polygon points="166.91,118.62 206.91,118.62 186.91,153.27" fill="#88b0d8" stroke="#333" stroke-width="1"/>
<polygon points="191.90,211.90 231.90,211.90 211.90,246.54" fill="#88b0d8" stroke="#333" stroke-width="1"/>
<polygon points="216.90,305.18 256.90,305.18 236.90,339.82" fill="#88b0d8" stroke="#333" stroke-width="1"/>
<polygon points="260.19,93.63 300.19,93.63 280.19,128.27" fill="#88b0d8" stroke="#333" stroke-width="1"/>
<polygon points="285.18,186.91 325.18,186.91 305.18,221.55" fill="#88b0d8" stroke="#333" stroke-width="1"/>
<polygon points="310.17,280.19 350.17,280.19 330.17,314.83" fill="#88b0d8" stroke="#333" stroke-width="1"/>
<polygon points="113.63,143.62 73.63,143.62 93.63,178.26 65.35,149.98 54.99,188.61 54.99,148.61 20.35,168.61 48.64,140.33 10.00,129.98 50.00,129.98 30.00,95.33 58.28,123.62 68.64,84.98 68.64,124.98 103.28,104.98 74.99,133.27" fill="#a8c0d8" stroke="#333" stroke-width="1"/>
<polygon points="138.62,236.90 98.62,236.90 118.62,271.54 90.34,243.25 79.99,281.89 79.99,241.89 45.35,261.89 73.63,233.61 34.99,223.25 74.99,223.25 54.99,188.61 83.28,216.90 93.63,178.26 93.63,218.26 128.27,198.26 99.99,226.54" fill="#a8c0d8" stroke="#333" stroke-width="1"/>
<polygon points="163.62,330.17 123.62,330.17 143.62,364.82 115.33,336.53 104.98,375.17 104.98,335.17 70.34,355.17 98.62,326.88 59.99,316.53 99.99,316.53 79.99,281.89 108.27,310.17 118.62,271.54 118.62,311.54 153.27,291.54 124.98,319.82" fill="#a8c0d8" stroke="#333" stroke-width="1"/>
<polygon points="206.91,118.62 166.91,118.62 186.91,153.27 158.62,124.98 148.27,163.62 148.27,123.62 113.63,143.62 141.92,115.33 103.28,104.98 143.28,104.98 123.28,70.34 151.56,98.62 161.92,59.99 161.92,99.99 196.56,79.99 168.27,108.27" fill="#a8c0d8" stroke="#333" stroke-width="1"/>
<polygon points="231.90,211.90 191.90,211.90 211.90,246.54 183.62,218.26 173.27,256.90 173.27,216.90 138.62,236.90 166.91,208.61 128.27,198.26 168.27,198.26 148.27,163.62 176.56,191.90 186.91,153.27 186.91,193.27 221.55,173.27 193.27,201.55" fill="#a8c0d8" stroke="#333" stroke-width="1"/>
<polygon points="256.90,305.18 216.90,305.18 236.90,339.82 208.61,311.54 198.26,350.17 198.26,310.17 163.62,330.17 191.90,301.89 153.27,291.54 193.27,291.54 173.27,256.90 201.55,285.18 211.90,246.54 211.90,286.54 246.54,266.54 218.26,294.83" fill="#a8c0d8" stroke="#333" stroke-width="1"/>
<polygon points="300.19,93.63 260.19,93.63 280.19,128.27 251.90,99.99 241.55,138.62 241.55,98.62 206.91,118.62 235.19,90.34 196.56,79.99 236.56,79.99 216.56,45.35 244.84,73.63 255.19,34.99 255.19,74.99 289.83,54.99 261.55,83.28" fill="#a8c0d8" stroke="#333" stroke-width="1"/>
<polygon points="325.18,186.91 285.18,186.91 305.18,221.55 276.90,193.27 266.54,231.90 266.54,191.90 231.90,211.90 260.19,183.62 221.55,173.27 261.55,173.27 241.55,138.62 269.83,166.91 280.19,128.27 280.19,168.27 314.83,148.27 286.54,176.56" fill="#a8c0d8" stroke="#333" stroke-width="1"/>
<polygon points="350.17,280.19 310.17,280.19 330.17,314.83 301.89,286.54 291.54,325.18 291.54,285.18 256.90,305.18 285.18,276.90 246.54,266.54 286.54,266.54 266.54,231.90 294.83,260.19 305.18,221.55 305.18,261.55 339.82,241.55 311.54,269.83" fill="#a8c0d8" stroke="#333" stroke-width="1"/>
<polygon points="93.63,178.26 113.63,143.62 148.27,163.62 128.27,198.26" fill="#e8c268" stroke="#333" stroke-width="1"/>
<polygon points="118.62,271.54 138.62,236.90 173.27,256.90 153.27,291.54" fill="#e8c268" stroke="#333" stroke-width="1"/>
<polygon points="143.62,364.82 163.62,330.17 198.26,350.17 178.26,384.82" fill="#e8c268" stroke="#333" stroke-width="1"/>
<polygon points="186.91,153.27 206.91,118.62 241.55,138.62 221.55,173.27" fill="#e8c268" stroke="#333" stroke-width="1"/>
<polygon points="211.90,246.54 231.90,211.90 266.54,231.90 246.54,266.54" fill="#e8c268" stroke="#333" stroke-width="1"/>
<polygon points="236.90,339.82 256.90,305.18 291.54,325.18 271.54,359.82" fill="#e8c268" stroke="#333" stroke-width="1"/>
<polygon points="280.19,128.27 300.19,93.63 334.83,113.63 314.83,148.27" fill="#e8c268" stroke="#333" stroke-width="1"/>
<polygon points="305.18,221.55 325.18,186.91 359.82,206.91 339.82,241.55" fill="#e8c268" stroke="#333" stroke-width="1"/>
<polygon points="330.17,314.83 350.17,280.19 384.82,300.19 364.82,334.83" fill="#e8c268" stroke="#333" stroke-width="1"/>
<polygon points="148.27,163.62 113.63,143.62 148.27,123.62" fill="#88b0d8" stroke="#333" stroke-width="1"/>
<polygon points="173.27,256.90 138.62,236.90 173.27,216.90" fill="#88b0d8" stroke="#333" stroke-width="1"/>
<polygon points="198.26,350.17 163.62,330.17 198.26,310.17" fill="#88b0d8" stroke="#333" stroke-width="1"/>
<polygon points="241.55,138.62 206.91,118.62 241.55,98.62" fill="#88b0d8" stroke="#333" stroke-width="1"/>
<polygon points="266.54,231.90 231.90,211.90 266.54,191.90" fill="#88b0d8" stroke="#333" stroke-width="1"/>
<polygon points="291.54,325.18 256.90,305.18 291.54,285.18" fill="#88b0d8" stroke="#333" stroke-width="1"/>
<polygon points="334.83,113.63 300.19,93.63 334.83,73.63" fill="#88b0d8" stroke="#333" stroke-width="1"/>
<polygon points="359.82,206.91 325.18,186.91 359.82,166.91" fill="#88b0d8" stroke="#333" stroke-width="1"/>
<polygon points="384.82,300.19 350.17,280.19 384.82,260.19" fill="#88b0d8" stroke="#333" stroke-width="1"/>
<polygon points="148.27,123.62 113.63,143.62 141.92,115.33 103.28,104.98 143.28,104.98 123.28,70.34 151.56,98.62 161.92,59.99 161.92,99.99 196.56,79.99 168.27,108.27 206.91,118.62 166.91,118.62 186.91,153.27 158.62,124.98 148.27,163.62" fill="#a8c0d8" stroke="#333" stroke-width="1"/>
<polygon points="173.27,216.90 138.62,236.90 166.91,208.61 128.27,198.26 168.27,198.26 148.27,163.62 176.56,191.90 186.91,153.27 186.91,193.27 221.55,173.27 193.27,201.55 231.90,211.90 191.90,211.90 211.90,246.54 183.62,218.26 173.27,256.90" fill="#a8c0d8" stroke="#333" stroke-width="1"/>
<polygon points="198.26,310.17 163.62,330.17 191.90,301.89 153.27,291.54 193.27,291.54 173.27,256.90 201.55,285.18 211.90,246.54 211.90,286.54 246.54,266.54 218.26,294.83 256.90,305.18 216.90,305.18 236.90,339.82 208.61,311.54 198.26,350.17" fill="#a8c0d8" stroke="#333" stroke-width="1"/>
<polygon points="241.55,98.62 206.91,118.62 235.19,90.34 196.56,79.99 236.56,79.99 216.56,45.35 244.84,73.63 255.19,34.99 255.19,74.99 289.83,54.99 261.55,83.28 300.19,93.63 260.19,93.63 280.19,128.27 251.90,99.99 241.55,138.62" fill="#a8c0d8" stroke="#333" stroke-width="1"/>
<polygon points="266.54,191.90 231.90,211.90 260.19,183.62 221.55,173.27 261.55,173.27 241.55,138.62 269.83,166.91 280.19,128.27 280.19,168.27 314.83,148.27 286.54,176.56 325.18,186.91 285.18,186.91 305.18,221.55 276.90,193.27 266.54,231.90" fill="#a8c0d8" stroke="#333" stroke-width="1"/>
<polygon points="291.54,285.18 256.90,305.18 285.18,276.90 246.54,266.54 286.54,266.54 266.54,231.90 294.83,260.19 305.18,221.55 305.18,261.55 339.82,241.55 311.54,269.83 350.17,280.19 310.17,280.19 330.17,314.83 301.89,286.54 291.54,325.18" fill="#a8c0d8" stroke="#333" stroke-width="1"/>
<polygon points="334.83,73.63 300.19,93.63 328.47,65.35 289.83,54.99 329.83,54.99 309.83,20.35 338.12,48.64 348.47,10.00 348.47,50.00 383.11,30.00 354.83,58.28 393.46,68.64 353.46,68.64 373.46,103.28 345.18,74.99 334.83,113.63" fill="#a8c0d8" stroke="#333" stroke-width="1"/>
<polygon points="359.82,166.91 325.18,186.91 353.46,158.62 314.83,148.27 354.83,148.27 334.83,113.63 363.11,141.92 373.46,103.28 373.46,143.28 408.11,123.28 379.82,151.56 418.46,161.92 378.46,161.92 398.46,196.56 370.17,168.27 359.82,206.91" fill="#a8c0d8" stroke="#333" stroke-width="1"/>
<polygon points="384.82,260.19 350.17,280.19 378.46,251.90 339.82,241.55 379.82,241.55 359.82,206.91 388.11,235.19 398.46,196.56 398.46,236.56 433.10,216.56 404.82,244.84 443.45,255.19 403.45,255.19 423.45,289.83 395.17,261.55 384.82,300.19" fill="#a8c0d8" stroke="#333" stroke-width="1"/>
<polygon points="141.92,115.33 113.63,143.62 103.28,104.98" fill="#88b0d8" stroke="#333" stroke-width="1"/>
<polygon points="166.91,208.61 138.62,236.90 128.27,198.26" fill="#88b0d8" stroke="#333" stroke-width="1"/>
<polygon points="191.90,301.89 163.62,330.17 153.27,291.54" fill="#88b0d8" stroke="#333" stroke-width="1"/>
<polygon points="235.19,90.34 206.91,118.62 196.56,79.99" fill="#88b0d8" stroke="#333" stroke-width="1"/>
<polygon points="260.19,183.62 231.90,211.90 221.55,173.27" fill="#88b0d8" stroke="#333" stroke-width="1"/>
<polygon points="285.18,276.90 256.90,305.18 246.54,266.54" fill="#88b0d8" stroke="#333" stroke-width="1"/>
<polygon points="328.47,65.35 300.19,93.63 289.83,54.99" fill="#88b0d8" stroke="#333" stroke-width="1"/>
<polygon points="353.46,158.62 325.18,186.91 314.83,148.27" fill="#88b0d8" stroke="#333" stroke-width="1"/>
<polygon points="378.46,251.90 350.17,280.19 339.82,241.55" fill="#88b0d8" stroke="#333" stroke-width="1"/>
<polygon points="103.28,104.98 113.63,143.62 74.99,133.27" fill="#88b0d8" stroke="#333" stroke-width="1"/>
<polygon points="128.27,198.26 138.62,236.90 99.99,226.54" fill="#88b0d8" stroke="#333" stroke-width="1"/>
<polygon points="153.27,291.54 163.62,330.17 124.98,319.82" fill="#88b0d8" stroke="#333" stroke-width="1"/>
<polygon points="196.56,79.99 206.91,118.62 168.27,108.27" fill="#88b0d8" stroke="#333" stroke-width="1"/>
<polygon points="221.55,173.27 231.90,211.90 193.27,201.55" fill="#88b0d8" stroke="#333" stroke-width="1"/>
<polygon points="246.54,266.54 256.90,305.18 218.26,294.83" fill="#88b0d8" stroke="#333" stroke-width="1"/>
<polygon points="289.83,54.99 300.19,93.63 261.55,83.28" fill="#88b0d8" stroke="#333" stroke-width="1"/>
<polygon points="314.83,148.27 325.18,186.91 286.54,176.56" fill="#88b0d8" stroke="#333" stroke-width="1"/>
<polygon points="339.82,241.55 350.17,280.19 311.54,269.83" fill="#88b0d8" stroke="#333" stroke-width="1"/>
<polygon points="65.35,149.98 93.63,178.26 54.99,188.61" fill="#88b0d8" stroke="#333" stroke-width="1"/>
<polygon points="90.34,243.25 118.62,271.54 79.99,281.89" fill="#88b0d8" stroke="#333" stroke-width="1"/>
<polygon points="115.33,336.53 143.62,364.82 104.98,375.17" fill="#88b0d8" stroke="#333" stroke-width="1"/>
<polygon points="158.62,124.98 186.91,153.27 148.27,163.62" fill="#88b0d8" stroke="#333" stroke-width="1"/>
<polygon points="183.62,218.26 211.90,246.54 173.27,256.90" fill="#88b0d8" stroke="#333" stroke-width="1"/>
<polygon points="208.61,311.54 236.90,339.82 198.26,350.17" fill="#88b0d8" stroke="#333" stroke-width="1"/>
<polygon points="251.90,99.99 280.19,128.27 241.55,138.62" fill="#88b0d8" stroke="#333" stroke-width="1"/>
<polygon points="276.90,193.27 305.18,221.55 266.54,231.90" fill="#88b0d8" stroke="#333" stroke-width="1"/>
<polygon points="301.89,286.54 330.17,314.83 291.54,325.18" fill="#88b0d8" stroke="#333" stroke-width="1"/>
<polygon points="54.99,188.61 93.63,178.26 83.28,216.90" fill="#88b0d8" stroke="#333" stroke-width="1"/>
<polygon points="79.99,281.89 118.62,271.54 108.27,310.17" fill="#88b0d8" stroke="#333" stroke-width="1"/>
<polygon points="104.98,375.17 143.62,364.82 133.27,403.45" fill="#88b0d8" stroke="#333" stroke-width="1"/>
<polygon points="148.27,163.62 186.91,153.27 176.56,191.90" fill="#88b0d8" stroke="#333" stroke-width="1"/>
<polygon points="173.27,256.90 211.90,246.54 201.55,285.18" fill="#88b0d8" stroke="#333" stroke-width="1"/>
<polygon points="198.26,350.17 236.90,339.82 226.54,378.46" fill="#88b0d8" stroke="#333" stroke-width="1"/>
<polygon points="241.55,138.62 280.19,128.27 269.83,166.91" fill="#88b0d8" stroke="#333" stroke-width="1"/>
<polygon points="266.54,231.90 305.18,221.55 294.83,260.19" fill="#88b0d8" stroke="#333" stroke-width="1"/>
<polygon points="291.54,325.18 330.17,314.83 319.82,353.46" fill="#88b0d8" stroke="#333" stroke-width="1"/>
<polygon points="83.28,216.90 93.63,178.26 93.63,218.26 128.27,198.26 99.99,226.54 138.62,236.90 98.62,236.90 118.62,271.54 90.34,243.25 79.99,281.89 79.99,241.89 45.35,261.89 73.63,233.61 34.99,223.25 74.99,223.25 54.99,188.61" fill="#a8c0d8" stroke="#333" stroke-width="1"/>
<polygon points="108.27,310.17 118.62,271.54 118.62,311.54 153.27,291.54 124.98,319.82 163.62,330.17 123.62,330.17 143.62,364.82 115.33,336.53 104.98,375.17 104.98,335.17 70.34,355.17 98.62,326.88 59.99,316.53 99.99,316.53 79.99,281.89" fill="#a8c0d8" stroke="#333" stroke-width="1"/>
<polygon points="133.27,403.45 143.62,364.82 143.62,404.82 178.26,384.82 149.98,413.10 188.61,423.45 148.61,423.45 168.61,458.09 140.33,429.81 129.98,468.45 129.98,428.45 95.33,448.45 123.62,420.16 84.98,409.81 124.98,409.81 104.98,375.17" fill="#a8c0d8" stroke="#333" stroke-width="1"/>
<polygon points="176.56,191.90 186.91,153.27 186.91,193.27 221.55,173.27 193.27,201.55 231.90,211.90 191.90,211.90 211.90,246.54 183.62,218.26 173.27,256.90 173.27,216.90 138.62,236.90 166.91,208.61 128.27,198.26 168.27,198.26 148.27,163.62" fill="#a8c0d8" stroke="#333" stroke-width="1"/>
<polygon points="201.55,285.18 211.90,246.54 211.90,286.54 246.54,266.54 218.26,294.83 256.90,305.18 216.90,305.18 236.90,339.82 208.61,311.54 198.26,350.17 198.26,310.17 163.62,330.17 191.90,301.89 153.27,291.54 193.27,291.54 173.27,256.90" fill="#a8c0d8" stroke="#333" stroke-width="1"/>
<polygon points="226.54,378.46 236.90,339.82 236.90,379.82 271.54,359.82 243.25,388.11 281.89,398.46 241.89,398.46 261.89,433.10 233.61,404.82 223.25,443.45 223.25,403.45 188.61,423.45 216.90,395.17 178.26,384.82 218.26,384.82 198.26,350.17" fill="#a8c0d8" stroke="#333" stroke-width="1"/>
<polygon points="269.83,166.91 280.19,128.27 280.19,168.27 314.83,148.27 286.54,176.56 325.18,186.91 285.18,186.91 305.18,221.55 276.90,193.27 266.54,231.90 266.54,191.90 231.90,211.90 260.19,183.62 221.55,173.27 261.55,173.27 241.55,138.62" fill="#a8c0d8" stroke="#333" stroke-width="1"/>
<polygon points="294.83,260.19 305.18,221.55 305.18,261.55 339.82,241.55 311.54,269.83 350.17,280.19 310.17,280.19 330.17,314.83 301.89,286.54 291.54,325.18 291.54,285.18 256.90,305.18 285.18,276.90 246.54,266.54 286.54,266.54 266.54,231.90" fill="#a8c0d8" stroke="#333" stroke-width="1"/>
<polygon points="319.82,353.46 330.17,314.83 330.17,354.83 364.82,334.83 336.53,363.11 375.17,373.46 335.17,373.46 355.17,408.11 326.88,379.82 316.53,418.46 316.53,378.46 281.89,398.46 310.17,370.17 271.54,359.82 311.54,359.82 291.54,325.18" fill="#a8c0d8" stroke="#333" stroke-width="1"/>
<polygon points="93.63,218.26 93.63,178.26 128.27,198.26" fill="#88b0d8" stroke="#333" stroke-width="1"/>
<polygon points="118.62,311.54 118.62,271.54 153.27,291.54" fill="#88b0d8" stroke="#333" stroke-width="1"/>
<polygon points="143.62,404.82 143.62,364.82 178.26,384.82" fill="#88b0d8" stroke="#333" stroke-width="1"/>
<polygon points="186.91,193.27 186.91,153.27 221.55,173.27" fill="#88b0d8" stroke="#333" stroke-width="1"/>
<polygon points="211.90,286.54 211.90,246.54 246.54,266.54" fill="#88b0d8" stroke="#333" stroke-width="1"/>
<polygon points="236.90,379.82 236.90,339.82 271.54,359.82" fill="#88b0d8" stroke="#333" stroke-width="1"/>
<polygon points="280.19,168.27 280.19,128.27 314.83,148.27" fill="#88b0d8" stroke="#333" stroke-width="1"/>
<polygon points="305.18,261.55 305.18,221.55 339.82,241.55" fill="#88b0d8" stroke="#333" stroke-width="1"/>
<polygon points="330.17,354.83 330.17,314.83 364.82,334.83" fill="#88b0d8" stroke="#333" stroke-width="1"/>
<polygon points="128.27,198.26 148.27,163.62 168.27,198.26" fill="#88b0d8" stroke="#333" stroke-width="1"/>
<polygon points="153.27,291.54 173.27,256.90 193.27,291.54" fill="#88b0d8" stroke="#333" stroke-width="1"/>
<polygon points="178.26,384.82 198.26,350.17 218.26,384.82" fill="#88b0d8" stroke="#333" stroke-width="1"/>
<polygon points="221.55,173.27 241.55,138.62 261.55,173.27" fill="#88b0d8" stroke="#333" stroke-width="1"/>
<polygon points="246.54,266.54 266.54,231.90 286.54,266.54" fill="#88b0d8" stroke="#333" stroke-width="1"/>
<polygon points="271.54,359.82 291.54,325.18 311.54,359.82" fill="#88b0d8" stroke="#333" stroke-width="1"/>
<polygon points="314.83,148.27 334.83,113.63 354.83,148.27" fill="#88b0d8" stroke="#333" stroke-width="1"/>
<polygon points="339.82,241.55 359.82,206.91 379.82,241.55" fill="#88b0d8" stroke="#333" stroke-width="1"/>
<polygon points="364.82,334.83 384.82,300.19 404.82,334.83" fill="#88b0d8" stroke="#333" stroke-width="1"/>
<polygon points="168.27,198.26 148.27,163.62 176.56,191.90 186.91,153.27 186.91,193.27 221.55,173.27 193.27,201.55 231.90,211.90 191.90,211.90 211.90,246.54 183.62,218.26 173.27,256.90 173.27,216.90 138.62,236.90 166.91,208.61 128.27,198.26" fill="#a8c0d8" stroke="#333" stroke-width="1"/>
<polygon points="193.27,291.54 173.27,256.90 201.55,285.18 211.90,246.54 211.90,286.54 246.54,266.54 218.26,294.83 256.90,305.18 216.90,305.18 236.90,339.82 208.61,311.54 198.26,350.17 198.26,310.17 163.62,330.17 191.90,301.89 153.27,291.54" fill="#a8c0d8" stroke="#333" stroke-width="1"/>
<polygon points="218.26,384.82 198.26,350.17 226.54,378.46 236.90,339.82 236.90,379.82 271.54,359.82 243.25,388.11 281.89,398.46 241.89,398.46 261.89,433.10 233.61,404.82 223.25,443.45 223.25,403.45 188.61,423.45 216.90,395.17 178.26,384.82" fill="#a8c0d8" stroke="#333" stroke-width="1"/>
<polygon points="261.55,173.27 241.55,138.62 269.83,166.91 280.19,128.27 280.19,168.27 314.83,148.27 286.54,176.56 325.18,186.91 285.18,186.91 305.18,221.55 276.90,193.27 266.54,231.90 266.54,191.90 231.90,211.90 260.19,183.62 221.55,173.27" fill="#a8c0d8" stroke="#333" stroke-width="1"/>
<polygon points="286.54,266.54 266.54,231.90 294.83,260.19 305.18,221.55 305.18,261.55 339.82,241.55 311.54,269.83 350.17,280.19 310.17,280.19 330.17,314.83 301.89,286.54 291.54,325.18 291.54,285.18 256.90,305.18 285.18,276.90 246.54,266.54" fill="#a8c0d8" stroke="#333" stroke-width="1"/>
<polygon points="311.54,359.82 291.54,325.18 319.82,353.46 330.17,314.83 330.17,354.83 364.82,334.83 336.53,363.11 375.17,373.46 335.17,373.46 355.17,408.11 326.88,379.82 316.53,418.46 316.53,378.46 281.89,398.46 310.17,370.17 271.54,359.82" fill="#a8c0d8" stroke="#333" stroke-width="1"/>
<polygon points="354.83,148.27 334.83,113.63 363.11,141.92 373.46,103.28 373.46,143.28 408.11,123.28 379.82,151.56 418.46,161.92 378.46,161.92 398.46,196.56 370.17,168.27 359.82,206.91 359.82,166.91 325.18,186.91 353.46,158.62 314.83,148.27" fill="#a8c0d8" stroke="#333" stroke-width="1"/>
<polygon points="379.82,241.55 359.82,206.91 388.11,235.19 398.46,196.56 398.46,236.56 433.10,216.56 404.82,244.84 443.45,255.19 403.45,255.19 423.45,289.83 395.17,261.55 384.82,300.19 384.82,260.19 350.17,280.19 378.46,251.90 339.82,241.55" fill="#a8c0d8" stroke="#333" stroke-width="1"/>
<polygon points="404.82,334.83 384.82,300.19 413.10,328.47 423.45,289.83 423.45,329.83 458.09,309.83 429.81,338.12 468.45,348.47 428.45,348.47 448.45,383.11 420.16,354.83 409.81,393.46 409.81,353.46 375.17,373.46 403.45,345.18 364.82,334.83" fill="#a8c0d8" stroke="#333" stroke-width="1"/>
<polygon points="176.56,191.90 148.27,163.62 186.91,153.27" fill="#88b0d8" stroke="#333" stroke-width="1"/>
<polygon points="201.55,285.18 173.27,256.90 211.90,246.54" fill="#88b0d8" stroke="#333" stroke-width="1"/>
<polygon points="226.54,378.46 198.26,350.17 236.90,339.82" fill="#88b0d8" stroke="#333" stroke-width="1"/>
<polygon points="269.83,166.91 241.55,138.62 280.19,128.27" fill="#88b0d8" stroke="#333" stroke-width="1"/>
<polygon points="294.83,260.19 266.54,231.90 305.18,221.55" fill="#88b0d8" stroke="#333" stroke-width="1"/>
<polygon points="319.82,353.46 291.54,325.18 330.17,314.83" fill="#88b0d8" stroke="#333" stroke-width="1"/>
<polygon points="363.11,141.92 334.83,113.63 373.46,103.28" fill="#88b0d8" stroke="#333" stroke-width="1"/>
<polygon points="388.11,235.19 359.82,206.91 398.46,196.56" fill="#88b0d8" stroke="#333" stroke-width="1"/>
<polygon points="413.10,328.47 384.82,300.19 423.45,289.83" fill="#88b0d8" stroke="#333" stroke-width="1"/>
<polygon points="148.27,163.62 158.62,124.98 186.91,153.27" fill="#88b0d8" stroke="#333" stroke-width="1"/>
<polygon points="173.27,256.90 183.62,218.26 211.90,246.54" fill="#88b0d8" stroke="#333" stroke-width="1"/>
<polygon points="198.26,350.17 208.61,311.54 236.90,339.82" fill="#88b0d8" stroke="#333" stroke-width="1"/>
<polygon points="241.55,138.62 251.90,99.99 280.19,128.27" fill="#88b0d8" stroke="#333" stroke-width="1"/>
<polygon points="266.54,231.90 276.90,193.27 305.18,221.55" fill="#88b0d8" stroke="#333" stroke-width="1"/>
<polygon points="291.54,325.18 301.89,286.54 330.17,314.83" fill="#88b0d8" stroke="#333" stroke-width="1"/>
<polygon points="334.83,113.63 345.18,74.99 373.46,103.28" fill="#88b0d8" stroke="#333" stroke-width="1"/>
<polygon points="359.82,206.91 370.17,168.27 398.46,196.56" fill="#88b0d8" stroke="#333" stroke-width="1"/>
<polygon points="384.82,300.19 395.17,261.55 423.45,289.83" fill="#88b0d8" stroke="#333" stroke-width="1"/>
<polygon points="143.28,104.98 103.28,104.98 123.28,70.34" fill="#88b0d8" stroke="#333" stroke-width="1"/>
<polygon points="168.27,198.26 128.27,198.26 148.27,163.62" fill="#88b0d8" stroke="#333" stroke-width="1"/>
<polygon points="193.27,291.54 153.27,291.54 173.27,256.90" fill="#88b0d8" stroke="#333" stroke-width="1"/>
<polygon points="236.56,79.99 196.56,79.99 216.56,45.35" fill="#88b0d8" stroke="#333" stroke-width="1"/>
<polygon points="261.55,173.27 221.55,173.27 241.55,138.62" fill="#88b0d8" stroke="#333" stroke-width="1"/>
<polygon points="286.54,266.54 246.54,266.54 266.54,231.90" fill="#88b0d8" stroke="#333" stroke-width="1"/>
<polygon points="329.83,54.99 289.83,54.99 309.83,20.35" fill="#88b0d8" stroke="#333" stroke-width="1"/>
<polygon points="354.83,148.27 314.83,148.27 334.83,113.63" fill="#88b0d8" stroke="#333" stroke-width="1"/>
<polygon points="379.82,241.55 339.82,241.55 359.82,206.91" fill="#88b0d8" stroke="#333" stroke-width="1"/>
<polygon points="103.28,104.98 68.64,124.98 68.64,84.98" fill="#88b0d8" stroke="#333" stroke-width="1"/>
<polygon points="128.27,198.26 93.63,218.26 93.63,178.26" fill="#88b0d8" stroke="#333" stroke-width="1"/>
<polygon points="153.27,291.54 118.62,311.54 118.62,271.54" fill="#88b0d8" stroke="#333" stroke-width="1"/>
<polygon points="196.56,79.99 161.92,99.99 161.92,59.99" fill="#88b0d8" stroke="#333" stroke-width="1"/>
<polygon points="221.55,173.27 186.91,193.27 186.91,153.27" fill="#88b0d8" stroke="#333" stroke-width="1"/>
<polygon points="246.54,266.54 211.90,286.54 211.90,246.54" fill="#88b0d8" stroke="#333" stroke-width="1"/>
<polygon points="289.83,54.99 255.19,74.99 255.19,34.99" fill="#88b0d8" stroke="#333" stroke-width="1"/>
<polygon points="314.83,148.27 280.19,168.27 280.19,128.27" fill="#88b0d8" stroke="#333" stroke-width="1"/>
<polygon points="339.82,241.55 305.18,261.55 305.18,221.55" fill="#88b0d8" stroke="#333" stroke-width="1"/>
<text x="10" y="490" font-family="monospace" font-size="12">(8*d20,3)A, (8*p1,3,4,3,8*p1,3,3)A, (8*d20,3)A</text>
</svg>
