<svg xmlns="http://www.w3.org/2000/svg" width="766" height="577">
<rect width="100%" height="100%" fill="white"/>
<polygon points="139.28,159.28 179.28,159.28 159.28,193.92" fill="#88b0d8" stroke="#333" stroke-width="1"/>
<polygon points="288.56,159.28 328.56,159.28 308.56,193.92" fill="#88b0d8" stroke="#333" stroke-width="1"/>
<polygon points="437.85,159.28 477.85,159.28 457.85,193.92" fill="#88b0d8" stroke="#333" stroke-width="1"/>
<polygon points="213.92,288.56 253.92,288.56 233.92,323.21" fill="#88b0d8" stroke="#333" stroke-width="1"/>
<polygon points="363.21,288.56 403.21,288.56 383.21,323.21" fill="#88b0d8" stroke="#333" stroke-width="1"/>
<polygon points="512.49,288.56 552.49,288.56 532.49,323.21" fill="#88b0d8" stroke="#333" stroke-width="1"/>
<polygon points="288.56,417.85 328.56,417.85 308.56,452.49" fill="#88b0d8" stroke="#333" stroke-width="1"/>
<polygon points="437.85,417.85 477.85,417.85 457.85,452.49" fill="#88b0d8" stroke="#333" stroke-width="1"/>
<polygon points="587.13,417.85 627.13,417.85 607.13,452.49" fill="#88b0d8" stroke="#333" stroke-width="1"/>
<polygon points="179.28,159.28 139.28,159.28 104.64,139.28 84.64,104.64 84.64,64.64 104.64,30.00 139.28,10.00 179.28,10.00 213.92,30.00 233.92,64.64 233.92,104.64 213.92,139.28" fill="#b8a0d0" stroke="#333" stroke-width="1"/>
<polygon points="328.56,159.28 288.56,159.28 253.92,139.28 233.92,104.64 233.92,64.64 253.92,30.00 288.56,10.00 328.56,10.00 363.21,30.00 383.21,64.64 383.21,104.64 363.21,139.28" fill="#b8a0d0" stroke="#333" stroke-width="1"/>
<polygon points="477.85,159.28 437.85,159.28 403.21,139.28 383.21,104.64 383.21,64.64 403.21,30.00 437.85,10.00 477.85,10.00 512.49,30.00 532.49,64.64 532.49,104.64 512.49,139.28" fill="#b8a0d0" stroke="#333" stroke-width="1"/>
<polygon points="253.92,288.56 213.92,288.56 179.28,268.56 159.28,233.92 159.28,193.92 179.28,159.28 213.92,139.28 253.92,139.28 288.56,159.28 308.56,193.92 308.56,233.92 288.56,268.56" fill="#b8a0d0" stroke="#333" stroke-width="1"/>
<polygon points="403.21,288.56 363.21,288.56 328.56,268.56 308.56,233.92 308.56,193.92 328.56,159.28 363.21,139.28 403.21,139.28 437.85,159.28 457.85,193.92 457.85,233.92 437.85,268.56" fill="#b8a0d0" stroke="#333" stroke-width="1"/>
<polygon points="552.49,288.56 512.49,288.56 477.85,268.56 457.85,233.92 457.85,193.92 477.85,159.28 512.49,139.28 552.49,139.28 587.13,159.28 607.13,193.92 607.13,233.92 587.13,268.56" fill="#b8a0d0" stroke="#333" stroke-width="1"/>
<polygon points="328.56,417.85 288.56,417.85 253.92,397.85 233.92,363.21 233.92,323.21 253.92,288.56 288.56,268.56 328.56,268.56 363.21,288.56 383.21,323.21 383.21,363.21 363.21,397.85" fill="#b8a0d0" stroke="#333" stroke-width="1"/>
<polygon points="477.85,417.85 437.85,417.85 403.21,397.85 383.21,363.21 383.21,323.21 403.21,288.56 437.85,268.56 477.85,268.56 512.49,288.56 532.49,323.21 532.49,363.21 512.49,397.85" fill="#b8a0d0" stroke="#333" stroke-width="1"/>
<polygon points="627.13,417.85 587.13,417.85 552.49,397.85 532.49,363.21 532.49,323.21 552.49,288.56 587.13,268.56 627.13,268.56 661.77,288.56 681.77,323.21 681.77,363.21 661.77,397.85" fill="#b8a0d0" stroke="#333" stroke-width="1"/>
<polygon points="104.64,139.28 139.28,159.28 159.28,193.92 159.28,233.92 139.28,268.56 104.64,288.56 64.64,288.56 30.00,268.56 10.00,233.92 10.00,193.92 30.00,159.28 64.64,139.28" fill="#b8a0d0" stroke="#333" stroke-width="1"/>
<polygon points="253.92,139.28 288.56,159.28 308.56,193.92 308.56,233.92 288.56,268.56 253.92,288.56 213.92,288.56 179.28,268.56 159.28,233.92 159.28,193.92 179.28,159.28 213.92,139.28" fill="#b8a0d0" stroke="#333" stroke-width="1"/>
<polygon points="403.21,139.28 437.85,159.28 457.85,193.92 457.85,233.92 437.85,268.56 403.21,288.56 363.21,288.56 328.56,268.56 308.56,233.92 308.56,193.92 328.56,159.28 363.21,139.28" fill="#b8a0d0" stroke="#333" stroke-width="1"/>
<polygon points="179.28,268.56 213.92,288.56 233.92,323.21 233.92,363.21 213.92,397.85 179.28,417.85 139.28,417.85 104.64,397.85 84.64,363.21 84.64,323.21 104.64,288.56 139.28,268.56" fill="#b8a0d0" stroke="#333" stroke-width="1"/>
<polygon points="328.56,268.56 363.21,288.56 383.21,323.21 383.21,363.21 363.21,397.85 328.56,417.85 288.56,417.85 253.92,397.85 233.92,363.21 233.92,323.21 253.92,288.56 288.56,268.56" fill="#b8a0d0" stroke="#333" stroke-width="1"/>
<polygon points="477.85,268.56 512.49,288.56 532.49,323.21 532.49,363.21 512.49,397.85 477.85,417.85 437.85,417.85 403.21,397.85 383.21,363.21 383.21,323.21 403.21,288.56 437.85,268.56" fill="#b8a0d0" stroke="#333" stroke-width="1"/>
<polygon points="253.92,397.85 288.56,417.85 308.56,452.49 308.56,492.49 288.56,527.13 253.92,547.13 213.92,547.13 179.28,527.13 159.28,492.49 159.28,452.49 179.28,417.85 213.92,397.85" fill="#b8a0d0" stroke="#333" stroke-width="1"/>
<polygon points="403.21,397.85 437.85,417.85 457.85,452.49 457.85,492.49 437.85,527.13 403.21,547.13 363.21,547.13 328.56,527.13 308.56,492.49 308.56,452.49 328.56,417.85 363.21,397.85" fill="#b8a0d0" stroke="#333" stroke-width="1"/>
<polygon points="552.49,397.85 587.13,417.85 607.13,452.49 607.13,492.49 587.13,527.13 552.49,547.13 512.49,547.13 477.85,527.13 457.85,492.49 457.85,452.49 477.85,417.85 512.49,397.85" fill="#b8a0d0" stroke="#333" stroke-width="1"/>
<polygon points="159.28,193.92 179.28,159.28 213.92,139.28 253.92,139.28 288.56,159.28 308.56,193.92 308.56,233.92 288.56,268.56 253.92,288.56 213.92,288.56 179.28,268.56 159.28,233.92" fill="#b8a0d0" stroke="#333" stroke-width="1"/>
<polygon points="308.56,193.92 328.56,159.28 363.21,139.28 403.21,139.28 437.85,159.28 457.85,193.92 457.85,233.92 437.85,268.56 403.21,288.56 363.21,288.56 328.56,268.56 308.56,233.92" fill="#b8a0d0" stroke="#333" stroke-width="1"/>
<polygon points="457.85,193.92 477.85,159.28 512.49,139.28 552.49,139.28 587.13,159.28 607.13,193.92 607.13,233.92 587.13,268.56 552.49,288.56 512.49,288.56 477.85,268.56 457.85,233.92" fill="#b8a0d0" stroke="#333" stroke-width="1"/>
<polygon points="233.92,323.21 253.92,288.56 288.56,268.56 328.56,268.56 363.21,288.56 383.21,323.21 383.21,363.21 363.21,397.85 328.56,417.85 288.56,417.85 253.92,397.85 233.92,363.21" fill="#b8a0d0" stroke="#333" stroke-width="1"/>
<polygon points="383.21,323.21 403.21,288.56 437.85,268.56 477.85,268.56 512.49,288.56 532.49,323.21 532.49,363.21 512.49,397.85 477.85,417.85 437.85,417.85 403.21,397.85 383.21,363.21" fill="#b8a0d0" stroke="#333" stroke-width="1"/>
<polygon points="532.49,323.21 552.49,288.56 587.13,268.56 627.13,268.56 661.77,288.56 681.77,323.21 681.77,363.21 661.77,397.85 627.13,417.85 587.13,417.85 552.49,397.85 532.49,363.21" fill="#b8a0d0" stroke="#333" stroke-width="1"/>
<polygon points="308.56,452.49 328.56,417.85 363.21,397.85 403.21,397.85 437.85,417.85 457.85,452.49 457.85,492.49 437.85,527.13 403.21,547.13 363.21,547.13 328.56,527.13 308.56,492.49" fill="#b8a0d0" stroke="#333" stroke-width="1"/>
<polygon points="457.85,452.49 477.85,417.85 512.49,397.85 552.49,397.85 587.13,417.85 607.13,452.49 607.13,492.49 587.13,527.13 552.49,547.13 512.49,547.13 477.85,527.13 457.85,492.49" fill="#b8a0d0" stroke="#333" stroke-width="1"/>
<polygon points="607.13,452.49 627.13,417.85 661.77,397.85 701.77,397.85 736.41,417.85 756.41,452.49 756.41,492.49 736.41,527.13 701.77,547.13 661.77,547.13 627.13,527.13 607.13,492.49" fill="#b8a0d0" stroke="#333" stroke-width="1"/>
<polygon points="84.64,104.64 104.64,139.28 64.64,139.28" fill="#88b0d8" stroke="#333" stroke-width="1"/>
<polygon points="233.92,104.64 253.92,139.28 213.92,139.28" fill="#88b0d8" stroke="#333" stroke-width="1"/>
<polygon points="383.21,104.64 403.21,139.28 363.21,139.28" fill="#88b0d8" stroke="#333" stroke-width="1"/>
<polygon points="159.28,233.92 179.28,268.56 139.28,268.56" fill="#88b0d8" stroke="#333" stroke-width="1"/>
<polygon points="308.56,233.92 328.56,268.56 288.56,268.56" fill="#88b0d8" stroke="#333" stroke-width="1"/>
<polygon points="457.85,233.92 477.85,268.56 437.85,268.56" fill="#88b0d8" stroke="#333" stroke-width="1"/>
<polygon points="233.92,363.21 253.92,397.85 213.92,397.85" fill="#88b0d8" stroke="#333" stroke-width="1"/>
<polygon points="383.21,363.21 403.21,397.85 363.21,397.85" fill="#88b0d8" stroke="#333" stroke-width="1"/>
<polygon points="532.49,363.21 552.49,397.85 512.49,397.85" fill="#88b0d8" stroke="#333" stroke-width="1"/>
<polygon points="213.92,139.28 233.92,104.64 253.92,139.28" fill="#88b0d8" stroke="#333" stroke-width="1"/>
<polygon points="363.21,139.28 383.21,104.64 403.21,139.28" fill="#88b0d8" stroke="#333" stroke-width="1"/>
<polygon points="512.49,139.28 532.49,104.64 552.49,139.28" fill="#88b0d8" stroke="#333" stroke-width="1"/>
<polygon points="288.56,268.56 308.56,233.92 328.56,268.56" fill="#88b0d8" stroke="#333" stroke-width="1"/>
<polygon points="437.85,268.56 457.85,233.92 477.85,268.56" fill="#88b0d8" stroke="#333" stroke-width="1"/>
<polygon points="587.13,268.56 607.13,233.92 627.13,268.56" fill="#88b0d8" stroke="#333" stroke-width="1"/>
<polygon points="363.21,397.85 383.21,363.21 403.21,397.85" fill="#88b0d8" stroke="#333" stroke-width="1"/>
<polygon points="512.49,397.85 532.49,363.21 552.49,397.85" fill="#88b0d8" stroke="#333" stroke-width="1"/>
<polygon points="661.77,397.85 681.77,363.21 701.77,397.85" fill="#88b0d8" stroke="#333" stroke-width="1"/>
<text x="10" y="569" font-family="monospace" font-size="12">(12,12,3)A</text>
</svg>
