<svg xmlns="http://www.w3.org/2000/svg" width="696" height="946">
<rect width="100%" height="100%" fill="white"/>
<polygon points="228.56,348.56 268.56,348.56 268.56,388.56 228.56,388.56" fill="#e8c268" stroke="#333" stroke-width="1"/>
<polygon points="392.49,253.92 432.49,253.92 432.49,293.92 392.49,293.92" fill="#e8c268" stroke="#333" stroke-width="1"/>
<polygon points="556.41,159.28 596.41,159.28 596.41,199.28 556.41,199.28" fill="#e8c268" stroke="#333" stroke-width="1"/>
<polygon points="228.56,537.85 268.56,537.85 268.56,577.85 228.56,577.85" fill="#e8c268" stroke="#333" stroke-width="1"/>
<polygon points="392.49,443.21 432.49,443.21 432.49,483.21 392.49,483.21" fill="#e8c268" stroke="#333" stroke-width="1"/>
<polygon points="556.41,348.56 596.41,348.56 596.41,388.56 556.41,388.56" fill="#e8c268" stroke="#333" stroke-width="1"/>
<polygon points="228.56,727.13 268.56,727.13 268.56,767.13 228.56,767.13" fill="#e8c268" stroke="#333" stroke-width="1"/>
<polygon points="392.49,632.49 432.49,632.49 432.49,672.49 392.49,672.49" fill="#e8c268" stroke="#333" stroke-width="1"/>
<polygon points="556.41,537.85 596.41,537.85 596.41,577.85 556.41,577.85" fill="#e8c268" stroke="#333" stroke-width="1"/>
<polygon points="268.56,348.56 228.56,348.56 193.92,328.56 173.92,293.92 173.92,253.92 193.92,219.28 228.56,199.28 268.56,199.28 303.21,219.28 323.21,253.92 323.21,293.92 303.21,328.56" fill="#b8a0d0" stroke="#333" stroke-width="1"/>
<polygon points="432.49,253.92 392.49,253.92 357.85,233.92 337.85,199.28 337.85,159.28 357.85,124.64 392.49,104.64 432.49,104.64 467.13,124.64 487.13,159.28 487.13,199.28 467.13,233.92" fill="#b8a0d0" stroke="#333" stroke-width="1"/>
<polygon points="596.41,159.28 556.41,159.28 521.77,139.28 501.77,104.64 501.77,64.64 521.77,30.00 556.41,10.00 596.41,10.00 631.05,30.00 651.05,64.64 651.05,104.64 631.05,139.28" fill="#b8a0d0" stroke="#333" stroke-width="1"/>
<polygon points="268.56,537.85 228.56,537.85 193.92,517.85 173.92,483.21 173.92,443.21 193.92,408.56 228.56,388.56 268.56,388.56 303.21,408.56 323.21,443.21 323.21,483.21 303.21,517.85" fill="#b8a0d0" stroke="#333" stroke-width="1"/>
<polygon points="432.49,443.21 392.49,443.21 357.85,423.21 337.85,388.56 337.85,348.56 357.85,313.92 392.49,293.92 432.49,293.92 467.13,313.92 487.13,348.56 487.13,388.56 467.13,423.21" fill="#b8a0d0" stroke="#333" stroke-width="1"/>
<polygon points="596.41,348.56 556.41,348.56 521.77,328.56 501.77,293.92 501.77,253.92 521.77,219.28 556.41,199.28 596.41,199.28 631.05,219.28 651.05,253.92 651.05,293.92 631.05,328.56" fill="#b8a0d0" stroke="#333" stroke-width="1"/>
<polygon points="268.56,727.13 228.56,727.13 193.92,707.13 173.92,672.49 173.92,632.49 193.92,597.85 228.56,577.85 268.56,577.85 303.21,597.85 323.21,632.49 323.21,672.49 303.21,707.13" fill="#b8a0d0" stroke="#333" stroke-width="1"/>
<polygon points="432.49,632.49 392.49,632.49 357.85,612.49 337.85,577.85 337.85,537.85 357.85,503.21 392.49,483.21 432.49,483.21 467.13,503.21 487.13,537.85 487.13,577.85 467.13,612.49" fill="#b8a0d0" stroke="#333" stroke-width="1"/>
<polygon points="596.41,537.85 556.41,537.85 521.77,517.85 501.77,483.21 501.77,443.21 521.77,408.56 556.41,388.56 596.41,388.56 631.05,408.56 651.05,443.21 651.05,483.21 631.05,517.85" fill="#b8a0d0" stroke="#333" stroke-width="1"/>
<polygon points="193.92,328.56 228.56,348.56 228.56,388.56 193.92,408.56 159.28,388.56 159.28,348.56" fill="#9ecf9e" stroke="#333" stroke-width="1"/>
<polygon points="357.85,233.92 392.49,253.92 392.49,293.92 357.85,313.92 323.21,293.92 323.21,253.92" fill="#9ecf9e" stroke="#333" stroke-width="1"/>
<polygon points="521.77,139.28 556.41,159.28 556.41,199.28 521.77,219.28 487.13,199.28 487.13,159.28" fill="#9ecf9e" stroke="#333" stroke-width="1"/>
<polygon points="193.92,517.85 228.56,537.85 228.56,577.85 193.92,597.85 159.28,577.85 159.28,537.85" fill="#9ecf9e" stroke="#333" stroke-width="1"/>
<polygon points="357.85,423.21 392.49,443.21 392.49,483.21 357.85,503.21 323.21,483.21 323.21,443.21" fill="#9ecf9e" stroke="#333" stroke-width="1"/>
<polygon points="521.77,328.56 556.41,348.56 556.41,388.56 521.77,408.56 487.13,388.56 487.13,348.56" fill="#9ecf9e" stroke="#333" stroke-width="1"/>
<polygon points="193.92,707.13 228.56,727.13 228.56,767.13 193.92,787.13 159.28,767.13 159.28,727.13" fill="#9ecf9e" stroke="#333" stroke-width="1"/>
<polygon points="357.85,612.49 392.49,632.49 392.49,672.49 357.85,692.49 323.21,672.49 323.21,632.49" fill="#9ecf9e" stroke="#333" stroke-width="1"/>
<polygon points="521.77,517.85 556.41,537.85 556.41,577.85 521.77,597.85 487.13,577.85 487.13,537.85" fill="#9ecf9e" stroke="#333" stroke-width="1"/>
<polygon points="268.56,388.56 268.56,348.56 303.21,328.56 337.85,348.56 337.85,388.56 303.21,408.56" fill="#9ecf9e" stroke="#333" stroke-width="1"/>
<polygon points="432.49,293.92 432.49,253.92 467.13,233.92 501.77,253.92 501.77,293.92 467.13,313.92" fill="#9ecf9e" stroke="#333" stroke-width="1"/>
<polygon points="596.41,199.28 596.41,159.28 631.05,139.28 665.69,159.28 665.69,199.28 631.05,219.28" fill="#9ecf9e" stroke="#333" stroke-width="1"/>
<polygon points="268.56,577.85 268.56,537.85 303.21,517.85 337.85,537.85 337.85,577.85 303.21,597.85" fill="#9ecf9e" stroke="#333" stroke-width="1"/>
<polygon points="432.49,483.21 432.49,443.21 467.13,423.21 501.77,443.21 501.77,483.21 467.13,503.21" fill="#9ecf9e" stroke="#333" stroke-width="1"/>
<polygon points="596.41,388.56 596.41,348.56 631.05,328.56 665.69,348.56 665.69,388.56 631.05,408.56" fill="#9ecf9e" stroke="#333" stroke-width="1"/>
<polygon points="268.56,767.13 268.56,727.13 303.21,707.13 337.85,727.13 337.85,767.13 303.21,787.13" fill="#9ecf9e" stroke="#333" stroke-width="1"/>
<polygon points="432.49,672.49 432.49,632.49 467.13,612.49 501.77,632.49 501.77,672.49 467.13,692.49" fill="#9ecf9e" stroke="#333" stroke-width="1"/>
<polygon points="596.41,577.85 596.41,537.85 631.05,517.85 665.69,537.85 665.69,577.85 631.05,597.85" fill="#9ecf9e" stroke="#333" stroke-width="1"/>
<polygon points="173.92,293.92 193.92,328.56 159.28,348.56 139.28,313.92" fill="#e8c268" stroke="#333" stroke-width="1"/>
<polygon points="337.85,199.28 357.85,233.92 323.21,253.92 303.21,219.28" fill="#e8c268" stroke="#333" stroke-width="1"/>
<polygon points="501.77,104.64 521.77,139.28 487.13,159.28 467.13,124.64" fill="#e8c268" stroke="#333" stroke-width="1"/>
<polygon points="173.92,483.21 193.92,517.85 159.28,537.85 139.28,503.21" fill="#e8c268" stroke="#333" stroke-width="1"/>
<polygon points="337.85,388.56 357.85,423.21 323.21,443.21 303.21,408.56" fill="#e8c268" stroke="#333" stroke-width="1"/>
<polygon points="501.77,293.92 521.77,328.56 487.13,348.56 467.13,313.92" fill="#e8c268" stroke="#333" stroke-width="1"/>
<polygon points="173.92,672.49 193.92,707.13 159.28,727.13 139.28,692.49" fill="#e8c268" stroke="#333" stroke-width="1"/>
<polygon points="337.85,577.85 357.85,612.49 323.21,632.49 303.21,597.85" fill="#e8c268" stroke="#333" stroke-width="1"/>
<polygon points="501.77,483.21 521.77,517.85 487.13,537.85 467.13,503.21" fill="#e8c268" stroke="#333" stroke-width="1"/>
<polygon points="193.92,408.56 228.56,388.56 268.56,388.56 303.21,408.56 323.21,443.21 323.21,483.21 303.21,517.85 268.56,537.85 228.56,537.85 193.92,517.85 173.92,483.21 173.92,443.21" fill="#b8a0d0" stroke="#333" stroke-width="1"/>
<polygon points="357.85,313.92 392.49,293.92 432.49,293.92 467.13,313.92 487.13,348.56 487.13,388.56 467.13,423.21 432.49,443.21 392.49,443.21 357.85,423.21 337.85,388.56 337.85,348.56" fill="#b8a0d0" stroke="#333" stroke-width="1"/>
<polygon points="521.77,219.28 556.41,199.28 596.41,199.28 631.05,219.28 651.05,253.92 651.05,293.92 631.05,328.56 596.41,348.56 556.41,348.56 521.77,328.56 501.77,293.92 501.77,253.92" fill="#b8a0d0" stroke="#333" stroke-width="1"/>
<polygon points="193.92,597.85 228.56,577.85 268.56,577.85 303.21,597.85 323.21,632.49 323.21,672.49 303.21,707.13 268.56,727.13 228.56,727.13 193.92,707.13 173.92,672.49 173.92,632.49" fill="#b8a0d0" stroke="#333" stroke-width="1"/>
<polygon points="357.85,503.21 392.49,483.21 432.49,483.21 467.13,503.21 487.13,537.85 487.13,577.85 467.13,612.49 432.49,632.49 392.49,632.49 357.85,612.49 337.85,577.85 337.85,537.85" fill="#b8a0d0" stroke="#333" stroke-width="1"/>
<polygon points="521.77,408.56 556.41,388.56 596.41,388.56 631.05,408.56 651.05,443.21 651.05,483.21 631.05,517.85 596.41,537.85 556.41,537.85 521.77,517.85 501.77,483.21 501.77,443.21" fill="#b8a0d0" stroke="#333" stroke-width="1"/>
<polygon points="193.92,787.13 228.56,767.13 268.56,767.13 303.21,787.13 323.21,821.77 323.21,861.77 303.21,896.41 268.56,916.41 228.56,916.41 193.92,896.41 173.92,861.77 173.92,821.77" fill="#b8a0d0" stroke="#333" stroke-width="1"/>
<polygon points="357.85,692.49 392.49,672.49 432.49,672.49 467.13,692.49 487.13,727.13 487.13,767.13 467.13,801.77 432.49,821.77 392.49,821.77 357.85,801.77 337.85,767.13 337.85,727.13" fill="#b8a0d0" stroke="#333" stroke-width="1"/>
<polygon points="521.77,597.85 556.41,577.85 596.41,577.85 631.05,597.85 651.05,632.49 651.05,672.49 631.05,707.13 596.41,727.13 556.41,727.13 521.77,707.13 501.77,672.49 501.77,632.49" fill="#b8a0d0" stroke="#333" stroke-width="1"/>
<polygon points="337.85,348.56 303.21,328.56 323.21,293.92 357.85,313.92" fill="#e8c268" stroke="#333" stroke-width="1"/>
<polygon points="501.77,253.92 467.13,233.92 487.13,199.28 521.77,219.28" fill="#e8c268" stroke="#333" stroke-width="1"/>
<polygon points="665.69,159.28 631.05,139.28 651.05,104.64 685.69,124.64" fill="#e8c268" stroke="#333" stroke-width="1"/>
<polygon points="337.85,537.85 303.21,517.85 323.21,483.21 357.85,503.21" fill="#e8c268" stroke="#333" stroke-width="1"/>
<polygon points="501.77,443.21 467.13,423.21 487.13,388.56 521.77,408.56" fill="#e8c268" stroke="#333" stroke-width="1"/>
<polygon points="665.69,348.56 631.05,328.56 651.05,293.92 685.69,313.92" fill="#e8c268" stroke="#333" stroke-width="1"/>
<polygon points="337.85,727.13 303.21,707.13 323.21,672.49 357.85,692.49" fill="#e8c268" stroke="#333" stroke-width="1"/>
<polygon points="501.77,632.49 467.13,612.49 487.13,577.85 521.77,597.85" fill="#e8c268" stroke="#333" stroke-width="1"/>
<polygon points="665.69,537.85 631.05,517.85 651.05,483.21 685.69,503.21" fill="#e8c268" stroke="#333" stroke-width="1"/>
<polygon points="173.92,253.92 173.92,293.92 139.28,313.92 104.64,293.92 104.64,253.92 139.28,233.92" fill="#9ecf9e" stroke="#333" stroke-width="1"/>
<polygon points="337.85,159.28 337.85,199.28 303.21,219.28 268.56,199.28 268.56,159.28 303.21,139.28" fill="#9ecf9e" stroke="#333" stroke-width="1"/>
<polygon points="501.77,64.64 501.77,104.64 467.13,124.64 432.49,104.64 432.49,64.64 467.13,44.64" fill="#9ecf9e" stroke="#333" stroke-width="1"/>
<polygon points="173.92,443.21 173.92,483.21 139.28,503.21 104.64,483.21 104.64,443.21 139.28,423.21" fill="#9ecf9e" stroke="#333" stroke-width="1"/>
<polygon points="337.85,348.56 337.85,388.56 303.21,408.56 268.56,388.56 268.56,348.56 303.21,328.56" fill="#9ecf9e" stroke="#333" stroke-width="1"/>
<polygon points="501.77,253.92 501.77,293.92 467.13,313.92 432.49,293.92 432.49,253.92 467.13,233.92" fill="#9ecf9e" stroke="#333" stroke-width="1"/>
<polygon points="173.92,632.49 173.92,672.49 139.28,692.49 104.64,672.49 104.64,632.49 139.28,612.49" fill="#9ecf9e" stroke="#333" stroke-width="1"/>
<polygon points="337.85,537.85 337.85,577.85 303.21,597.85 268.56,577.85 268.56,537.85 303.21,517.85" fill="#9ecf9e" stroke="#333" stroke-width="1"/>
<polygon points="501.77,443.21 501.77,483.21 467.13,503.21 432.49,483.21 432.49,443.21 467.13,423.21" fill="#9ecf9e" stroke="#333" stroke-width="1"/>
<polygon points="139.28,313.92 159.28,348.56 159.28,388.56 139.28,423.21 104.64,443.21 64.64,443.21 30.00,423.21 10.00,388.56 10.00,348.56 30.00,313.92 64.64,293.92 104.64,293.92" fill="#b8a0d0" stroke="#333" stroke-width="1"/>
<polygon points="303.21,219.28 323.21,253.92 323.21,293.92 303.21,328.56 268.56,348.56 228.56,348.56 193.92,328.56 173.92,293.92 173.92,253.92 193.92,219.28 228.56,199.28 268.56,199.28" fill="#b8a0d0" stroke="#333" stroke-width="1"/>
<polygon points="467.13,124.64 487.13,159.28 487.13,199.28 467.13,233.92 432.49,253.92 392.49,253.92 357.85,233.92 337.85,199.28 337.85,159.28 357.85,124.64 392.49,104.64 432.49,104.64" fill="#b8a0d0" stroke="#333" stroke-width="1"/>
<polygon points="139.28,503.21 159.28,537.85 159.28,577.85 139.28,612.49 104.64,632.49 64.64,632.49 30.00,612.49 10.00,577.85 10.00,537.85 30.00,503.21 64.64,483.21 104.64,483.21" fill="#b8a0d0" stroke="#333" stroke-width="1"/>
<polygon points="303.21,408.56 323.21,443.21 323.21,483.21 303.21,517.85 268.56,537.85 228.56,537.85 193.92,517.85 173.92,483.21 173.92,443.21 193.92,408.56 228.56,388.56 268.56,388.56" fill="#b8a0d0" stroke="#333" stroke-width="1"/>
<polygon points="467.13,313.92 487.13,348.56 487.13,388.56 467.13,423.21 432.49,443.21 392.49,443.21 357.85,423.21 337.85,388.56 337.85,348.56 357.85,313.92 392.49,293.92 432.49,293.92" fill="#b8a0d0" stroke="#333" stroke-width="1"/>
<polygon points="139.28,692.49 159.28,727.13 159.28,767.13 139.28,801.77 104.64,821.77 64.64,821.77 30.00,801.77 10.00,767.13 10.00,727.13 30.00,692.49 64.64,672.49 104.64,672.49" fill="#b8a0d0" stroke="#333" stroke-width="1"/>
<polygon points="303.21,597.85 323.21,632.49 323.21,672.49 303.21,707.13 268.56,727.13 228.56,727.13 193.92,707.13 173.92,672.49 173.92,632.49 193.92,597.85 228.56,577.85 268.56,577.85" fill="#b8a0d0" stroke="#333" stroke-width="1"/>
<polygon points="467.13,503.21 487.13,537.85 487.13,577.85 467.13,612.49 432.49,632.49 392.49,632.49 357.85,612.49 337.85,577.85 337.85,537.85 357.85,503.21 392.49,483.21 432.49,483.21" fill="#b8a0d0" stroke="#333" stroke-width="1"/>
<polygon points="159.28,388.56 193.92,408.56 173.92,443.21 139.28,423.21" fill="#e8c268" stroke="#333" stroke-width="1"/>
<polygon points="323.21,293.92 357.85,313.92 337.85,348.56 303.21,328.56" fill="#e8c268" stroke="#333" stroke-width="1"/>
<polygon points="487.13,199.28 521.77,219.28 501.77,253.92 467.13,233.92" fill="#e8c268" stroke="#333" stroke-width="1"/>
<polygon points="159.28,577.85 193.92,597.85 173.92,632.49 139.28,612.49" fill="#e8c268" stroke="#333" stroke-width="1"/>
<polygon points="323.21,483.21 357.85,503.21 337.85,537.85 303.21,517.85" fill="#e8c268" stroke="#333" stroke-width="1"/>
<polygon points="487.13,388.56 521.77,408.56 501.77,443.21 467.13,423.21" fill="#e8c268" stroke="#333" stroke-width="1"/>
<polygon points="159.28,767.13 193.92,787.13 173.92,821.77 139.28,801.77" fill="#e8c268" stroke="#333" stroke-width="1"/>
<polygon points="323.21,672.49 357.85,692.49 337.85,727.13 303.21,707.13" fill="#e8c268" stroke="#333" stroke-width="1"/>
<polygon points="487.13,577.85 521.77,597.85 501.77,632.49 467.13,612.49" fill="#e8c268" stroke="#333" stroke-width="1"/>
<text x="10" y="938" font-family="monospace" font-size="12">(12,6,4)F</text>
</svg>
