<svg xmlns="http://www.w3.org/2000/svg" width="355" height="481">
<rect width="100%" height="100%" fill="white"/>
<polygon points="115.36,64.64 155.36,64.64 175.36,99.28 155.36,133.92 115.36,133.92 95.36,99.28" fill="#9ecf9e" stroke="#333" stroke-width="1"/>
<polygon points="190.00,113.92 230.00,113.92 250.00,148.56 230.00,183.21 190.00,183.21 170.00,148.56" fill="#9ecf9e" stroke="#333" stroke-width="1"/>
<polygon points="264.64,163.21 304.64,163.21 324.64,197.85 304.64,232.49 264.64,232.49 244.64,197.85" fill="#9ecf9e" stroke="#333" stroke-width="1"/>
<polygon points="110.00,153.92 150.00,153.92 170.00,188.56 150.00,223.21 110.00,223.21 90.00,188.56" fill="#9ecf9e" stroke="#333" stroke-width="1"/>
<polygon points="184.64,203.21 224.64,203.21 244.64,237.85 224.64,272.49 184.64,272.49 164.64,237.85" fill="#9ecf9e" stroke="#333" stroke-width="1"/>
<polygon points="259.28,252.49 299.28,252.49 319.28,287.13 299.28,321.77 259.28,321.77 239.28,287.13" fill="#9ecf9e" stroke="#333" stroke-width="1"/>
<polygon points="104.64,243.21 144.64,243.21 164.64,277.85 144.64,312.49 104.64,312.49 84.64,277.85" fill="#9ecf9e" stroke="#333" stroke-width="1"/>
<polygon points="179.28,292.49 219.28,292.49 239.28,327.13 219.28,361.77 179.28,361.77 159.28,327.13" fill="#9ecf9e" stroke="#333" stroke-width="1"/>
<polygon points="253.92,341.77 293.92,341.77 313.92,376.41 293.92,411.05 253.92,411.05 233.92,376.41" fill="#9ecf9e" stroke="#333" stroke-width="1"/>
<polygon points="155.36,64.64 115.36,64.64 80.72,84.64 100.72,50.00 100.72,10.00 120.72,44.64" fill="#e0a070" stroke="#333" stroke-width="1"/>
<polygon points="230.00,113.92 190.00,113.92 155.36,133.92 175.36,99.28 175.36,59.28 195.36,93.92" fill="#e0a070" stroke="#333" stroke-width="1"/>
<polygon points="304.64,163.21 264.64,163.21 230.00,183.21 250.00,148.56 250.00,108.56 270.00,143.21" fill="#e0a070" stroke="#333" stroke-width="1"/>
<polygon points="150.00,153.92 110.00,153.92 75.36,173.92 95.36,139.28 95.36,99.28 115.36,133.92" fill="#e0a070" stroke="#333" stroke-width="1"/>
<polygon points="224.64,203.21 184.64,203.21 150.00,223.21 170.00,188.56 170.00,148.56 190.00,183.21" fill="#e0a070" stroke="#333" stroke-width="1"/>
<polygon points="299.28,252.49 259.28,252.49 224.64,272.49 244.64,237.85 244.64,197.85 264.64,232.49" fill="#e0a070" stroke="#333" stroke-width="1"/>
<polygon points="144.64,243.21 104.64,243.21 70.00,263.21 90.00,228.56 90.00,188.56 110.00,223.21" fill="#e0a070" stroke="#333" stroke-width="1"/>
<polygon points="219.28,292.49 179.28,292.49 144.64,312.49 164.64,277.85 164.64,237.85 184.64,272.49" fill="#e0a070" stroke="#333" stroke-width="1"/>
<polygon points="293.92,341.77 253.92,341.77 219.28,361.77 239.28,327.13 239.28,287.13 259.28,321.77" fill="#e0a070" stroke="#333" stroke-width="1"/>
<polygon points="80.72,84.64 115.36,64.64 95.36,99.28 95.36,139.28 75.36,104.64 40.72,84.64" fill="#e0a070" stroke="#333" stroke-width="1"/>
<polygon points="155.36,133.92 190.00,113.92 170.00,148.56 170.00,188.56 150.00,153.92 115.36,133.92" fill="#e0a070" stroke="#333" stroke-width="1"/>
<polygon points="230.00,183.21 264.64,163.21 244.64,197.85 244.64,237.85 224.64,203.21 190.00,183.21" fill="#e0a070" stroke="#333" stroke-width="1"/>
<polygon points="75.36,173.92 110.00,153.92 90.00,188.56 90.00,228.56 70.00,193.92 35.36,173.92" fill="#e0a070" stroke="#333" stroke-width="1"/>
<polygon points="150.00,223.21 184.64,203.21 164.64,237.85 164.64,277.85 144.64,243.21 110.00,223.21" fill="#e0a070" stroke="#333" stroke-width="1"/>
<polygon points="224.64,272.49 259.28,252.49 239.28,287.13 239.28,327.13 219.28,292.49 184.64,272.49" fill="#e0a070" stroke="#333" stroke-width="1"/>
<polygon points="70.00,263.21 104.64,243.21 84.64,277.85 84.64,317.85 64.64,283.21 30.00,263.21" fill="#e0a070" stroke="#333" stroke-width="1"/>
<polygon points="144.64,312.49 179.28,292.49 159.28,327.13 159.28,367.13 139.28,332.49 104.64,312.49" fill="#e0a070" stroke="#333" stroke-width="1"/>
<polygon points="219.28,361.77 253.92,341.77 233.92,376.41 233.92,416.41 213.92,381.77 179.28,361.77" fill="#e0a070" stroke="#333" stroke-width="1"/>
<polygon points="175.36,99.28 155.36,64.64 120.72,44.64 160.72,44.64 195.36,24.64 175.36,59.28" fill="#e0a070" stroke="#333" stroke-width="1"/>
<polygon points="250.00,148.56 230.00,113.92 195.36,93.92 235.36,93.92 270.00,73.92 250.00,108.56" fill="#e0a070" stroke="#333" stroke-width="1"/>
<polygon points="324.64,197.85 304.64,163.21 270.00,143.21 310.00,143.21 344.64,123.21 324.64,157.85" fill="#e0a070" stroke="#333" stroke-width="1"/>
<polygon points="170.00,188.56 150.00,153.92 115.36,133.92 155.36,133.92 190.00,113.92 170.00,148.56" fill="#e0a070" stroke="#333" stroke-width="1"/>
<polygon points="244.64,237.85 224.64,203.21 190.00,183.21 230.00,183.21 264.64,163.21 244.64,197.85" fill="#e0a070" stroke="#333" stroke-width="1"/>
<polygon points="319.28,287.13 299.28,252.49 264.64,232.49 304.64,232.49 339.28,212.49 319.28,247.13" fill="#e0a070" stroke="#333" stroke-width="1"/>
<polygon points="164.64,277.85 144.64,243.21 110.00,223.21 150.00,223.21 184.64,203.21 164.64,237.85" fill="#e0a070" stroke="#333" stroke-width="1"/>
<polygon points="239.28,327.13 219.28,292.49 184.64,272.49 224.64,272.49 259.28,252.49 239.28,287.13" fill="#e0a070" stroke="#333" stroke-width="1"/>
<polygon points="313.92,376.41 293.92,341.77 259.28,321.77 299.28,321.77 333.92,301.77 313.92,336.41" fill="#e0a070" stroke="#333" stroke-width="1"/>
<polygon points="100.72,50.00 80.72,84.64 40.72,84.64 20.72,50.00 40.72,15.36 80.72,15.36" fill="#9ecf9e" stroke="#333" stroke-width="1"/>
<polygon points="175.36,99.28 155.36,133.92 115.36,133.92 95.36,99.28 115.36,64.64 155.36,64.64" fill="#9ecf9e" stroke="#333" stroke-width="1"/>
<polygon points="250.00,148.56 230.00,183.21 190.00,183.21 170.00,148.56 190.00,113.92 230.00,113.92" fill="#9ecf9e" stroke="#333" stroke-width="1"/>
<polygon points="95.36,139.28 75.36,173.92 35.36,173.92 15.36,139.28 35.36,104.64 75.36,104.64" fill="#9ecf9e" stroke="#333" stroke-width="1"/>
<polygon points="170.00,188.56 150.00,223.21 110.00,223.21 90.00,188.56 110.00,153.92 150.00,153.92" fill="#9ecf9e" stroke="#333" stroke-width="1"/>
<polygon points="244.64,237.85 224.64,272.49 184.64,272.49 164.64,237.85 184.64,203.21 224.64,203.21" fill="#9ecf9e" stroke="#333" stroke-width="1"/>
<polygon points="90.00,228.56 70.00,263.21 30.00,263.21 10.00,228.56 30.00,193.92 70.00,193.92" fill="#9ecf9e" stroke="#333" stroke-width="1"/>
<polygon points="164.64,277.85 144.64,312.49 104.64,312.49 84.64,277.85 104.64,243.21 144.64,243.21" fill="#9ecf9e" stroke="#333" stroke-width="1"/>
<polygon points="239.28,327.13 219.28,361.77 179.28,361.77 159.28,327.13 179.28,292.49 219.28,292.49" fill="#9ecf9e" stroke="#333" stroke-width="1"/>
<polygon points="95.36,139.28 95.36,99.28 115.36,133.92 150.00,153.92 110.00,153.92 75.36,173.92" fill="#e0a070" stroke="#333" stroke-width="1"/>
<polygon points="170.00,188.56 170.00,148.56 190.00,183.21 224.64,203.21 184.64,203.21 150.00,223.21" fill="#e0a070" stroke="#333" stroke-width="1"/>
<polygon points="244.64,237.85 244.64,197.85 264.64,232.49 299.28,252.49 259.28,252.49 224.64,272.49" fill="#e0a070" stroke="#333" stroke-width="1"/>
<polygon points="90.00,228.56 90.00,188.56 110.00,223.21 144.64,243.21 104.64,243.21 70.00,263.21" fill="#e0a070" stroke="#333" stroke-width="1"/>
<polygon points="164.64,277.85 164.64,237.85 184.64,272.49 219.28,292.49 179.28,292.49 144.64,312.49" fill="#e0a070" stroke="#333" stroke-width="1"/>
<polygon points="239.28,327.13 239.28,287.13 259.28,321.77 293.92,341.77 253.92,341.77 219.28,361.77" fill="#e0a070" stroke="#333" stroke-width="1"/>
<polygon points="84.64,317.85 84.64,277.85 104.64,312.49 139.28,332.49 99.28,332.49 64.64,352.49" fill="#e0a070" stroke="#333" stroke-width="1"/>
<polygon points="159.28,367.13 159.28,327.13 179.28,361.77 213.92,381.77 173.92,381.77 139.28,401.77" fill="#e0a070" stroke="#333" stroke-width="1"/>
<polygon points="233.92,416.41 233.92,376.41 253.92,411.05 288.56,431.05 248.56,431.05 213.92,451.05" fill="#e0a070" stroke="#333" stroke-width="1"/>
<text x="10" y="473" font-family="monospace" font-size="12">(3*d14,3*p2,6)F</text>
</svg>
