<svg xmlns="http://www.w3.org/2000/svg" width="317" height="434">
<rect width="100%" height="100%" fill="white"/>
<polygon points="101.01,54.99 141.01,54.99 161.01,89.63 141.01,124.28 101.01,124.28 81.01,89.63" fill="#9ecf9e" stroke="#333" stroke-width="1"/>
<polygon points="99.65,134.63 139.65,134.63 159.65,169.27 139.65,203.91 99.65,203.91 79.65,169.27" fill="#9ecf9e" stroke="#333" stroke-width="1"/>
<polygon points="98.28,214.26 138.28,214.26 158.28,248.90 138.28,283.55 98.28,283.55 78.28,248.90" fill="#9ecf9e" stroke="#333" stroke-width="1"/>
<polygon points="169.29,95.99 209.29,95.99 229.29,130.63 209.29,165.27 169.29,165.27 149.29,130.63" fill="#9ecf9e" stroke="#333" stroke-width="1"/>
<polygon points="167.93,175.63 207.93,175.63 227.93,210.27 207.93,244.91 167.93,244.91 147.93,210.27" fill="#9ecf9e" stroke="#333" stroke-width="1"/>
<polygon points="166.57,255.26 206.57,255.26 226.57,289.90 206.57,324.54 166.57,324.54 146.57,289.90" fill="#9ecf9e" stroke="#333" stroke-width="1"/>
<polygon points="237.58,136.99 277.58,136.99 297.58,171.63 277.58,206.27 237.58,206.27 217.58,171.63" fill="#9ecf9e" stroke="#333" stroke-width="1"/>
<polygon points="236.22,216.62 276.22,216.62 296.22,251.27 276.22,285.91 236.22,285.91 216.22,251.27" fill="#9ecf9e" stroke="#333" stroke-width="1"/>
<polygon points="234.85,296.26 274.85,296.26 294.85,330.90 274.85,365.54 234.85,365.54 214.85,330.90" fill="#9ecf9e" stroke="#333" stroke-width="1"/>
<polygon points="141.01,54.99 101.01,54.99 72.73,83.28 92.73,48.64 82.37,10.00 102.37,44.64" fill="#7fc4c4" stroke="#333" stroke-width="1"/>
<polygon points="139.65,134.63 99.65,134.63 71.36,162.91 91.36,128.27 81.01,89.63 101.01,124.28" fill="#7fc4c4" stroke="#333" stroke-width="1"/>
<polygon points="138.28,214.26 98.28,214.26 70.00,242.55 90.00,207.91 79.65,169.27 99.65,203.91" fill="#7fc4c4" stroke="#333" stroke-width="1"/>
<polygon points="209.29,95.99 169.29,95.99 141.01,124.28 161.01,89.63 150.66,51.00 170.66,85.64" fill="#7fc4c4" stroke="#333" stroke-width="1"/>
<polygon points="207.93,175.63 167.93,175.63 139.65,203.91 159.65,169.27 149.29,130.63 169.29,165.27" fill="#7fc4c4" stroke="#333" stroke-width="1"/>
<polygon points="206.57,255.26 166.57,255.26 138.28,283.55 158.28,248.90 147.93,210.27 167.93,244.91" fill="#7fc4c4" stroke="#333" stroke-width="1"/>
<polygon points="277.58,136.99 237.58,136.99 209.29,165.27 229.29,130.63 218.94,92.00 238.94,126.64" fill="#7fc4c4" stroke="#333" stroke-width="1"/>
<polygon points="276.22,216.62 236.22,216.62 207.93,244.91 227.93,210.27 217.58,171.63 237.58,206.27" fill="#7fc4c4" stroke="#333" stroke-width="1"/>
<polygon points="274.85,296.26 234.85,296.26 206.57,324.54 226.57,289.90 216.22,251.27 236.22,285.91" fill="#7fc4c4" stroke="#333" stroke-width="1"/>
<polygon points="72.73,83.28 101.01,54.99 81.01,89.63 91.36,128.27 71.36,93.63 32.73,83.28" fill="#7fc4c4" stroke="#333" stroke-width="1"/>
<polygon points="71.36,162.91 99.65,134.63 79.65,169.27 90.00,207.91 70.00,173.27 31.36,162.91" fill="#7fc4c4" stroke="#333" stroke-width="1"/>
<polygon points="70.00,242.55 98.28,214.26 78.28,248.90 88.64,287.54 68.64,252.90 30.00,242.55" fill="#7fc4c4" stroke="#333" stroke-width="1"/>
<polygon points="141.01,124.28 169.29,95.99 149.29,130.63 159.65,169.27 139.65,134.63 101.01,124.28" fill="#7fc4c4" stroke="#333" stroke-width="1"/>
<polygon points="139.65,203.91 167.93,175.63 147.93,210.27 158.28,248.90 138.28,214.26 99.65,203.91" fill="#7fc4c4" stroke="#333" stroke-width="1"/>
<polygon points="138.28,283.55 166.57,255.26 146.57,289.90 156.92,328.54 136.92,293.90 98.28,283.55" fill="#7fc4c4" stroke="#333" stroke-width="1"/>
<polygon points="209.29,165.27 237.58,136.99 217.58,171.63 227.93,210.27 207.93,175.63 169.29,165.27" fill="#7fc4c4" stroke="#333" stroke-width="1"/>
<polygon points="207.93,244.91 236.22,216.62 216.22,251.27 226.57,289.90 206.57,255.26 167.93,244.91" fill="#7fc4c4" stroke="#333" stroke-width="1"/>
<polygon points="206.57,324.54 234.85,296.26 214.85,330.90 225.21,369.54 205.21,334.90 166.57,324.54" fill="#7fc4c4" stroke="#333" stroke-width="1"/>
<polygon points="161.01,89.63 141.01,54.99 102.37,44.64 142.37,44.64 170.66,16.36 150.66,51.00" fill="#7fc4c4" stroke="#333" stroke-width="1"/>
<polygon points="159.65,169.27 139.65,134.63 101.01,124.28 141.01,124.28 169.29,95.99 149.29,130.63" fill="#7fc4c4" stroke="#333" stroke-width="1"/>
<polygon points="158.28,248.90 138.28,214.26 99.65,203.91 139.65,203.91 167.93,175.63 147.93,210.27" fill="#7fc4c4" stroke="#333" stroke-width="1"/>
<polygon points="229.29,130.63 209.29,95.99 170.66,85.64 210.66,85.64 238.94,57.35 218.94,92.00" fill="#7fc4c4" stroke="#333" stroke-width="1"/>
<polygon points="227.93,210.27 207.93,175.63 169.29,165.27 209.29,165.27 237.58,136.99 217.58,171.63" fill="#7fc4c4" stroke="#333" stroke-width="1"/>
<polygon points="226.57,289.90 206.57,255.26 167.93,244.91 207.93,244.91 236.22,216.62 216.22,251.27" fill="#7fc4c4" stroke="#333" stroke-width="1"/>
<polygon points="297.58,171.63 277.58,136.99 238.94,126.64 278.94,126.64 307.23,98.35 287.23,132.99" fill="#7fc4c4" stroke="#333" stroke-width="1"/>
<polygon points="296.22,251.27 276.22,216.62 237.58,206.27 277.58,206.27 305.86,177.99 285.86,212.63" fill="#7fc4c4" stroke="#333" stroke-width="1"/>
<polygon points="294.85,330.90 274.85,296.26 236.22,285.91 276.22,285.91 304.50,257.62 284.50,292.26" fill="#7fc4c4" stroke="#333" stroke-width="1"/>
<polygon points="92.73,48.64 72.73,83.28 32.73,83.28 12.73,48.64 32.73,14.00 72.73,14.00" fill="#9ecf9e" stroke="#333" stroke-width="1"/>
<polygon points="91.36,128.27 71.36,162.91 31.36,162.91 11.36,128.27 31.36,93.63 71.36,93.63" fill="#9ecf9e" stroke="#333" stroke-width="1"/>
<polygon points="90.00,207.91 70.00,242.55 30.00,242.55 10.00,207.91 30.00,173.27 70.00,173.27" fill="#9ecf9e" stroke="#333" stroke-width="1"/>
<polygon points="161.01,89.63 141.01,124.28 101.01,124.28 81.01,89.63 101.01,54.99 141.01,54.99" fill="#9ecf9e" stroke="#333" stroke-width="1"/>
<polygon points="159.65,169.27 139.65,203.91 99.65,203.91 79.65,169.27 99.65,134.63 139.65,134.63" fill="#9ecf9e" stroke="#333" stroke-width="1"/>
<polygon points="158.28,248.90 138.28,283.55 98.28,283.55 78.28,248.90 98.28,214.26 138.28,214.26" fill="#9ecf9e" stroke="#333" stroke-width="1"/>
<polygon points="229.29,130.63 209.29,165.27 169.29,165.27 149.29,130.63 169.29,95.99 209.29,95.99" fill="#9ecf9e" stroke="#333" stroke-width="1"/>
<polygon points="227.93,210.27 207.93,244.91 167.93,244.91 147.93,210.27 167.93,175.63 207.93,175.63" fill="#9ecf9e" stroke="#333" stroke-width="1"/>
<polygon points="226.57,289.90 206.57,324.54 166.57,324.54 146.57,289.90 166.57,255.26 206.57,255.26" fill="#9ecf9e" stroke="#333" stroke-width="1"/>
<polygon points="91.36,128.27 81.01,89.63 101.01,124.28 139.65,134.63 99.65,134.63 71.36,162.91" fill="#7fc4c4" stroke="#333" stroke-width="1"/>
<polygon points="90.00,207.91 79.65,169.27 99.65,203.91 138.28,214.26 98.28,214.26 70.00,242.55" fill="#7fc4c4" stroke="#333" stroke-width="1"/>
<polygon points="88.64,287.54 78.28,248.90 98.28,283.55 136.92,293.90 96.92,293.90 68.64,322.18" fill="#7fc4c4" stroke="#333" stroke-width="1"/>
<polygon points="159.65,169.27 149.29,130.63 169.29,165.27 207.93,175.63 167.93,175.63 139.65,203.91" fill="#7fc4c4" stroke="#333" stroke-width="1"/>
<polygon points="158.28,248.90 147.93,210.27 167.93,244.91 206.57,255.26 166.57,255.26 138.28,283.55" fill="#7fc4c4" stroke="#333" stroke-width="1"/>
<polygon points="156.92,328.54 146.57,289.90 166.57,324.54 205.21,334.90 165.21,334.90 136.92,363.18" fill="#7fc4c4" stroke="#333" stroke-width="1"/>
<polygon points="227.93,210.27 217.58,171.63 237.58,206.27 276.22,216.62 236.22,216.62 207.93,244.91" fill="#7fc4c4" stroke="#333" stroke-width="1"/>
<polygon points="226.57,289.90 216.22,251.27 236.22,285.91 274.85,296.26 234.85,296.26 206.57,324.54" fill="#7fc4c4" stroke="#333" stroke-width="1"/>
<polygon points="225.21,369.54 214.85,330.90 234.85,365.54 273.49,375.89 233.49,375.89 205.21,404.18" fill="#7fc4c4" stroke="#333" stroke-width="1"/>
<text x="10" y="426" font-family="monospace" font-size="12">(3*d15,3*p1,6)F</text>
</svg>
