<svg xmlns="http://www.w3.org/2000/svg" width="399" height="399">
<rect width="100%" height="100%" fill="white"/>
<polygon points="84.64,233.92 124.64,233.92 124.64,273.92 84.64,273.92" fill="#e8c268" stroke="#333" stroke-width="1"/>
<polygon points="159.28,253.92 199.28,253.92 199.28,293.92 159.28,293.92" fill="#e8c268" stroke="#333" stroke-width="1"/>
<polygon points="233.92,273.92 273.92,273.92 273.92,313.92 233.92,313.92" fill="#e8c268" stroke="#333" stroke-width="1"/>
<polygon points="104.64,159.28 144.64,159.28 144.64,199.28 104.64,199.28" fill="#e8c268" stroke="#333" stroke-width="1"/>
<polygon points="179.28,179.28 219.28,179.28 219.28,219.28 179.28,219.28" fill="#e8c268" stroke="#333" stroke-width="1"/>
<polygon points="253.92,199.28 293.92,199.28 293.92,239.28 253.92,239.28" fill="#e8c268" stroke="#333" stroke-width="1"/>
<polygon points="124.64,84.64 164.64,84.64 164.64,124.64 124.64,124.64" fill="#e8c268" stroke="#333" stroke-width="1"/>
<polygon points="199.28,104.64 239.28,104.64 239.28,144.64 199.28,144.64" fill="#e8c268" stroke="#333" stroke-width="1"/>
<polygon points="273.92,124.64 313.92,124.64 313.92,164.64 273.92,164.64" fill="#e8c268" stroke="#333" stroke-width="1"/>
<polygon points="124.64,233.92 84.64,233.92 50.00,253.92 50.00,213.92 30.00,179.28 70.00,179.28 104.64,159.28 104.64,199.28" fill="#d0a8c0" stroke="#333" stroke-width="1"/>
<polygon points="199.28,253.92 159.28,253.92 124.64,273.92 124.64,233.92 104.64,199.28 144.64,199.28 179.28,179.28 179.28,219.28" fill="#d0a8c0" stroke="#333" stroke-width="1"/>
<polygon points="273.92,273.92 233.92,273.92 199.28,293.92 199.28,253.92 179.28,219.28 219.28,219.28 253.92,199.28 253.92,239.28" fill="#d0a8c0" stroke="#333" stroke-width="1"/>
<polygon points="144.64,159.28 104.64,159.28 70.00,179.28 70.00,139.28 50.00,104.64 90.00,104.64 124.64,84.64 124.64,124.64" fill="#d0a8c0" stroke="#333" stroke-width="1"/>
<polygon points="219.28,179.28 179.28,179.28 144.64,199.28 144.64,159.28 124.64,124.64 164.64,124.64 199.28,104.64 199.28,144.64" fill="#d0a8c0" stroke="#333" stroke-width="1"/>
<polygon points="293.92,199.28 253.92,199.28 219.28,219.28 219.28,179.28 199.28,144.64 239.28,144.64 273.92,124.64 273.92,164.64" fill="#d0a8c0" stroke="#333" stroke-width="1"/>
<polygon points="164.64,84.64 124.64,84.64 90.00,104.64 90.00,64.64 70.00,30.00 110.00,30.00 144.64,10.00 144.64,50.00" fill="#d0a8c0" stroke="#333" stroke-width="1"/>
<polygon points="239.28,104.64 199.28,104.64 164.64,124.64 164.64,84.64 144.64,50.00 184.64,50.00 219.28,30.00 219.28,70.00" fill="#d0a8c0" stroke="#333" stroke-width="1"/>
<polygon points="313.92,124.64 273.92,124.64 239.28,144.64 239.28,104.64 219.28,70.00 259.28,70.00 293.92,50.00 293.92,90.00" fill="#d0a8c0" stroke="#333" stroke-width="1"/>
<polygon points="50.00,253.92 84.64,233.92 84.64,273.92 104.64,308.56 64.64,308.56 30.00,328.56 30.00,288.56 10.00,253.92" fill="#d0a8c0" stroke="#333" stroke-width="1"/>
<polygon points="124.64,273.92 159.28,253.92 159.28,293.92 179.28,328.56 139.28,328.56 104.64,348.56 104.64,308.56 84.64,273.92" fill="#d0a8c0" stroke="#333" stroke-width="1"/>
<polygon points="199.28,293.92 233.92,273.92 233.92,313.92 253.92,348.56 213.92,348.56 179.28,368.56 179.28,328.56 159.28,293.92" fill="#d0a8c0" stroke="#333" stroke-width="1"/>
<polygon points="70.00,179.28 104.64,159.28 104.64,199.28 124.64,233.92 84.64,233.92 50.00,253.92 50.00,213.92 30.00,179.28" fill="#d0a8c0" stroke="#333" stroke-width="1"/>
<polygon points="144.64,199.28 179.28,179.28 179.28,219.28 199.28,253.92 159.28,253.92 124.64,273.92 124.64,233.92 104.64,199.28" fill="#d0a8c0" stroke="#333" stroke-width="1"/>
<polygon points="219.28,219.28 253.92,199.28 253.92,239.28 273.92,273.92 233.92,273.92 199.28,293.92 199.28,253.92 179.28,219.28" fill="#d0a8c0" stroke="#333" stroke-width="1"/>
<polygon points="90.00,104.64 124.64,84.64 124.64,124.64 144.64,159.28 104.64,159.28 70.00,179.28 70.00,139.28 50.00,104.64" fill="#d0a8c0" stroke="#333" stroke-width="1"/>
<polygon points="164.64,124.64 199.28,104.64 199.28,144.64 219.28,179.28 179.28,179.28 144.64,199.28 144.64,159.28 124.64,124.64" fill="#d0a8c0" stroke="#333" stroke-width="1"/>
<polygon points="239.28,144.64 273.92,124.64 273.92,164.64 293.92,199.28 253.92,199.28 219.28,219.28 219.28,179.28 199.28,144.64" fill="#d0a8c0" stroke="#333" stroke-width="1"/>
<polygon points="124.64,273.92 124.64,233.92 104.64,199.28 144.64,199.28 179.28,179.28 179.28,219.28 199.28,253.92 159.28,253.92" fill="#d0a8c0" stroke="#333" stroke-width="1"/>
<polygon points="199.28,293.92 199.28,253.92 179.28,219.28 219.28,219.28 253.92,199.28 253.92,239.28 273.92,273.92 233.92,273.92" fill="#d0a8c0" stroke="#333" stroke-width="1"/>
<polygon points="273.92,313.92 273.92,273.92 253.92,239.28 293.92,239.28 328.56,219.28 328.56,259.28 348.56,293.92 308.56,293.92" fill="#d0a8c0" stroke="#333" stroke-width="1"/>
<polygon points="144.64,199.28 144.64,159.28 124.64,124.64 164.64,124.64 199.28,104.64 199.28,144.64 219.28,179.28 179.28,179.28" fill="#d0a8c0" stroke="#333" stroke-width="1"/>
<polygon points="219.28,219.28 219.28,179.28 199.28,144.64 239.28,144.64 273.92,124.64 273.92,164.64 293.92,199.28 253.92,199.28" fill="#d0a8c0" stroke="#333" stroke-width="1"/>
<polygon points="293.92,239.28 293.92,199.28 273.92,164.64 313.92,164.64 348.56,144.64 348.56,184.64 368.56,219.28 328.56,219.28" fill="#d0a8c0" stroke="#333" stroke-width="1"/>
<polygon points="164.64,124.64 164.64,84.64 144.64,50.00 184.64,50.00 219.28,30.00 219.28,70.00 239.28,104.64 199.28,104.64" fill="#d0a8c0" stroke="#333" stroke-width="1"/>
<polygon points="239.28,144.64 239.28,104.64 219.28,70.00 259.28,70.00 293.92,50.00 293.92,90.00 313.92,124.64 273.92,124.64" fill="#d0a8c0" stroke="#333" stroke-width="1"/>
<polygon points="313.92,164.64 313.92,124.64 293.92,90.00 333.92,90.00 368.56,70.00 368.56,110.00 388.56,144.64 348.56,144.64" fill="#d0a8c0" stroke="#333" stroke-width="1"/>
<polygon points="50.00,253.92 10.00,253.92 10.00,213.92 50.00,213.92" fill="#e8c268" stroke="#333" stroke-width="1"/>
<polygon points="124.64,273.92 84.64,273.92 84.64,233.92 124.64,233.92" fill="#e8c268" stroke="#333" stroke-width="1"/>
<polygon points="199.28,293.92 159.28,293.92 159.28,253.92 199.28,253.92" fill="#e8c268" stroke="#333" stroke-width="1"/>
<polygon points="70.00,179.28 30.00,179.28 30.00,139.28 70.00,139.28" fill="#e8c268" stroke="#333" stroke-width="1"/>
<polygon points="144.64,199.28 104.64,199.28 104.64,159.28 144.64,159.28" fill="#e8c268" stroke="#333" stroke-width="1"/>
<polygon points="219.28,219.28 179.28,219.28 179.28,179.28 219.28,179.28" fill="#e8c268" stroke="#333" stroke-width="1"/>
<polygon points="90.00,104.64 50.00,104.64 50.00,64.64 90.00,64.64" fill="#e8c268" stroke="#333" stroke-width="1"/>
<polygon points="164.64,124.64 124.64,124.64 124.64,84.64 164.64,84.64" fill="#e8c268" stroke="#333" stroke-width="1"/>
<polygon points="239.28,144.64 199.28,144.64 199.28,104.64 239.28,104.64" fill="#e8c268" stroke="#333" stroke-width="1"/>
<text x="10" y="391" font-family="monospace" font-size="12">(4*d14,4*p4,4)F</text>
</svg>
