<svg xmlns="http://www.w3.org/2000/svg" width="357" height="365">
<rect width="100%" height="100%" fill="white"/>
<polygon points="101.72,78.28 141.72,78.28 141.72,118.28 101.72,118.28" fill="#e8c268" stroke="#333" stroke-width="1"/>
<polygon points="90.00,146.57 130.00,146.57 130.00,186.57 90.00,186.57" fill="#e8c268" stroke="#333" stroke-width="1"/>
<polygon points="78.28,214.85 118.28,214.85 118.28,254.85 78.28,254.85" fill="#e8c268" stroke="#333" stroke-width="1"/>
<polygon points="170.00,90.00 210.00,90.00 210.00,130.00 170.00,130.00" fill="#e8c268" stroke="#333" stroke-width="1"/>
<polygon points="158.28,158.28 198.28,158.28 198.28,198.28 158.28,198.28" fill="#e8c268" stroke="#333" stroke-width="1"/>
<polygon points="146.57,226.57 186.57,226.57 186.57,266.57 146.57,266.57" fill="#e8c268" stroke="#333" stroke-width="1"/>
<polygon points="238.28,101.72 278.28,101.72 278.28,141.72 238.28,141.72" fill="#e8c268" stroke="#333" stroke-width="1"/>
<polygon points="226.57,170.00 266.57,170.00 266.57,210.00 226.57,210.00" fill="#e8c268" stroke="#333" stroke-width="1"/>
<polygon points="214.85,238.28 254.85,238.28 254.85,278.28 214.85,278.28" fill="#e8c268" stroke="#333" stroke-width="1"/>
<polygon points="141.72,78.28 101.72,78.28 73.43,106.57 73.43,66.57 45.15,38.28 85.15,38.28 113.43,10.00 113.43,50.00" fill="#a0b8e8" stroke="#333" stroke-width="1"/>
<polygon points="130.00,146.57 90.00,146.57 61.72,174.85 61.72,134.85 33.43,106.57 73.43,106.57 101.72,78.28 101.72,118.28" fill="#a0b8e8" stroke="#333" stroke-width="1"/>
<polygon points="118.28,214.85 78.28,214.85 50.00,243.14 50.00,203.14 21.72,174.85 61.72,174.85 90.00,146.57 90.00,186.57" fill="#a0b8e8" stroke="#333" stroke-width="1"/>
<polygon points="210.00,90.00 170.00,90.00 141.72,118.28 141.72,78.28 113.43,50.00 153.43,50.00 181.72,21.72 181.72,61.72" fill="#a0b8e8" stroke="#333" stroke-width="1"/>
<polygon points="198.28,158.28 158.28,158.28 130.00,186.57 130.00,146.57 101.72,118.28 141.72,118.28 170.00,90.00 170.00,130.00" fill="#a0b8e8" stroke="#333" stroke-width="1"/>
<polygon points="186.57,226.57 146.57,226.57 118.28,254.85 118.28,214.85 90.00,186.57 130.00,186.57 158.28,158.28 158.28,198.28" fill="#a0b8e8" stroke="#333" stroke-width="1"/>
<polygon points="278.28,101.72 238.28,101.72 210.00,130.00 210.00,90.00 181.72,61.72 221.72,61.72 250.00,33.43 250.00,73.43" fill="#a0b8e8" stroke="#333" stroke-width="1"/>
<polygon points="266.57,170.00 226.57,170.00 198.28,198.28 198.28,158.28 170.00,130.00 210.00,130.00 238.28,101.72 238.28,141.72" fill="#a0b8e8" stroke="#333" stroke-width="1"/>
<polygon points="254.85,238.28 214.85,238.28 186.57,266.57 186.57,226.57 158.28,198.28 198.28,198.28 226.57,170.00 226.57,210.00" fill="#a0b8e8" stroke="#333" stroke-width="1"/>
<polygon points="73.43,106.57 101.72,78.28 101.72,118.28 130.00,146.57 90.00,146.57 61.72,174.85 61.72,134.85 33.43,106.57" fill="#a0b8e8" stroke="#333" stroke-width="1"/>
<polygon points="61.72,174.85 90.00,146.57 90.00,186.57 118.28,214.85 78.28,214.85 50.00,243.14 50.00,203.14 21.72,174.85" fill="#a0b8e8" stroke="#333" stroke-width="1"/>
<polygon points="50.00,243.14 78.28,214.85 78.28,254.85 106.57,283.14 66.57,283.14 38.28,311.42 38.28,271.42 10.00,243.14" fill="#a0b8e8" stroke="#333" stroke-width="1"/>
<polygon points="141.72,118.28 170.00,90.00 170.00,130.00 198.28,158.28 158.28,158.28 130.00,186.57 130.00,146.57 101.72,118.28" fill="#a0b8e8" stroke="#333" stroke-width="1"/>
<polygon points="130.00,186.57 158.28,158.28 158.28,198.28 186.57,226.57 146.57,226.57 118.28,254.85 118.28,214.85 90.00,186.57" fill="#a0b8e8" stroke="#333" stroke-width="1"/>
<polygon points="118.28,254.85 146.57,226.57 146.57,266.57 174.85,294.85 134.85,294.85 106.57,323.14 106.57,283.14 78.28,254.85" fill="#a0b8e8" stroke="#333" stroke-width="1"/>
<polygon points="210.00,130.00 238.28,101.72 238.28,141.72 266.57,170.00 226.57,170.00 198.28,198.28 198.28,158.28 170.00,130.00" fill="#a0b8e8" stroke="#333" stroke-width="1"/>
<polygon points="198.28,198.28 226.57,170.00 226.57,210.00 254.85,238.28 214.85,238.28 186.57,266.57 186.57,226.57 158.28,198.28" fill="#a0b8e8" stroke="#333" stroke-width="1"/>
<polygon points="186.57,266.57 214.85,238.28 214.85,278.28 243.14,306.57 203.14,306.57 174.85,334.85 174.85,294.85 146.57,266.57" fill="#a0b8e8" stroke="#333" stroke-width="1"/>
<polygon points="141.72,118.28 141.72,78.28 113.43,50.00 153.43,50.00 181.72,21.72 181.72,61.72 210.00,90.00 170.00,90.00" fill="#a0b8e8" stroke="#333" stroke-width="1"/>
<polygon points="130.00,186.57 130.00,146.57 101.72,118.28 141.72,118.28 170.00,90.00 170.00,130.00 198.28,158.28 158.28,158.28" fill="#a0b8e8" stroke="#333" stroke-width="1"/>
<polygon points="118.28,254.85 118.28,214.85 90.00,186.57 130.00,186.57 158.28,158.28 158.28,198.28 186.57,226.57 146.57,226.57" fill="#a0b8e8" stroke="#333" stroke-width="1"/>
<polygon points="210.00,130.00 210.00,90.00 181.72,61.72 221.72,61.72 250.00,33.43 250.00,73.43 278.28,101.72 238.28,101.72" fill="#a0b8e8" stroke="#333" stroke-width="1"/>
<polygon points="198.28,198.28 198.28,158.28 170.00,130.00 210.00,130.00 238.28,101.72 238.28,141.72 266.57,170.00 226.57,170.00" fill="#a0b8e8" stroke="#333" stroke-width="1"/>
<polygon points="186.57,266.57 186.57,226.57 158.28,198.28 198.28,198.28 226.57,170.00 226.57,210.00 254.85,238.28 214.85,238.28" fill="#a0b8e8" stroke="#333" stroke-width="1"/>
<polygon points="278.28,141.72 278.28,101.72 250.00,73.43 290.00,73.43 318.28,45.15 318.28,85.15 346.57,113.43 306.57,113.43" fill="#a0b8e8" stroke="#333" stroke-width="1"/>
<polygon points="266.57,210.00 266.57,170.00 238.28,141.72 278.28,141.72 306.57,113.43 306.57,153.43 334.85,181.72 294.85,181.72" fill="#a0b8e8" stroke="#333" stroke-width="1"/>
<polygon points="254.85,278.28 254.85,238.28 226.57,210.00 266.57,210.00 294.85,181.72 294.85,221.72 323.14,250.00 283.14,250.00" fill="#a0b8e8" stroke="#333" stroke-width="1"/>
<polygon points="73.43,106.57 33.43,106.57 33.43,66.57 73.43,66.57" fill="#e8c268" stroke="#333" stroke-width="1"/>
<polygon points="61.72,174.85 21.72,174.85 21.72,134.85 61.72,134.85" fill="#e8c268" stroke="#333" stroke-width="1"/>
<polygon points="50.00,243.14 10.00,243.14 10.00,203.14 50.00,203.14" fill="#e8c268" stroke="#333" stroke-width="1"/>
<polygon points="141.72,118.28 101.72,118.28 101.72,78.28 141.72,78.28" fill="#e8c268" stroke="#333" stroke-width="1"/>
<polygon points="130.00,186.57 90.00,186.57 90.00,146.57 130.00,146.57" fill="#e8c268" stroke="#333" stroke-width="1"/>
<polygon points="118.28,254.85 78.28,254.85 78.28,214.85 118.28,214.85" fill="#e8c268" stroke="#333" stroke-width="1"/>
<polygon points="210.00,130.00 170.00,130.00 170.00,90.00 210.00,90.00" fill="#e8c268" stroke="#333" stroke-width="1"/>
<polygon points="198.28,198.28 158.28,198.28 158.28,158.28 198.28,158.28" fill="#e8c268" stroke="#333" stroke-width="1"/>
<polygon points="186.57,266.57 146.57,266.57 146.57,226.57 186.57,226.57" fill="#e8c268" stroke="#333" stroke-width="1"/>
<text x="10" y="357" font-family="monospace" font-size="12">(4*d15,4*p3,4)F</text>
</svg>
