<svg xmlns="http://www.w3.org/2000/svg" width="311" height="325">
<rect width="100%" height="100%" fill="white"/>
<polygon points="80.72,70.00 120.72,70.00 120.72,110.00 80.72,110.00" fill="#e8c268" stroke="#333" stroke-width="1"/>
<polygon points="75.36,130.00 115.36,130.00 115.36,170.00 75.36,170.00" fill="#e8c268" stroke="#333" stroke-width="1"/>
<polygon points="70.00,190.00 110.00,190.00 110.00,230.00 70.00,230.00" fill="#e8c268" stroke="#333" stroke-width="1"/>
<polygon points="140.72,75.36 180.72,75.36 180.72,115.36 140.72,115.36" fill="#e8c268" stroke="#333" stroke-width="1"/>
<polygon points="135.36,135.36 175.36,135.36 175.36,175.36 135.36,175.36" fill="#e8c268" stroke="#333" stroke-width="1"/>
<polygon points="130.00,195.36 170.00,195.36 170.00,235.36 130.00,235.36" fill="#e8c268" stroke="#333" stroke-width="1"/>
<polygon points="200.72,80.72 240.72,80.72 240.72,120.72 200.72,120.72" fill="#e8c268" stroke="#333" stroke-width="1"/>
<polygon points="195.36,140.72 235.36,140.72 235.36,180.72 195.36,180.72" fill="#e8c268" stroke="#333" stroke-width="1"/>
<polygon points="190.00,200.72 230.00,200.72 230.00,240.72 190.00,240.72" fill="#e8c268" stroke="#333" stroke-width="1"/>
<polygon points="120.72,70.00 80.72,70.00 60.72,104.64 60.72,64.64 26.08,44.64 66.08,44.64 86.08,10.00 86.08,50.00" fill="#c0c078" stroke="#333" stroke-width="1"/>
<polygon points="115.36,130.00 75.36,130.00 55.36,164.64 55.36,124.64 20.72,104.64 60.72,104.64 80.72,70.00 80.72,110.00" fill="#c0c078" stroke="#333" stroke-width="1"/>
<polygon points="110.00,190.00 70.00,190.00 50.00,224.64 50.00,184.64 15.36,164.64 55.36,164.64 75.36,130.00 75.36,170.00" fill="#c0c078" stroke="#333" stroke-width="1"/>
<polygon points="180.72,75.36 140.72,75.36 120.72,110.00 120.72,70.00 86.08,50.00 126.08,50.00 146.08,15.36 146.08,55.36" fill="#c0c078" stroke="#333" stroke-width="1"/>
<polygon points="175.36,135.36 135.36,135.36 115.36,170.00 115.36,130.00 80.72,110.00 120.72,110.00 140.72,75.36 140.72,115.36" fill="#c0c078" stroke="#333" stroke-width="1"/>
<polygon points="170.00,195.36 130.00,195.36 110.00,230.00 110.00,190.00 75.36,170.00 115.36,170.00 135.36,135.36 135.36,175.36" fill="#c0c078" stroke="#333" stroke-width="1"/>
<polygon points="240.72,80.72 200.72,80.72 180.72,115.36 180.72,75.36 146.08,55.36 186.08,55.36 206.08,20.72 206.08,60.72" fill="#c0c078" stroke="#333" stroke-width="1"/>
<polygon points="235.36,140.72 195.36,140.72 175.36,175.36 175.36,135.36 140.72,115.36 180.72,115.36 200.72,80.72 200.72,120.72" fill="#c0c078" stroke="#333" stroke-width="1"/>
<polygon points="230.00,200.72 190.00,200.72 170.00,235.36 170.00,195.36 135.36,175.36 175.36,175.36 195.36,140.72 195.36,180.72" fill="#c0c078" stroke="#333" stroke-width="1"/>
<polygon points="60.72,104.64 80.72,70.00 80.72,110.00 115.36,130.00 75.36,130.00 55.36,164.64 55.36,124.64 20.72,104.64" fill="#c0c078" stroke="#333" stroke-width="1"/>
<polygon points="55.36,164.64 75.36,130.00 75.36,170.00 110.00,190.00 70.00,190.00 50.00,224.64 50.00,184.64 15.36,164.64" fill="#c0c078" stroke="#333" stroke-width="1"/>
<polygon points="50.00,224.64 70.00,190.00 70.00,230.00 104.64,250.00 64.64,250.00 44.64,284.64 44.64,244.64 10.00,224.64" fill="#c0c078" stroke="#333" stroke-width="1"/>
<polygon points="120.72,110.00 140.72,75.36 140.72,115.36 175.36,135.36 135.36,135.36 115.36,170.00 115.36,130.00 80.72,110.00" fill="#c0c078" stroke="#333" stroke-width="1"/>
<polygon points="115.36,170.00 135.36,135.36 135.36,175.36 170.00,195.36 130.00,195.36 110.00,230.00 110.00,190.00 75.36,170.00" fill="#c0c078" stroke="#333" stroke-width="1"/>
<polygon points="110.00,230.00 130.00,195.36 130.00,235.36 164.64,255.36 124.64,255.36 104.64,290.00 104.64,250.00 70.00,230.00" fill="#c0c078" stroke="#333" stroke-width="1"/>
<polygon points="180.72,115.36 200.72,80.72 200.72,120.72 235.36,140.72 195.36,140.72 175.36,175.36 175.36,135.36 140.72,115.36" fill="#c0c078" stroke="#333" stroke-width="1"/>
<polygon points="175.36,175.36 195.36,140.72 195.36,180.72 230.00,200.72 190.00,200.72 170.00,235.36 170.00,195.36 135.36,175.36" fill="#c0c078" stroke="#333" stroke-width="1"/>
<polygon points="170.00,235.36 190.00,200.72 190.00,240.72 224.64,260.72 184.64,260.72 164.64,295.36 164.64,255.36 130.00,235.36" fill="#c0c078" stroke="#333" stroke-width="1"/>
<polygon points="120.72,110.00 120.72,70.00 86.08,50.00 126.08,50.00 146.08,15.36 146.08,55.36 180.72,75.36 140.72,75.36" fill="#c0c078" stroke="#333" stroke-width="1"/>
<polygon points="115.36,170.00 115.36,130.00 80.72,110.00 120.72,110.00 140.72,75.36 140.72,115.36 175.36,135.36 135.36,135.36" fill="#c0c078" stroke="#333" stroke-width="1"/>
<polygon points="110.00,230.00 110.00,190.00 75.36,170.00 115.36,170.00 135.36,135.36 135.36,175.36 170.00,195.36 130.00,195.36" fill="#c0c078" stroke="#333" stroke-width="1"/>
<polygon points="180.72,115.36 180.72,75.36 146.08,55.36 186.08,55.36 206.08,20.72 206.08,60.72 240.72,80.72 200.72,80.72" fill="#c0c078" stroke="#333" stroke-width="1"/>
<polygon points="175.36,175.36 175.36,135.36 140.72,115.36 180.72,115.36 200.72,80.72 200.72,120.72 235.36,140.72 195.36,140.72" fill="#c0c078" stroke="#333" stroke-width="1"/>
<polygon points="170.00,235.36 170.00,195.36 135.36,175.36 175.36,175.36 195.36,140.72 195.36,180.72 230.00,200.72 190.00,200.72" fill="#c0c078" stroke="#333" stroke-width="1"/>
<polygon points="240.72,120.72 240.72,80.72 206.08,60.72 246.08,60.72 266.08,26.08 266.08,66.08 300.72,86.08 260.72,86.08" fill="#c0c078" stroke="#333" stroke-width="1"/>
<polygon points="235.36,180.72 235.36,140.72 200.72,120.72 240.72,120.72 260.72,86.08 260.72,126.08 295.36,146.08 255.36,146.08" fill="#c0c078" stroke="#333" stroke-width="1"/>
<polygon points="230.00,240.72 230.00,200.72 195.36,180.72 235.36,180.72 255.36,146.08 255.36,186.08 290.00,206.08 250.00,206.08" fill="#c0c078" stroke="#333" stroke-width="1"/>
<polygon points="60.72,104.64 20.72,104.64 20.72,64.64 60.72,64.64" fill="#e8c268" stroke="#333" stroke-width="1"/>
<polygon points="55.36,164.64 15.36,164.64 15.36,124.64 55.36,124.64" fill="#e8c268" stroke="#333" stroke-width="1"/>
<polygon points="50.00,224.64 10.00,224.64 10.00,184.64 50.00,184.64" fill="#e8c268" stroke="#333" stroke-width="1"/>
<polygon points="120.72,110.00 80.72,110.00 80.72,70.00 120.72,70.00" fill="#e8c268" stroke="#333" stroke-width="1"/>
<polygon points="115.36,170.00 75.36,170.00 75.36,130.00 115.36,130.00" fill="#e8c268" stroke="#333" stroke-width="1"/>
<polygon points="110.00,230.00 70.00,230.00 70.00,190.00 110.00,190.00" fill="#e8c268" stroke="#333" stroke-width="1"/>
<polygon points="180.72,115.36 140.72,115.36 140.72,75.36 180.72,75.36" fill="#e8c268" stroke="#333" stroke-width="1"/>
<polygon points="175.36,175.36 135.36,175.36 135.36,135.36 175.36,135.36" fill="#e8c268" stroke="#333" stroke-width="1"/>
<polygon points="170.00,235.36 130.00,235.36 130.00,195.36 170.00,195.36" fill="#e8c268" stroke="#333" stroke-width="1"/>
<text x="10" y="317" font-family="monospace" font-size="12">(4*d16,4*p2,4)F</text>
</svg>
