<svg xmlns="http://www.w3.org/2000/svg" width="280" height="386">
<rect width="100%" height="100%" fill="white"/>
<polygon points="90.00,79.28 130.00,79.28 150.00,113.92 130.00,148.56 90.00,148.56 70.00,113.92" fill="#9ecf9e" stroke="#333" stroke-width="1"/>
<polygon points="150.00,113.92 190.00,113.92 210.00,148.56 190.00,183.21 150.00,183.21 130.00,148.56" fill="#9ecf9e" stroke="#333" stroke-width="1"/>
<polygon points="210.00,148.56 250.00,148.56 270.00,183.21 250.00,217.85 210.00,217.85 190.00,183.21" fill="#9ecf9e" stroke="#333" stroke-width="1"/>
<polygon points="90.00,148.56 130.00,148.56 150.00,183.21 130.00,217.85 90.00,217.85 70.00,183.21" fill="#9ecf9e" stroke="#333" stroke-width="1"/>
<polygon points="150.00,183.21 190.00,183.21 210.00,217.85 190.00,252.49 150.00,252.49 130.00,217.85" fill="#9ecf9e" stroke="#333" stroke-width="1"/>
<polygon points="210.00,217.85 250.00,217.85 270.00,252.49 250.00,287.13 210.00,287.13 190.00,252.49" fill="#9ecf9e" stroke="#333" stroke-width="1"/>
<polygon points="90.00,217.85 130.00,217.85 150.00,252.49 130.00,287.13 90.00,287.13 70.00,252.49" fill="#9ecf9e" stroke="#333" stroke-width="1"/>
<polygon points="150.00,252.49 190.00,252.49 210.00,287.13 190.00,321.77 150.00,321.77 130.00,287.13" fill="#9ecf9e" stroke="#333" stroke-width="1"/>
<polygon points="210.00,287.13 250.00,287.13 270.00,321.77 250.00,356.41 210.00,356.41 190.00,321.77" fill="#9ecf9e" stroke="#333" stroke-width="1"/>
<polygon points="130.00,79.28 90.00,79.28 70.00,44.64 90.00,10.00 130.00,10.00 150.00,44.64" fill="#9ecf9e" stroke="#333" stroke-width="1"/>
<polygon points="190.00,113.92 150.00,113.92 130.00,79.28 150.00,44.64 190.00,44.64 210.00,79.28" fill="#9ecf9e" stroke="#333" stroke-width="1"/>
<polygon points="250.00,148.56 210.00,148.56 190.00,113.92 210.00,79.28 250.00,79.28 270.00,113.92" fill="#9ecf9e" stroke="#333" stroke-width="1"/>
<polygon points="130.00,148.56 90.00,148.56 70.00,113.92 90.00,79.28 130.00,79.28 150.00,113.92" fill="#9ecf9e" stroke="#333" stroke-width="1"/>
<polygon points="190.00,183.21 150.00,183.21 130.00,148.56 150.00,113.92 190.00,113.92 210.00,148.56" fill="#9ecf9e" stroke="#333" stroke-width="1"/>
<polygon points="250.00,217.85 210.00,217.85 190.00,183.21 210.00,148.56 250.00,148.56 270.00,183.21" fill="#9ecf9e" stroke="#333" stroke-width="1"/>
<polygon points="130.00,217.85 90.00,217.85 70.00,183.21 90.00,148.56 130.00,148.56 150.00,183.21" fill="#9ecf9e" stroke="#333" stroke-width="1"/>
<polygon points="190.00,252.49 150.00,252.49 130.00,217.85 150.00,183.21 190.00,183.21 210.00,217.85" fill="#9ecf9e" stroke="#333" stroke-width="1"/>
<polygon points="250.00,287.13 210.00,287.13 190.00,252.49 210.00,217.85 250.00,217.85 270.00,252.49" fill="#9ecf9e" stroke="#333" stroke-width="1"/>
<polygon points="70.00,44.64 90.00,79.28 70.00,113.92 30.00,113.92 10.00,79.28 30.00,44.64" fill="#9ecf9e" stroke="#333" stroke-width="1"/>
<polygon points="130.00,79.28 150.00,113.92 130.00,148.56 90.00,148.56 70.00,113.92 90.00,79.28" fill="#9ecf9e" stroke="#333" stroke-width="1"/>
<polygon points="190.00,113.92 210.00,148.56 190.00,183.21 150.00,183.21 130.00,148.56 150.00,113.92" fill="#9ecf9e" stroke="#333" stroke-width="1"/>
<polygon points="70.00,113.92 90.00,148.56 70.00,183.21 30.00,183.21 10.00,148.56 30.00,113.92" fill="#9ecf9e" stroke="#333" stroke-width="1"/>
<polygon points="130.00,148.56 150.00,183.21 130.00,217.85 90.00,217.85 70.00,183.21 90.00,148.56" fill="#9ecf9e" stroke="#333" stroke-width="1"/>
<polygon points="190.00,183.21 210.00,217.85 190.00,252.49 150.00,252.49 130.00,217.85 150.00,183.21" fill="#9ecf9e" stroke="#333" stroke-width="1"/>
<polygon points="70.00,183.21 90.00,217.85 70.00,252.49 30.00,252.49 10.00,217.85 30.00,183.21" fill="#9ecf9e" stroke="#333" stroke-width="1"/>
<polygon points="130.00,217.85 150.00,252.49 130.00,287.13 90.00,287.13 70.00,252.49 90.00,217.85" fill="#9ecf9e" stroke="#333" stroke-width="1"/>
<polygon points="190.00,252.49 210.00,287.13 190.00,321.77 150.00,321.77 130.00,287.13 150.00,252.49" fill="#9ecf9e" stroke="#333" stroke-width="1"/>
<text x="10" y="378" font-family="monospace" font-size="12">(6,6,6)S3</text>
</svg>
