<svg xmlns="http://www.w3.org/2000/svg" width="524" height="697">
<rect width="100%" height="100%" fill="white"/>
<polygon points="115.36,259.28 155.36,259.28 135.36,293.92" fill="#88b0d8" stroke="#333" stroke-width="1"/>
<polygon points="110.00,388.56 150.00,388.56 130.00,423.21" fill="#88b0d8" stroke="#333" stroke-width="1"/>
<polygon points="104.64,517.85 144.64,517.85 124.64,552.49" fill="#88b0d8" stroke="#333" stroke-width="1"/>
<polygon points="230.00,199.28 270.00,199.28 250.00,233.92" fill="#88b0d8" stroke="#333" stroke-width="1"/>
<polygon points="224.64,328.56 264.64,328.56 244.64,363.21" fill="#88b0d8" stroke="#333" stroke-width="1"/>
<polygon points="219.28,457.85 259.28,457.85 239.28,492.49" fill="#88b0d8" stroke="#333" stroke-width="1"/>
<polygon points="344.64,139.28 384.64,139.28 364.64,173.92" fill="#88b0d8" stroke="#333" stroke-width="1"/>
<polygon points="339.28,268.56 379.28,268.56 359.28,303.21" fill="#88b0d8" stroke="#333" stroke-width="1"/>
<polygon points="333.92,397.85 373.92,397.85 353.92,432.49" fill="#88b0d8" stroke="#333" stroke-width="1"/>
<polygon points="155.36,259.28 115.36,259.28 80.72,279.28 60.72,244.64 26.08,224.64 46.08,190.00 46.08,150.00 86.08,150.00 120.72,130.00 140.72,164.64 175.36,184.64 155.36,219.28" fill="#e89898" stroke="#333" stroke-width="1"/>
<polygon points="150.00,388.56 110.00,388.56 75.36,408.56 55.36,373.92 20.72,353.92 40.72,319.28 40.72,279.28 80.72,279.28 115.36,259.28 135.36,293.92 170.00,313.92 150.00,348.56" fill="#e89898" stroke="#333" stroke-width="1"/>
<polygon points="144.64,517.85 104.64,517.85 70.00,537.85 50.00,503.21 15.36,483.21 35.36,448.56 35.36,408.56 75.36,408.56 110.00,388.56 130.00,423.21 164.64,443.21 144.64,477.85" fill="#e89898" stroke="#333" stroke-width="1"/>
<polygon points="270.00,199.28 230.00,199.28 195.36,219.28 175.36,184.64 140.72,164.64 160.72,130.00 160.72,90.00 200.72,90.00 235.36,70.00 255.36,104.64 290.00,124.64 270.00,159.28" fill="#e89898" stroke="#333" stroke-width="1"/>
<polygon points="264.64,328.56 224.64,328.56 190.00,348.56 170.00,313.92 135.36,293.92 155.36,259.28 155.36,219.28 195.36,219.28 230.00,199.28 250.00,233.92 284.64,253.92 264.64,288.56" fill="#e89898" stroke="#333" stroke-width="1"/>
<polygon points="259.28,457.85 219.28,457.85 184.64,477.85 164.64,443.21 130.00,423.21 150.00,388.56 150.00,348.56 190.00,348.56 224.64,328.56 244.64,363.21 279.28,383.21 259.28,417.85" fill="#e89898" stroke="#333" stroke-width="1"/>
<polygon points="384.64,139.28 344.64,139.28 310.00,159.28 290.00,124.64 255.36,104.64 275.36,70.00 275.36,30.00 315.36,30.00 350.00,10.00 370.00,44.64 404.64,64.64 384.64,99.28" fill="#e89898" stroke="#333" stroke-width="1"/>
<polygon points="379.28,268.56 339.28,268.56 304.64,288.56 284.64,253.92 250.00,233.92 270.00,199.28 270.00,159.28 310.00,159.28 344.64,139.28 364.64,173.92 399.28,193.92 379.28,228.56" fill="#e89898" stroke="#333" stroke-width="1"/>
<polygon points="373.92,397.85 333.92,397.85 299.28,417.85 279.28,383.21 244.64,363.21 264.64,328.56 264.64,288.56 304.64,288.56 339.28,268.56 359.28,303.21 393.92,323.21 373.92,357.85" fill="#e89898" stroke="#333" stroke-width="1"/>
<polygon points="80.72,279.28 115.36,259.28 135.36,293.92 170.00,313.92 150.00,348.56 150.00,388.56 110.00,388.56 75.36,408.56 55.36,373.92 20.72,353.92 40.72,319.28 40.72,279.28" fill="#e89898" stroke="#333" stroke-width="1"/>
<polygon points="75.36,408.56 110.00,388.56 130.00,423.21 164.64,443.21 144.64,477.85 144.64,517.85 104.64,517.85 70.00,537.85 50.00,503.21 15.36,483.21 35.36,448.56 35.36,408.56" fill="#e89898" stroke="#333" stroke-width="1"/>
<polygon points="70.00,537.85 104.64,517.85 124.64,552.49 159.28,572.49 139.28,607.13 139.28,647.13 99.28,647.13 64.64,667.13 44.64,632.49 10.00,612.49 30.00,577.85 30.00,537.85" fill="#e89898" stroke="#333" stroke-width="1"/>
<polygon points="195.36,219.28 230.00,199.28 250.00,233.92 284.64,253.92 264.64,288.56 264.64,328.56 224.64,328.56 190.00,348.56 170.00,313.92 135.36,293.92 155.36,259.28 155.36,219.28" fill="#e89898" stroke="#333" stroke-width="1"/>
<polygon points="190.00,348.56 224.64,328.56 244.64,363.21 279.28,383.21 259.28,417.85 259.28,457.85 219.28,457.85 184.64,477.85 164.64,443.21 130.00,423.21 150.00,388.56 150.00,348.56" fill="#e89898" stroke="#333" stroke-width="1"/>
<polygon points="184.64,477.85 219.28,457.85 239.28,492.49 273.92,512.49 253.92,547.13 253.92,587.13 213.92,587.13 179.28,607.13 159.28,572.49 124.64,552.49 144.64,517.85 144.64,477.85" fill="#e89898" stroke="#333" stroke-width="1"/>
<polygon points="310.00,159.28 344.64,139.28 364.64,173.92 399.28,193.92 379.28,228.56 379.28,268.56 339.28,268.56 304.64,288.56 284.64,253.92 250.00,233.92 270.00,199.28 270.00,159.28" fill="#e89898" stroke="#333" stroke-width="1"/>
<polygon points="304.64,288.56 339.28,268.56 359.28,303.21 393.92,323.21 373.92,357.85 373.92,397.85 333.92,397.85 299.28,417.85 279.28,383.21 244.64,363.21 264.64,328.56 264.64,288.56" fill="#e89898" stroke="#333" stroke-width="1"/>
<polygon points="299.28,417.85 333.92,397.85 353.92,432.49 388.56,452.49 368.56,487.13 368.56,527.13 328.56,527.13 293.92,547.13 273.92,512.49 239.28,492.49 259.28,457.85 259.28,417.85" fill="#e89898" stroke="#333" stroke-width="1"/>
<polygon points="135.36,293.92 155.36,259.28 155.36,219.28 195.36,219.28 230.00,199.28 250.00,233.92 284.64,253.92 264.64,288.56 264.64,328.56 224.64,328.56 190.00,348.56 170.00,313.92" fill="#e89898" stroke="#333" stroke-width="1"/>
<polygon points="130.00,423.21 150.00,388.56 150.00,348.56 190.00,348.56 224.64,328.56 244.64,363.21 279.28,383.21 259.28,417.85 259.28,457.85 219.28,457.85 184.64,477.85 164.64,443.21" fill="#e89898" stroke="#333" stroke-width="1"/>
<polygon points="124.64,552.49 144.64,517.85 144.64,477.85 184.64,477.85 219.28,457.85 239.28,492.49 273.92,512.49 253.92,547.13 253.92,587.13 213.92,587.13 179.28,607.13 159.28,572.49" fill="#e89898" stroke="#333" stroke-width="1"/>
<polygon points="250.00,233.92 270.00,199.28 270.00,159.28 310.00,159.28 344.64,139.28 364.64,173.92 399.28,193.92 379.28,228.56 379.28,268.56 339.28,268.56 304.64,288.56 284.64,253.92" fill="#e89898" stroke="#333" stroke-width="1"/>
<polygon points="244.64,363.21 264.64,328.56 264.64,288.56 304.64,288.56 339.28,268.56 359.28,303.21 393.92,323.21 373.92,357.85 373.92,397.85 333.92,397.85 299.28,417.85 279.28,383.21" fill="#e89898" stroke="#333" stroke-width="1"/>
<polygon points="239.28,492.49 259.28,457.85 259.28,417.85 299.28,417.85 333.92,397.85 353.92,432.49 388.56,452.49 368.56,487.13 368.56,527.13 328.56,527.13 293.92,547.13 273.92,512.49" fill="#e89898" stroke="#333" stroke-width="1"/>
<polygon points="364.64,173.92 384.64,139.28 384.64,99.28 424.64,99.28 459.28,79.28 479.28,113.92 513.92,133.92 493.92,168.56 493.92,208.56 453.92,208.56 419.28,228.56 399.28,193.92" fill="#e89898" stroke="#333" stroke-width="1"/>
<polygon points="359.28,303.21 379.28,268.56 379.28,228.56 419.28,228.56 453.92,208.56 473.92,243.21 508.56,263.21 488.56,297.85 488.56,337.85 448.56,337.85 413.92,357.85 393.92,323.21" fill="#e89898" stroke="#333" stroke-width="1"/>
<polygon points="353.92,432.49 373.92,397.85 373.92,357.85 413.92,357.85 448.56,337.85 468.56,372.49 503.21,392.49 483.21,427.13 483.21,467.13 443.21,467.13 408.56,487.13 388.56,452.49" fill="#e89898" stroke="#333" stroke-width="1"/>
<polygon points="60.72,244.64 80.72,279.28 40.72,279.28" fill="#88b0d8" stroke="#333" stroke-width="1"/>
<polygon points="55.36,373.92 75.36,408.56 35.36,408.56" fill="#88b0d8" stroke="#333" stroke-width="1"/>
<polygon points="50.00,503.21 70.00,537.85 30.00,537.85" fill="#88b0d8" stroke="#333" stroke-width="1"/>
<polygon points="175.36,184.64 195.36,219.28 155.36,219.28" fill="#88b0d8" stroke="#333" stroke-width="1"/>
<polygon points="170.00,313.92 190.00,348.56 150.00,348.56" fill="#88b0d8" stroke="#333" stroke-width="1"/>
<polygon points="164.64,443.21 184.64,477.85 144.64,477.85" fill="#88b0d8" stroke="#333" stroke-width="1"/>
<polygon points="290.00,124.64 310.00,159.28 270.00,159.28" fill="#88b0d8" stroke="#333" stroke-width="1"/>
<polygon points="284.64,253.92 304.64,288.56 264.64,288.56" fill="#88b0d8" stroke="#333" stroke-width="1"/>
<polygon points="279.28,383.21 299.28,417.85 259.28,417.85" fill="#88b0d8" stroke="#333" stroke-width="1"/>
<polygon points="155.36,219.28 175.36,184.64 195.36,219.28" fill="#88b0d8" stroke="#333" stroke-width="1"/>
<polygon points="150.00,348.56 170.00,313.92 190.00,348.56" fill="#88b0d8" stroke="#333" stroke-width="1"/>
<polygon points="144.64,477.85 164.64,443.21 184.64,477.85" fill="#88b0d8" stroke="#333" stroke-width="1"/>
<polygon points="270.00,159.28 290.00,124.64 310.00,159.28" fill="#88b0d8" stroke="#333" stroke-width="1"/>
<polygon points="264.64,288.56 284.64,253.92 304.64,288.56" fill="#88b0d8" stroke="#333" stroke-width="1"/>
<polygon points="259.28,417.85 279.28,383.21 299.28,417.85" fill="#88b0d8" stroke="#333" stroke-width="1"/>
<polygon points="384.64,99.28 404.64,64.64 424.64,99.28" fill="#88b0d8" stroke="#333" stroke-width="1"/>
<polygon points="379.28,228.56 399.28,193.92 419.28,228.56" fill="#88b0d8" stroke="#333" stroke-width="1"/>
<polygon points="373.92,357.85 393.92,323.21 413.92,357.85" fill="#88b0d8" stroke="#333" stroke-width="1"/>
<text x="10" y="689" font-family="monospace" font-size="12">(6*d14,6*p6,3)F</text>
</svg>
