<svg xmlns="http://www.w3.org/2000/svg" width="495" height="644">
<rect width="100%" height="100%" fill="white"/>
<polygon points="96.92,128.27 136.92,128.27 116.92,162.91" fill="#88b0d8" stroke="#333" stroke-width="1"/>
<polygon points="203.84,179.62 243.84,179.62 223.84,214.26" fill="#88b0d8" stroke="#333" stroke-width="1"/>
<polygon points="310.76,230.97 350.76,230.97 330.76,265.61" fill="#88b0d8" stroke="#333" stroke-width="1"/>
<polygon points="105.91,246.54 145.91,246.54 125.91,281.18" fill="#88b0d8" stroke="#333" stroke-width="1"/>
<polygon points="212.83,297.89 252.83,297.89 232.83,332.54" fill="#88b0d8" stroke="#333" stroke-width="1"/>
<polygon points="319.75,349.24 359.75,349.24 339.75,383.89" fill="#88b0d8" stroke="#333" stroke-width="1"/>
<polygon points="114.90,364.82 154.90,364.82 134.90,399.46" fill="#88b0d8" stroke="#333" stroke-width="1"/>
<polygon points="221.82,416.17 261.82,416.17 241.82,450.81" fill="#88b0d8" stroke="#333" stroke-width="1"/>
<polygon points="328.74,467.52 368.74,467.52 348.74,502.16" fill="#88b0d8" stroke="#333" stroke-width="1"/>
<polygon points="136.92,128.27 96.92,128.27 68.64,156.56 48.64,121.92 10.00,111.56 30.00,76.92 19.65,38.28 59.65,38.28 87.93,10.00 107.93,44.64 146.57,54.99 126.57,89.63" fill="#b0d078" stroke="#333" stroke-width="1"/>
<polygon points="243.84,179.62 203.84,179.62 175.56,207.91 155.56,173.27 116.92,162.91 136.92,128.27 126.57,89.63 166.57,89.63 194.85,61.35 214.85,95.99 253.49,106.34 233.49,140.99" fill="#b0d078" stroke="#333" stroke-width="1"/>
<polygon points="350.76,230.97 310.76,230.97 282.48,259.26 262.48,224.62 223.84,214.26 243.84,179.62 233.49,140.99 273.49,140.99 301.77,112.70 321.77,147.34 360.41,157.69 340.41,192.34" fill="#b0d078" stroke="#333" stroke-width="1"/>
<polygon points="145.91,246.54 105.91,246.54 77.63,274.83 57.63,240.19 18.99,229.83 38.99,195.19 28.64,156.56 68.64,156.56 96.92,128.27 116.92,162.91 155.56,173.27 135.56,207.91" fill="#b0d078" stroke="#333" stroke-width="1"/>
<polygon points="252.83,297.89 212.83,297.89 184.55,326.18 164.55,291.54 125.91,281.18 145.91,246.54 135.56,207.91 175.56,207.91 203.84,179.62 223.84,214.26 262.48,224.62 242.48,259.26" fill="#b0d078" stroke="#333" stroke-width="1"/>
<polygon points="359.75,349.24 319.75,349.24 291.47,377.53 271.47,342.89 232.83,332.54 252.83,297.89 242.48,259.26 282.48,259.26 310.76,230.97 330.76,265.61 369.40,275.97 349.40,310.61" fill="#b0d078" stroke="#333" stroke-width="1"/>
<polygon points="154.90,364.82 114.90,364.82 86.62,393.10 66.62,358.46 27.98,348.11 47.98,313.46 37.63,274.83 77.63,274.83 105.91,246.54 125.91,281.18 164.55,291.54 144.55,326.18" fill="#b0d078" stroke="#333" stroke-width="1"/>
<polygon points="261.82,416.17 221.82,416.17 193.54,444.45 173.54,409.81 134.90,399.46 154.90,364.82 144.55,326.18 184.55,326.18 212.83,297.89 232.83,332.54 271.47,342.89 251.47,377.53" fill="#b0d078" stroke="#333" stroke-width="1"/>
<polygon points="368.74,467.52 328.74,467.52 300.46,495.80 280.46,461.16 241.82,450.81 261.82,416.17 251.47,377.53 291.47,377.53 319.75,349.24 339.75,383.89 378.39,394.24 358.39,428.88" fill="#b0d078" stroke="#333" stroke-width="1"/>
<polygon points="68.64,156.56 96.92,128.27 116.92,162.91 155.56,173.27 135.56,207.91 145.91,246.54 105.91,246.54 77.63,274.83 57.63,240.19 18.99,229.83 38.99,195.19 28.64,156.56" fill="#b0d078" stroke="#333" stroke-width="1"/>
<polygon points="175.56,207.91 203.84,179.62 223.84,214.26 262.48,224.62 242.48,259.26 252.83,297.89 212.83,297.89 184.55,326.18 164.55,291.54 125.91,281.18 145.91,246.54 135.56,207.91" fill="#b0d078" stroke="#333" stroke-width="1"/>
<polygon points="282.48,259.26 310.76,230.97 330.76,265.61 369.40,275.97 349.40,310.61 359.75,349.24 319.75,349.24 291.47,377.53 271.47,342.89 232.83,332.54 252.83,297.89 242.48,259.26" fill="#b0d078" stroke="#333" stroke-width="1"/>
<polygon points="77.63,274.83 105.91,246.54 125.91,281.18 164.55,291.54 144.55,326.18 154.90,364.82 114.90,364.82 86.62,393.10 66.62,358.46 27.98,348.11 47.98,313.46 37.63,274.83" fill="#b0d078" stroke="#333" stroke-width="1"/>
<polygon points="184.55,326.18 212.83,297.89 232.83,332.54 271.47,342.89 251.47,377.53 261.82,416.17 221.82,416.17 193.54,444.45 173.54,409.81 134.90,399.46 154.90,364.82 144.55,326.18" fill="#b0d078" stroke="#333" stroke-width="1"/>
<polygon points="291.47,377.53 319.75,349.24 339.75,383.89 378.39,394.24 358.39,428.88 368.74,467.52 328.74,467.52 300.46,495.80 280.46,461.16 241.82,450.81 261.82,416.17 251.47,377.53" fill="#b0d078" stroke="#333" stroke-width="1"/>
<polygon points="86.62,393.10 114.90,364.82 134.90,399.46 173.54,409.81 153.54,444.45 163.89,483.09 123.89,483.09 95.61,511.37 75.61,476.73 36.97,466.38 56.97,431.74 46.62,393.10" fill="#b0d078" stroke="#333" stroke-width="1"/>
<polygon points="193.54,444.45 221.82,416.17 241.82,450.81 280.46,461.16 260.46,495.80 270.81,534.44 230.81,534.44 202.53,562.72 182.53,528.08 143.89,517.73 163.89,483.09 153.54,444.45" fill="#b0d078" stroke="#333" stroke-width="1"/>
<polygon points="300.46,495.80 328.74,467.52 348.74,502.16 387.38,512.51 367.38,547.15 377.73,585.79 337.73,585.79 309.45,614.07 289.45,579.43 250.81,569.08 270.81,534.44 260.46,495.80" fill="#b0d078" stroke="#333" stroke-width="1"/>
<polygon points="116.92,162.91 136.92,128.27 126.57,89.63 166.57,89.63 194.85,61.35 214.85,95.99 253.49,106.34 233.49,140.99 243.84,179.62 203.84,179.62 175.56,207.91 155.56,173.27" fill="#b0d078" stroke="#333" stroke-width="1"/>
<polygon points="223.84,214.26 243.84,179.62 233.49,140.99 273.49,140.99 301.77,112.70 321.77,147.34 360.41,157.69 340.41,192.34 350.76,230.97 310.76,230.97 282.48,259.26 262.48,224.62" fill="#b0d078" stroke="#333" stroke-width="1"/>
<polygon points="330.76,265.61 350.76,230.97 340.41,192.34 380.41,192.34 408.70,164.05 428.70,198.69 467.33,209.05 447.33,243.69 457.69,282.32 417.69,282.32 389.40,310.61 369.40,275.97" fill="#b0d078" stroke="#333" stroke-width="1"/>
<polygon points="125.91,281.18 145.91,246.54 135.56,207.91 175.56,207.91 203.84,179.62 223.84,214.26 262.48,224.62 242.48,259.26 252.83,297.89 212.83,297.89 184.55,326.18 164.55,291.54" fill="#b0d078" stroke="#333" stroke-width="1"/>
<polygon points="232.83,332.54 252.83,297.89 242.48,259.26 282.48,259.26 310.76,230.97 330.76,265.61 369.40,275.97 349.40,310.61 359.75,349.24 319.75,349.24 291.47,377.53 271.47,342.89" fill="#b0d078" stroke="#333" stroke-width="1"/>
<polygon points="339.75,383.89 359.75,349.24 349.40,310.61 389.40,310.61 417.69,282.32 437.69,316.96 476.32,327.32 456.32,361.96 466.68,400.60 426.68,400.60 398.39,428.88 378.39,394.24" fill="#b0d078" stroke="#333" stroke-width="1"/>
<polygon points="134.90,399.46 154.90,364.82 144.55,326.18 184.55,326.18 212.83,297.89 232.83,332.54 271.47,342.89 251.47,377.53 261.82,416.17 221.82,416.17 193.54,444.45 173.54,409.81" fill="#b0d078" stroke="#333" stroke-width="1"/>
<polygon points="241.82,450.81 261.82,416.17 251.47,377.53 291.47,377.53 319.75,349.24 339.75,383.89 378.39,394.24 358.39,428.88 368.74,467.52 328.74,467.52 300.46,495.80 280.46,461.16" fill="#b0d078" stroke="#333" stroke-width="1"/>
<polygon points="348.74,502.16 368.74,467.52 358.39,428.88 398.39,428.88 426.68,400.60 446.68,435.24 485.31,445.59 465.31,480.23 475.66,518.87 435.66,518.87 407.38,547.15 387.38,512.51" fill="#b0d078" stroke="#333" stroke-width="1"/>
<polygon points="48.64,121.92 68.64,156.56 28.64,156.56" fill="#88b0d8" stroke="#333" stroke-width="1"/>
<polygon points="155.56,173.27 175.56,207.91 135.56,207.91" fill="#88b0d8" stroke="#333" stroke-width="1"/>
<polygon points="262.48,224.62 282.48,259.26 242.48,259.26" fill="#88b0d8" stroke="#333" stroke-width="1"/>
<polygon points="57.63,240.19 77.63,274.83 37.63,274.83" fill="#88b0d8" stroke="#333" stroke-width="1"/>
<polygon points="164.55,291.54 184.55,326.18 144.55,326.18" fill="#88b0d8" stroke="#333" stroke-width="1"/>
<polygon points="271.47,342.89 291.47,377.53 251.47,377.53" fill="#88b0d8" stroke="#333" stroke-width="1"/>
<polygon points="66.62,358.46 86.62,393.10 46.62,393.10" fill="#88b0d8" stroke="#333" stroke-width="1"/>
<polygon points="173.54,409.81 193.54,444.45 153.54,444.45" fill="#88b0d8" stroke="#333" stroke-width="1"/>
<polygon points="280.46,461.16 300.46,495.80 260.46,495.80" fill="#88b0d8" stroke="#333" stroke-width="1"/>
<polygon points="126.57,89.63 146.57,54.99 166.57,89.63" fill="#88b0d8" stroke="#333" stroke-width="1"/>
<polygon points="233.49,140.99 253.49,106.34 273.49,140.99" fill="#88b0d8" stroke="#333" stroke-width="1"/>
<polygon points="340.41,192.34 360.41,157.69 380.41,192.34" fill="#88b0d8" stroke="#333" stroke-width="1"/>
<polygon points="135.56,207.91 155.56,173.27 175.56,207.91" fill="#88b0d8" stroke="#333" stroke-width="1"/>
<polygon points="242.48,259.26 262.48,224.62 282.48,259.26" fill="#88b0d8" stroke="#333" stroke-width="1"/>
<polygon points="349.40,310.61 369.40,275.97 389.40,310.61" fill="#88b0d8" stroke="#333" stroke-width="1"/>
<polygon points="144.55,326.18 164.55,291.54 184.55,326.18" fill="#88b0d8" stroke="#333" stroke-width="1"/>
<polygon points="251.47,377.53 271.47,342.89 291.47,377.53" fill="#88b0d8" stroke="#333" stroke-width="1"/>
<polygon points="358.39,428.88 378.39,394.24 398.39,428.88" fill="#88b0d8" stroke="#333" stroke-width="1"/>
<text x="10" y="636" font-family="monospace" font-size="12">(6*d15,6*p5,3)F</text>
</svg>
