<svg xmlns="http://www.w3.org/2000/svg" width="600" height="490">
<rect width="100%" height="100%" fill="white"/>
<polygon points="290.00,321.77 330.00,321.77 310.00,356.41" fill="#88b0d8" stroke="#333" stroke-width="1"/>
<polygon points="190.00,287.13 230.00,287.13 210.00,321.77" fill="#88b0d8" stroke="#333" stroke-width="1"/>
<polygon points="90.00,252.49 130.00,252.49 110.00,287.13" fill="#88b0d8" stroke="#333" stroke-width="1"/>
<polygon points="370.00,252.49 410.00,252.49 390.00,287.13" fill="#88b0d8" stroke="#333" stroke-width="1"/>
<polygon points="270.00,217.85 310.00,217.85 290.00,252.49" fill="#88b0d8" stroke="#333" stroke-width="1"/>
<polygon points="170.00,183.21 210.00,183.21 190.00,217.85" fill="#88b0d8" stroke="#333" stroke-width="1"/>
<polygon points="450.00,183.21 490.00,183.21 470.00,217.85" fill="#88b0d8" stroke="#333" stroke-width="1"/>
<polygon points="350.00,148.56 390.00,148.56 370.00,183.21" fill="#88b0d8" stroke="#333" stroke-width="1"/>
<polygon points="250.00,113.92 290.00,113.92 270.00,148.56" fill="#88b0d8" stroke="#333" stroke-width="1"/>
<polygon points="330.00,321.77 290.00,321.77 270.00,356.41 250.00,321.77 210.00,321.77 230.00,287.13 210.00,252.49 250.00,252.49 270.00,217.85 290.00,252.49 330.00,252.49 310.00,287.13" fill="#c8b898" stroke="#333" stroke-width="1"/>
<polygon points="230.00,287.13 190.00,287.13 170.00,321.77 150.00,287.13 110.00,287.13 130.00,252.49 110.00,217.85 150.00,217.85 170.00,183.21 190.00,217.85 230.00,217.85 210.00,252.49" fill="#c8b898" stroke="#333" stroke-width="1"/>
<polygon points="130.00,252.49 90.00,252.49 70.00,287.13 50.00,252.49 10.00,252.49 30.00,217.85 10.00,183.21 50.00,183.21 70.00,148.56 90.00,183.21 130.00,183.21 110.00,217.85" fill="#c8b898" stroke="#333" stroke-width="1"/>
<polygon points="410.00,252.49 370.00,252.49 350.00,287.13 330.00,252.49 290.00,252.49 310.00,217.85 290.00,183.21 330.00,183.21 350.00,148.56 370.00,183.21 410.00,183.21 390.00,217.85" fill="#c8b898" stroke="#333" stroke-width="1"/>
<polygon points="310.00,217.85 270.00,217.85 250.00,252.49 230.00,217.85 190.00,217.85 210.00,183.21 190.00,148.56 230.00,148.56 250.00,113.92 270.00,148.56 310.00,148.56 290.00,183.21" fill="#c8b898" stroke="#333" stroke-width="1"/>
<polygon points="210.00,183.21 170.00,183.21 150.00,217.85 130.00,183.21 90.00,183.21 110.00,148.56 90.00,113.92 130.00,113.92 150.00,79.28 170.00,113.92 210.00,113.92 190.00,148.56" fill="#c8b898" stroke="#333" stroke-width="1"/>
<polygon points="490.00,183.21 450.00,183.21 430.00,217.85 410.00,183.21 370.00,183.21 390.00,148.56 370.00,113.92 410.00,113.92 430.00,79.28 450.00,113.92 490.00,113.92 470.00,148.56" fill="#c8b898" stroke="#333" stroke-width="1"/>
<polygon points="390.00,148.56 350.00,148.56 330.00,183.21 310.00,148.56 270.00,148.56 290.00,113.92 270.00,79.28 310.00,79.28 330.00,44.64 350.00,79.28 390.00,79.28 370.00,113.92" fill="#c8b898" stroke="#333" stroke-width="1"/>
<polygon points="290.00,113.92 250.00,113.92 230.00,148.56 210.00,113.92 170.00,113.92 190.00,79.28 170.00,44.64 210.00,44.64 230.00,10.00 250.00,44.64 290.00,44.64 270.00,79.28" fill="#c8b898" stroke="#333" stroke-width="1"/>
<polygon points="270.00,356.41 290.00,321.77 310.00,356.41 350.00,356.41 330.00,391.05 350.00,425.69 310.00,425.69 290.00,460.33 270.00,425.69 230.00,425.69 250.00,391.05 230.00,356.41" fill="#c8b898" stroke="#333" stroke-width="1"/>
<polygon points="170.00,321.77 190.00,287.13 210.00,321.77 250.00,321.77 230.00,356.41 250.00,391.05 210.00,391.05 190.00,425.69 170.00,391.05 130.00,391.05 150.00,356.41 130.00,321.77" fill="#c8b898" stroke="#333" stroke-width="1"/>
<polygon points="70.00,287.13 90.00,252.49 110.00,287.13 150.00,287.13 130.00,321.77 150.00,356.41 110.00,356.41 90.00,391.05 70.00,356.41 30.00,356.41 50.00,321.77 30.00,287.13" fill="#c8b898" stroke="#333" stroke-width="1"/>
<polygon points="350.00,287.13 370.00,252.49 390.00,287.13 430.00,287.13 410.00,321.77 430.00,356.41 390.00,356.41 370.00,391.05 350.00,356.41 310.00,356.41 330.00,321.77 310.00,287.13" fill="#c8b898" stroke="#333" stroke-width="1"/>
<polygon points="250.00,252.49 270.00,217.85 290.00,252.49 330.00,252.49 310.00,287.13 330.00,321.77 290.00,321.77 270.00,356.41 250.00,321.77 210.00,321.77 230.00,287.13 210.00,252.49" fill="#c8b898" stroke="#333" stroke-width="1"/>
<polygon points="150.00,217.85 170.00,183.21 190.00,217.85 230.00,217.85 210.00,252.49 230.00,287.13 190.00,287.13 170.00,321.77 150.00,287.13 110.00,287.13 130.00,252.49 110.00,217.85" fill="#c8b898" stroke="#333" stroke-width="1"/>
<polygon points="430.00,217.85 450.00,183.21 470.00,217.85 510.00,217.85 490.00,252.49 510.00,287.13 470.00,287.13 450.00,321.77 430.00,287.13 390.00,287.13 410.00,252.49 390.00,217.85" fill="#c8b898" stroke="#333" stroke-width="1"/>
<polygon points="330.00,183.21 350.00,148.56 370.00,183.21 410.00,183.21 390.00,217.85 410.00,252.49 370.00,252.49 350.00,287.13 330.00,252.49 290.00,252.49 310.00,217.85 290.00,183.21" fill="#c8b898" stroke="#333" stroke-width="1"/>
<polygon points="230.00,148.56 250.00,113.92 270.00,148.56 310.00,148.56 290.00,183.21 310.00,217.85 270.00,217.85 250.00,252.49 230.00,217.85 190.00,217.85 210.00,183.21 190.00,148.56" fill="#c8b898" stroke="#333" stroke-width="1"/>
<polygon points="310.00,356.41 330.00,321.77 310.00,287.13 350.00,287.13 370.00,252.49 390.00,287.13 430.00,287.13 410.00,321.77 430.00,356.41 390.00,356.41 370.00,391.05 350.00,356.41" fill="#c8b898" stroke="#333" stroke-width="1"/>
<polygon points="210.00,321.77 230.00,287.13 210.00,252.49 250.00,252.49 270.00,217.85 290.00,252.49 330.00,252.49 310.00,287.13 330.00,321.77 290.00,321.77 270.00,356.41 250.00,321.77" fill="#c8b898" stroke="#333" stroke-width="1"/>
<polygon points="110.00,287.13 130.00,252.49 110.00,217.85 150.00,217.85 170.00,183.21 190.00,217.85 230.00,217.85 210.00,252.49 230.00,287.13 190.00,287.13 170.00,321.77 150.00,287.13" fill="#c8b898" stroke="#333" stroke-width="1"/>
<polygon points="390.00,287.13 410.00,252.49 390.00,217.85 430.00,217.85 450.00,183.21 470.00,217.85 510.00,217.85 490.00,252.49 510.00,287.13 470.00,287.13 450.00,321.77 430.00,287.13" fill="#c8b898" stroke="#333" stroke-width="1"/>
<polygon points="290.00,252.49 310.00,217.85 290.00,183.21 330.00,183.21 350.00,148.56 370.00,183.21 410.00,183.21 390.00,217.85 410.00,252.49 370.00,252.49 350.00,287.13 330.00,252.49" fill="#c8b898" stroke="#333" stroke-width="1"/>
<polygon points="190.00,217.85 210.00,183.21 190.00,148.56 230.00,148.56 250.00,113.92 270.00,148.56 310.00,148.56 290.00,183.21 310.00,217.85 270.00,217.85 250.00,252.49 230.00,217.85" fill="#c8b898" stroke="#333" stroke-width="1"/>
<polygon points="470.00,217.85 490.00,183.21 470.00,148.56 510.00,148.56 530.00,113.92 550.00,148.56 590.00,148.56 570.00,183.21 590.00,217.85 550.00,217.85 530.00,252.49 510.00,217.85" fill="#c8b898" stroke="#333" stroke-width="1"/>
<polygon points="370.00,183.21 390.00,148.56 370.00,113.92 410.00,113.92 430.00,79.28 450.00,113.92 490.00,113.92 470.00,148.56 490.00,183.21 450.00,183.21 430.00,217.85 410.00,183.21" fill="#c8b898" stroke="#333" stroke-width="1"/>
<polygon points="270.00,148.56 290.00,113.92 270.00,79.28 310.00,79.28 330.00,44.64 350.00,79.28 390.00,79.28 370.00,113.92 390.00,148.56 350.00,148.56 330.00,183.21 310.00,148.56" fill="#c8b898" stroke="#333" stroke-width="1"/>
<polygon points="250.00,321.77 270.00,356.41 230.00,356.41" fill="#88b0d8" stroke="#333" stroke-width="1"/>
<polygon points="150.00,287.13 170.00,321.77 130.00,321.77" fill="#88b0d8" stroke="#333" stroke-width="1"/>
<polygon points="50.00,252.49 70.00,287.13 30.00,287.13" fill="#88b0d8" stroke="#333" stroke-width="1"/>
<polygon points="330.00,252.49 350.00,287.13 310.00,287.13" fill="#88b0d8" stroke="#333" stroke-width="1"/>
<polygon points="230.00,217.85 250.00,252.49 210.00,252.49" fill="#88b0d8" stroke="#333" stroke-width="1"/>
<polygon points="130.00,183.21 150.00,217.85 110.00,217.85" fill="#88b0d8" stroke="#333" stroke-width="1"/>
<polygon points="410.00,183.21 430.00,217.85 390.00,217.85" fill="#88b0d8" stroke="#333" stroke-width="1"/>
<polygon points="310.00,148.56 330.00,183.21 290.00,183.21" fill="#88b0d8" stroke="#333" stroke-width="1"/>
<polygon points="210.00,113.92 230.00,148.56 190.00,148.56" fill="#88b0d8" stroke="#333" stroke-width="1"/>
<polygon points="310.00,287.13 330.00,252.49 350.00,287.13" fill="#88b0d8" stroke="#333" stroke-width="1"/>
<polygon points="210.00,252.49 230.00,217.85 250.00,252.49" fill="#88b0d8" stroke="#333" stroke-width="1"/>
<polygon points="110.00,217.85 130.00,183.21 150.00,217.85" fill="#88b0d8" stroke="#333" stroke-width="1"/>
<polygon points="390.00,217.85 410.00,183.21 430.00,217.85" fill="#88b0d8" stroke="#333" stroke-width="1"/>
<polygon points="290.00,183.21 310.00,148.56 330.00,183.21" fill="#88b0d8" stroke="#333" stroke-width="1"/>
<polygon points="190.00,148.56 210.00,113.92 230.00,148.56" fill="#88b0d8" stroke="#333" stroke-width="1"/>
<polygon points="470.00,148.56 490.00,113.92 510.00,148.56" fill="#88b0d8" stroke="#333" stroke-width="1"/>
<polygon points="370.00,113.92 390.00,79.28 410.00,113.92" fill="#88b0d8" stroke="#333" stroke-width="1"/>
<polygon points="270.00,79.28 290.00,44.64 310.00,79.28" fill="#88b0d8" stroke="#333" stroke-width="1"/>
<text x="10" y="482" font-family="monospace" font-size="12">(6*d16,6*p4,3)F</text>
</svg>
