<svg xmlns="http://www.w3.org/2000/svg" width="412" height="376">
<rect width="100%" height="100%" fill="white"/>
<polygon points="79.28,79.28 119.28,79.28 99.28,113.92" fill="#88b0d8" stroke="#333" stroke-width="1"/>
<polygon points="153.92,88.56 193.92,88.56 173.92,123.21" fill="#88b0d8" stroke="#333" stroke-width="1"/>
<polygon points="228.56,97.85 268.56,97.85 248.56,132.49" fill="#88b0d8" stroke="#333" stroke-width="1"/>
<polygon points="108.56,148.56 148.56,148.56 128.56,183.21" fill="#88b0d8" stroke="#333" stroke-width="1"/>
<polygon points="183.21,157.85 223.21,157.85 203.21,192.49" fill="#88b0d8" stroke="#333" stroke-width="1"/>
<polygon points="257.85,167.13 297.85,167.13 277.85,201.77" fill="#88b0d8" stroke="#333" stroke-width="1"/>
<polygon points="137.85,217.85 177.85,217.85 157.85,252.49" fill="#88b0d8" stroke="#333" stroke-width="1"/>
<polygon points="212.49,227.13 252.49,227.13 232.49,261.77" fill="#88b0d8" stroke="#333" stroke-width="1"/>
<polygon points="287.13,236.41 327.13,236.41 307.13,271.05" fill="#88b0d8" stroke="#333" stroke-width="1"/>
<polygon points="119.28,79.28 79.28,79.28 79.28,119.28 59.28,84.64 24.64,104.64 44.64,70.00 10.00,50.00 50.00,50.00 50.00,10.00 70.00,44.64 104.64,24.64 84.64,59.28" fill="#98c8b0" stroke="#333" stroke-width="1"/>
<polygon points="193.92,88.56 153.92,88.56 153.92,128.56 133.92,93.92 99.28,113.92 119.28,79.28 84.64,59.28 124.64,59.28 124.64,19.28 144.64,53.92 179.28,33.92 159.28,68.56" fill="#98c8b0" stroke="#333" stroke-width="1"/>
<polygon points="268.56,97.85 228.56,97.85 228.56,137.85 208.56,103.21 173.92,123.21 193.92,88.56 159.28,68.56 199.28,68.56 199.28,28.56 219.28,63.21 253.92,43.21 233.92,77.85" fill="#98c8b0" stroke="#333" stroke-width="1"/>
<polygon points="148.56,148.56 108.56,148.56 108.56,188.56 88.56,153.92 53.92,173.92 73.92,139.28 39.28,119.28 79.28,119.28 79.28,79.28 99.28,113.92 133.92,93.92 113.92,128.56" fill="#98c8b0" stroke="#333" stroke-width="1"/>
<polygon points="223.21,157.85 183.21,157.85 183.21,197.85 163.21,163.21 128.56,183.21 148.56,148.56 113.92,128.56 153.92,128.56 153.92,88.56 173.92,123.21 208.56,103.21 188.56,137.85" fill="#98c8b0" stroke="#333" stroke-width="1"/>
<polygon points="297.85,167.13 257.85,167.13 257.85,207.13 237.85,172.49 203.21,192.49 223.21,157.85 188.56,137.85 228.56,137.85 228.56,97.85 248.56,132.49 283.21,112.49 263.21,147.13" fill="#98c8b0" stroke="#333" stroke-width="1"/>
<polygon points="177.85,217.85 137.85,217.85 137.85,257.85 117.85,223.21 83.21,243.21 103.21,208.56 68.56,188.56 108.56,188.56 108.56,148.56 128.56,183.21 163.21,163.21 143.21,197.85" fill="#98c8b0" stroke="#333" stroke-width="1"/>
<polygon points="252.49,227.13 212.49,227.13 212.49,267.13 192.49,232.49 157.85,252.49 177.85,217.85 143.21,197.85 183.21,197.85 183.21,157.85 203.21,192.49 237.85,172.49 217.85,207.13" fill="#98c8b0" stroke="#333" stroke-width="1"/>
<polygon points="327.13,236.41 287.13,236.41 287.13,276.41 267.13,241.77 232.49,261.77 252.49,227.13 217.85,207.13 257.85,207.13 257.85,167.13 277.85,201.77 312.49,181.77 292.49,216.41" fill="#98c8b0" stroke="#333" stroke-width="1"/>
<polygon points="79.28,119.28 79.28,79.28 99.28,113.92 133.92,93.92 113.92,128.56 148.56,148.56 108.56,148.56 108.56,188.56 88.56,153.92 53.92,173.92 73.92,139.28 39.28,119.28" fill="#98c8b0" stroke="#333" stroke-width="1"/>
<polygon points="153.92,128.56 153.92,88.56 173.92,123.21 208.56,103.21 188.56,137.85 223.21,157.85 183.21,157.85 183.21,197.85 163.21,163.21 128.56,183.21 148.56,148.56 113.92,128.56" fill="#98c8b0" stroke="#333" stroke-width="1"/>
<polygon points="228.56,137.85 228.56,97.85 248.56,132.49 283.21,112.49 263.21,147.13 297.85,167.13 257.85,167.13 257.85,207.13 237.85,172.49 203.21,192.49 223.21,157.85 188.56,137.85" fill="#98c8b0" stroke="#333" stroke-width="1"/>
<polygon points="108.56,188.56 108.56,148.56 128.56,183.21 163.21,163.21 143.21,197.85 177.85,217.85 137.85,217.85 137.85,257.85 117.85,223.21 83.21,243.21 103.21,208.56 68.56,188.56" fill="#98c8b0" stroke="#333" stroke-width="1"/>
<polygon points="183.21,197.85 183.21,157.85 203.21,192.49 237.85,172.49 217.85,207.13 252.49,227.13 212.49,227.13 212.49,267.13 192.49,232.49 157.85,252.49 177.85,217.85 143.21,197.85" fill="#98c8b0" stroke="#333" stroke-width="1"/>
<polygon points="257.85,207.13 257.85,167.13 277.85,201.77 312.49,181.77 292.49,216.41 327.13,236.41 287.13,236.41 287.13,276.41 267.13,241.77 232.49,261.77 252.49,227.13 217.85,207.13" fill="#98c8b0" stroke="#333" stroke-width="1"/>
<polygon points="137.85,257.85 137.85,217.85 157.85,252.49 192.49,232.49 172.49,267.13 207.13,287.13 167.13,287.13 167.13,327.13 147.13,292.49 112.49,312.49 132.49,277.85 97.85,257.85" fill="#98c8b0" stroke="#333" stroke-width="1"/>
<polygon points="212.49,267.13 212.49,227.13 232.49,261.77 267.13,241.77 247.13,276.41 281.77,296.41 241.77,296.41 241.77,336.41 221.77,301.77 187.13,321.77 207.13,287.13 172.49,267.13" fill="#98c8b0" stroke="#333" stroke-width="1"/>
<polygon points="287.13,276.41 287.13,236.41 307.13,271.05 341.77,251.05 321.77,285.69 356.41,305.69 316.41,305.69 316.41,345.69 296.41,311.05 261.77,331.05 281.77,296.41 247.13,276.41" fill="#98c8b0" stroke="#333" stroke-width="1"/>
<polygon points="99.28,113.92 119.28,79.28 84.64,59.28 124.64,59.28 124.64,19.28 144.64,53.92 179.28,33.92 159.28,68.56 193.92,88.56 153.92,88.56 153.92,128.56 133.92,93.92" fill="#98c8b0" stroke="#333" stroke-width="1"/>
<polygon points="173.92,123.21 193.92,88.56 159.28,68.56 199.28,68.56 199.28,28.56 219.28,63.21 253.92,43.21 233.92,77.85 268.56,97.85 228.56,97.85 228.56,137.85 208.56,103.21" fill="#98c8b0" stroke="#333" stroke-width="1"/>
<polygon points="248.56,132.49 268.56,97.85 233.92,77.85 273.92,77.85 273.92,37.85 293.92,72.49 328.56,52.49 308.56,87.13 343.21,107.13 303.21,107.13 303.21,147.13 283.21,112.49" fill="#98c8b0" stroke="#333" stroke-width="1"/>
<polygon points="128.56,183.21 148.56,148.56 113.92,128.56 153.92,128.56 153.92,88.56 173.92,123.21 208.56,103.21 188.56,137.85 223.21,157.85 183.21,157.85 183.21,197.85 163.21,163.21" fill="#98c8b0" stroke="#333" stroke-width="1"/>
<polygon points="203.21,192.49 223.21,157.85 188.56,137.85 228.56,137.85 228.56,97.85 248.56,132.49 283.21,112.49 263.21,147.13 297.85,167.13 257.85,167.13 257.85,207.13 237.85,172.49" fill="#98c8b0" stroke="#333" stroke-width="1"/>
<polygon points="277.85,201.77 297.85,167.13 263.21,147.13 303.21,147.13 303.21,107.13 323.21,141.77 357.85,121.77 337.85,156.41 372.49,176.41 332.49,176.41 332.49,216.41 312.49,181.77" fill="#98c8b0" stroke="#333" stroke-width="1"/>
<polygon points="157.85,252.49 177.85,217.85 143.21,197.85 183.21,197.85 183.21,157.85 203.21,192.49 237.85,172.49 217.85,207.13 252.49,227.13 212.49,227.13 212.49,267.13 192.49,232.49" fill="#98c8b0" stroke="#333" stroke-width="1"/>
<polygon points="232.49,261.77 252.49,227.13 217.85,207.13 257.85,207.13 257.85,167.13 277.85,201.77 312.49,181.77 292.49,216.41 327.13,236.41 287.13,236.41 287.13,276.41 267.13,241.77" fill="#98c8b0" stroke="#333" stroke-width="1"/>
<polygon points="307.13,271.05 327.13,236.41 292.49,216.41 332.49,216.41 332.49,176.41 352.49,211.05 387.13,191.05 367.13,225.69 401.77,245.69 361.77,245.69 361.77,285.69 341.77,251.05" fill="#98c8b0" stroke="#333" stroke-width="1"/>
<polygon points="59.28,84.64 79.28,119.28 39.28,119.28" fill="#88b0d8" stroke="#333" stroke-width="1"/>
<polygon points="133.92,93.92 153.92,128.56 113.92,128.56" fill="#88b0d8" stroke="#333" stroke-width="1"/>
<polygon points="208.56,103.21 228.56,137.85 188.56,137.85" fill="#88b0d8" stroke="#333" stroke-width="1"/>
<polygon points="88.56,153.92 108.56,188.56 68.56,188.56" fill="#88b0d8" stroke="#333" stroke-width="1"/>
<polygon points="163.21,163.21 183.21,197.85 143.21,197.85" fill="#88b0d8" stroke="#333" stroke-width="1"/>
<polygon points="237.85,172.49 257.85,207.13 217.85,207.13" fill="#88b0d8" stroke="#333" stroke-width="1"/>
<polygon points="117.85,223.21 137.85,257.85 97.85,257.85" fill="#88b0d8" stroke="#333" stroke-width="1"/>
<polygon points="192.49,232.49 212.49,267.13 172.49,267.13" fill="#88b0d8" stroke="#333" stroke-width="1"/>
<polygon points="267.13,241.77 287.13,276.41 247.13,276.41" fill="#88b0d8" stroke="#333" stroke-width="1"/>
<polygon points="84.64,59.28 104.64,24.64 124.64,59.28" fill="#88b0d8" stroke="#333" stroke-width="1"/>
<polygon points="159.28,68.56 179.28,33.92 199.28,68.56" fill="#88b0d8" stroke="#333" stroke-width="1"/>
<polygon points="233.92,77.85 253.92,43.21 273.92,77.85" fill="#88b0d8" stroke="#333" stroke-width="1"/>
<polygon points="113.92,128.56 133.92,93.92 153.92,128.56" fill="#88b0d8" stroke="#333" stroke-width="1"/>
<polygon points="188.56,137.85 208.56,103.21 228.56,137.85" fill="#88b0d8" stroke="#333" stroke-width="1"/>
<polygon points="263.21,147.13 283.21,112.49 303.21,147.13" fill="#88b0d8" stroke="#333" stroke-width="1"/>
<polygon points="143.21,197.85 163.21,163.21 183.21,197.85" fill="#88b0d8" stroke="#333" stroke-width="1"/>
<polygon points="217.85,207.13 237.85,172.49 257.85,207.13" fill="#88b0d8" stroke="#333" stroke-width="1"/>
<polygon points="292.49,216.41 312.49,181.77 332.49,216.41" fill="#88b0d8" stroke="#333" stroke-width="1"/>
<text x="10" y="368" font-family="monospace" font-size="12">(6*d18,6*p2,3)F</text>
</svg>
