<svg xmlns="http://www.w3.org/2000/svg" width="526" height="478">
<rect width="100%" height="100%" fill="white"/>
<polygon points="243.14,106.57 283.14,106.57 283.14,146.57 243.14,146.57" fill="#e8c268" stroke="#333" stroke-width="1"/>
<polygon points="174.85,174.85 214.85,174.85 214.85,214.85 174.85,214.85" fill="#e8c268" stroke="#333" stroke-width="1"/>
<polygon points="106.57,243.14 146.57,243.14 146.57,283.14 106.57,283.14" fill="#e8c268" stroke="#333" stroke-width="1"/>
<polygon points="311.42,174.85 351.42,174.85 351.42,214.85 311.42,214.85" fill="#e8c268" stroke="#333" stroke-width="1"/>
<polygon points="243.14,243.14 283.14,243.14 283.14,283.14 243.14,283.14" fill="#e8c268" stroke="#333" stroke-width="1"/>
<polygon points="174.85,311.42 214.85,311.42 214.85,351.42 174.85,351.42" fill="#e8c268" stroke="#333" stroke-width="1"/>
<polygon points="379.71,243.14 419.71,243.14 419.71,283.14 379.71,283.14" fill="#e8c268" stroke="#333" stroke-width="1"/>
<polygon points="311.42,311.42 351.42,311.42 351.42,351.42 311.42,351.42" fill="#e8c268" stroke="#333" stroke-width="1"/>
<polygon points="243.14,379.71 283.14,379.71 283.14,419.71 243.14,419.71" fill="#e8c268" stroke="#333" stroke-width="1"/>
<polygon points="283.14,106.57 243.14,106.57 214.85,78.28 214.85,38.28 243.14,10.00 283.14,10.00 311.42,38.28 311.42,78.28" fill="#d89898" stroke="#333" stroke-width="1"/>
<polygon points="214.85,174.85 174.85,174.85 146.57,146.57 146.57,106.57 174.85,78.28 214.85,78.28 243.14,106.57 243.14,146.57" fill="#d89898" stroke="#333" stroke-width="1"/>
<polygon points="146.57,243.14 106.57,243.14 78.28,214.85 78.28,174.85 106.57,146.57 146.57,146.57 174.85,174.85 174.85,214.85" fill="#d89898" stroke="#333" stroke-width="1"/>
<polygon points="351.42,174.85 311.42,174.85 283.14,146.57 283.14,106.57 311.42,78.28 351.42,78.28 379.71,106.57 379.71,146.57" fill="#d89898" stroke="#333" stroke-width="1"/>
<polygon points="283.14,243.14 243.14,243.14 214.85,214.85 214.85,174.85 243.14,146.57 283.14,146.57 311.42,174.85 311.42,214.85" fill="#d89898" stroke="#333" stroke-width="1"/>
<polygon points="214.85,311.42 174.85,311.42 146.57,283.14 146.57,243.14 174.85,214.85 214.85,214.85 243.14,243.14 243.14,283.14" fill="#d89898" stroke="#333" stroke-width="1"/>
<polygon points="419.71,243.14 379.71,243.14 351.42,214.85 351.42,174.85 379.71,146.57 419.71,146.57 447.99,174.85 447.99,214.85" fill="#d89898" stroke="#333" stroke-width="1"/>
<polygon points="351.42,311.42 311.42,311.42 283.14,283.14 283.14,243.14 311.42,214.85 351.42,214.85 379.71,243.14 379.71,283.14" fill="#d89898" stroke="#333" stroke-width="1"/>
<polygon points="283.14,379.71 243.14,379.71 214.85,351.42 214.85,311.42 243.14,283.14 283.14,283.14 311.42,311.42 311.42,351.42" fill="#d89898" stroke="#333" stroke-width="1"/>
<polygon points="214.85,78.28 243.14,106.57 243.14,146.57 214.85,174.85 174.85,174.85 146.57,146.57 146.57,106.57 174.85,78.28" fill="#d89898" stroke="#333" stroke-width="1"/>
<polygon points="146.57,146.57 174.85,174.85 174.85,214.85 146.57,243.14 106.57,243.14 78.28,214.85 78.28,174.85 106.57,146.57" fill="#d89898" stroke="#333" stroke-width="1"/>
<polygon points="78.28,214.85 106.57,243.14 106.57,283.14 78.28,311.42 38.28,311.42 10.00,283.14 10.00,243.14 38.28,214.85" fill="#d89898" stroke="#333" stroke-width="1"/>
<polygon points="283.14,146.57 311.42,174.85 311.42,214.85 283.14,243.14 243.14,243.14 214.85,214.85 214.85,174.85 243.14,146.57" fill="#d89898" stroke="#333" stroke-width="1"/>
<polygon points="214.85,214.85 243.14,243.14 243.14,283.14 214.85,311.42 174.85,311.42 146.57,283.14 146.57,243.14 174.85,214.85" fill="#d89898" stroke="#333" stroke-width="1"/>
<polygon points="146.57,283.14 174.85,311.42 174.85,351.42 146.57,379.71 106.57,379.71 78.28,351.42 78.28,311.42 106.57,283.14" fill="#d89898" stroke="#333" stroke-width="1"/>
<polygon points="351.42,214.85 379.71,243.14 379.71,283.14 351.42,311.42 311.42,311.42 283.14,283.14 283.14,243.14 311.42,214.85" fill="#d89898" stroke="#333" stroke-width="1"/>
<polygon points="283.14,283.14 311.42,311.42 311.42,351.42 283.14,379.71 243.14,379.71 214.85,351.42 214.85,311.42 243.14,283.14" fill="#d89898" stroke="#333" stroke-width="1"/>
<polygon points="214.85,351.42 243.14,379.71 243.14,419.71 214.85,447.99 174.85,447.99 146.57,419.71 146.57,379.71 174.85,351.42" fill="#d89898" stroke="#333" stroke-width="1"/>
<polygon points="283.14,146.57 283.14,106.57 311.42,78.28 351.42,78.28 379.71,106.57 379.71,146.57 351.42,174.85 311.42,174.85" fill="#d89898" stroke="#333" stroke-width="1"/>
<polygon points="214.85,214.85 214.85,174.85 243.14,146.57 283.14,146.57 311.42,174.85 311.42,214.85 283.14,243.14 243.14,243.14" fill="#d89898" stroke="#333" stroke-width="1"/>
<polygon points="146.57,283.14 146.57,243.14 174.85,214.85 214.85,214.85 243.14,243.14 243.14,283.14 214.85,311.42 174.85,311.42" fill="#d89898" stroke="#333" stroke-width="1"/>
<polygon points="351.42,214.85 351.42,174.85 379.71,146.57 419.71,146.57 447.99,174.85 447.99,214.85 419.71,243.14 379.71,243.14" fill="#d89898" stroke="#333" stroke-width="1"/>
<polygon points="283.14,283.14 283.14,243.14 311.42,214.85 351.42,214.85 379.71,243.14 379.71,283.14 351.42,311.42 311.42,311.42" fill="#d89898" stroke="#333" stroke-width="1"/>
<polygon points="214.85,351.42 214.85,311.42 243.14,283.14 283.14,283.14 311.42,311.42 311.42,351.42 283.14,379.71 243.14,379.71" fill="#d89898" stroke="#333" stroke-width="1"/>
<polygon points="419.71,283.14 419.71,243.14 447.99,214.85 487.99,214.85 516.27,243.14 516.27,283.14 487.99,311.42 447.99,311.42" fill="#d89898" stroke="#333" stroke-width="1"/>
<polygon points="351.42,351.42 351.42,311.42 379.71,283.14 419.71,283.14 447.99,311.42 447.99,351.42 419.71,379.71 379.71,379.71" fill="#d89898" stroke="#333" stroke-width="1"/>
<polygon points="283.14,419.71 283.14,379.71 311.42,351.42 351.42,351.42 379.71,379.71 379.71,419.71 351.42,447.99 311.42,447.99" fill="#d89898" stroke="#333" stroke-width="1"/>
<polygon points="214.85,78.28 174.85,78.28 174.85,38.28 214.85,38.28" fill="#e8c268" stroke="#333" stroke-width="1"/>
<polygon points="146.57,146.57 106.57,146.57 106.57,106.57 146.57,106.57" fill="#e8c268" stroke="#333" stroke-width="1"/>
<polygon points="78.28,214.85 38.28,214.85 38.28,174.85 78.28,174.85" fill="#e8c268" stroke="#333" stroke-width="1"/>
<polygon points="283.14,146.57 243.14,146.57 243.14,106.57 283.14,106.57" fill="#e8c268" stroke="#333" stroke-width="1"/>
<polygon points="214.85,214.85 174.85,214.85 174.85,174.85 214.85,174.85" fill="#e8c268" stroke="#333" stroke-width="1"/>
<polygon points="146.57,283.14 106.57,283.14 106.57,243.14 146.57,243.14" fill="#e8c268" stroke="#333" stroke-width="1"/>
<polygon points="351.42,214.85 311.42,214.85 311.42,174.85 351.42,174.85" fill="#e8c268" stroke="#333" stroke-width="1"/>
<polygon points="283.14,283.14 243.14,283.14 243.14,243.14 283.14,243.14" fill="#e8c268" stroke="#333" stroke-width="1"/>
<polygon points="214.85,351.42 174.85,351.42 174.85,311.42 214.85,311.42" fill="#e8c268" stroke="#333" stroke-width="1"/>
<text x="10" y="470" font-family="monospace" font-size="12">(8,8,4)A</text>
</svg>
