<svg xmlns="http://www.w3.org/2000/svg" width="270" height="261">
<rect width="100%" height="100%" fill="white"/>
<polygon points="38.28,54.99 78.28,54.99 58.28,89.63" fill="#88b0d8" stroke="#333" stroke-width="1"/>
<polygon points="86.57,61.35 126.57,61.35 106.57,95.99" fill="#88b0d8" stroke="#333" stroke-width="1"/>
<polygon points="134.85,67.71 174.85,67.71 154.85,102.35" fill="#88b0d8" stroke="#333" stroke-width="1"/>
<polygon points="56.92,99.99 96.92,99.99 76.92,134.63" fill="#88b0d8" stroke="#333" stroke-width="1"/>
<polygon points="105.21,106.34 145.21,106.34 125.21,140.99" fill="#88b0d8" stroke="#333" stroke-width="1"/>
<polygon points="153.49,112.70 193.49,112.70 173.49,147.34" fill="#88b0d8" stroke="#333" stroke-width="1"/>
<polygon points="75.56,144.98 115.56,144.98 95.56,179.62" fill="#88b0d8" stroke="#333" stroke-width="1"/>
<polygon points="123.84,151.34 163.84,151.34 143.84,185.98" fill="#88b0d8" stroke="#333" stroke-width="1"/>
<polygon points="172.13,157.69 212.13,157.69 192.13,192.34" fill="#88b0d8" stroke="#333" stroke-width="1"/>
<polygon points="78.28,54.99 38.28,54.99 10.00,83.28 30.00,48.64 19.65,10.00 39.65,44.64" fill="#7fc4c4" stroke="#333" stroke-width="1"/>
<polygon points="126.57,61.35 86.57,61.35 58.28,89.63 78.28,54.99 67.93,16.36 87.93,51.00" fill="#7fc4c4" stroke="#333" stroke-width="1"/>
<polygon points="174.85,67.71 134.85,67.71 106.57,95.99 126.57,61.35 116.22,22.71 136.22,57.35" fill="#7fc4c4" stroke="#333" stroke-width="1"/>
<polygon points="96.92,99.99 56.92,99.99 28.64,128.27 48.64,93.63 38.28,54.99 58.28,89.63" fill="#7fc4c4" stroke="#333" stroke-width="1"/>
<polygon points="145.21,106.34 105.21,106.34 76.92,134.63 96.92,99.99 86.57,61.35 106.57,95.99" fill="#7fc4c4" stroke="#333" stroke-width="1"/>
<polygon points="193.49,112.70 153.49,112.70 125.21,140.99 145.21,106.34 134.85,67.71 154.85,102.35" fill="#7fc4c4" stroke="#333" stroke-width="1"/>
<polygon points="115.56,144.98 75.56,144.98 47.27,173.27 67.27,138.62 56.92,99.99 76.92,134.63" fill="#7fc4c4" stroke="#333" stroke-width="1"/>
<polygon points="163.84,151.34 123.84,151.34 95.56,179.62 115.56,144.98 105.21,106.34 125.21,140.99" fill="#7fc4c4" stroke="#333" stroke-width="1"/>
<polygon points="212.13,157.69 172.13,157.69 143.84,185.98 163.84,151.34 153.49,112.70 173.49,147.34" fill="#7fc4c4" stroke="#333" stroke-width="1"/>
<polygon points="10.00,83.28 38.28,54.99 48.64,93.63" fill="#88b0d8" stroke="#333" stroke-width="1"/>
<polygon points="58.28,89.63 86.57,61.35 96.92,99.99" fill="#88b0d8" stroke="#333" stroke-width="1"/>
<polygon points="106.57,95.99 134.85,67.71 145.21,106.34" fill="#88b0d8" stroke="#333" stroke-width="1"/>
<polygon points="28.64,128.27 56.92,99.99 67.27,138.62" fill="#88b0d8" stroke="#333" stroke-width="1"/>
<polygon points="76.92,134.63 105.21,106.34 115.56,144.98" fill="#88b0d8" stroke="#333" stroke-width="1"/>
<polygon points="125.21,140.99 153.49,112.70 163.84,151.34" fill="#88b0d8" stroke="#333" stroke-width="1"/>
<polygon points="47.27,173.27 75.56,144.98 85.91,183.62" fill="#88b0d8" stroke="#333" stroke-width="1"/>
<polygon points="95.56,179.62 123.84,151.34 134.20,189.98" fill="#88b0d8" stroke="#333" stroke-width="1"/>
<polygon points="143.84,185.98 172.13,157.69 182.48,196.33" fill="#88b0d8" stroke="#333" stroke-width="1"/>
<polygon points="48.64,93.63 38.28,54.99 58.28,89.63 96.92,99.99 56.92,99.99 28.64,128.27" fill="#7fc4c4" stroke="#333" stroke-width="1"/>
<polygon points="96.92,99.99 86.57,61.35 106.57,95.99 145.21,106.34 105.21,106.34 76.92,134.63" fill="#7fc4c4" stroke="#333" stroke-width="1"/>
<polygon points="145.21,106.34 134.85,67.71 154.85,102.35 193.49,112.70 153.49,112.70 125.21,140.99" fill="#7fc4c4" stroke="#333" stroke-width="1"/>
<polygon points="67.27,138.62 56.92,99.99 76.92,134.63 115.56,144.98 75.56,144.98 47.27,173.27" fill="#7fc4c4" stroke="#333" stroke-width="1"/>
<polygon points="115.56,144.98 105.21,106.34 125.21,140.99 163.84,151.34 123.84,151.34 95.56,179.62" fill="#7fc4c4" stroke="#333" stroke-width="1"/>
<polygon points="163.84,151.34 153.49,112.70 173.49,147.34 212.13,157.69 172.13,157.69 143.84,185.98" fill="#7fc4c4" stroke="#333" stroke-width="1"/>
<polygon points="85.91,183.62 75.56,144.98 95.56,179.62 134.20,189.98 94.20,189.98 65.91,218.26" fill="#7fc4c4" stroke="#333" stroke-width="1"/>
<polygon points="134.20,189.98 123.84,151.34 143.84,185.98 182.48,196.33 142.48,196.33 114.20,224.62" fill="#7fc4c4" stroke="#333" stroke-width="1"/>
<polygon points="182.48,196.33 172.13,157.69 192.13,192.34 230.76,202.69 190.76,202.69 162.48,230.97" fill="#7fc4c4" stroke="#333" stroke-width="1"/>
<polygon points="58.28,89.63 78.28,54.99 67.93,16.36 87.93,51.00 126.57,61.35 86.57,61.35" fill="#7fc4c4" stroke="#333" stroke-width="1"/>
<polygon points="106.57,95.99 126.57,61.35 116.22,22.71 136.22,57.35 174.85,67.71 134.85,67.71" fill="#7fc4c4" stroke="#333" stroke-width="1"/>
<polygon points="154.85,102.35 174.85,67.71 164.50,29.07 184.50,63.71 223.14,74.06 183.14,74.06" fill="#7fc4c4" stroke="#333" stroke-width="1"/>
<polygon points="76.92,134.63 96.92,99.99 86.57,61.35 106.57,95.99 145.21,106.34 105.21,106.34" fill="#7fc4c4" stroke="#333" stroke-width="1"/>
<polygon points="125.21,140.99 145.21,106.34 134.85,67.71 154.85,102.35 193.49,112.70 153.49,112.70" fill="#7fc4c4" stroke="#333" stroke-width="1"/>
<polygon points="173.49,147.34 193.49,112.70 183.14,74.06 203.14,108.71 241.77,119.06 201.77,119.06" fill="#7fc4c4" stroke="#333" stroke-width="1"/>
<polygon points="95.56,179.62 115.56,144.98 105.21,106.34 125.21,140.99 163.84,151.34 123.84,151.34" fill="#7fc4c4" stroke="#333" stroke-width="1"/>
<polygon points="143.84,185.98 163.84,151.34 153.49,112.70 173.49,147.34 212.13,157.69 172.13,157.69" fill="#7fc4c4" stroke="#333" stroke-width="1"/>
<polygon points="192.13,192.34 212.13,157.69 201.77,119.06 221.77,153.70 260.41,164.05 220.41,164.05" fill="#7fc4c4" stroke="#333" stroke-width="1"/>
<polygon points="78.28,54.99 39.65,44.64 67.93,16.36" fill="#88b0d8" stroke="#333" stroke-width="1"/>
<polygon points="126.57,61.35 87.93,51.00 116.22,22.71" fill="#88b0d8" stroke="#333" stroke-width="1"/>
<polygon points="174.85,67.71 136.22,57.35 164.50,29.07" fill="#88b0d8" stroke="#333" stroke-width="1"/>
<polygon points="96.92,99.99 58.28,89.63 86.57,61.35" fill="#88b0d8" stroke="#333" stroke-width="1"/>
<polygon points="145.21,106.34 106.57,95.99 134.85,67.71" fill="#88b0d8" stroke="#333" stroke-width="1"/>
<polygon points="193.49,112.70 154.85,102.35 183.14,74.06" fill="#88b0d8" stroke="#333" stroke-width="1"/>
<polygon points="115.56,144.98 76.92,134.63 105.21,106.34" fill="#88b0d8" stroke="#333" stroke-width="1"/>
<polygon points="163.84,151.34 125.21,140.99 153.49,112.70" fill="#88b0d8" stroke="#333" stroke-width="1"/>
<polygon points="212.13,157.69 173.49,147.34 201.77,119.06" fill="#88b0d8" stroke="#333" stroke-width="1"/>
<text x="10" y="253" font-family="monospace" font-size="12">(3*d15,3,3*p1,3)A</text>
</svg>
