<svg xmlns="http://www.w3.org/2000/svg" width="180" height="200">
<rect width="100%" height="100%" fill="white"/>
<polygon points="50.00,130.00 90.00,130.00 90.00,170.00 50.00,170.00" fill="#e8c268" stroke="#333" stroke-width="1"/>
<polygon points="90.00,130.00 130.00,130.00 130.00,170.00 90.00,170.00" fill="#e8c268" stroke="#333" stroke-width="1"/>
<polygon points="130.00,130.00 170.00,130.00 170.00,170.00 130.00,170.00" fill="#e8c268" stroke="#333" stroke-width="1"/>
<polygon points="50.00,90.00 90.00,90.00 90.00,130.00 50.00,130.00" fill="#e8c268" stroke="#333" stroke-width="1"/>
<polygon points="90.00,90.00 130.00,90.00 130.00,130.00 90.00,130.00" fill="#e8c268" stroke="#333" stroke-width="1"/>
<polygon points="130.00,90.00 170.00,90.00 170.00,130.00 130.00,130.00" fill="#e8c268" stroke="#333" stroke-width="1"/>
<polygon points="50.00,50.00 90.00,50.00 90.00,90.00 50.00,90.00" fill="#e8c268" stroke="#333" stroke-width="1"/>
<polygon points="90.00,50.00 130.00,50.00 130.00,90.00 90.00,90.00" fill="#e8c268" stroke="#333" stroke-width="1"/>
<polygon points="130.00,50.00 170.00,50.00 170.00,90.00 130.00,90.00" fill="#e8c268" stroke="#333" stroke-width="1"/>
<polygon points="90.00,130.00 50.00,130.00 50.00,90.00 90.00,90.00" fill="#e8c268" stroke="#333" stroke-width="1"/>
<polygon points="130.00,130.00 90.00,130.00 90.00,90.00 130.00,90.00" fill="#e8c268" stroke="#333" stroke-width="1"/>
<polygon points="170.00,130.00 130.00,130.00 130.00,90.00 170.00,90.00" fill="#e8c268" stroke="#333" stroke-width="1"/>
<polygon points="90.00,90.00 50.00,90.00 50.00,50.00 90.00,50.00" fill="#e8c268" stroke="#333" stroke-width="1"/>
<polygon points="130.00,90.00 90.00,90.00 90.00,50.00 130.00,50.00" fill="#e8c268" stroke="#333" stroke-width="1"/>
<polygon points="170.00,90.00 130.00,90.00 130.00,50.00 170.00,50.00" fill="#e8c268" stroke="#333" stroke-width="1"/>
<polygon points="90.00,50.00 50.00,50.00 50.00,10.00 90.00,10.00" fill="#e8c268" stroke="#333" stroke-width="1"/>
<polygon points="130.00,50.00 90.00,50.00 90.00,10.00 130.00,10.00" fill="#e8c268" stroke="#333" stroke-width="1"/>
<polygon points="170.00,50.00 130.00,50.00 130.00,10.00 170.00,10.00" fill="#e8c268" stroke="#333" stroke-width="1"/>
<polygon points="50.00,90.00 50.00,130.00 10.00,130.00 10.00,90.00" fill="#e8c268" stroke="#333" stroke-width="1"/>
<polygon points="90.00,90.00 90.00,130.00 50.00,130.00 50.00,90.00" fill="#e8c268" stroke="#333" stroke-width="1"/>
<polygon points="130.00,90.00 130.00,130.00 90.00,130.00 90.00,90.00" fill="#e8c268" stroke="#333" stroke-width="1"/>
<polygon points="50.00,50.00 50.00,90.00 10.00,90.00 10.00,50.00" fill="#e8c268" stroke="#333" stroke-width="1"/>
<polygon points="90.00,50.00 90.00,90.00 50.00,90.00 50.00,50.00" fill="#e8c268" stroke="#333" stroke-width="1"/>
<polygon points="130.00,50.00 130.00,90.00 90.00,90.00 90.00,50.00" fill="#e8c268" stroke="#333" stroke-width="1"/>
<polygon points="50.00,10.00 50.00,50.00 10.00,50.00 10.00,10.00" fill="#e8c268" stroke="#333" stroke-width="1"/>
<polygon points="90.00,10.00 90.00,50.00 50.00,50.00 50.00,10.00" fill="#e8c268" stroke="#333" stroke-width="1"/>
<polygon points="130.00,10.00 130.00,50.00 90.00,50.00 90.00,10.00" fill="#e8c268" stroke="#333" stroke-width="1"/>
<text x="10" y="192" font-family="monospace" font-size="12">(4,4,4,4)S4</text>
</svg>
