<svg xmlns="http://www.w3.org/2000/svg" width="420" height="317">
<rect width="100%" height="100%" fill="white"/>
<polygon points="150.00,217.85 190.00,217.85 170.00,252.49" fill="#88b0d8" stroke="#333" stroke-width="1"/>
<polygon points="230.00,217.85 270.00,217.85 250.00,252.49" fill="#88b0d8" stroke="#333" stroke-width="1"/>
<polygon points="310.00,217.85 350.00,217.85 330.00,252.49" fill="#88b0d8" stroke="#333" stroke-width="1"/>
<polygon points="110.00,148.56 150.00,148.56 130.00,183.21" fill="#88b0d8" stroke="#333" stroke-width="1"/>
<polygon points="190.00,148.56 230.00,148.56 210.00,183.21" fill="#88b0d8" stroke="#333" stroke-width="1"/>
<polygon points="270.00,148.56 310.00,148.56 290.00,183.21" fill="#88b0d8" stroke="#333" stroke-width="1"/>
<polygon points="70.00,79.28 110.00,79.28 90.00,113.92" fill="#88b0d8" stroke="#333" stroke-width="1"/>
<polygon points="150.00,79.28 190.00,79.28 170.00,113.92" fill="#88b0d8" stroke="#333" stroke-width="1"/>
<polygon points="230.00,79.28 270.00,79.28 250.00,113.92" fill="#88b0d8" stroke="#333" stroke-width="1"/>
<polygon points="190.00,217.85 150.00,217.85 130.00,183.21 150.00,148.56 190.00,148.56 210.00,183.21" fill="#9ecf9e" stroke="#333" stroke-width="1"/>
<polygon points="270.00,217.85 230.00,217.85 210.00,183.21 230.00,148.56 270.00,148.56 290.00,183.21" fill="#9ecf9e" stroke="#333" stroke-width="1"/>
<polygon points="350.00,217.85 310.00,217.85 290.00,183.21 310.00,148.56 350.00,148.56 370.00,183.21" fill="#9ecf9e" stroke="#333" stroke-width="1"/>
<polygon points="150.00,148.56 110.00,148.56 90.00,113.92 110.00,79.28 150.00,79.28 170.00,113.92" fill="#9ecf9e" stroke="#333" stroke-width="1"/>
<polygon points="230.00,148.56 190.00,148.56 170.00,113.92 190.00,79.28 230.00,79.28 250.00,113.92" fill="#9ecf9e" stroke="#333" stroke-width="1"/>
<polygon points="310.00,148.56 270.00,148.56 250.00,113.92 270.00,79.28 310.00,79.28 330.00,113.92" fill="#9ecf9e" stroke="#333" stroke-width="1"/>
<polygon points="110.00,79.28 70.00,79.28 50.00,44.64 70.00,10.00 110.00,10.00 130.00,44.64" fill="#9ecf9e" stroke="#333" stroke-width="1"/>
<polygon points="190.00,79.28 150.00,79.28 130.00,44.64 150.00,10.00 190.00,10.00 210.00,44.64" fill="#9ecf9e" stroke="#333" stroke-width="1"/>
<polygon points="270.00,79.28 230.00,79.28 210.00,44.64 230.00,10.00 270.00,10.00 290.00,44.64" fill="#9ecf9e" stroke="#333" stroke-width="1"/>
<polygon points="130.00,183.21 150.00,217.85 110.00,217.85" fill="#88b0d8" stroke="#333" stroke-width="1"/>
<polygon points="210.00,183.21 230.00,217.85 190.00,217.85" fill="#88b0d8" stroke="#333" stroke-width="1"/>
<polygon points="290.00,183.21 310.00,217.85 270.00,217.85" fill="#88b0d8" stroke="#333" stroke-width="1"/>
<polygon points="90.00,113.92 110.00,148.56 70.00,148.56" fill="#88b0d8" stroke="#333" stroke-width="1"/>
<polygon points="170.00,113.92 190.00,148.56 150.00,148.56" fill="#88b0d8" stroke="#333" stroke-width="1"/>
<polygon points="250.00,113.92 270.00,148.56 230.00,148.56" fill="#88b0d8" stroke="#333" stroke-width="1"/>
<polygon points="50.00,44.64 70.00,79.28 30.00,79.28" fill="#88b0d8" stroke="#333" stroke-width="1"/>
<polygon points="130.00,44.64 150.00,79.28 110.00,79.28" fill="#88b0d8" stroke="#333" stroke-width="1"/>
<polygon points="210.00,44.64 230.00,79.28 190.00,79.28" fill="#88b0d8" stroke="#333" stroke-width="1"/>
<polygon points="110.00,217.85 150.00,217.85 170.00,252.49 150.00,287.13 110.00,287.13 90.00,252.49" fill="#9ecf9e" stroke="#333" stroke-width="1"/>
<polygon points="190.00,217.85 230.00,217.85 250.00,252.49 230.00,287.13 190.00,287.13 170.00,252.49" fill="#9ecf9e" stroke="#333" stroke-width="1"/>
<polygon points="270.00,217.85 310.00,217.85 330.00,252.49 310.00,287.13 270.00,287.13 250.00,252.49" fill="#9ecf9e" stroke="#333" stroke-width="1"/>
<polygon points="70.00,148.56 110.00,148.56 130.00,183.21 110.00,217.85 70.00,217.85 50.00,183.21" fill="#9ecf9e" stroke="#333" stroke-width="1"/>
<polygon points="150.00,148.56 190.00,148.56 210.00,183.21 190.00,217.85 150.00,217.85 130.00,183.21" fill="#9ecf9e" stroke="#333" stroke-width="1"/>
<polygon points="230.00,148.56 270.00,148.56 290.00,183.21 270.00,217.85 230.00,217.85 210.00,183.21" fill="#9ecf9e" stroke="#333" stroke-width="1"/>
<polygon points="30.00,79.28 70.00,79.28 90.00,113.92 70.00,148.56 30.00,148.56 10.00,113.92" fill="#9ecf9e" stroke="#333" stroke-width="1"/>
<polygon points="110.00,79.28 150.00,79.28 170.00,113.92 150.00,148.56 110.00,148.56 90.00,113.92" fill="#9ecf9e" stroke="#333" stroke-width="1"/>
<polygon points="190.00,79.28 230.00,79.28 250.00,113.92 230.00,148.56 190.00,148.56 170.00,113.92" fill="#9ecf9e" stroke="#333" stroke-width="1"/>
<polygon points="170.00,252.49 190.00,217.85 230.00,217.85 250.00,252.49 230.00,287.13 190.00,287.13" fill="#9ecf9e" stroke="#333" stroke-width="1"/>
<polygon points="250.00,252.49 270.00,217.85 310.00,217.85 330.00,252.49 310.00,287.13 270.00,287.13" fill="#9ecf9e" stroke="#333" stroke-width="1"/>
<polygon points="330.00,252.49 350.00,217.85 390.00,217.85 410.00,252.49 390.00,287.13 350.00,287.13" fill="#9ecf9e" stroke="#333" stroke-width="1"/>
<polygon points="130.00,183.21 150.00,148.56 190.00,148.56 210.00,183.21 190.00,217.85 150.00,217.85" fill="#9ecf9e" stroke="#333" stroke-width="1"/>
<polygon points="210.00,183.21 230.00,148.56 270.00,148.56 290.00,183.21 270.00,217.85 230.00,217.85" fill="#9ecf9e" stroke="#333" stroke-width="1"/>
<polygon points="290.00,183.21 310.00,148.56 350.00,148.56 370.00,183.21 350.00,217.85 310.00,217.85" fill="#9ecf9e" stroke="#333" stroke-width="1"/>
<polygon points="90.00,113.92 110.00,79.28 150.00,79.28 170.00,113.92 150.00,148.56 110.00,148.56" fill="#9ecf9e" stroke="#333" stroke-width="1"/>
<polygon points="170.00,113.92 190.00,79.28 230.00,79.28 250.00,113.92 230.00,148.56 190.00,148.56" fill="#9ecf9e" stroke="#333" stroke-width="1"/>
<polygon points="250.00,113.92 270.00,79.28 310.00,79.28 330.00,113.92 310.00,148.56 270.00,148.56" fill="#9ecf9e" stroke="#333" stroke-width="1"/>
<polygon points="190.00,217.85 210.00,183.21 230.00,217.85" fill="#88b0d8" stroke="#333" stroke-width="1"/>
<polygon points="270.00,217.85 290.00,183.21 310.00,217.85" fill="#88b0d8" stroke="#333" stroke-width="1"/>
<polygon points="350.00,217.85 370.00,183.21 390.00,217.85" fill="#88b0d8" stroke="#333" stroke-width="1"/>
<polygon points="150.00,148.56 170.00,113.92 190.00,148.56" fill="#88b0d8" stroke="#333" stroke-width="1"/>
<polygon points="230.00,148.56 250.00,113.92 270.00,148.56" fill="#88b0d8" stroke="#333" stroke-width="1"/>
<polygon points="310.00,148.56 330.00,113.92 350.00,148.56" fill="#88b0d8" stroke="#333" stroke-width="1"/>
<polygon points="110.00,79.28 130.00,44.64 150.00,79.28" fill="#88b0d8" stroke="#333" stroke-width="1"/>
<polygon points="190.00,79.28 210.00,44.64 230.00,79.28" fill="#88b0d8" stroke="#333" stroke-width="1"/>
<polygon points="270.00,79.28 290.00,44.64 310.00,79.28" fill="#88b0d8" stroke="#333" stroke-width="1"/>
<text x="10" y="309" font-family="monospace" font-size="12">(6,3,6,3)S2</text>
</svg>
