<svg xmlns="http://www.w3.org/2000/svg" width="339" height="379">
<rect width="100%" height="100%" fill="white"/>
<polygon points="64.64,253.92 104.64,253.92 84.64,288.56" fill="#88b0d8" stroke="#333" stroke-width="1"/>
<polygon points="139.28,273.92 179.28,273.92 159.28,308.56" fill="#88b0d8" stroke="#333" stroke-width="1"/>
<polygon points="213.92,293.92 253.92,293.92 233.92,328.56" fill="#88b0d8" stroke="#333" stroke-width="1"/>
<polygon points="84.64,179.28 124.64,179.28 104.64,213.92" fill="#88b0d8" stroke="#333" stroke-width="1"/>
<polygon points="159.28,199.28 199.28,199.28 179.28,233.92" fill="#88b0d8" stroke="#333" stroke-width="1"/>
<polygon points="233.92,219.28 273.92,219.28 253.92,253.92" fill="#88b0d8" stroke="#333" stroke-width="1"/>
<polygon points="104.64,104.64 144.64,104.64 124.64,139.28" fill="#88b0d8" stroke="#333" stroke-width="1"/>
<polygon points="179.28,124.64 219.28,124.64 199.28,159.28" fill="#88b0d8" stroke="#333" stroke-width="1"/>
<polygon points="253.92,144.64 293.92,144.64 273.92,179.28" fill="#88b0d8" stroke="#333" stroke-width="1"/>
<polygon points="104.64,253.92 64.64,253.92 64.64,213.92 104.64,213.92" fill="#e8c268" stroke="#333" stroke-width="1"/>
<polygon points="179.28,273.92 139.28,273.92 139.28,233.92 179.28,233.92" fill="#e8c268" stroke="#333" stroke-width="1"/>
<polygon points="253.92,293.92 213.92,293.92 213.92,253.92 253.92,253.92" fill="#e8c268" stroke="#333" stroke-width="1"/>
<polygon points="124.64,179.28 84.64,179.28 84.64,139.28 124.64,139.28" fill="#e8c268" stroke="#333" stroke-width="1"/>
<polygon points="199.28,199.28 159.28,199.28 159.28,159.28 199.28,159.28" fill="#e8c268" stroke="#333" stroke-width="1"/>
<polygon points="273.92,219.28 233.92,219.28 233.92,179.28 273.92,179.28" fill="#e8c268" stroke="#333" stroke-width="1"/>
<polygon points="144.64,104.64 104.64,104.64 104.64,64.64 144.64,64.64" fill="#e8c268" stroke="#333" stroke-width="1"/>
<polygon points="219.28,124.64 179.28,124.64 179.28,84.64 219.28,84.64" fill="#e8c268" stroke="#333" stroke-width="1"/>
<polygon points="293.92,144.64 253.92,144.64 253.92,104.64 293.92,104.64" fill="#e8c268" stroke="#333" stroke-width="1"/>
<polygon points="64.64,213.92 64.64,253.92 30.00,233.92" fill="#88b0d8" stroke="#333" stroke-width="1"/>
<polygon points="139.28,233.92 139.28,273.92 104.64,253.92" fill="#88b0d8" stroke="#333" stroke-width="1"/>
<polygon points="213.92,253.92 213.92,293.92 179.28,273.92" fill="#88b0d8" stroke="#333" stroke-width="1"/>
<polygon points="84.64,139.28 84.64,179.28 50.00,159.28" fill="#88b0d8" stroke="#333" stroke-width="1"/>
<polygon points="159.28,159.28 159.28,199.28 124.64,179.28" fill="#88b0d8" stroke="#333" stroke-width="1"/>
<polygon points="233.92,179.28 233.92,219.28 199.28,199.28" fill="#88b0d8" stroke="#333" stroke-width="1"/>
<polygon points="104.64,64.64 104.64,104.64 70.00,84.64" fill="#88b0d8" stroke="#333" stroke-width="1"/>
<polygon points="179.28,84.64 179.28,124.64 144.64,104.64" fill="#88b0d8" stroke="#333" stroke-width="1"/>
<polygon points="253.92,104.64 253.92,144.64 219.28,124.64" fill="#88b0d8" stroke="#333" stroke-width="1"/>
<polygon points="30.00,233.92 64.64,253.92 44.64,288.56 10.00,268.56" fill="#e8c268" stroke="#333" stroke-width="1"/>
<polygon points="104.64,253.92 139.28,273.92 119.28,308.56 84.64,288.56" fill="#e8c268" stroke="#333" stroke-width="1"/>
<polygon points="179.28,273.92 213.92,293.92 193.92,328.56 159.28,308.56" fill="#e8c268" stroke="#333" stroke-width="1"/>
<polygon points="50.00,159.28 84.64,179.28 64.64,213.92 30.00,193.92" fill="#e8c268" stroke="#333" stroke-width="1"/>
<polygon points="124.64,179.28 159.28,199.28 139.28,233.92 104.64,213.92" fill="#e8c268" stroke="#333" stroke-width="1"/>
<polygon points="199.28,199.28 233.92,219.28 213.92,253.92 179.28,233.92" fill="#e8c268" stroke="#333" stroke-width="1"/>
<polygon points="70.00,84.64 104.64,104.64 84.64,139.28 50.00,119.28" fill="#e8c268" stroke="#333" stroke-width="1"/>
<polygon points="144.64,104.64 179.28,124.64 159.28,159.28 124.64,139.28" fill="#e8c268" stroke="#333" stroke-width="1"/>
<polygon points="219.28,124.64 253.92,144.64 233.92,179.28 199.28,159.28" fill="#e8c268" stroke="#333" stroke-width="1"/>
<polygon points="44.64,288.56 64.64,253.92 84.64,288.56" fill="#88b0d8" stroke="#333" stroke-width="1"/>
<polygon points="119.28,308.56 139.28,273.92 159.28,308.56" fill="#88b0d8" stroke="#333" stroke-width="1"/>
<polygon points="193.92,328.56 213.92,293.92 233.92,328.56" fill="#88b0d8" stroke="#333" stroke-width="1"/>
<polygon points="64.64,213.92 84.64,179.28 104.64,213.92" fill="#88b0d8" stroke="#333" stroke-width="1"/>
<polygon points="139.28,233.92 159.28,199.28 179.28,233.92" fill="#88b0d8" stroke="#333" stroke-width="1"/>
<polygon points="213.92,253.92 233.92,219.28 253.92,253.92" fill="#88b0d8" stroke="#333" stroke-width="1"/>
<polygon points="84.64,139.28 104.64,104.64 124.64,139.28" fill="#88b0d8" stroke="#333" stroke-width="1"/>
<polygon points="159.28,159.28 179.28,124.64 199.28,159.28" fill="#88b0d8" stroke="#333" stroke-width="1"/>
<polygon points="233.92,179.28 253.92,144.64 273.92,179.28" fill="#88b0d8" stroke="#333" stroke-width="1"/>
<polygon points="84.64,288.56 104.64,253.92 139.28,273.92 119.28,308.56" fill="#e8c268" stroke="#333" stroke-width="1"/>
<polygon points="159.28,308.56 179.28,273.92 213.92,293.92 193.92,328.56" fill="#e8c268" stroke="#333" stroke-width="1"/>
<polygon points="233.92,328.56 253.92,293.92 288.56,313.92 268.56,348.56" fill="#e8c268" stroke="#333" stroke-width="1"/>
<polygon points="104.64,213.92 124.64,179.28 159.28,199.28 139.28,233.92" fill="#e8c268" stroke="#333" stroke-width="1"/>
<polygon points="179.28,233.92 199.28,199.28 233.92,219.28 213.92,253.92" fill="#e8c268" stroke="#333" stroke-width="1"/>
<polygon points="253.92,253.92 273.92,219.28 308.56,239.28 288.56,273.92" fill="#e8c268" stroke="#333" stroke-width="1"/>
<polygon points="124.64,139.28 144.64,104.64 179.28,124.64 159.28,159.28" fill="#e8c268" stroke="#333" stroke-width="1"/>
<polygon points="199.28,159.28 219.28,124.64 253.92,144.64 233.92,179.28" fill="#e8c268" stroke="#333" stroke-width="1"/>
<polygon points="273.92,179.28 293.92,144.64 328.56,164.64 308.56,199.28" fill="#e8c268" stroke="#333" stroke-width="1"/>
<polygon points="104.64,253.92 139.28,233.92 139.28,273.92" fill="#88b0d8" stroke="#333" stroke-width="1"/>
<polygon points="179.28,273.92 213.92,253.92 213.92,293.92" fill="#88b0d8" stroke="#333" stroke-width="1"/>
<polygon points="253.92,293.92 288.56,273.92 288.56,313.92" fill="#88b0d8" stroke="#333" stroke-width="1"/>
<polygon points="124.64,179.28 159.28,159.28 159.28,199.28" fill="#88b0d8" stroke="#333" stroke-width="1"/>
<polygon points="199.28,199.28 233.92,179.28 233.92,219.28" fill="#88b0d8" stroke="#333" stroke-width="1"/>
<polygon points="273.92,219.28 308.56,199.28 308.56,239.28" fill="#88b0d8" stroke="#333" stroke-width="1"/>
<polygon points="144.64,104.64 179.28,84.64 179.28,124.64" fill="#88b0d8" stroke="#333" stroke-width="1"/>
<polygon points="219.28,124.64 253.92,104.64 253.92,144.64" fill="#88b0d8" stroke="#333" stroke-width="1"/>
<polygon points="293.92,144.64 328.56,124.64 328.56,164.64" fill="#88b0d8" stroke="#333" stroke-width="1"/>
<polygon points="139.28,233.92 104.64,253.92 104.64,213.92" fill="#88b0d8" stroke="#333" stroke-width="1"/>
<polygon points="213.92,253.92 179.28,273.92 179.28,233.92" fill="#88b0d8" stroke="#333" stroke-width="1"/>
<polygon points="288.56,273.92 253.92,293.92 253.92,253.92" fill="#88b0d8" stroke="#333" stroke-width="1"/>
<polygon points="159.28,159.28 124.64,179.28 124.64,139.28" fill="#88b0d8" stroke="#333" stroke-width="1"/>
<polygon points="233.92,179.28 199.28,199.28 199.28,159.28" fill="#88b0d8" stroke="#333" stroke-width="1"/>
<polygon points="308.56,199.28 273.92,219.28 273.92,179.28" fill="#88b0d8" stroke="#333" stroke-width="1"/>
<polygon points="179.28,84.64 144.64,104.64 144.64,64.64" fill="#88b0d8" stroke="#333" stroke-width="1"/>
<polygon points="253.92,104.64 219.28,124.64 219.28,84.64" fill="#88b0d8" stroke="#333" stroke-width="1"/>
<polygon points="328.56,124.64 293.92,144.64 293.92,104.64" fill="#88b0d8" stroke="#333" stroke-width="1"/>
<polygon points="104.64,213.92 64.64,213.92 84.64,179.28" fill="#88b0d8" stroke="#333" stroke-width="1"/>
<polygon points="179.28,233.92 139.28,233.92 159.28,199.28" fill="#88b0d8" stroke="#333" stroke-width="1"/>
<polygon points="253.92,253.92 213.92,253.92 233.92,219.28" fill="#88b0d8" stroke="#333" stroke-width="1"/>
<polygon points="124.64,139.28 84.64,139.28 104.64,104.64" fill="#88b0d8" stroke="#333" stroke-width="1"/>
<polygon points="199.28,159.28 159.28,159.28 179.28,124.64" fill="#88b0d8" stroke="#333" stroke-width="1"/>
<polygon points="273.92,179.28 233.92,179.28 253.92,144.64" fill="#88b0d8" stroke="#333" stroke-width="1"/>
<polygon points="144.64,64.64 104.64,64.64 124.64,30.00" fill="#88b0d8" stroke="#333" stroke-width="1"/>
<polygon points="219.28,84.64 179.28,84.64 199.28,50.00" fill="#88b0d8" stroke="#333" stroke-width="1"/>
<polygon points="293.92,104.64 253.92,104.64 273.92,70.00" fill="#88b0d8" stroke="#333" stroke-width="1"/>
<polygon points="64.64,213.92 30.00,193.92 50.00,159.28 84.64,179.28" fill="#e8c268" stroke="#333" stroke-width="1"/>
<polygon points="139.28,233.92 104.64,213.92 124.64,179.28 159.28,199.28" fill="#e8c268" stroke="#333" stroke-width="1"/>
<polygon points="213.92,253.92 179.28,233.92 199.28,199.28 233.92,219.28" fill="#e8c268" stroke="#333" stroke-width="1"/>
<polygon points="84.64,139.28 50.00,119.28 70.00,84.64 104.64,104.64" fill="#e8c268" stroke="#333" stroke-width="1"/>
<polygon points="159.28,159.28 124.64,139.28 144.64,104.64 179.28,124.64" fill="#e8c268" stroke="#333" stroke-width="1"/>
<polygon points="233.92,179.28 199.28,159.28 219.28,124.64 253.92,144.64" fill="#e8c268" stroke="#333" stroke-width="1"/>
<polygon points="104.64,64.64 70.00,44.64 90.00,10.00 124.64,30.00" fill="#e8c268" stroke="#333" stroke-width="1"/>
<polygon points="179.28,84.64 144.64,64.64 164.64,30.00 199.28,50.00" fill="#e8c268" stroke="#333" stroke-width="1"/>
<polygon points="253.92,104.64 219.28,84.64 239.28,50.00 273.92,70.00" fill="#e8c268" stroke="#333" stroke-width="1"/>
<polygon points="30.00,193.92 64.64,213.92 30.00,233.92" fill="#88b0d8" stroke="#333" stroke-width="1"/>
<polygon points="104.64,213.92 139.28,233.92 104.64,253.92" fill="#88b0d8" stroke="#333" stroke-width="1"/>
<polygon points="179.28,233.92 213.92,253.92 179.28,273.92" fill="#88b0d8" stroke="#333" stroke-width="1"/>
<polygon points="50.00,119.28 84.64,139.28 50.00,159.28" fill="#88b0d8" stroke="#333" stroke-width="1"/>
<polygon points="124.64,139.28 159.28,159.28 124.64,179.28" fill="#88b0d8" stroke="#333" stroke-width="1"/>
<polygon points="199.28,159.28 233.92,179.28 199.28,199.28" fill="#88b0d8" stroke="#333" stroke-width="1"/>
<polygon points="70.00,44.64 104.64,64.64 70.00,84.64" fill="#88b0d8" stroke="#333" stroke-width="1"/>
<polygon points="144.64,64.64 179.28,84.64 144.64,104.64" fill="#88b0d8" stroke="#333" stroke-width="1"/>
<polygon points="219.28,84.64 253.92,104.64 219.28,124.64" fill="#88b0d8" stroke="#333" stroke-width="1"/>
<text x="10" y="371" font-family="monospace" font-size="12">(4,3,4,3,3)A</text>
</svg>
