<svg xmlns="http://www.w3.org/2000/svg" width="560" height="386">
<rect width="100%" height="100%" fill="white"/>
<polygon points="310.00,287.13 350.00,287.13 330.00,321.77" fill="#88b0d8" stroke="#333" stroke-width="1"/>
<polygon points="210.00,252.49 250.00,252.49 230.00,287.13" fill="#88b0d8" stroke="#333" stroke-width="1"/>
<polygon points="110.00,217.85 150.00,217.85 130.00,252.49" fill="#88b0d8" stroke="#333" stroke-width="1"/>
<polygon points="390.00,217.85 430.00,217.85 410.00,252.49" fill="#88b0d8" stroke="#333" stroke-width="1"/>
<polygon points="290.00,183.21 330.00,183.21 310.00,217.85" fill="#88b0d8" stroke="#333" stroke-width="1"/>
<polygon points="190.00,148.56 230.00,148.56 210.00,183.21" fill="#88b0d8" stroke="#333" stroke-width="1"/>
<polygon points="470.00,148.56 510.00,148.56 490.00,183.21" fill="#88b0d8" stroke="#333" stroke-width="1"/>
<polygon points="370.00,113.92 410.00,113.92 390.00,148.56" fill="#88b0d8" stroke="#333" stroke-width="1"/>
<polygon points="270.00,79.28 310.00,79.28 290.00,113.92" fill="#88b0d8" stroke="#333" stroke-width="1"/>
<polygon points="350.00,287.13 310.00,287.13 290.00,252.49 310.00,217.85 350.00,217.85 370.00,252.49" fill="#9ecf9e" stroke="#333" stroke-width="1"/>
<polygon points="250.00,252.49 210.00,252.49 190.00,217.85 210.00,183.21 250.00,183.21 270.00,217.85" fill="#9ecf9e" stroke="#333" stroke-width="1"/>
<polygon points="150.00,217.85 110.00,217.85 90.00,183.21 110.00,148.56 150.00,148.56 170.00,183.21" fill="#9ecf9e" stroke="#333" stroke-width="1"/>
<polygon points="430.00,217.85 390.00,217.85 370.00,183.21 390.00,148.56 430.00,148.56 450.00,183.21" fill="#9ecf9e" stroke="#333" stroke-width="1"/>
<polygon points="330.00,183.21 290.00,183.21 270.00,148.56 290.00,113.92 330.00,113.92 350.00,148.56" fill="#9ecf9e" stroke="#333" stroke-width="1"/>
<polygon points="230.00,148.56 190.00,148.56 170.00,113.92 190.00,79.28 230.00,79.28 250.00,113.92" fill="#9ecf9e" stroke="#333" stroke-width="1"/>
<polygon points="510.00,148.56 470.00,148.56 450.00,113.92 470.00,79.28 510.00,79.28 530.00,113.92" fill="#9ecf9e" stroke="#333" stroke-width="1"/>
<polygon points="410.00,113.92 370.00,113.92 350.00,79.28 370.00,44.64 410.00,44.64 430.00,79.28" fill="#9ecf9e" stroke="#333" stroke-width="1"/>
<polygon points="310.00,79.28 270.00,79.28 250.00,44.64 270.00,10.00 310.00,10.00 330.00,44.64" fill="#9ecf9e" stroke="#333" stroke-width="1"/>
<polygon points="290.00,252.49 310.00,287.13 270.00,287.13" fill="#88b0d8" stroke="#333" stroke-width="1"/>
<polygon points="190.00,217.85 210.00,252.49 170.00,252.49" fill="#88b0d8" stroke="#333" stroke-width="1"/>
<polygon points="90.00,183.21 110.00,217.85 70.00,217.85" fill="#88b0d8" stroke="#333" stroke-width="1"/>
<polygon points="370.00,183.21 390.00,217.85 350.00,217.85" fill="#88b0d8" stroke="#333" stroke-width="1"/>
<polygon points="270.00,148.56 290.00,183.21 250.00,183.21" fill="#88b0d8" stroke="#333" stroke-width="1"/>
<polygon points="170.00,113.92 190.00,148.56 150.00,148.56" fill="#88b0d8" stroke="#333" stroke-width="1"/>
<polygon points="450.00,113.92 470.00,148.56 430.00,148.56" fill="#88b0d8" stroke="#333" stroke-width="1"/>
<polygon points="350.00,79.28 370.00,113.92 330.00,113.92" fill="#88b0d8" stroke="#333" stroke-width="1"/>
<polygon points="250.00,44.64 270.00,79.28 230.00,79.28" fill="#88b0d8" stroke="#333" stroke-width="1"/>
<polygon points="270.00,287.13 310.00,287.13 290.00,321.77" fill="#88b0d8" stroke="#333" stroke-width="1"/>
<polygon points="170.00,252.49 210.00,252.49 190.00,287.13" fill="#88b0d8" stroke="#333" stroke-width="1"/>
<polygon points="70.00,217.85 110.00,217.85 90.00,252.49" fill="#88b0d8" stroke="#333" stroke-width="1"/>
<polygon points="350.00,217.85 390.00,217.85 370.00,252.49" fill="#88b0d8" stroke="#333" stroke-width="1"/>
<polygon points="250.00,183.21 290.00,183.21 270.00,217.85" fill="#88b0d8" stroke="#333" stroke-width="1"/>
<polygon points="150.00,148.56 190.00,148.56 170.00,183.21" fill="#88b0d8" stroke="#333" stroke-width="1"/>
<polygon points="430.00,148.56 470.00,148.56 450.00,183.21" fill="#88b0d8" stroke="#333" stroke-width="1"/>
<polygon points="330.00,113.92 370.00,113.92 350.00,148.56" fill="#88b0d8" stroke="#333" stroke-width="1"/>
<polygon points="230.00,79.28 270.00,79.28 250.00,113.92" fill="#88b0d8" stroke="#333" stroke-width="1"/>
<polygon points="290.00,321.77 310.00,287.13 330.00,321.77" fill="#88b0d8" stroke="#333" stroke-width="1"/>
<polygon points="190.00,287.13 210.00,252.49 230.00,287.13" fill="#88b0d8" stroke="#333" stroke-width="1"/>
<polygon points="90.00,252.49 110.00,217.85 130.00,252.49" fill="#88b0d8" stroke="#333" stroke-width="1"/>
<polygon points="370.00,252.49 390.00,217.85 410.00,252.49" fill="#88b0d8" stroke="#333" stroke-width="1"/>
<polygon points="270.00,217.85 290.00,183.21 310.00,217.85" fill="#88b0d8" stroke="#333" stroke-width="1"/>
<polygon points="170.00,183.21 190.00,148.56 210.00,183.21" fill="#88b0d8" stroke="#333" stroke-width="1"/>
<polygon points="450.00,183.21 470.00,148.56 490.00,183.21" fill="#88b0d8" stroke="#333" stroke-width="1"/>
<polygon points="350.00,148.56 370.00,113.92 390.00,148.56" fill="#88b0d8" stroke="#333" stroke-width="1"/>
<polygon points="250.00,113.92 270.00,79.28 290.00,113.92" fill="#88b0d8" stroke="#333" stroke-width="1"/>
<polygon points="330.00,321.77 350.00,287.13 370.00,321.77" fill="#88b0d8" stroke="#333" stroke-width="1"/>
<polygon points="230.00,287.13 250.00,252.49 270.00,287.13" fill="#88b0d8" stroke="#333" stroke-width="1"/>
<polygon points="130.00,252.49 150.00,217.85 170.00,252.49" fill="#88b0d8" stroke="#333" stroke-width="1"/>
<polygon points="410.00,252.49 430.00,217.85 450.00,252.49" fill="#88b0d8" stroke="#333" stroke-width="1"/>
<polygon points="310.00,217.85 330.00,183.21 350.00,217.85" fill="#88b0d8" stroke="#333" stroke-width="1"/>
<polygon points="210.00,183.21 230.00,148.56 250.00,183.21" fill="#88b0d8" stroke="#333" stroke-width="1"/>
<polygon points="490.00,183.21 510.00,148.56 530.00,183.21" fill="#88b0d8" stroke="#333" stroke-width="1"/>
<polygon points="390.00,148.56 410.00,113.92 430.00,148.56" fill="#88b0d8" stroke="#333" stroke-width="1"/>
<polygon points="290.00,113.92 310.00,79.28 330.00,113.92" fill="#88b0d8" stroke="#333" stroke-width="1"/>
<polygon points="370.00,321.77 350.00,287.13 390.00,287.13" fill="#88b0d8" stroke="#333" stroke-width="1"/>
<polygon points="270.00,287.13 250.00,252.49 290.00,252.49" fill="#88b0d8" stroke="#333" stroke-width="1"/>
<polygon points="170.00,252.49 150.00,217.85 190.00,217.85" fill="#88b0d8" stroke="#333" stroke-width="1"/>
<polygon points="450.00,252.49 430.00,217.85 470.00,217.85" fill="#88b0d8" stroke="#333" stroke-width="1"/>
<polygon points="350.00,217.85 330.00,183.21 370.00,183.21" fill="#88b0d8" stroke="#333" stroke-width="1"/>
<polygon points="250.00,183.21 230.00,148.56 270.00,148.56" fill="#88b0d8" stroke="#333" stroke-width="1"/>
<polygon points="530.00,183.21 510.00,148.56 550.00,148.56" fill="#88b0d8" stroke="#333" stroke-width="1"/>
<polygon points="430.00,148.56 410.00,113.92 450.00,113.92" fill="#88b0d8" stroke="#333" stroke-width="1"/>
<polygon points="330.00,113.92 310.00,79.28 350.00,79.28" fill="#88b0d8" stroke="#333" stroke-width="1"/>
<polygon points="390.00,287.13 350.00,287.13 370.00,252.49" fill="#88b0d8" stroke="#333" stroke-width="1"/>
<polygon points="290.00,252.49 250.00,252.49 270.00,217.85" fill="#88b0d8" stroke="#333" stroke-width="1"/>
<polygon points="190.00,217.85 150.00,217.85 170.00,183.21" fill="#88b0d8" stroke="#333" stroke-width="1"/>
<polygon points="470.00,217.85 430.00,217.85 450.00,183.21" fill="#88b0d8" stroke="#333" stroke-width="1"/>
<polygon points="370.00,183.21 330.00,183.21 350.00,148.56" fill="#88b0d8" stroke="#333" stroke-width="1"/>
<polygon points="270.00,148.56 230.00,148.56 250.00,113.92" fill="#88b0d8" stroke="#333" stroke-width="1"/>
<polygon points="550.00,148.56 510.00,148.56 530.00,113.92" fill="#88b0d8" stroke="#333" stroke-width="1"/>
<polygon points="450.00,113.92 410.00,113.92 430.00,79.28" fill="#88b0d8" stroke="#333" stroke-width="1"/>
<polygon points="350.00,79.28 310.00,79.28 330.00,44.64" fill="#88b0d8" stroke="#333" stroke-width="1"/>
<polygon points="310.00,217.85 290.00,252.49 270.00,217.85" fill="#88b0d8" stroke="#333" stroke-width="1"/>
<polygon points="210.00,183.21 190.00,217.85 170.00,183.21" fill="#88b0d8" stroke="#333" stroke-width="1"/>
<polygon points="110.00,148.56 90.00,183.21 70.00,148.56" fill="#88b0d8" stroke="#333" stroke-width="1"/>
<polygon points="390.00,148.56 370.00,183.21 350.00,148.56" fill="#88b0d8" stroke="#333" stroke-width="1"/>
<polygon points="290.00,113.92 270.00,148.56 250.00,113.92" fill="#88b0d8" stroke="#333" stroke-width="1"/>
<polygon points="190.00,79.28 170.00,113.92 150.00,79.28" fill="#88b0d8" stroke="#333" stroke-width="1"/>
<polygon points="470.00,79.28 450.00,113.92 430.00,79.28" fill="#88b0d8" stroke="#333" stroke-width="1"/>
<polygon points="370.00,44.64 350.00,79.28 330.00,44.64" fill="#88b0d8" stroke="#333" stroke-width="1"/>
<polygon points="270.00,10.00 250.00,44.64 230.00,10.00" fill="#88b0d8" stroke="#333" stroke-width="1"/>
<polygon points="270.00,217.85 290.00,252.49 250.00,252.49" fill="#88b0d8" stroke="#333" stroke-width="1"/>
<polygon points="170.00,183.21 190.00,217.85 150.00,217.85" fill="#88b0d8" stroke="#333" stroke-width="1"/>
<polygon points="70.00,148.56 90.00,183.21 50.00,183.21" fill="#88b0d8" stroke="#333" stroke-width="1"/>
<polygon points="350.00,148.56 370.00,183.21 330.00,183.21" fill="#88b0d8" stroke="#333" stroke-width="1"/>
<polygon points="250.00,113.92 270.00,148.56 230.00,148.56" fill="#88b0d8" stroke="#333" stroke-width="1"/>
<polygon points="150.00,79.28 170.00,113.92 130.00,113.92" fill="#88b0d8" stroke="#333" stroke-width="1"/>
<polygon points="430.00,79.28 450.00,113.92 410.00,113.92" fill="#88b0d8" stroke="#333" stroke-width="1"/>
<polygon points="330.00,44.64 350.00,79.28 310.00,79.28" fill="#88b0d8" stroke="#333" stroke-width="1"/>
<polygon points="230.00,10.00 250.00,44.64 210.00,44.64" fill="#88b0d8" stroke="#333" stroke-width="1"/>
<polygon points="290.00,252.49 270.00,287.13 250.00,252.49" fill="#88b0d8" stroke="#333" stroke-width="1"/>
<polygon points="190.00,217.85 170.00,252.49 150.00,217.85" fill="#88b0d8" stroke="#333" stroke-width="1"/>
<polygon points="90.00,183.21 70.00,217.85 50.00,183.21" fill="#88b0d8" stroke="#333" stroke-width="1"/>
<polygon points="370.00,183.21 350.00,217.85 330.00,183.21" fill="#88b0d8" stroke="#333" stroke-width="1"/>
<polygon points="270.00,148.56 250.00,183.21 230.00,148.56" fill="#88b0d8" stroke="#333" stroke-width="1"/>
<polygon points="170.00,113.92 150.00,148.56 130.00,113.92" fill="#88b0d8" stroke="#333" stroke-width="1"/>
<polygon points="450.00,113.92 430.00,148.56 410.00,113.92" fill="#88b0d8" stroke="#333" stroke-width="1"/>
<polygon points="350.00,79.28 330.00,113.92 310.00,79.28" fill="#88b0d8" stroke="#333" stroke-width="1"/>
<polygon points="250.00,44.64 230.00,79.28 210.00,44.64" fill="#88b0d8" stroke="#333" stroke-width="1"/>
<polygon points="270.00,287.13 230.00,287.13 250.00,252.49" fill="#88b0d8" stroke="#333" stroke-width="1"/>
<polygon points="170.00,252.49 130.00,252.49 150.00,217.85" fill="#88b0d8" stroke="#333" stroke-width="1"/>
<polygon points="70.00,217.85 30.00,217.85 50.00,183.21" fill="#88b0d8" stroke="#333" stroke-width="1"/>
<polygon points="350.00,217.85 310.00,217.85 330.00,183.21" fill="#88b0d8" stroke="#333" stroke-width="1"/>
<polygon points="250.00,183.21 210.00,183.21 230.00,148.56" fill="#88b0d8" stroke="#333" stroke-width="1"/>
<polygon points="150.00,148.56 110.00,148.56 130.00,113.92" fill="#88b0d8" stroke="#333" stroke-width="1"/>
<polygon points="430.00,148.56 390.00,148.56 410.00,113.92" fill="#88b0d8" stroke="#333" stroke-width="1"/>
<polygon points="330.00,113.92 290.00,113.92 310.00,79.28" fill="#88b0d8" stroke="#333" stroke-width="1"/>
<polygon points="230.00,79.28 190.00,79.28 210.00,44.64" fill="#88b0d8" stroke="#333" stroke-width="1"/>
<polygon points="230.00,287.13 270.00,287.13 290.00,321.77 270.00,356.41 230.00,356.41 210.00,321.77" fill="#9ecf9e" stroke="#333" stroke-width="1"/>
<polygon points="130.00,252.49 170.00,252.49 190.00,287.13 170.00,321.77 130.00,321.77 110.00,287.13" fill="#9ecf9e" stroke="#333" stroke-width="1"/>
<polygon points="30.00,217.85 70.00,217.85 90.00,252.49 70.00,287.13 30.00,287.13 10.00,252.49" fill="#9ecf9e" stroke="#333" stroke-width="1"/>
<polygon points="310.00,217.85 350.00,217.85 370.00,252.49 350.00,287.13 310.00,287.13 290.00,252.49" fill="#9ecf9e" stroke="#333" stroke-width="1"/>
<polygon points="210.00,183.21 250.00,183.21 270.00,217.85 250.00,252.49 210.00,252.49 190.00,217.85" fill="#9ecf9e" stroke="#333" stroke-width="1"/>
<polygon points="110.00,148.56 150.00,148.56 170.00,183.21 150.00,217.85 110.00,217.85 90.00,183.21" fill="#9ecf9e" stroke="#333" stroke-width="1"/>
<polygon points="390.00,148.56 430.00,148.56 450.00,183.21 430.00,217.85 390.00,217.85 370.00,183.21" fill="#9ecf9e" stroke="#333" stroke-width="1"/>
<polygon points="290.00,113.92 330.00,113.92 350.00,148.56 330.00,183.21 290.00,183.21 270.00,148.56" fill="#9ecf9e" stroke="#333" stroke-width="1"/>
<polygon points="190.00,79.28 230.00,79.28 250.00,113.92 230.00,148.56 190.00,148.56 170.00,113.92" fill="#9ecf9e" stroke="#333" stroke-width="1"/>
<polygon points="290.00,321.77 330.00,321.77 310.00,356.41" fill="#88b0d8" stroke="#333" stroke-width="1"/>
<polygon points="190.00,287.13 230.00,287.13 210.00,321.77" fill="#88b0d8" stroke="#333" stroke-width="1"/>
<polygon points="90.00,252.49 130.00,252.49 110.00,287.13" fill="#88b0d8" stroke="#333" stroke-width="1"/>
<polygon points="370.00,252.49 410.00,252.49 390.00,287.13" fill="#88b0d8" stroke="#333" stroke-width="1"/>
<polygon points="270.00,217.85 310.00,217.85 290.00,252.49" fill="#88b0d8" stroke="#333" stroke-width="1"/>
<polygon points="170.00,183.21 210.00,183.21 190.00,217.85" fill="#88b0d8" stroke="#333" stroke-width="1"/>
<polygon points="450.00,183.21 490.00,183.21 470.00,217.85" fill="#88b0d8" stroke="#333" stroke-width="1"/>
<polygon points="350.00,148.56 390.00,148.56 370.00,183.21" fill="#88b0d8" stroke="#333" stroke-width="1"/>
<polygon points="250.00,113.92 290.00,113.92 270.00,148.56" fill="#88b0d8" stroke="#333" stroke-width="1"/>
<text x="10" y="378" font-family="monospace" font-size="12">(6,3,3,3,3)F</text>
</svg>
